<svg id="1786c3ae-d349-44ba-bf5a-98144cf8ca85" data-name="Layer 1" xmlns="http://www.w3.org/2000/svg" viewBox="0 0 720 564"><defs><style>.\38 955540f-feba-4e36-a2ed-3bd78e09c22a{fill:#d6d6d6;}</style></defs><title>desktop</title><rect class="8955540f-feba-4e36-a2ed-3bd78e09c22a" width="720" height="564"/><path d="M72.08,246.22a.7.7,0,0,1,.72-1h1.68a.82.82,0,0,1,.72.56l5.56,20.71h.16L87.6,245.3a.68.68,0,0,1,.68-.44H89a.72.72,0,0,1,.68.44l6.8,21.23h.16l5.43-20.71a.82.82,0,0,1,.72-.56h1.68a.7.7,0,0,1,.72,1l-7.55,26.87a.77.77,0,0,1-.72.56h-.64a.81.81,0,0,1-.68-.44l-6.92-21.63h-.2l-6.8,21.63a.81.81,0,0,1-.68.44h-.64a.77.77,0,0,1-.72-.56Z"/><path d="M108.92,246a.79.79,0,0,1,.76-.76h1.24a.79.79,0,0,1,.76.76v13a8.17,8.17,0,0,1,5.36-2.12c4,0,6.2,2.52,6.2,7.2v8.43a.79.79,0,0,1-.76.76H121.2a.79.79,0,0,1-.76-.76v-8.43c0-3-1.36-4.52-3.6-4.52a7.81,7.81,0,0,0-5.16,2.24v10.71a.79.79,0,0,1-.76.76h-1.24a.79.79,0,0,1-.76-.76Z"/><path d="M134,263.1a13.14,13.14,0,0,1,3.4.52c0-3-.32-4.32-2.6-4.32a14.07,14.07,0,0,0-4.8.88c-.4.16-.64,0-.76-.4l-.32-1a.64.64,0,0,1,.44-.88,15,15,0,0,1,5.56-1c4.08,0,5.08,2.08,5.08,6.76v8.87a.79.79,0,0,1-.76.76h-.76c-.44,0-.56-.24-.68-.6l-.32-1.08a6.94,6.94,0,0,1-5,2.08c-2.8,0-4.92-2-4.92-5.24C127.56,265.37,129.84,263.1,134,263.1Zm-1,8.15a5.67,5.67,0,0,0,4.4-2.24v-3.16a7.16,7.16,0,0,0-3.36-.64c-2.24,0-3.84,1.12-3.84,3.2A2.7,2.7,0,0,0,132.92,271.25Z"/><path d="M146.56,259.66h-2a.76.76,0,0,1-.76-.76V258a.74.74,0,0,1,.76-.76h2v-4.44a.79.79,0,0,1,.76-.76l1.28-.08a.75.75,0,0,1,.72.76v4.52H154a.74.74,0,0,1,.76.76v.88a.76.76,0,0,1-.76.76h-4.64V269c0,1.6.4,1.92,1.32,1.92a7.64,7.64,0,0,0,2.92-.88c.6-.32.76-.08,1,.24l.6,1c.28.48.16.72-.28,1a10.45,10.45,0,0,1-4.6,1.36c-3.2,0-3.68-1.92-3.68-4.4Z"/><path d="M167.52,248a1.9,1.9,0,1,1,1.88,1.88A1.89,1.89,0,0,1,167.52,248Zm.56,10a.79.79,0,0,1,.76-.76h1.24a.79.79,0,0,1,.76.76v14.47a.79.79,0,0,1-.76.76h-1.24a.79.79,0,0,1-.76-.76Z"/><path d="M177.8,259.66h-2.44a.76.76,0,0,1-.76-.76V258a.74.74,0,0,1,.76-.76h2.44v-5.6c0-4.64,2.68-6.8,6.12-6.8a6.38,6.38,0,0,1,4.4,1.64.74.74,0,0,1,.16.92l-.64,1c-.24.4-.64.36-1,0a5.33,5.33,0,0,0-2.92-1.16c-1.84,0-3.32,1.24-3.32,4.32v5.6h4.64a.74.74,0,0,1,.76.76v.88a.76.76,0,0,1-.76.76h-4.64v12.83a.79.79,0,0,1-.76.76h-1.24a.79.79,0,0,1-.76-.76Z"/><path d="M199.24,259.66h-2a.76.76,0,0,1-.76-.76V258a.74.74,0,0,1,.76-.76h2v-4.44a.79.79,0,0,1,.76-.76l1.28-.08a.75.75,0,0,1,.72.76v4.52h4.64a.74.74,0,0,1,.76.76v.88a.76.76,0,0,1-.76.76H202V269c0,1.6.4,1.92,1.32,1.92a7.64,7.64,0,0,0,2.92-.88c.6-.32.76-.08,1,.24l.6,1c.28.48.16.72-.28,1a10.45,10.45,0,0,1-4.6,1.36c-3.2,0-3.68-1.92-3.68-4.4Z"/><path d="M211.92,246a.79.79,0,0,1,.76-.76h1.24a.79.79,0,0,1,.76.76v13a8.17,8.17,0,0,1,5.36-2.12c4,0,6.19,2.52,6.19,7.2v8.43a.79.79,0,0,1-.76.76h-1.28a.79.79,0,0,1-.76-.76v-8.43c0-3-1.36-4.52-3.59-4.52a7.81,7.81,0,0,0-5.16,2.24v10.71a.79.79,0,0,1-.76.76h-1.24a.79.79,0,0,1-.76-.76Z"/><path d="M231.16,248a1.9,1.9,0,1,1,1.88,1.88A1.89,1.89,0,0,1,231.16,248Zm.56,10a.79.79,0,0,1,.76-.76h1.24a.79.79,0,0,1,.76.76v14.47a.79.79,0,0,1-.76.76h-1.24a.79.79,0,0,1-.76-.76Z"/><path d="M239.2,271c.16-.24.44-.8.56-1a.74.74,0,0,1,1.08-.12,6.75,6.75,0,0,0,3.76,1.4c1.63,0,2.59-.84,2.59-1.92,0-1.4-1.19-2-3.51-3.2-2.12-1-4.56-2.44-4.56-5.15,0-1.68,1.36-4.16,5.08-4.16a8.16,8.16,0,0,1,4.43,1.24,1,1,0,0,1,.24,1.24l-.32.64a.88.88,0,0,1-1.16.36,8,8,0,0,0-3.19-1c-1.8,0-2.28.92-2.28,1.6,0,1.32,1.32,1.92,3,2.71,2.75,1.32,5.23,2.56,5.23,5.44,0,2.32-2.24,4.52-5.51,4.52a8.11,8.11,0,0,1-5.2-1.8A.8.8,0,0,1,239.2,271Z"/><path d="M266.07,284.49a.79.79,0,0,1-.76.76h-1.24a.79.79,0,0,1-.76-.76V258a.79.79,0,0,1,.76-.76h.84c.36,0,.48.12.64.52l.28.76a7.13,7.13,0,0,1,4.64-1.68c4.36,0,7.56,3.84,7.56,8.43s-3.28,8.36-7.68,8.36a7.27,7.27,0,0,1-4.28-1.32ZM270,271c3.08,0,5.24-2.52,5.24-5.72s-1.84-5.87-5-5.87a5.43,5.43,0,0,0-4.08,2v8.23A6.71,6.71,0,0,0,270,271Z"/><path d="M287.79,263.1a13.14,13.14,0,0,1,3.4.52c0-3-.32-4.32-2.6-4.32a14.07,14.07,0,0,0-4.8.88c-.4.16-.64,0-.76-.4l-.32-1a.64.64,0,0,1,.44-.88,15,15,0,0,1,5.56-1c4.08,0,5.08,2.08,5.08,6.76v8.87a.79.79,0,0,1-.76.76h-.76c-.44,0-.56-.24-.68-.6l-.32-1.08a6.94,6.94,0,0,1-5,2.08c-2.8,0-4.92-2-4.92-5.24C281.39,265.37,283.67,263.1,287.79,263.1Zm-1,8.15a5.67,5.67,0,0,0,4.4-2.24v-3.16a7.16,7.16,0,0,0-3.36-.64c-2.24,0-3.84,1.12-3.84,3.2A2.7,2.7,0,0,0,286.75,271.25Z"/><path d="M297.07,258.14c-.24-.52,0-.88.6-.88h1.76a.76.76,0,0,1,.68.44L306,269.93h0l5.6-12.23a.81.81,0,0,1,.68-.44h1.52c.6,0,.88.4.6.92l-12.28,26.59a.85.85,0,0,1-.68.48H300a.65.65,0,0,1-.64-1l5.12-11Z"/><path d="M325,256.86a6.91,6.91,0,0,1,5.72,2.8.78.78,0,0,1-.16,1.12l-.76.64c-.6.56-.8.16-1.16-.16a4.93,4.93,0,0,0-3.68-1.68A5.73,5.73,0,0,0,325,271c2.4,0,3.32-1.2,4.24-2.08.48-.48.76-.4,1.2-.08l.44.32a.81.81,0,0,1,.28,1.12,7.17,7.17,0,0,1-6.12,3.36,8.22,8.22,0,0,1-8.2-8.36A8.43,8.43,0,0,1,325,256.86Z"/><path d="M335.67,246a.79.79,0,0,1,.76-.76h1.24a.79.79,0,0,1,.76.76v13a8.17,8.17,0,0,1,5.36-2.12c4,0,6.2,2.52,6.2,7.2v8.43a.79.79,0,0,1-.76.76H348a.79.79,0,0,1-.76-.76v-8.43c0-3-1.36-4.52-3.6-4.52a7.81,7.81,0,0,0-5.16,2.24v10.71a.79.79,0,0,1-.76.76h-1.24a.79.79,0,0,1-.76-.76Z"/><path d="M362.15,256.86a7.06,7.06,0,0,1,7.24,7.31,9.63,9.63,0,0,1-.08,1.08.74.74,0,0,1-.72.68H357.07a5.62,5.62,0,0,0,5.36,5.2,7.61,7.61,0,0,0,4-1.2c.56-.32.8-.52,1.12-.08l.68.92c.28.36.44.6-.16,1a9.94,9.94,0,0,1-5.88,1.84c-4.84,0-7.84-3.8-7.84-8.4S357.31,256.86,362.15,256.86Zm4.48,6.83a4.62,4.62,0,0,0-4.48-4.39,5,5,0,0,0-5,4.39Z"/><path d="M380.79,256.86a6.91,6.91,0,0,1,5.72,2.8.78.78,0,0,1-.16,1.12l-.76.64c-.6.56-.8.16-1.16-.16a4.93,4.93,0,0,0-3.68-1.68,5.73,5.73,0,0,0,0,11.43c2.4,0,3.32-1.2,4.24-2.08.48-.48.76-.4,1.2-.08l.44.32a.81.81,0,0,1,.28,1.12,7.17,7.17,0,0,1-6.12,3.36,8.22,8.22,0,0,1-8.2-8.36A8.43,8.43,0,0,1,380.79,256.86Z"/><path d="M391.43,246a.79.79,0,0,1,.76-.76h1.24a.79.79,0,0,1,.76.76v17.31l6.8-5.59a1.57,1.57,0,0,1,1-.48h2.16c.68,0,.64.76.36,1l-7.6,6.07,8.84,7.92a.57.57,0,0,1-.4,1h-2.2a1.35,1.35,0,0,1-.8-.32l-8.12-7.72v7.28a.79.79,0,0,1-.76.76h-1.24a.79.79,0,0,1-.76-.76Z"/><path d="M416.67,258.18c-.16-.56,0-.92.6-.92h1.24a.74.74,0,0,1,.72.44l2.92,10.55h0l4.52-11a.71.71,0,0,1,.68-.4h.2a.71.71,0,0,1,.68.4l4.48,11h0l2.88-10.59a.72.72,0,0,1,.68-.44h1.24c.6,0,.76.36.6.92l-4.36,15.07a.69.69,0,0,1-.68.4H433a.71.71,0,0,1-.68-.4l-4.88-12-4.72,12a.71.71,0,0,1-.68.4h-.2a.65.65,0,0,1-.68-.4Z"/><path d="M449,256.86a7.06,7.06,0,0,1,7.24,7.31,9.63,9.63,0,0,1-.08,1.08.74.74,0,0,1-.72.68H444a5.62,5.62,0,0,0,5.36,5.2,7.61,7.61,0,0,0,4-1.2c.56-.32.8-.52,1.12-.08l.68.92c.28.36.44.6-.16,1a9.94,9.94,0,0,1-5.88,1.84c-4.84,0-7.84-3.8-7.84-8.4S444.19,256.86,449,256.86Zm4.48,6.83A4.62,4.62,0,0,0,449,259.3a5,5,0,0,0-5,4.39Z"/><path d="M460.63,258a.79.79,0,0,1,.76-.76h.76a.68.68,0,0,1,.68.56l.32,1.16a5.92,5.92,0,0,1,4.8-2.12c1.2,0,3.2.2,2.8,1.32l-.48,1.36c-.2.52-.56.52-1,.36a4.13,4.13,0,0,0-1.56-.32,5.14,5.14,0,0,0-4.36,2.24v10.67a.79.79,0,0,1-.76.76h-1.24a.79.79,0,0,1-.76-.76Z"/><path d="M480.55,256.86a7.06,7.06,0,0,1,7.24,7.31,9.63,9.63,0,0,1-.08,1.08.74.74,0,0,1-.72.68H475.47a5.62,5.62,0,0,0,5.36,5.2,7.61,7.61,0,0,0,4-1.2c.56-.32.8-.52,1.12-.08l.68.92c.28.36.44.6-.16,1a9.94,9.94,0,0,1-5.88,1.84c-4.84,0-7.84-3.8-7.84-8.4S475.71,256.86,480.55,256.86Zm4.48,6.83a4.62,4.62,0,0,0-4.48-4.39,5,5,0,0,0-5,4.39Z"/><path d="M498.75,258.14c-.24-.52,0-.88.6-.88h1.76a.76.76,0,0,1,.68.44l5.92,12.23h0l5.6-12.23a.81.81,0,0,1,.68-.44h1.52c.6,0,.88.4.6.92l-12.28,26.59a.85.85,0,0,1-.68.48h-1.48a.65.65,0,0,1-.64-1l5.12-11Z"/><path d="M526.47,256.86a8.41,8.41,0,1,1-8,8.35A8.2,8.2,0,0,1,526.47,256.86Zm0,14.19c2.92,0,5.2-2.6,5.2-5.84a5.22,5.22,0,1,0-10.4,0C521.27,268.45,523.55,271.05,526.47,271.05Z"/><path d="M538.75,258a.79.79,0,0,1,.76-.76h1.28a.79.79,0,0,1,.76.76v8.43c0,3,1.36,4.52,3.6,4.52a6.33,6.33,0,0,0,4.76-2.28V258a.79.79,0,0,1,.76-.76h1.24a.79.79,0,0,1,.76.76v14.47a.79.79,0,0,1-.76.76h-.76c-.44,0-.6-.28-.72-.68l-.28-1a7.3,7.3,0,0,1-5.2,2.12c-4.64,0-6.2-3-6.2-7.24Z"/><path d="M558.35,258a.79.79,0,0,1,.76-.76h.76a.68.68,0,0,1,.68.56l.32,1.16a5.92,5.92,0,0,1,4.8-2.12c1.2,0,3.2.2,2.8,1.32l-.48,1.36c-.2.52-.56.52-1,.36a4.13,4.13,0,0,0-1.56-.32,5.14,5.14,0,0,0-4.36,2.24v10.67a.79.79,0,0,1-.76.76h-1.24a.79.79,0,0,1-.76-.76Z"/><path d="M580.63,246a.79.79,0,0,1,.76-.76h1.24a.79.79,0,0,1,.76.76v26.47a.79.79,0,0,1-.76.76h-1.24a.79.79,0,0,1-.76-.76Z"/><path d="M594.35,263.1a13.14,13.14,0,0,1,3.4.52c0-3-.32-4.32-2.6-4.32a14.07,14.07,0,0,0-4.8.88c-.4.16-.64,0-.76-.4l-.32-1a.64.64,0,0,1,.44-.88,15,15,0,0,1,5.56-1c4.08,0,5.08,2.08,5.08,6.76v8.87a.79.79,0,0,1-.77.76h-.75c-.44,0-.56-.24-.68-.6l-.32-1.08a6.94,6.94,0,0,1-5,2.08c-2.8,0-4.92-2-4.92-5.24C588,265.37,590.23,263.1,594.35,263.1Zm-1,8.15a5.67,5.67,0,0,0,4.4-2.24v-3.16a7.16,7.16,0,0,0-3.36-.64c-2.24,0-3.84,1.12-3.84,3.2A2.7,2.7,0,0,0,593.31,271.25Z"/><path d="M605,271c.16-.24.44-.8.56-1a.74.74,0,0,1,1.08-.12,6.75,6.75,0,0,0,3.76,1.4c1.64,0,2.6-.84,2.6-1.92,0-1.4-1.2-2-3.52-3.2-2.12-1-4.56-2.44-4.56-5.15,0-1.68,1.36-4.16,5.08-4.16a8.17,8.17,0,0,1,4.44,1.24,1,1,0,0,1,.24,1.24l-.32.64a.88.88,0,0,1-1.16.36,8,8,0,0,0-3.2-1c-1.8,0-2.28.92-2.28,1.6,0,1.32,1.32,1.92,3,2.71,2.76,1.32,5.24,2.56,5.24,5.44,0,2.32-2.24,4.52-5.52,4.52a8.11,8.11,0,0,1-5.2-1.8A.8.8,0,0,1,605,271Z"/><path d="M621.19,259.66h-2a.76.76,0,0,1-.76-.76V258a.74.74,0,0,1,.76-.76h2v-4.44a.79.79,0,0,1,.76-.76l1.28-.08a.75.75,0,0,1,.72.76v4.52h4.63a.74.74,0,0,1,.76.76v.88a.76.76,0,0,1-.76.76H624V269c0,1.6.4,1.92,1.32,1.92a7.53,7.53,0,0,0,2.91-.88c.61-.32.76-.08,1,.24l.6,1c.28.48.16.72-.28,1a10.4,10.4,0,0,1-4.59,1.36c-3.2,0-3.68-1.92-3.68-4.4Z"/><path d="M637.5,261.62v-1.68c0-5,6-4.56,6-9.08,0-1.88-1.36-3.52-4-3.52a6.92,6.92,0,0,0-5.51,2.72.66.66,0,0,1-1,0l-.76-.68a.75.75,0,0,1,0-1,8.86,8.86,0,0,1,7.31-3.52c4.16,0,7,2.44,7,6.12,0,5.24-6.32,5.68-6.32,9v1.64a.78.78,0,0,1-.84.8h-1.07A.77.77,0,0,1,637.5,261.62Zm1.25,7.47a2.25,2.25,0,0,1,2.27,2.28,2.27,2.27,0,0,1-2.27,2.28,2.3,2.3,0,0,1-2.28-2.28A2.27,2.27,0,0,1,638.75,269.09Z"/></svg>