<svg id="4d24f140-5b24-4cff-910c-b8494621985b" data-name="Layer 1" xmlns="http://www.w3.org/2000/svg" viewBox="0 0 375 254"><defs><style>.\38 b6de0fc-1651-40ca-abb1-9d7ad9c4fa63{fill:#d6d6d6;}</style></defs><title>mobile</title><rect class="8b6de0fc-1651-40ca-abb1-9d7ad9c4fa63" width="375" height="254"/><path d="M36.51,118.17a.36.36,0,0,1,.37-.5h.89a.43.43,0,0,1,.37.29l2.92,10.88h.09l3.5-11.15a.35.35,0,0,1,.36-.23h.38a.36.36,0,0,1,.35.23l3.57,11.15h.09L52.25,118a.44.44,0,0,1,.38-.29h.88a.36.36,0,0,1,.38.5l-4,14.11a.41.41,0,0,1-.38.3h-.33a.43.43,0,0,1-.36-.23L45.22,121h-.11l-3.57,11.36a.43.43,0,0,1-.35.23h-.34a.41.41,0,0,1-.38-.3Z"/><path d="M55.85,118.07a.41.41,0,0,1,.4-.4h.65a.41.41,0,0,1,.4.4v6.8a4.28,4.28,0,0,1,2.81-1.11c2.08,0,3.25,1.32,3.25,3.78V132a.41.41,0,0,1-.4.4h-.67a.41.41,0,0,1-.4-.4v-4.43c0-1.6-.71-2.37-1.89-2.37a4.09,4.09,0,0,0-2.7,1.17V132a.41.41,0,0,1-.4.4h-.65a.41.41,0,0,1-.4-.4Z"/><path d="M69,127a6.83,6.83,0,0,1,1.79.28c0-1.56-.17-2.27-1.37-2.27a7.36,7.36,0,0,0-2.52.46c-.21.08-.33,0-.4-.21l-.16-.52c-.09-.26,0-.38.23-.47a7.94,7.94,0,0,1,2.91-.54c2.15,0,2.67,1.09,2.67,3.55V132a.41.41,0,0,1-.4.4h-.4c-.23,0-.29-.13-.35-.32l-.17-.56a3.64,3.64,0,0,1-2.61,1.09,2.55,2.55,0,0,1-2.58-2.75C65.63,128.23,66.83,127,69,127Zm-.54,4.29a3,3,0,0,0,2.31-1.18v-1.66a3.92,3.92,0,0,0-1.77-.33c-1.17,0-2,.58-2,1.68A1.41,1.41,0,0,0,68.45,131.32Z"/><path d="M75.61,125.23H74.54a.4.4,0,0,1-.4-.4v-.46a.39.39,0,0,1,.4-.4h1.07v-2.33a.41.41,0,0,1,.4-.4l.67,0a.4.4,0,0,1,.38.4V124h2.43a.39.39,0,0,1,.4.4v.46a.4.4,0,0,1-.4.4H77.06v4.91c0,.84.21,1,.69,1a4.13,4.13,0,0,0,1.53-.46c.32-.17.4,0,.51.12l.31.53c.15.25.08.38-.15.52a5.4,5.4,0,0,1-2.41.72c-1.68,0-1.93-1-1.93-2.31Z"/><path d="M86.61,119.1a1,1,0,0,1,1-1,1,1,0,1,1,0,2A1,1,0,0,1,86.61,119.1Zm.29,5.27a.41.41,0,0,1,.4-.4H88a.41.41,0,0,1,.4.4V132a.41.41,0,0,1-.4.4H87.3a.41.41,0,0,1-.4-.4Z"/><path d="M92,125.23H90.73a.4.4,0,0,1-.4-.4v-.46a.39.39,0,0,1,.4-.4H92V121c0-2.44,1.4-3.57,3.21-3.57a3.33,3.33,0,0,1,2.31.86.38.38,0,0,1,.08.48l-.33.55c-.13.21-.34.19-.55,0a2.78,2.78,0,0,0-1.53-.61c-1,0-1.74.65-1.74,2.27V124h2.43a.39.39,0,0,1,.4.4v.46a.4.4,0,0,1-.4.4H93.46V132a.41.41,0,0,1-.4.4h-.65a.41.41,0,0,1-.4-.4Z"/><path d="M103.26,125.23h-1.07a.4.4,0,0,1-.4-.4v-.46a.39.39,0,0,1,.4-.4h1.07v-2.33a.41.41,0,0,1,.4-.4l.67,0a.4.4,0,0,1,.38.4V124h2.44a.39.39,0,0,1,.4.4v.46a.4.4,0,0,1-.4.4h-2.44v4.91c0,.84.21,1,.69,1a4.19,4.19,0,0,0,1.54-.46c.31-.17.4,0,.5.12l.32.53c.14.25.08.38-.15.52a5.46,5.46,0,0,1-2.42.72c-1.67,0-1.93-1-1.93-2.31Z"/><path d="M109.92,118.07a.41.41,0,0,1,.4-.4H111a.41.41,0,0,1,.4.4v6.8a4.28,4.28,0,0,1,2.81-1.11c2.08,0,3.26,1.32,3.26,3.78V132a.41.41,0,0,1-.4.4h-.67a.41.41,0,0,1-.4-.4v-4.43c0-1.6-.72-2.37-1.89-2.37a4.1,4.1,0,0,0-2.71,1.17V132a.41.41,0,0,1-.4.4h-.65a.41.41,0,0,1-.4-.4Z"/><path d="M120,119.1a1,1,0,0,1,1-1,1,1,0,1,1,0,2A1,1,0,0,1,120,119.1Zm.29,5.27a.41.41,0,0,1,.4-.4h.65a.41.41,0,0,1,.4.4V132a.41.41,0,0,1-.4.4h-.65a.41.41,0,0,1-.4-.4Z"/><path d="M124.24,131.19c.09-.12.23-.42.3-.52a.39.39,0,0,1,.56-.07,3.56,3.56,0,0,0,2,.74c.86,0,1.36-.44,1.36-1,0-.73-.63-1.07-1.85-1.68s-2.39-1.28-2.39-2.71c0-.88.71-2.18,2.67-2.18a4.32,4.32,0,0,1,2.33.65.5.5,0,0,1,.12.65l-.16.34a.46.46,0,0,1-.61.18,4.25,4.25,0,0,0-1.68-.5c-1,0-1.2.48-1.2.84,0,.69.69,1,1.55,1.43,1.45.69,2.75,1.34,2.75,2.85a2.66,2.66,0,0,1-2.89,2.38,4.23,4.23,0,0,1-2.73-1A.41.41,0,0,1,124.24,131.19Z"/><path d="M138.35,138.27a.41.41,0,0,1-.4.4h-.65a.41.41,0,0,1-.4-.4v-13.9a.41.41,0,0,1,.4-.4h.44c.19,0,.26.06.34.27l.15.4a3.73,3.73,0,0,1,2.43-.88,4.43,4.43,0,0,1-.06,8.82,3.79,3.79,0,0,1-2.25-.7Zm2.06-7.1a2.81,2.81,0,0,0,2.75-3c0-1.64-1-3.09-2.64-3.09a2.87,2.87,0,0,0-2.15,1v4.33A3.57,3.57,0,0,0,140.41,131.17Z"/><path d="M149.76,127a6.71,6.71,0,0,1,1.78.28c0-1.56-.17-2.27-1.36-2.27a7.25,7.25,0,0,0-2.52.46.28.28,0,0,1-.4-.21l-.17-.52a.35.35,0,0,1,.23-.47,8,8,0,0,1,2.92-.54c2.14,0,2.67,1.09,2.67,3.55V132a.41.41,0,0,1-.4.4h-.4c-.23,0-.3-.13-.36-.32l-.17-.56a3.64,3.64,0,0,1-2.6,1.09,2.55,2.55,0,0,1-2.58-2.75C146.4,128.23,147.59,127,149.76,127Zm-.55,4.29a3,3,0,0,0,2.31-1.18v-1.66a3.86,3.86,0,0,0-1.76-.33c-1.18,0-2,.58-2,1.68A1.42,1.42,0,0,0,149.21,131.32Z"/><path d="M154.63,124.43c-.13-.27,0-.46.31-.46h.93a.38.38,0,0,1,.35.23l3.11,6.42h0l2.94-6.42a.41.41,0,0,1,.36-.23h.8c.31,0,.46.21.31.48l-6.44,14a.46.46,0,0,1-.36.26h-.78a.34.34,0,0,1-.33-.53l2.68-5.79Z"/><path d="M169.31,123.76a3.61,3.61,0,0,1,3,1.47.41.41,0,0,1-.09.59l-.39.33c-.32.3-.42.09-.61-.08a2.58,2.58,0,0,0-1.93-.88,3,3,0,0,0,0,6,2.8,2.8,0,0,0,2.23-1.09c.25-.25.4-.21.63,0l.23.17a.42.42,0,0,1,.15.58,3.77,3.77,0,0,1-3.21,1.77,4.32,4.32,0,0,1-4.31-4.39A4.43,4.43,0,0,1,169.31,123.76Z"/><path d="M174.89,118.07a.41.41,0,0,1,.4-.4h.65a.41.41,0,0,1,.4.4v6.8a4.28,4.28,0,0,1,2.81-1.11c2.08,0,3.26,1.32,3.26,3.78V132a.41.41,0,0,1-.4.4h-.67a.41.41,0,0,1-.4-.4v-4.43c0-1.6-.71-2.37-1.89-2.37a4.1,4.1,0,0,0-2.71,1.17V132a.41.41,0,0,1-.4.4h-.65a.41.41,0,0,1-.4-.4Z"/><path d="M188.79,123.76a3.7,3.7,0,0,1,3.8,3.84,5.46,5.46,0,0,1,0,.57.38.38,0,0,1-.38.35h-6a2.94,2.94,0,0,0,2.81,2.73,3.94,3.94,0,0,0,2.08-.63c.29-.16.42-.27.59,0l.35.49c.15.18.24.31-.08.54a5.21,5.21,0,0,1-3.09,1,4.42,4.42,0,0,1,0-8.82Zm2.36,3.59a2.44,2.44,0,0,0-2.36-2.31,2.61,2.61,0,0,0-2.64,2.31Z"/><path d="M198.58,123.76a3.6,3.6,0,0,1,3,1.47.41.41,0,0,1-.08.59l-.4.33c-.32.3-.42.09-.61-.08a2.56,2.56,0,0,0-1.93-.88,3,3,0,0,0,0,6,2.78,2.78,0,0,0,2.22-1.09c.25-.25.4-.21.63,0l.23.17a.41.41,0,0,1,.15.58,3.76,3.76,0,0,1-3.21,1.77,4.32,4.32,0,0,1-4.31-4.39A4.43,4.43,0,0,1,198.58,123.76Z"/><path d="M204.17,118.07a.41.41,0,0,1,.4-.4h.65a.41.41,0,0,1,.39.4v9.09l3.57-2.94a.82.82,0,0,1,.51-.25h1.13a.29.29,0,0,1,.19.52l-4,3.19,4.64,4.16a.3.3,0,0,1-.21.53H210.3a.71.71,0,0,1-.42-.17l-4.27-4V132a.41.41,0,0,1-.39.4h-.65a.41.41,0,0,1-.4-.4Z"/><path d="M217.42,124.45c-.09-.29,0-.48.31-.48h.65a.38.38,0,0,1,.38.23l1.53,5.54h0l2.37-5.77a.36.36,0,0,1,.35-.21h.11a.38.38,0,0,1,.36.21l2.35,5.79h0l1.51-5.56a.37.37,0,0,1,.36-.23h.65c.31,0,.4.19.31.48l-2.29,7.92a.36.36,0,0,1-.35.21H226a.37.37,0,0,1-.35-.21l-2.57-6.3-2.47,6.3a.39.39,0,0,1-.36.21h-.11a.35.35,0,0,1-.35-.21Z"/><path d="M234.41,123.76a3.71,3.71,0,0,1,3.8,3.84,5.48,5.48,0,0,1-.05.57.38.38,0,0,1-.37.35h-6a2.94,2.94,0,0,0,2.81,2.73,3.94,3.94,0,0,0,2.08-.63c.29-.16.42-.27.59,0l.36.49c.14.18.23.31-.09.54a5.2,5.2,0,0,1-3.08,1,4.42,4.42,0,0,1,0-8.82Zm2.35,3.59a2.43,2.43,0,0,0-2.35-2.31,2.62,2.62,0,0,0-2.65,2.31Z"/><path d="M240.5,124.37a.41.41,0,0,1,.39-.4h.4a.35.35,0,0,1,.36.29l.17.61a3.09,3.09,0,0,1,2.52-1.11c.63,0,1.68.1,1.47.69l-.25.72c-.11.27-.3.27-.51.18a2.25,2.25,0,0,0-.82-.16,2.72,2.72,0,0,0-2.29,1.17V132a.41.41,0,0,1-.39.4h-.66a.41.41,0,0,1-.39-.4Z"/><path d="M251,123.76a3.7,3.7,0,0,1,3.8,3.84,5.46,5.46,0,0,1,0,.57.38.38,0,0,1-.38.35h-6a2.94,2.94,0,0,0,2.81,2.73,3.94,3.94,0,0,0,2.08-.63c.29-.16.42-.27.59,0l.35.49c.15.18.23.31-.08.54a5.21,5.21,0,0,1-3.09,1,4.42,4.42,0,0,1,0-8.82Zm2.35,3.59A2.42,2.42,0,0,0,251,125a2.61,2.61,0,0,0-2.64,2.31Z"/><path d="M260.51,124.43c-.13-.27,0-.46.31-.46h.93a.38.38,0,0,1,.35.23l3.11,6.42h0l2.94-6.42a.43.43,0,0,1,.36-.23h.8c.31,0,.46.21.31.48l-6.44,14a.46.46,0,0,1-.36.26h-.78a.34.34,0,0,1-.33-.53l2.68-5.79Z"/><path d="M275.06,123.76a4.42,4.42,0,1,1-4.18,4.39A4.3,4.3,0,0,1,275.06,123.76Zm0,7.45a3.05,3.05,0,1,0-2.73-3.06A2.89,2.89,0,0,0,275.06,131.21Z"/><path d="M281.51,124.37a.41.41,0,0,1,.4-.4h.67a.41.41,0,0,1,.4.4v4.43c0,1.59.71,2.37,1.89,2.37a3.34,3.34,0,0,0,2.5-1.2v-5.6a.41.41,0,0,1,.4-.4h.65a.41.41,0,0,1,.4.4V132a.41.41,0,0,1-.4.4H288c-.23,0-.32-.15-.38-.36l-.15-.55a3.8,3.8,0,0,1-2.73,1.12c-2.43,0-3.25-1.58-3.25-3.8Z"/><path d="M291.8,124.37a.41.41,0,0,1,.4-.4h.4a.35.35,0,0,1,.35.29l.17.61a3.11,3.11,0,0,1,2.52-1.11c.63,0,1.68.1,1.47.69l-.25.72c-.11.27-.3.27-.51.18a2.19,2.19,0,0,0-.81-.16,2.7,2.7,0,0,0-2.29,1.17V132a.41.41,0,0,1-.4.4h-.65a.41.41,0,0,1-.4-.4Z"/><path d="M303.5,118.07a.41.41,0,0,1,.39-.4h.65a.41.41,0,0,1,.4.4V132a.41.41,0,0,1-.4.4h-.65a.41.41,0,0,1-.39-.4Z"/><path d="M310.7,127a6.71,6.71,0,0,1,1.78.28c0-1.56-.17-2.27-1.36-2.27a7.31,7.31,0,0,0-2.52.46.28.28,0,0,1-.4-.21l-.17-.52a.35.35,0,0,1,.23-.47,8.08,8.08,0,0,1,2.92-.54c2.14,0,2.67,1.09,2.67,3.55V132a.41.41,0,0,1-.4.4h-.4c-.23,0-.3-.13-.36-.32l-.17-.56a3.64,3.64,0,0,1-2.6,1.09,2.55,2.55,0,0,1-2.58-2.75C307.34,128.23,308.53,127,310.7,127Zm-.55,4.29a3,3,0,0,0,2.31-1.18v-1.66a3.86,3.86,0,0,0-1.76-.33c-1.18,0-2,.58-2,1.68A1.42,1.42,0,0,0,310.15,131.32Z"/><path d="M316.26,131.19c.09-.12.23-.42.3-.52a.39.39,0,0,1,.56-.07,3.56,3.56,0,0,0,2,.74c.86,0,1.36-.44,1.36-1,0-.73-.63-1.07-1.85-1.68s-2.39-1.28-2.39-2.71c0-.88.71-2.18,2.67-2.18a4.32,4.32,0,0,1,2.33.65.5.5,0,0,1,.12.65l-.16.34a.46.46,0,0,1-.61.18,4.18,4.18,0,0,0-1.68-.5c-.95,0-1.2.48-1.2.84,0,.69.69,1,1.56,1.43,1.44.69,2.75,1.34,2.75,2.85a2.67,2.67,0,0,1-2.9,2.38,4.23,4.23,0,0,1-2.73-1A.41.41,0,0,1,316.26,131.19Z"/><path d="M324.79,125.23h-1.07a.4.4,0,0,1-.4-.4v-.46a.39.39,0,0,1,.4-.4h1.07v-2.33a.41.41,0,0,1,.4-.4l.67,0a.4.4,0,0,1,.38.4V124h2.43a.39.39,0,0,1,.4.4v.46a.4.4,0,0,1-.4.4h-2.43v4.91c0,.84.21,1,.69,1a4.07,4.07,0,0,0,1.53-.46c.32-.17.4,0,.51.12l.31.53c.15.25.09.38-.15.52a5.4,5.4,0,0,1-2.41.72c-1.68,0-1.93-1-1.93-2.31Z"/><path d="M333.36,126.26v-.88c0-2.61,3.14-2.4,3.14-4.77a1.86,1.86,0,0,0-2.07-1.85,3.65,3.65,0,0,0-2.9,1.43.35.35,0,0,1-.55,0l-.4-.36a.4.4,0,0,1,0-.54,4.67,4.67,0,0,1,3.85-1.85c2.18,0,3.65,1.28,3.65,3.21,0,2.75-3.32,3-3.32,4.71v.86a.41.41,0,0,1-.44.42h-.57A.39.39,0,0,1,333.36,126.26Zm.65,3.92a1.18,1.18,0,0,1,1.19,1.2,1.19,1.19,0,0,1-1.19,1.2,1.22,1.22,0,0,1-1.2-1.2A1.2,1.2,0,0,1,334,130.18Z"/></svg>