<svg id="contact" xmlns="http://www.w3.org/2000/svg" viewBox="0 0 59.15 75.44"><defs><style>.cls-1,.cls-2{fill:#fff;}.cls-1{fill-rule:evenodd;}</style></defs><title>contact</title><g id="Shape_24" data-name="Shape 24"><path class="cls-1" d="M46.28,18.35H21.77a2.26,2.26,0,0,0-2.42,2.46q0,8.78,0,17.57a3.11,3.11,0,0,0,.07.76,2.24,2.24,0,0,0,2.3,1.7H46.28a2.26,2.26,0,0,0,2.45-2.49q0-8.76,0-17.52A2.26,2.26,0,0,0,46.28,18.35Zm0.24,1.26L34,32.29,21.51,19.62h25ZM20.59,20.69l8.6,8.73-8.6,8.84V20.69Zm0.65,18.82,9-9.13,0.28,0.27,2.94,3a0.69,0.69,0,0,0,1.2,0l3.22-3.27,9,9.11C46.58,39.65,21.62,39.68,21.24,39.51Zm26.25-1.25-8.6-8.84,8.6-8.73V38.26Z" transform="translate(-5.13 -0.15)"/></g><g id="Shape_23" data-name="Shape 23"><path class="cls-1" d="M35.33,0.15a29,29,0,1,0,28.95,29A29,29,0,0,0,35.33.15Zm0,55.72A26.73,26.73,0,1,1,62,29.13,26.75,26.75,0,0,1,35.33,55.87Z" transform="translate(-5.13 -0.15)"/></g><path class="cls-2" d="M9.5,66.86A4.06,4.06,0,0,1,12.42,68a0.23,0.23,0,0,1,0,.34l-0.94,1a0.21,0.21,0,0,1-.3,0,2.47,2.47,0,0,0-1.63-.62,2.48,2.48,0,0,0,0,5,2.56,2.56,0,0,0,1.62-.58,0.24,0.24,0,0,1,.31,0l0.94,1a0.24,0.24,0,0,1,0,.33A4.15,4.15,0,0,1,9.5,75.59,4.36,4.36,0,1,1,9.5,66.86Z" transform="translate(-5.13 -0.15)"/><path class="cls-2" d="M18.18,66.86a4.36,4.36,0,1,1-4.34,4.37A4.35,4.35,0,0,1,18.18,66.86Zm0,6.79a2.42,2.42,0,1,0-2.41-2.41A2.43,2.43,0,0,0,18.18,73.65Z" transform="translate(-5.13 -0.15)"/><path class="cls-2" d="M24.6,67.08a0.23,0.23,0,0,1,.23-0.22h0.3L30,71.52h0v-4.3A0.23,0.23,0,0,1,30.2,67h1.45a0.24,0.24,0,0,1,.23.23v8.15a0.23,0.23,0,0,1-.23.22H31.46a0.34,0.34,0,0,1-.16-0.06l-4.78-4.81h0v4.52a0.23,0.23,0,0,1-.23.23H24.84a0.24,0.24,0,0,1-.23-0.23V67.08Z" transform="translate(-5.13 -0.15)"/><path class="cls-2" d="M35.65,68.77H33.92a0.23,0.23,0,0,1-.23-0.23V67.22A0.23,0.23,0,0,1,33.92,67H39.3a0.23,0.23,0,0,1,.23.23v1.32a0.23,0.23,0,0,1-.23.23H37.57v6.47a0.24,0.24,0,0,1-.23.23H35.88a0.24,0.24,0,0,1-.23-0.23V68.77Z" transform="translate(-5.13 -0.15)"/><path class="cls-2" d="M39.82,75.15L43.6,67a0.25,0.25,0,0,1,.21-0.13h0.12a0.25,0.25,0,0,1,.21.13l3.79,8.15a0.21,0.21,0,0,1-.21.31H46.38a0.4,0.4,0,0,1-.42-0.3l-0.44-1H42.22l-0.44,1a0.45,0.45,0,0,1-.44.29H40A0.21,0.21,0,0,1,39.82,75.15Zm5-2.59-0.92-2h0l-0.91,2h1.84Z" transform="translate(-5.13 -0.15)"/><path class="cls-2" d="M53.2,66.86A4.06,4.06,0,0,1,56.13,68a0.22,0.22,0,0,1,0,.34l-0.94,1a0.21,0.21,0,0,1-.3,0,2.47,2.47,0,0,0-1.63-.62,2.48,2.48,0,0,0,0,5,2.56,2.56,0,0,0,1.62-.58,0.24,0.24,0,0,1,.31,0l0.94,1a0.24,0.24,0,0,1,0,.33,4.15,4.15,0,0,1-2.94,1.17A4.36,4.36,0,1,1,53.2,66.86Z" transform="translate(-5.13 -0.15)"/><path class="cls-2" d="M59.29,68.77H57.55a0.23,0.23,0,0,1-.23-0.23V67.22A0.23,0.23,0,0,1,57.55,67h5.37a0.23,0.23,0,0,1,.23.23v1.32a0.23,0.23,0,0,1-.23.23H61.2v6.47a0.24,0.24,0,0,1-.23.23H59.51a0.24,0.24,0,0,1-.23-0.23V68.77Z" transform="translate(-5.13 -0.15)"/></svg>