<svg id="invite" xmlns="http://www.w3.org/2000/svg" viewBox="0 0 57.9 75.44"><defs><style>.cls-1,.cls-2{fill:#fff;}.cls-2{fill-rule:evenodd;}</style></defs><title>invite</title><path class="cls-1" d="M15.86,67.22A0.24,0.24,0,0,1,16.09,67h1.45a0.24,0.24,0,0,1,.23.23v8a0.24,0.24,0,0,1-.23.23H16.09a0.24,0.24,0,0,1-.23-0.23v-8Z" transform="translate(-6.69 -0.15)"/><path class="cls-1" d="M20.45,67.08a0.23,0.23,0,0,1,.23-0.22H21l4.83,4.65h0v-4.3A0.23,0.23,0,0,1,26.05,67H27.5a0.24,0.24,0,0,1,.23.23v8.15a0.23,0.23,0,0,1-.23.22H27.31a0.36,0.36,0,0,1-.16-0.06l-4.78-4.81h0v4.52a0.23,0.23,0,0,1-.23.23H20.69a0.24,0.24,0,0,1-.23-0.23V67.08Z" transform="translate(-6.69 -0.15)"/><path class="cls-1" d="M29.33,67.3A0.21,0.21,0,0,1,29.54,67h1.61a0.24,0.24,0,0,1,.21.13l2,4.42h0.07l2-4.42A0.24,0.24,0,0,1,35.62,67h1.61a0.21,0.21,0,0,1,.21.31l-3.8,8.15a0.23,0.23,0,0,1-.21.13H33.31a0.23,0.23,0,0,1-.21-0.13Z" transform="translate(-6.69 -0.15)"/><path class="cls-1" d="M39,67.22A0.24,0.24,0,0,1,39.26,67h1.45a0.24,0.24,0,0,1,.23.23v8a0.24,0.24,0,0,1-.23.23H39.26A0.24,0.24,0,0,1,39,75.24v-8Z" transform="translate(-6.69 -0.15)"/><path class="cls-1" d="M44.72,68.77H43a0.23,0.23,0,0,1-.23-0.23V67.22A0.23,0.23,0,0,1,43,67h5.37a0.23,0.23,0,0,1,.23.23v1.32a0.23,0.23,0,0,1-.23.23H46.63v6.47a0.24,0.24,0,0,1-.23.23H45a0.24,0.24,0,0,1-.23-0.23V68.77Z" transform="translate(-6.69 -0.15)"/><path class="cls-1" d="M50.41,67.22A0.23,0.23,0,0,1,50.64,67h5a0.23,0.23,0,0,1,.23.23v1.32a0.23,0.23,0,0,1-.23.23H52.3v1.5h2.76a0.24,0.24,0,0,1,.23.23v1.32a0.23,0.23,0,0,1-.23.23H52.3v1.64h3.35a0.23,0.23,0,0,1,.23.23v1.32a0.23,0.23,0,0,1-.23.23h-5a0.23,0.23,0,0,1-.23-0.23v-8Z" transform="translate(-6.69 -0.15)"/><g id="Shape_23_copy" data-name="Shape 23 copy"><path class="cls-2" d="M35.64,0.15a29,29,0,1,0,28.95,29A29,29,0,0,0,35.64.15Zm0,55.72a26.73,26.73,0,1,1,26.7-26.73A26.75,26.75,0,0,1,35.64,55.87Z" transform="translate(-6.69 -0.15)"/></g><g id="Shape_192" data-name="Shape 192"><path class="cls-2" d="M40.74,35.12a0.79,0.79,0,0,1-1,.09Q34.9,32.74,30,30.31a0.68,0.68,0,0,1-.51-0.67A0.73,0.73,0,0,1,30,28.89q4.87-2.42,9.72-4.87a0.9,0.9,0,0,1,1.07.09,3.41,3.41,0,0,0,3.75.2,3.46,3.46,0,0,0,1.91-2.94,3.7,3.7,0,0,0-3.55-3.89A3.6,3.6,0,0,0,39.21,21a0.88,0.88,0,0,1-.58.9Q33.78,24.27,29,26.7a0.78,0.78,0,0,1-1,0,3.56,3.56,0,0,0-4.85.52,3.63,3.63,0,0,0,0,4.8,3.57,3.57,0,0,0,4.85.53,0.74,0.74,0,0,1,.9-0.06q4.88,2.47,9.78,4.9a0.78,0.78,0,0,1,.52.8,3.58,3.58,0,0,0,2.9,3.48,3.63,3.63,0,0,0,3.1-6.3A3.56,3.56,0,0,0,40.74,35.12Z" transform="translate(-6.69 -0.15)"/></g></svg>