<svg id="learn" xmlns="http://www.w3.org/2000/svg" viewBox="0 0 57.9 75.44"><defs><style>.cls-1,.cls-2{fill:#fff;}.cls-1{fill-rule:evenodd;}</style></defs><title>learn</title><g id="Shape_23_copy_2" data-name="Shape 23 copy 2"><path class="cls-1" d="M36.4,0.15a29,29,0,1,0,28.95,29A29,29,0,0,0,36.4.15Zm0,55.72A26.73,26.73,0,1,1,63.1,29.13,26.75,26.75,0,0,1,36.4,55.87Z" transform="translate(-7.45 -0.15)"/></g><path class="cls-2" d="M15.58,67.22A0.23,0.23,0,0,1,15.81,67h1.44a0.24,0.24,0,0,1,.23.23v6.47h2.88a0.23,0.23,0,0,1,.23.23v1.32a0.23,0.23,0,0,1-.23.23H15.81a0.23,0.23,0,0,1-.23-0.23v-8Z" transform="translate(-7.45 -0.15)"/><path class="cls-2" d="M22.37,67.22A0.23,0.23,0,0,1,22.6,67h5a0.23,0.23,0,0,1,.23.23v1.32a0.23,0.23,0,0,1-.23.23H24.26v1.5H27a0.24,0.24,0,0,1,.23.23v1.32A0.23,0.23,0,0,1,27,72H24.26v1.64h3.35a0.23,0.23,0,0,1,.23.23v1.32a0.23,0.23,0,0,1-.23.23h-5a0.23,0.23,0,0,1-.23-0.23v-8Z" transform="translate(-7.45 -0.15)"/><path class="cls-2" d="M29,75.15L32.77,67A0.24,0.24,0,0,1,33,66.86h0.12a0.25,0.25,0,0,1,.21.13l3.79,8.15a0.21,0.21,0,0,1-.21.32H35.54a0.41,0.41,0,0,1-.42-0.3l-0.44-1H31.39l-0.44,1a0.45,0.45,0,0,1-.44.29H29.18A0.21,0.21,0,0,1,29,75.15Zm5-2.59-0.92-2h0l-0.91,2H34Z" transform="translate(-7.45 -0.15)"/><path class="cls-2" d="M38.68,67.22A0.23,0.23,0,0,1,38.91,67h3.62A2.59,2.59,0,0,1,43.38,72L45,75.12a0.23,0.23,0,0,1-.21.35H43.22A0.22,0.22,0,0,1,43,75.36l-1.61-3.21H40.58v3.09a0.24,0.24,0,0,1-.23.23H38.91a0.23,0.23,0,0,1-.23-0.23v-8Zm3.69,3.39a1,1,0,0,0,.92-1,0.93,0.93,0,0,0-.92-0.92H40.58v1.89h1.79Z" transform="translate(-7.45 -0.15)"/><path class="cls-2" d="M47.38,67.08a0.23,0.23,0,0,1,.23-0.22h0.3l4.83,4.65h0v-4.3A0.23,0.23,0,0,1,53,67h1.45a0.24,0.24,0,0,1,.23.23v8.15a0.23,0.23,0,0,1-.23.22H54.24a0.35,0.35,0,0,1-.16-0.06l-4.78-4.81h0v4.52a0.23,0.23,0,0,1-.23.23H47.62a0.24,0.24,0,0,1-.23-0.23V67.08Z" transform="translate(-7.45 -0.15)"/><g id="Shape_195" data-name="Shape 195"><path class="cls-1" d="M41.72,34.62a19.8,19.8,0,0,1-2.36-.35l-0.08,0A1,1,0,0,1,39,33.81a3.55,3.55,0,0,1-.22-1.23L39,32.33a17.8,17.8,0,0,1,1.47-1.8,1.07,1.07,0,0,0,0-1.52l-1.17-1.14a1.15,1.15,0,0,0-1.57,0,10.16,10.16,0,0,1-1.94,1.3l-0.29.16a2.86,2.86,0,0,1-1-.14,5,5,0,0,1-.85-0.4V28.71a19.35,19.35,0,0,1-.28-2.64A1.11,1.11,0,0,0,32.14,25H30.47a1.11,1.11,0,0,0-1.11,1.07,11,11,0,0,1-.43,2.61l0,0.09a0.73,0.73,0,0,1-.36.25,5.82,5.82,0,0,1-1.28.2L26.94,29A10.12,10.12,0,0,1,25,27.74a1.15,1.15,0,0,0-1.57,0L22.26,28.9a1.07,1.07,0,0,0,0,1.52,18,18,0,0,1,1.47,1.8l0.17,0.23a1.43,1.43,0,0,1-.09.86,5,5,0,0,1-.53.94l-0.1,0a10.48,10.48,0,0,1-2.33.41,1.11,1.11,0,0,0-1.09,1.09v1.59a1.11,1.11,0,0,0,1.09,1.09,18.86,18.86,0,0,1,2.36.27h0.08a0.87,0.87,0,0,1,.29.45,4.11,4.11,0,0,1,.25,1.32l-0.2.27a18,18,0,0,1-1.47,1.8,1.07,1.07,0,0,0,0,1.52l1.17,1.14a1.15,1.15,0,0,0,1.57,0A10.11,10.11,0,0,1,26.85,44l0.33-.18a3.44,3.44,0,0,1,1,.1,2.35,2.35,0,0,1,.69.43l0,0.12a9.52,9.52,0,0,1,.42,2.24,1.11,1.11,0,0,0,1.11,1.07h1.67a1.11,1.11,0,0,0,1.11-1.07,17.26,17.26,0,0,1,.28-2.27l0-.09A0.77,0.77,0,0,1,34,44a6.6,6.6,0,0,1,1.46-.27l0.31,0.17a10.12,10.12,0,0,1,1.94,1.3,1.15,1.15,0,0,0,1.57,0l1.17-1.14a1.07,1.07,0,0,0,0-1.52A17.8,17.8,0,0,1,39,40.77l-0.19-.26a1.72,1.72,0,0,1,.08-0.9,5.65,5.65,0,0,1,.42-0.86h0.06a19,19,0,0,1,2.39-.27,1.11,1.11,0,0,0,1.09-1.09V35.78A1.2,1.2,0,0,0,41.72,34.62ZM31.28,41.28a4.71,4.71,0,1,1,4.86-4.71A4.79,4.79,0,0,1,31.28,41.28ZM50.65,18.57a13.76,13.76,0,0,1-1.72-.26l-0.07,0a0.79,0.79,0,0,1-.23-0.36,2.91,2.91,0,0,1-.18-1l0.15-.21a13.8,13.8,0,0,1,1.05-1.32,1.07,1.07,0,0,0,0-1.52L49,13.24a1.15,1.15,0,0,0-1.57,0,7.63,7.63,0,0,1-1.43.92l-0.24.13a2.31,2.31,0,0,1-.84-0.11,4.49,4.49,0,0,1-.69-0.32V13.78A14.18,14.18,0,0,1,44,11.83a1.11,1.11,0,0,0-1.11-1.07h-1a1.11,1.11,0,0,0-1.11,1.07,8.05,8.05,0,0,1-.34,1.92l0,0.07a0.59,0.59,0,0,1-.29.21,4.73,4.73,0,0,1-1,.16l-0.27-.15a7.56,7.56,0,0,1-1.43-.92,1.15,1.15,0,0,0-1.57,0l-0.66.64a1.07,1.07,0,0,0,0,1.52,13.84,13.84,0,0,1,1.05,1.32l0.14,0.19a1.16,1.16,0,0,1-.07.7,4,4,0,0,1-.43.77l-0.08,0a7.75,7.75,0,0,1-1.69.33A1.11,1.11,0,0,0,33,19.73v0.89a1.11,1.11,0,0,0,1.09,1.09,14.74,14.74,0,0,1,1.72.21h0.07a0.79,0.79,0,0,1,.24.38,3.3,3.3,0,0,1,.2,1.07l-0.16.22a14.09,14.09,0,0,1-1.05,1.32,1.07,1.07,0,0,0,0,1.52l0.66,0.64a1.15,1.15,0,0,0,1.57,0,7.58,7.58,0,0,1,1.43-.92L39,26a2.81,2.81,0,0,1,.81.08,1.91,1.91,0,0,1,.56.35l0,0.1a7.13,7.13,0,0,1,.34,1.63,1.11,1.11,0,0,0,1.11,1.07h1A1.11,1.11,0,0,0,44,28.2a13.45,13.45,0,0,1,.22-1.65V26.48a0.69,0.69,0,0,1,.36-0.23A5.27,5.27,0,0,1,45.73,26L46,26.17a7.55,7.55,0,0,1,1.43.92,1.15,1.15,0,0,0,1.57,0l0.66-.64a1.07,1.07,0,0,0,0-1.52,13.89,13.89,0,0,1-1.05-1.32l-0.16-.22a1.41,1.41,0,0,1,.07-0.74,5.18,5.18,0,0,1,.34-0.69h0.05a14.78,14.78,0,0,1,1.74-.21,1.11,1.11,0,0,0,1.09-1.09V19.73A1.2,1.2,0,0,0,50.65,18.57ZM42.37,24a3.83,3.83,0,1,1,4-3.83A3.89,3.89,0,0,1,42.37,24Z" transform="translate(-7.45 -0.15)"/></g></svg>