<svg id="opinion" xmlns="http://www.w3.org/2000/svg" viewBox="0 0 57.9 75.48"><defs><style>.cls-1,.cls-2{fill:#fff;}.cls-2{fill-rule:evenodd;}</style></defs><title>opinion</title><path class="cls-1" d="M12.08,66.79a4.36,4.36,0,1,1-4.34,4.37A4.35,4.35,0,0,1,12.08,66.79Zm0,6.78a2.42,2.42,0,1,0-2.41-2.41A2.43,2.43,0,0,0,12.08,73.58Z" transform="translate(-6.18 -0.03)"/><path class="cls-1" d="M18.5,67.14a0.23,0.23,0,0,1,.23-0.23h2.92a2.7,2.7,0,1,1,0,5.4H20.39v2.85a0.24,0.24,0,0,1-.23.23H18.73a0.23,0.23,0,0,1-.23-0.23v-8Zm3,3.4a1,1,0,0,0,1-1,0.92,0.92,0,0,0-1-.9H20.39v1.85h1.15Z" transform="translate(-6.18 -0.03)"/><path class="cls-1" d="M26.2,67.14a0.24,0.24,0,0,1,.23-0.23h1.45a0.24,0.24,0,0,1,.23.23v8a0.24,0.24,0,0,1-.23.23H26.43a0.24,0.24,0,0,1-.23-0.23v-8Z" transform="translate(-6.18 -0.03)"/><path class="cls-1" d="M30.79,67A0.23,0.23,0,0,1,31,66.79h0.3l4.83,4.65h0v-4.3a0.23,0.23,0,0,1,.23-0.23h1.45a0.24,0.24,0,0,1,.23.23V75.3a0.23,0.23,0,0,1-.23.22H37.65a0.35,0.35,0,0,1-.16-0.06l-4.78-4.81h0v4.52a0.23,0.23,0,0,1-.23.23H31a0.24,0.24,0,0,1-.23-0.23V67Z" transform="translate(-6.18 -0.03)"/><path class="cls-1" d="M40.76,67.14A0.24,0.24,0,0,1,41,66.91h1.45a0.24,0.24,0,0,1,.23.23v8a0.24,0.24,0,0,1-.23.23H41a0.24,0.24,0,0,1-.23-0.23v-8Z" transform="translate(-6.18 -0.03)"/><path class="cls-1" d="M49.08,66.79a4.36,4.36,0,1,1-4.34,4.37A4.35,4.35,0,0,1,49.08,66.79Zm0,6.78a2.42,2.42,0,1,0-2.41-2.41A2.43,2.43,0,0,0,49.08,73.58Z" transform="translate(-6.18 -0.03)"/><path class="cls-1" d="M55.49,67a0.23,0.23,0,0,1,.23-0.22H56l4.83,4.65h0v-4.3a0.23,0.23,0,0,1,.23-0.23h1.45a0.24,0.24,0,0,1,.23.23V75.3a0.23,0.23,0,0,1-.23.22H62.35a0.35,0.35,0,0,1-.16-0.06l-4.78-4.81h0v4.52a0.23,0.23,0,0,1-.23.23H55.73a0.24,0.24,0,0,1-.23-0.23V67Z" transform="translate(-6.18 -0.03)"/><g id="Shape_193" data-name="Shape 193"><path class="cls-2" d="M45.81,14.52H43.08l-0.42,0a1.7,1.7,0,0,0-1.87-1.62H39.25c-0.76-2.12-2.08-3.26-3.89-3.29A4.18,4.18,0,0,0,31,12.88H29.64a1.78,1.78,0,0,0-2.08,1.64H24.48a1.69,1.69,0,0,0-1.88,1.84q0,13.87,0,27.74a1.67,1.67,0,0,0,1.85,1.82H45.8a1.69,1.69,0,0,0,1.86-1.82q0-13.87,0-27.74A1.69,1.69,0,0,0,45.81,14.52Zm-16.49,0h3.41A2.57,2.57,0,0,1,33.33,12a2.41,2.41,0,0,1,1.83-.75c1.64,0,2.51,1.2,2.39,3.27h3.37v3.3H29.33V14.53ZM45.94,44.26H24.31v-28H27.6c0,0.5,0,1,0,1.49a1.68,1.68,0,0,0,1.81,1.79H40.84a1.67,1.67,0,0,0,1.79-1.8c0-.48,0-1,0-1.48h3.3V44.26ZM27.61,34.34h15V32.73h-15v1.61Zm0-9.93h15V22.82h-15v1.59Zm0,5h15v-1.6h-15v1.6Zm0,9.91h15v-1.6h-15v1.6Z" transform="translate(-6.18 -0.03)"/></g><g id="Shape_23_copy_3" data-name="Shape 23 copy 3"><path class="cls-2" d="M35.13,0A29,29,0,1,0,64.07,29,29,29,0,0,0,35.13,0Zm0,55.72A26.73,26.73,0,1,1,61.82,29,26.75,26.75,0,0,1,35.13,55.75Z" transform="translate(-6.18 -0.03)"/></g></svg>