<svg id="retake" xmlns="http://www.w3.org/2000/svg" viewBox="0 0 57.9 75.36"><defs><style>.cls-1,.cls-2{fill:#fff;}.cls-1{fill-rule:evenodd;}</style></defs><title>retake</title><g id="Shape_191" data-name="Shape 191"><path class="cls-1" d="M47.44,27.79a12.43,12.43,0,0,0-9.77-10.08,20.77,20.77,0,0,0-3.72-.2H33.55c0.39-.6.73-1.13,1.07-1.67a1.23,1.23,0,0,0-.31-1.72,1.15,1.15,0,0,0-1.65.38C31.9,15.66,31.15,16.83,30.4,18a1.21,1.21,0,0,0,0,1.37c0.78,1.23,1.56,2.46,2.38,3.67a1.14,1.14,0,0,0,1.88,0,1.22,1.22,0,0,0,0-1.41c-0.34-.55-0.7-1.09-1.09-1.69H35.4A9.76,9.76,0,0,1,43.88,34.5a8.64,8.64,0,0,1-8.65,4.62,9.25,9.25,0,0,1-8.16-7.18,17.9,17.9,0,0,1-.48-3.66,1.69,1.69,0,0,0-.33-0.87,1.07,1.07,0,0,0-1.26-.3,1.19,1.19,0,0,0-.75,1.22,27.6,27.6,0,0,0,.25,2.81,12.2,12.2,0,0,0,4.52,8A11.13,11.13,0,0,0,44.75,37.4,11.75,11.75,0,0,0,47.44,27.79Z" transform="translate(-6.12 -0.03)"/></g><g id="Shape_23_copy_4" data-name="Shape 23 copy 4"><path class="cls-1" d="M35.07,0A29,29,0,1,0,64,29,29,29,0,0,0,35.07,0Zm0,55.72A26.73,26.73,0,1,1,61.76,29,26.75,26.75,0,0,1,35.07,55.75Z" transform="translate(-6.12 -0.03)"/></g><path class="cls-2" d="M12.08,67.14a0.23,0.23,0,0,1,.23-0.23h3.62A2.59,2.59,0,0,1,16.78,72L18.43,75a0.23,0.23,0,0,1-.21.35H16.62a0.22,0.22,0,0,1-.19-0.11l-1.61-3.21H14v3.09a0.24,0.24,0,0,1-.23.23H12.31a0.23,0.23,0,0,1-.23-0.23v-8Zm3.69,3.39a1,1,0,0,0,.92-1,0.93,0.93,0,0,0-.92-0.92H14v1.89h1.79Z" transform="translate(-6.12 -0.03)"/><path class="cls-2" d="M20.79,67.14A0.23,0.23,0,0,1,21,66.91h5a0.23,0.23,0,0,1,.23.23v1.32a0.23,0.23,0,0,1-.23.23H22.68v1.5h2.76a0.24,0.24,0,0,1,.23.23v1.32a0.23,0.23,0,0,1-.23.23H22.68v1.64H26a0.23,0.23,0,0,1,.23.23v1.32a0.23,0.23,0,0,1-.23.23H21a0.23,0.23,0,0,1-.23-0.23v-8Z" transform="translate(-6.12 -0.03)"/><path class="cls-2" d="M29.58,68.69H27.85a0.23,0.23,0,0,1-.23-0.23V67.14a0.23,0.23,0,0,1,.23-0.23h5.37a0.23,0.23,0,0,1,.23.23v1.32a0.23,0.23,0,0,1-.23.23H31.49v6.47a0.24,0.24,0,0,1-.23.23H29.81a0.24,0.24,0,0,1-.23-0.23V68.69Z" transform="translate(-6.12 -0.03)"/><path class="cls-2" d="M33.74,75.08l3.79-8.15a0.25,0.25,0,0,1,.21-0.13h0.12a0.25,0.25,0,0,1,.21.13l3.79,8.15a0.21,0.21,0,0,1-.21.32H40.3a0.41,0.41,0,0,1-.42-0.3l-0.44-1H36.15l-0.44,1a0.45,0.45,0,0,1-.44.29H33.94A0.21,0.21,0,0,1,33.74,75.08Zm5-2.59-0.92-2h0l-0.91,2h1.84Z" transform="translate(-6.12 -0.03)"/><path class="cls-2" d="M43.44,67.2a0.29,0.29,0,0,1,.29-0.29h1.42a0.29,0.29,0,0,1,.29.29v3.19L48.13,67a0.36,0.36,0,0,1,.23-0.12h1.52a0.28,0.28,0,0,1,.22.45l-2.83,3.55,3.09,4a0.28,0.28,0,0,1-.23.45H48.45a0.33,0.33,0,0,1-.22-0.08l-2.79-3.8V75.1a0.29,0.29,0,0,1-.29.29H43.73a0.29,0.29,0,0,1-.29-0.29V67.2Z" transform="translate(-6.12 -0.03)"/><path class="cls-2" d="M52.19,67.14a0.23,0.23,0,0,1,.23-0.23h5a0.23,0.23,0,0,1,.23.23v1.32a0.23,0.23,0,0,1-.23.23H54.08v1.5h2.76a0.24,0.24,0,0,1,.23.23v1.32a0.23,0.23,0,0,1-.23.23H54.08v1.64h3.35a0.23,0.23,0,0,1,.23.23v1.32a0.23,0.23,0,0,1-.23.23h-5a0.23,0.23,0,0,1-.23-0.23v-8Z" transform="translate(-6.12 -0.03)"/></svg>