<svg id="view" xmlns="http://www.w3.org/2000/svg" viewBox="0 0 57.9 75.49"><defs><style>.cls-1,.cls-2{fill:#fff;}.cls-2{fill-rule:evenodd;}</style></defs><title>view</title><path class="cls-1" d="M20.12,67.2a0.21,0.21,0,0,1,.21-0.31h1.61a0.24,0.24,0,0,1,.21.13l2,4.42h0.07l2-4.42a0.24,0.24,0,0,1,.21-0.13H28a0.21,0.21,0,0,1,.21.31l-3.8,8.15a0.23,0.23,0,0,1-.21.13H24.1a0.23,0.23,0,0,1-.21-0.13Z" transform="translate(-6.65 0)"/><path class="cls-1" d="M29.82,67.11A0.24,0.24,0,0,1,30,66.88H31.5a0.24,0.24,0,0,1,.23.23v8a0.24,0.24,0,0,1-.23.23H30a0.24,0.24,0,0,1-.23-0.23v-8Z" transform="translate(-6.65 0)"/><path class="cls-1" d="M34.42,67.11a0.23,0.23,0,0,1,.23-0.23h5a0.23,0.23,0,0,1,.23.23v1.32a0.23,0.23,0,0,1-.23.23H36.3v1.5h2.76a0.24,0.24,0,0,1,.23.23v1.32a0.23,0.23,0,0,1-.23.23H36.3v1.64h3.35a0.23,0.23,0,0,1,.23.23v1.32a0.23,0.23,0,0,1-.23.23h-5a0.23,0.23,0,0,1-.23-0.23v-8Z" transform="translate(-6.65 0)"/><path class="cls-1" d="M41.36,67.17a0.21,0.21,0,0,1,.22-0.29H43a0.25,0.25,0,0,1,.22.17l1,4.11h0l1.88-4.26a0.23,0.23,0,0,1,.21-0.13H46.6a0.2,0.2,0,0,1,.21.13l1.88,4.26h0l1-4.11A0.25,0.25,0,0,1,50,66.88h1.42a0.21,0.21,0,0,1,.22.29l-2.29,8.14a0.23,0.23,0,0,1-.22.17H48.92a0.25,0.25,0,0,1-.21-0.13l-2.21-5h0l-2.2,5a0.24,0.24,0,0,1-.21.13H43.87a0.23,0.23,0,0,1-.22-0.17Z" transform="translate(-6.65 0)"/><g id="Shape_23_copy_5" data-name="Shape 23 copy 5"><path class="cls-2" d="M35.6,0A29,29,0,1,0,64.55,29,29,29,0,0,0,35.6,0Zm0,55.72A26.73,26.73,0,1,1,62.3,29,26.75,26.75,0,0,1,35.6,55.72Z" transform="translate(-6.65 0)"/></g><g id="Shape_26" data-name="Shape 26"><path class="cls-2" d="M48.95,20.36a1.3,1.3,0,0,0-.39-0.8q-3.66-3.7-7.37-7.36a1.54,1.54,0,0,0-1-.41c-5.52,0-11,0-16.57,0H23V45.53H48.93c0-.14,0-0.24,0-0.34Q49,32.77,48.95,20.36Zm-7.7-6,5.22,5.22H41.24V14.33Zm6.39,29.9H24.34V13.11H39.87v7.76h7.76V44.24ZM39.4,30.71C38.28,29,37.15,27.35,36,25.65A1.24,1.24,0,0,1,36,24.88c0.15-1,.34-2.08.48-3a14,14,0,0,0-.16-1.44,1.38,1.38,0,0,0-1.23-1.19,1.5,1.5,0,0,0-1.5,1,4,4,0,0,0-.16,1.79c0.2,1,.6,2,0.89,3a1.51,1.51,0,0,1,.05.84q-1.28,3.74-2.63,7.46a1.41,1.41,0,0,1-.59.6c-0.93.59-1.92,1.08-2.79,1.73a4.56,4.56,0,0,0-1.23,1.49,1.71,1.71,0,0,0,.69,2.22,1.45,1.45,0,0,0,1.95-.28,4.13,4.13,0,0,0,.77-0.84c0.62-1,1.19-2,1.81-3A1.54,1.54,0,0,1,33,34.54c1.73-.61,3.49-1.15,5.22-1.75a1.64,1.64,0,0,1,1.87.39,3.47,3.47,0,0,0,2.75,1.1,2.29,2.29,0,0,0,1.89-2c0-.75-0.57-1.29-1.7-1.36a16.54,16.54,0,0,0-2.71.15A0.85,0.85,0,0,1,39.4,30.71ZM28.72,38.37c-0.6-.37-0.57-0.74-0.26-1,0.58-.56,1.22-1.07,1.83-1.6l0.22,0.2Zm6.17-17.87a3.67,3.67,0,0,1,0,2.29A2.74,2.74,0,0,1,34.89,20.51Zm-1.5,12.39,2-5.56,2.81,4.08Zm10-.66c-0.38,1-1.22,1-2.23,0h2.23Z" transform="translate(-6.65 0)"/></g></svg>