<svg xmlns="http://www.w3.org/2000/svg" viewBox="0 0 78.54 58.82"><defs><style>.bf160461-3969-4dc5-993b-c8c288813ba1{isolation:isolate;}.\31 b64f055-cdaa-4251-ac3a-9bba2b93cf5b{fill:#002c5f;fill-rule:evenodd;}</style></defs><title>arrow-right</title><g id="b76fe76c-be24-4e52-b333-d922625b2f84" data-name="Shape 5" class="bf160461-3969-4dc5-993b-c8c288813ba1"><g id="b3751572-2691-4cc0-9a7c-340059908305" data-name="Shape 5"><path class="1b64f055-cdaa-4251-ac3a-9bba2b93cf5b" d="M115.94,131.33C108.26,123.2,99.68,115.17,91.7,107a4.88,4.88,0,1,0-6.9,6.89L101,130.1H44.07a4.91,4.91,0,0,0-4.91,4.9h0a4.91,4.91,0,0,0,4.91,4.9H101L84.8,156.07A4.88,4.88,0,1,0,91.7,163c8.08-8.09,16.19-16.31,24.31-24.28a4.86,4.86,0,0,0,1.69-3.68A4.81,4.81,0,0,0,115.94,131.33Z" transform="translate(-39.16 -105.59)"/></g></g></svg>