<svg id="5f468827-3559-48fc-aa91-3aa152c8cd04" data-name="Layer 1" xmlns="http://www.w3.org/2000/svg" viewBox="0 0 2890 1146"><defs><style>.bef8d5ac-763b-4129-b556-5049f6fc0406{fill:#6f91a9;}.\34 6713529-9be9-416c-9762-872aa994af81{fill:#002c5f;}.\35 996855a-80aa-4ea1-bfef-ea5cb6e95a3d{fill:#d8dbe4;}.b3e5a4a1-d476-4b10-951e-decf5f7e3405{fill:#f9fafc;}.e08d9525-8d19-47be-8b9d-70af1d6d8290{fill:#02043d;}.\30 f6fa987-5eaf-4113-9bfc-ee9f6a92ed13{fill:#886c09;}.a9056703-5ae9-41ab-9e4f-59a0a8fb3798{fill:#c1a236;}.\32 7e9a133-023f-4ca1-9cfe-b0a265d8e11a{fill:none;stroke:#328abd;stroke-width:5px;}.\34 fa34cbd-16ed-412f-b3cd-ead2028a1b2e{fill:#328abd;}</style></defs><title>clipboard</title><g id="0a43d523-fb91-411f-b0ff-9ef5db5acd7f" data-name="Artboard 1"><rect class="bef8d5ac-763b-4129-b556-5049f6fc0406" y="1" width="2890" height="1145"/><path id="7360d0ef-6691-42c6-80ee-305b595cbee1" data-name="Sweep copy 2" class="46713529-9be9-416c-9762-872aa994af81" d="M0,0H2880L0,1017V0Z"/><path class="46713529-9be9-416c-9762-872aa994af81" d="M1257.65,1143.75L611,747.49l117.88-48.27L694.08,679l96.55-39.29s-15.44-8.67-12.35-21.33,24.28-18.27,35.92-19.08,27.93,1,37,3.37a77.78,77.78,0,0,1,18,7.86l94.3-38.17,34.8,21.33,107.77-43.78,638.79,360.35Z"/><path id="69e15d3a-8a52-4432-baf8-c18a5c5fa542" data-name="Shape 8 copy" class="bef8d5ac-763b-4129-b556-5049f6fc0406" d="M1731.41,904.1L1259,1144.81l-16.47-10V220.42L1731.41,75.47l13.47,6.42Z"/><path class="5996855a-80aa-4ea1-bfef-ea5cb6e95a3d" d="M1746,910.84L1257.17,1146V227.15L1746,82.21V910.84Z"/><path class="b3e5a4a1-d476-4b10-951e-decf5f7e3405" d="M1723.92,889.27l-443.23,210.07V255.52l443.23-134.58V889.27Z"/><path class="e08d9525-8d19-47be-8b9d-70af1d6d8290" d="M1380,141.3s-24.31,3.59-35.93,23.57c-9.21,15.85-6.73,28.07-6.73,28.07l68.48-20.21,23.57-44.9Z"/><path class="e08d9525-8d19-47be-8b9d-70af1d6d8290" d="M1378.89,254.68v-64L1366.54,184V170.48h35.93v28.06l-7.86,33.68-11.23,21.33Z"/><path class="0f6fa987-5eaf-4113-9bfc-ee9f6a92ed13" d="M1524.84,49.24S1503.32,41.9,1483.3,65s-14.59,48.27-14.59,48.27l6.73-1.12"/><path class="a9056703-5ae9-41ab-9e4f-59a0a8fb3798" d="M1550.92,89.73c0-28.73-16.71-47.43-37.48-41.72-20.95,5.76-38.08,34.12-38.08,63.31l-97.9,28s7.9,1.59,17.15,12.1c10.83,12.31,13.73,27.64,11.23,46-4,29.37-28.38,59-28.38,59l264.56-82s20.21-27.35,20.21-54.87c0-50.23-20.21-55.9-20.21-55.9Zm-37.48,33.12c-7.17,2.08-13-4.3-13-14.26s5.82-19.69,13-21.72,12.93,4.38,12.93,14.28-5.78,19.62-12.93,21.7h0Z"/><path class="0f6fa987-5eaf-4113-9bfc-ee9f6a92ed13" d="M1378.89,255.8s16.11-35.48,19.14-55c3.17-20.48,3.15-41.83-13.52-51.63-16.34-9.6-32.94,10.31-36.61,19.94a142.63,142.63,0,0,0-6.05,22.72l-6.74,2.24s1-25.81,13.47-38.17,25.09-19.87,39.29-13.47c12.59,5.67,21.78,27.73,21.33,41.54-1.1,34-22.45,70.72-22.45,70.72Z"/><path class="27e9a133-023f-4ca1-9cfe-b0a265d8e11a" d="M1420.49,367.63l-86.84,29.15v118l86.84-31.25V367.63Zm-70,85.47,16.44,16.29,37.26-63.23"/><path class="4fa34cbd-16ed-412f-b3cd-ead2028a1b2e" d="M1689,320l-227.76,78.6v-19.1L1689,301.79V320h0Zm-111.1,75.6-116.66,41.19v-19.1l116.66-40.73v18.63h0Z"/><path id="bc667488-4235-4579-aae7-293ef3067b99" data-name="Shape 11 copy" class="27e9a133-023f-4ca1-9cfe-b0a265d8e11a" d="M1420.49,565.12l-86.84,32.72v118L1420.49,681V565.12Zm-70,88.34,16.44,15.62,37.26-64.76"/><path id="9395725c-2839-47f1-961a-6efdd299ebc8" data-name="Shape 12 copy" class="4fa34cbd-16ed-412f-b3cd-ead2028a1b2e" d="M1689,506.45l-227.76,87.94v-19.1l227.76-87v18.19h0Zm-111.1,80.16-116.66,46v-19.1L1577.88,568v18.63h0Z"/><path id="d41a59ae-6094-4d03-9c72-6b921b992e45" data-name="Shape 11 copy 2" class="27e9a133-023f-4ca1-9cfe-b0a265d8e11a" d="M1420.49,762.61l-86.84,36.28v118l86.84-38.37V762.61Zm-70,91.21,16.44,14.94,37.26-66.28"/><path id="9202eecc-cd03-4112-b273-96e427e56de0" data-name="Shape 12 copy 2" class="4fa34cbd-16ed-412f-b3cd-ead2028a1b2e" d="M1689,692.93l-227.76,97.28v-19.1L1689,674.74v18.19Zm-111.1,84.72-116.66,50.76v-19.1L1577.88,759v18.63h0Z"/></g></svg>