<svg id="Layer_1" data-name="Layer 1" xmlns="http://www.w3.org/2000/svg" viewBox="0 0 47 47"><defs><style>.cls-1{fill:#5a5a5f;}</style></defs><title>comment_gray</title><g id="c7e8de46-33f6-4a3f-94c6-9ae899fff12a"><g id="_6ae10d70-45aa-482b-ac99-b309f5ccce49" data-name="6ae10d70-45aa-482b-ac99-b309f5ccce49"><path class="cls-1" d="M23.5,0C10.54,0,0,8.86,0,19.74,0,25.8,3.35,31.57,9,35.28l-1.21,8.5A2.82,2.82,0,0,0,10.18,47l0.4,0a2.8,2.8,0,0,0,1.8-.66l8.41-7a26.29,26.29,0,0,0,2.71.14c13,0,23.5-8.85,23.5-19.74S36.46,0,23.5,0Zm0,33.84a22,22,0,0,1-3.17-.24,2.85,2.85,0,0,0-2.21.63l-3.71,3.1,0.44-3.09a2.84,2.84,0,0,0-1.44-2.88c-4.86-2.65-7.76-7-7.76-11.61,0-7.77,8-14.1,17.86-14.1S41.36,12,41.36,19.74,33.35,33.84,23.5,33.84Z"/></g></g></svg>