<?xml version="1.0" encoding="utf-8"?>
<!-- Generator: Adobe Illustrator 19.2.1, SVG Export Plug-In . SVG Version: 6.00 Build 0)  -->
<svg version="1.1" id="Layer_1" xmlns="http://www.w3.org/2000/svg" xmlns:xlink="http://www.w3.org/1999/xlink" x="0px" y="0px"
	 viewBox="0 0 40 40" style="enable-background:new 0 0 40 40;" xml:space="preserve">
<style type="text/css">
	.st0{fill:#FFFFFF;}
</style>
<g>
	<path class="st0" d="M35,39.1H5c-0.9,0-1.7-0.8-1.7-1.7v-9.8c0-0.9,0.8-1.7,1.7-1.7s1.7,0.8,1.7,1.7v8.1h26.5v-8.1
		c0-0.9,0.8-1.7,1.7-1.7s1.7,0.8,1.7,1.7v9.8C36.7,38.4,35.9,39.1,35,39.1z"/>
</g>
<g>
	<g>
		<path class="st0" d="M28.4,18.7L21.2,26c-0.2,0.2-0.4,0.3-0.7,0.4c-0.1,0-0.1,0-0.2,0c-0.1,0-0.2,0-0.3,0c-0.3,0-0.6-0.1-0.8-0.2
			c-0.1,0-0.1-0.1-0.1-0.1c0,0-0.1-0.1-0.1-0.1c0,0-0.1-0.1-0.1-0.1l-7.2-7.3c-0.7-0.7-0.7-1.8,0-2.4c0.7-0.7,1.7-0.7,2.4,0l4.3,4.4
			V2.6c0-0.9,0.8-1.7,1.7-1.7c0.9,0,1.7,0.8,1.7,1.7v18l4.3-4.4c0.7-0.7,1.7-0.7,2.4,0C29.1,17,29.1,18,28.4,18.7z"/>
	</g>
</g>
</svg>
