<svg xmlns="http://www.w3.org/2000/svg" viewBox="0 0 54 36"><defs><style>.cce7bca9-8e7a-47a9-b356-e9b2d6ab9f2a{isolation:isolate;}.a1550ec0-bd85-42fc-acfc-8d08429cc701{fill:#fff;fill-rule:evenodd;}</style></defs><title>eye</title><g id="f65742d7-dcc2-4474-bf45-24a22272bf61" data-name="Shape 7" class="cce7bca9-8e7a-47a9-b356-e9b2d6ab9f2a"><g id="eed04ffe-397b-4c74-8fbf-d4388ecc8c7d" data-name="Shape 7"><path class="a1550ec0-bd85-42fc-acfc-8d08429cc701" d="M27,0A32.56,32.56,0,0,0,8.28,6.24C4.26,9.12,0,13.74,0,18c0,3.84,3.12,8.34,8.28,12A32.62,32.62,0,0,0,27,36a33.25,33.25,0,0,0,18.72-5.88C50.88,26.46,54,22,54,18,54,11,41.64,0,27,0Zm0,30a27,27,0,0,1-15.24-4.92C7.56,22.14,6,19.2,6,18,6,15.66,14.4,6,27,6a26.85,26.85,0,0,1,15.24,5C46.56,14.16,48,17.1,48,18,48,21.6,39.12,30,27,30Zm0-18.78a6.6,6.6,0,1,0,6.6,6.6A6.6,6.6,0,0,0,27,11.22Z" transform="translate(0)"/></g></g></svg>