<svg id="Layer_1" data-name="Layer 1" xmlns="http://www.w3.org/2000/svg" viewBox="0 0 54 36"><defs><style>.cls-1{fill:#5a5a5f;}</style></defs><title>eye_gray</title><g id="f65742d7-dcc2-4474-bf45-24a22272bf61"><g id="eed04ffe-397b-4c74-8fbf-d4388ecc8c7d"><path class="cls-1" d="M27,0A32.56,32.56,0,0,0,8.28,6.24C4.26,9.12,0,13.74,0,18c0,3.84,3.12,8.34,8.28,12A32.62,32.62,0,0,0,27,36a33.25,33.25,0,0,0,18.72-5.88C50.88,26.46,54,22,54,18,54,11,41.64,0,27,0Zm0,30a27,27,0,0,1-15.24-4.92C7.56,22.14,6,19.2,6,18,6,15.66,14.4,6,27,6a26.85,26.85,0,0,1,15.24,5C46.56,14.16,48,17.1,48,18,48,21.6,39.12,30,27,30Zm0-18.78a6.6,6.6,0,1,0,6.6,6.6h0A6.6,6.6,0,0,0,27,11.22Z"/></g></g></svg>