<?xml version="1.0" encoding="utf-8"?>
<!-- Generator: Adobe Illustrator 19.2.1, SVG Export Plug-In . SVG Version: 6.00 Build 0)  -->
<svg version="1.1" id="Layer_1" xmlns="http://www.w3.org/2000/svg" xmlns:xlink="http://www.w3.org/1999/xlink" x="0px" y="0px"
	 viewBox="0 0 75 75" style="enable-background:new 0 0 75 75;" xml:space="preserve">
<style type="text/css">
	.st0{fill:#FFFFFF;}
</style>
<path class="st0" d="M37,65.9c13.5,0,24.5-11,24.5-24.5c0-1.5-1.2-2.7-2.7-2.7s-2.7,1.2-2.7,2.7c0,10.5-8.6,19.1-19.1,19.1
	s-19.1-8.6-19.1-19.1S26.5,22.3,37,22.3c4.2,0,8.3,1.4,11.6,4L39.2,28c-1.5,0.3-2.4,1.7-2.2,3.2c0.2,1.3,1.4,2.2,2.7,2.2
	c0.2,0,0.3,0,0.5,0l15-2.8c1.5-0.3,2.4-1.7,2.2-3.2l-2.8-15c-0.3-1.5-1.7-2.4-3.2-2.2c-1.5,0.3-2.4,1.7-2.2,3.2l1.4,7.7
	c-4-2.7-8.7-4.2-13.6-4.2c-13.5,0-24.5,11-24.5,24.5C12.5,54.9,23.5,65.9,37,65.9z"/>
</svg>
