<?xml version="1.0" encoding="utf-8"?>
<!-- Generator: Adobe Illustrator 19.2.1, SVG Export Plug-In . SVG Version: 6.00 Build 0)  -->
<svg version="1.1" id="Layer_1" xmlns="http://www.w3.org/2000/svg" xmlns:xlink="http://www.w3.org/1999/xlink" x="0px" y="0px"
	 viewBox="0 0 40 40" style="enable-background:new 0 0 40 40;" xml:space="preserve">
<style type="text/css">
	.st0{fill:none;stroke:#FFFFFF;stroke-width:2;stroke-miterlimit:10;}
</style>
<path class="st0" d="M17.9,38.5c-8.7,0-16.4-7.9-16.4-17C1.5,12.6,8.6,5.1,17,5.1c0.7,0,1.2,0.6,1.2,1.3c0,0,0,12.5,0,13.7
	c0,1.3,1.3,1.4,1.3,1.4H33c0.7,0,1.3,0.5,1.3,1.3C34.3,31.3,26.8,38.5,17.9,38.5z M36.3,18.1H22.4c-0.7,0-1.2-0.5-1.2-1.2V2.7
	c0-0.7,0.5-1.2,1.2-1.2c8.9,0,15.1,6.3,15.1,15.4C37.5,17.5,37,18.1,36.3,18.1z"/>
</svg>
