<?xml version="1.0" encoding="utf-8"?>
<!-- Generator: Adobe Illustrator 19.2.1, SVG Export Plug-In . SVG Version: 6.00 Build 0)  -->
<svg version="1.1" id="_x2014_ÎÓÈ_x5F_1" xmlns="http://www.w3.org/2000/svg" xmlns:xlink="http://www.w3.org/1999/xlink"
	 x="0px" y="0px" viewBox="0 0 1900 872" style="enable-background:new 0 0 1900 872;" xml:space="preserve">
<style type="text/css">
	.st0{fill:#92D3D9;}
	.st1{clip-path:url(#SVGID_2_);}
	.st2{fill:#FFFFFF;}
	.st3{fill:#B3B3B3;}
	.st4{fill:#32526E;}
	.st5{clip-path:url(#SVGID_4_);fill:#253E51;}
	.st6{fill:#ECB98C;}
	.st7{fill:#D4A477;}
	.st8{fill:#F6E2CA;}
	.st9{fill:#E6E6E6;}
	.st10{fill:#0B5966;}
	.st11{fill:#0F7689;}
	.st12{fill:#192937;}
	.st13{fill:#E84C3D;}
</style>
<rect class="st0" width="1900" height="872"/>
<g>
	<g>
		<defs>
			<rect id="SVGID_1_" width="1900" height="872"/>
		</defs>
		<clipPath id="SVGID_2_">
			<use xlink:href="#SVGID_1_"  style="overflow:visible;"/>
		</clipPath>
		<g class="st1">
			<g>
				<path class="st2" d="M1350.9,684.4H594.1c-17.8,0-32.3-14.5-32.3-32.3V201.3c0-17.8,14.5-32.3,32.3-32.3h756.8
					c17.8,0,32.3,14.5,32.3,32.3v450.9C1383.2,670,1368.7,684.4,1350.9,684.4z"/>
				<path class="st3" d="M584.9,360h3.8c4.7,0,8.4,3.8,8.4,8.4V485c0,4.7-3.8,8.4-8.4,8.4h-3.8c-4.7,0-8.4-3.8-8.4-8.4V368.4
					C576.5,363.7,580.3,360,584.9,360z"/>
				<path class="st4" d="M1305.9,208v437.4c0,7-5.7,12.7-12.7,12.7H619.9c-7,0-12.7-5.7-12.7-12.7V208c0-7,5.7-12.7,12.7-12.7h673.4
					C1300.3,195.3,1305.9,201,1305.9,208z"/>
				
					<ellipse transform="matrix(1.447710e-03 -1 1 1.447710e-03 911.2865 1765.8041)" class="st3" cx="1339.8" cy="426.6" rx="26.7" ry="26.7"/>
			</g>
			<g>
				<defs>
					<path id="SVGID_3_" d="M1305.9,208v437.4c0,7-5.7,12.7-12.7,12.7H619.9c-7,0-12.7-5.7-12.7-12.7V208c0-7,5.7-12.7,12.7-12.7
						h673.4C1300.3,195.3,1305.9,201,1305.9,208z"/>
				</defs>
				<clipPath id="SVGID_4_">
					<use xlink:href="#SVGID_3_"  style="overflow:visible;"/>
				</clipPath>
				<polygon class="st5" points="1311,191 596,660 1319,660 				"/>
			</g>
			<g>
				<g>
					<path class="st6" d="M517.7,385l-29.1,31.8l-82,89.9c-18,16.8-28,40.5-27.6,65.1c1.1,67.9,3.3,203.8,3.3,228.1
						c0,11.2-16.8,58.7-38.8,116.1c-42,109.4,8.9,102.9,8.9,102.9h161.3c0,0-24.3-61.7,25.9-156.5s46.2-141.8,49.4-155.3
						s-9.6-157.7-7.2-249.3c2.4-91.6-42.2-85.2-42.2-85.2S522.8,374.6,517.7,385z"/>
					<path class="st7" d="M517.7,385c0,0-21.1,17.3-13.9,115.9c6.9,94.6-9.6,100.7-9.6,100.7s-2.4-33.4-2-47.4
						c0.4-13.9,2-35.4,1.6-51.4c-0.4-15.9-0.9-26.3-1.6-39.4c-0.8-13.1-2.6-28.4-0.9-36.7C492.8,418.3,517.7,385,517.7,385z"/>
					<path class="st8" d="M559.6,426.7c5.5,0,9.9-4.7,9.9-10.6V408c0-16.6-12.4-30.1-27.8-30.2l0,0c-15.4,0-28,13.4-28,30v8.1
						c0,5.9,4.4,10.7,9.8,10.7L559.6,426.7z"/>
				</g>
				<g>
					<rect x="318.7" y="873" class="st9" width="239.9" height="63.3"/>
					<rect x="318.7" y="873" class="st2" width="123.9" height="63.3"/>
					<polygon class="st10" points="441.8,936.3 441.8,1056.5 563.8,1056.5 563.9,913.8 558.5,913.8 442.6,913.7 441.8,913.7 					
						"/>
					<polygon class="st11" points="441.8,1056.5 441.8,936.3 441.8,936.3 441.8,913.7 318.7,913.6 313.7,913.6 313.6,1056.5 					
						"/>
					<g>
						
							<ellipse transform="matrix(0.9775 -0.2108 0.2108 0.9775 -186.0946 134.4488)" class="st9" cx="537.6" cy="940.1" rx="11.1" ry="11.1"/>
						
							<ellipse transform="matrix(0.9775 -0.2108 0.2108 0.9775 -192.4062 135.0362)" class="st9" cx="537.2" cy="970" rx="11.1" ry="11.1"/>
						
							<ellipse transform="matrix(0.9775 -0.2108 0.2108 0.9775 -198.7397 135.6261)" class="st9" cx="536.8" cy="1000" rx="11.1" ry="11.1"/>
						
							<ellipse transform="matrix(0.9775 -0.2108 0.2108 0.9775 -205.0513 136.2135)" class="st9" cx="536.4" cy="1029.9" rx="11.1" ry="11.1"/>
					</g>
				</g>
			</g>
			<g>
				<g>
					<path class="st6" d="M1382.3,385l29.1,31.8l82,89.9c18,16.8,28,40.5,27.6,65.1c-1.1,67.9-3.3,203.8-3.3,228.1
						c0,11.2,16.8,58.7,38.8,116.1c42,109.4-8.9,102.9-8.9,102.9h-161.3c0,0,24.3-61.7-25.9-156.5c-50.2-94.8-46.2-141.8-49.4-155.3
						c-3.2-13.5,9.6-157.7,7.2-249.3s42.2-85.2,42.2-85.2S1377.2,374.6,1382.3,385z"/>
					<path class="st7" d="M1382.3,385c0,0,21.1,17.3,13.9,115.9c-6.9,94.6,9.6,100.7,9.6,100.7s2.4-33.4,2-47.4
						c-0.4-13.9-2-35.4-1.6-51.4c0.4-15.9,0.9-26.3,1.6-39.4c0.8-13.1,2.6-28.4,0.9-36.7C1407.2,418.3,1382.3,385,1382.3,385z"/>
					<path class="st8" d="M1340.4,426.7c-5.5,0-9.9-4.7-9.9-10.6V408c0-16.6,12.4-30.1,27.8-30.2l0,0c15.4,0,28,13.4,28,30v8.1
						c0,5.9-4.4,10.7-9.8,10.7L1340.4,426.7z"/>
				</g>
				<g>
					<rect x="1341.5" y="873" class="st2" width="239.9" height="63.3"/>
					<rect x="1457.4" y="873" class="st9" width="123.9" height="63.3"/>
					<polygon class="st11" points="1458.2,936.3 1458.2,1056.5 1336.2,1056.5 1336.1,913.8 1341.5,913.8 1457.4,913.7 1458.2,913.7 
											"/>
					<polygon class="st10" points="1458.2,1056.5 1458.2,936.3 1458.2,936.3 1458.2,913.7 1581.3,913.6 1586.3,913.6 1586.4,1056.5 
											"/>
					<g>
						
							<ellipse transform="matrix(0.2108 -0.9775 0.9775 0.2108 155.9821 2073.8816)" class="st9" cx="1362.4" cy="940.3" rx="11.1" ry="11.1"/>
						
							<ellipse transform="matrix(0.2108 -0.9775 0.9775 0.2108 127.0387 2097.781)" class="st9" cx="1362.7" cy="970.2" rx="11.1" ry="11.1"/>
						
							<ellipse transform="matrix(0.2108 -0.9775 0.9775 0.2108 98.0919 2121.9333)" class="st9" cx="1363.2" cy="1000.2" rx="11.1" ry="11.1"/>
						
							<ellipse transform="matrix(0.2108 -0.9775 0.9775 0.2108 69.1515 2145.8311)" class="st9" cx="1363.5" cy="1030.1" rx="11.1" ry="11.1"/>
					</g>
				</g>
			</g>
			<g>
				<path class="st12" d="M1305.9,593.1v52.3c0,7-5.7,12.7-12.7,12.7H619.9c-7,0-12.7-5.7-12.7-12.7v-52.3H1305.9z"/>
				<path class="st2" d="M654.6,604.4l34.3,19.8c1,0.6,1,2.1,0,2.7l-34.3,19.8c-1,0.6-2.4-0.2-2.4-1.4v-39.6
					C652.2,604.6,653.6,603.8,654.6,604.4z"/>
				<g>
					<path class="st2" d="M1219.9,649.6h-2.2c-1.8,0-3.2-1.4-3.2-3.2V631c0-1.8,1.4-3.2,3.2-3.2h2.2c1.8,0,3.2,1.4,3.2,3.2v15.4
						C1223.2,648.1,1221.7,649.6,1219.9,649.6z"/>
					<path class="st2" d="M1231.3,649.6L1231.3,649.6c-2.4,0-4.3-1.9-4.3-4.3v-20.8c0-2.4,1.9-4.3,4.3-4.3l0,0
						c2.4,0,4.3,1.9,4.3,4.3v20.8C1235.7,647.6,1233.7,649.6,1231.3,649.6z"/>
					<path class="st2" d="M1243.9,649.6L1243.9,649.6c-2.4,0-4.3-1.9-4.3-4.3v-27.1c0-2.4,1.9-4.3,4.3-4.3l0,0
						c2.4,0,4.3,1.9,4.3,4.3v27.1C1248.2,647.6,1246.2,649.6,1243.9,649.6z"/>
					<path class="st2" d="M1256.4,649.6L1256.4,649.6c-2.4,0-4.3-1.9-4.3-4.3v-35c0-2.4,1.9-4.3,4.3-4.3l0,0c2.4,0,4.3,1.9,4.3,4.3
						v35C1260.7,647.6,1258.7,649.6,1256.4,649.6z"/>
					<path class="st2" d="M1268.9,649.6L1268.9,649.6c-2.4,0-4.3-1.9-4.3-4.3V604c0-2.4,1.9-4.3,4.3-4.3l0,0c2.4,0,4.3,1.9,4.3,4.3
						v41.3C1273.2,647.6,1271.3,649.6,1268.9,649.6z"/>
				</g>
				<g>
					<path class="st2" d="M1173,625.6L1173,625.6c0,7.3-5.9,13.2-13.2,13.2H753.3c-7.3,0-13.2-5.9-13.2-13.2c0-3.6,1.5-6.9,3.9-9.3
						c2.4-2.4,5.7-3.9,9.3-3.9h406.6C1167.1,612.4,1173,618.3,1173,625.6z"/>
					<path class="st13" d="M919.2,638.7H753.3c-7.3,0-13.2-5.9-13.2-13.2l0,0c0-7.3,5.9-13.2,13.2-13.2h165.9
						c7.3,0,13.2,5.9,13.2,13.2C932.3,625.6,926.4,638.7,919.2,638.7z"/>
					<circle class="st13" cx="930.9" cy="625.6" r="24"/>
				</g>
			</g>
		</g>
	</g>
</g>
</svg>
