<?xml version="1.0" encoding="utf-8"?>
<!-- Generator: Adobe Illustrator 19.2.1, SVG Export Plug-In . SVG Version: 6.00 Build 0)  -->
<svg version="1.1" xmlns="http://www.w3.org/2000/svg" xmlns:xlink="http://www.w3.org/1999/xlink" x="0px" y="0px"
	 viewBox="0 0 1900 872" style="enable-background:new 0 0 1900 872;" xml:space="preserve">
<style type="text/css">
	.st0{fill:#7AC7D6;}
	.st1{clip-path:url(#SVGID_2_);}
	.st2{fill:#FCF372;}
	.st3{fill:#FBB400;}
	.st4{fill:#FC8700;}
	.st5{fill:#B78C68;}
	.st6{fill:#A57E5D;}
	.st7{opacity:0.7;fill:#66A7BD;}
	.st8{fill:#1B708F;}
	.st9{fill:#0B5E76;}
	.st10{fill:#0F353E;}
	.st11{fill:#7F8C91;}
	.st12{fill:#FFFFFF;}
	.st13{fill:#DEDCCE;}
	.st14{fill:#3B94B1;}
	.st15{fill:#10596E;}
	.st16{opacity:0.36;}
	.st17{opacity:0.11;fill:#FFFFFF;}
	.st18{opacity:0.26;}
	.st19{opacity:0.53;fill:#FFFFFF;}
	.st20{fill:#FFFDEB;}
	.st21{fill-rule:evenodd;clip-rule:evenodd;fill:#468793;}
	.st22{fill-rule:evenodd;clip-rule:evenodd;fill:#F29C12;}
	.st23{fill-rule:evenodd;clip-rule:evenodd;fill:#E46761;}
</style>
<g id="_x2014_ÎÓÈ_x5F_3">
	<rect class="st0" width="1900" height="872"/>
</g>
<g id="_x2014_ÎÓÈ_x5F_4">
	<g id="_x2014_ÎÓÈ_x5F_9">
	</g>
	<g>
		<defs>
			<rect id="SVGID_1_" width="1900" height="872"/>
		</defs>
		<clipPath id="SVGID_2_">
			<use xlink:href="#SVGID_1_"  style="overflow:visible;"/>
		</clipPath>
		<g class="st1">
			<g>
				<path class="st2" d="M952.5,230.6c0-22.7-18.4-41.1-41.1-41.1l0,0l0,0l0,0l0,0c-22.7,0-41.1,18.4-41.1,41.1c0,0.2,0,0.3,0,0.5
					c0,0.2,0,0.4,0,0.6c0,24,24.2,40.1,30.1,55.6c3.2,8.3,3.8,12.9,11,13.2l0,0l0,0l0,0l0,0c7.2-0.3,7.8-4.9,11-13.2
					c6-15.6,30.2-31.6,30.2-55.6c0-0.2,0-0.4,0-0.6C952.5,231,952.5,230.8,952.5,230.6z"/>
				<g>
					<path class="st3" d="M890.2,230.6c0,0.2,0,0.3,0,0.5c0,0.2,0,0.4,0,0.6c0,24,12.5,40.1,15.5,55.6c1.6,8.3,1.9,12.9,5.7,13.2
						v-111C899.7,189.5,890.2,207.9,890.2,230.6z"/>
					<path class="st4" d="M932.6,230.6c0-22.7-9.5-41.1-21.2-41.1l0,0v111l0,0c3.7-0.3,4-4.9,5.6-13.2c3.1-15.6,15.5-31.6,15.5-55.6
						c0-0.2,0-0.4,0-0.6C932.6,231,932.6,230.8,932.6,230.6z"/>
				</g>
				<g>
					<rect x="901" y="288.8" class="st5" width="10.5" height="18.6"/>
					<rect x="911.4" y="288.8" class="st6" width="10.5" height="18.6"/>
				</g>
			</g>
			<polygon class="st7" points="666.8,880.4 508,655.2 501.5,645.9 496.6,653.1 367.8,845.3 166.2,1146.2 298.6,1146.2 
				718.9,1146.2 803.3,1146.2 803.3,1074.1 			"/>
			<g>
				<polygon class="st8" points="390.8,819.5 389.8,820.7 342.2,788.1 205.7,981.8 205.7,1053.9 290.2,1053.9 390.8,819.5 				"/>
				<polygon class="st9" points="515.8,796.6 462.3,737.9 390.8,819.5 290.2,1053.9 710.5,1053.9 574.2,714.7 				"/>
				<polygon class="st10" points="638,762.1 574.9,713.7 574.2,714.7 574.2,714.7 710.5,1053.9 842.9,1053.9 641.2,753 				"/>
				<polygon class="st11" points="574.9,713.7 638,762.1 641.2,753 512.4,560.8 574.2,714.7 				"/>
				<polygon class="st12" points="390.8,819.5 501,563 342.2,788.1 389.8,820.7 				"/>
				<polygon class="st13" points="390.8,819.5 462.3,737.9 515.8,796.6 574.2,714.7 574.2,714.7 512.4,560.8 507.6,553.6 501,563 
					390.8,819.5 				"/>
			</g>
			<polygon class="st7" points="1539.8,765.1 1381,539.9 1374.4,530.5 1369.6,537.7 1343.7,576.4 1277.5,482.4 1270.9,473.1 
				1266.1,480.2 1137.3,672.4 935.6,973.3 1068,973.3 1077.7,973.3 1039.2,1030.8 1171.6,1030.8 1591.9,1030.8 1676.3,1030.8 
				1676.3,958.7 			"/>
			<g>
				<polygon class="st8" points="887.3,501.7 1049.4,271.7 1049.4,271.6 553.1,975.7 771.4,985.1 984.7,435.2 				"/>
				<polygon class="st10" points="1119.9,427.3 1119.5,427.8 1359.2,985.1 1441.1,985.1 1441.1,853.7 1178.6,462 				"/>
				<polygon class="st14" points="1050.2,270.5 1050.2,270.4 1049.4,271.6 1049.4,271.7 				"/>
				<polygon class="st15" points="1049.4,531.8 984.7,435.2 771.4,985.1 1359.2,985.1 1119.5,427.8 				"/>
				<polygon class="st12" points="1053.1,268 1052.6,267.1 1050.2,270.5 1060.6,286 				"/>
				<polygon class="st12" points="887.3,501.7 984.7,435.2 1049.4,271.7 				"/>
				<polygon class="st11" points="1119.9,427.3 1178.6,462 1060.6,286 1119.5,427.8 				"/>
				<polygon class="st13" points="984.7,435.2 1049.4,531.8 1119.5,427.8 1060.6,286 1052.9,265.8 1049.4,271.7 				"/>
			</g>
			<g>
				<polygon class="st8" points="685.7,688.5 684.7,689.7 637.2,657.1 500.7,850.7 500.7,922.8 585.1,922.8 685.7,688.5 				"/>
				<polygon class="st9" points="810.7,665.5 757.3,606.8 685.7,688.5 585.1,922.8 1005.4,922.8 869.2,583.6 				"/>
				<polygon class="st10" points="932.9,631 869.9,582.7 869.2,583.6 869.2,583.6 1005.4,922.8 1137.8,922.8 936.1,621.9 				"/>
				<polygon class="st11" points="869.9,582.7 932.9,631 936.1,621.9 807.3,429.7 869.2,583.6 				"/>
				<polygon class="st12" points="685.7,688.5 795.9,431.9 637.2,657.1 684.7,689.7 				"/>
				<polygon class="st13" points="685.7,688.5 757.3,606.8 810.7,665.5 869.2,583.6 869.2,583.6 807.3,429.7 802.5,422.5 
					795.9,431.9 685.7,688.5 				"/>
			</g>
			<g class="st16">
				<path class="st12" d="M564.1,467c-3.2,0-6.3,0.4-9.3,1c-4.1-8.4-14.1-14.3-26-14.3c-14.1,0-25.7,8.4-27.6,19.2
					c-2.6-0.5-5.2-0.8-8-0.8c-18.3,0-33.1,11.3-33.1,25.2c0,13.9,14.8,25.2,33.1,25.2c3.3,0,6.5-0.4,9.5-1.1
					c1.5,7.3,9.5,12.9,19.1,12.9c10.7,0,19.4-6.8,19.4-15.3c0-0.7-0.1-1.5-0.2-2.2c6.2,4.3,14.2,6.9,22.9,6.9
					c19.5,0,35.3-12.7,35.3-28.4C599.4,479.8,583.6,467,564.1,467z"/>
			</g>
			<path class="st17" d="M1318.9,454.4c-1.2,0-2.3,0.1-3.4,0.4c-1.5-3-5.1-5.2-9.4-5.2c-5.1,0-9.3,3-10,7c-0.9-0.2-1.9-0.3-2.9-0.3
				c-6.6,0-12,4.1-12,9.1c0,5,5.4,9.1,12,9.1c1.2,0,2.4-0.1,3.5-0.4c0.5,2.6,3.4,4.7,6.9,4.7c3.9,0,7-2.5,7-5.5c0-0.3,0-0.5-0.1-0.8
				c2.2,1.5,5.1,2.5,8.3,2.5c7.1,0,12.8-4.6,12.8-10.3C1331.7,459,1326,454.4,1318.9,454.4z"/>
			<path class="st17" d="M839.5,418c-1.2,0-2.3,0.1-3.4,0.4c-1.5-3-5.1-5.2-9.4-5.2c-5.1,0-9.3,3-10,7c-0.9-0.2-1.9-0.3-2.9-0.3
				c-6.6,0-12,4.1-12,9.1c0,5.1,5.4,9.1,12,9.1c1.2,0,2.4-0.1,3.5-0.4c0.5,2.6,3.4,4.7,6.9,4.7c3.9,0,7-2.5,7-5.5
				c0-0.3,0-0.5-0.1-0.8c2.2,1.5,5.1,2.5,8.3,2.5c7.1,0,12.8-4.6,12.8-10.3C852.3,422.6,846.6,418,839.5,418z"/>
			<path class="st12" d="M607.6,510.2c-3.1-0.5-6.2-0.1-8.8,0.8c-2.8-7-9.6-12.4-18.3-13.6c-11.4-1.7-22.4,4.2-27,13.5
				c-11.4-1.3-22,4.6-23.8,13.4c-1.9,9,6,17.7,17.7,19.4c6.7,1,13.3-0.6,18-3.8c0.1,0.1,0.2,0.1,0.3,0.1c1.5,1.9,4,3.4,7,3.8
				c4.1,0.6,8-0.8,10.1-3.3c1.2-0.4,2.5-0.8,3.6-1.4c1.5,1.9,3.9,3.3,6.9,3.7c5.5,0.8,10.6-2,11.5-6.2c0.3-1.2,0.1-2.3-0.3-3.4
				c7.5,0.4,14.2-3.6,15.5-9.4C621.3,517.4,615.8,511.4,607.6,510.2z"/>
			<path class="st12" d="M1346.5,337.1c-3.7-0.5-7.5-0.5-11.2-0.1c5.7-7.8,5.9-16.6-0.6-22.7c-5.3-4.9-13.9-7-23.2-6.4
				c2.2-24.2-14.6-44.7-41.3-47.9c-27.6-3.3-56.3,13-68,37.4c-2.5-1.2-5.4-2.1-8.5-2.4c-12.5-1.5-25,4.8-27.9,14.1
				c-1.6,5.3,0.2,10.3,4.4,14c-8.9,5.4-15.5,12.9-18.2,21.6c-6.1,19.8,10.7,38.5,37.5,41.8c14.8,1.8,29.5-1.5,40.8-8.2
				c1.6,2.3,4,4.3,7,5.8c6.3,7.1,16.5,12.3,29,13.8c16.7,2,33.3-3,44.2-12c5,3.4,11.4,5.9,18.8,6.8c20.7,2.5,41.3-7.9,46.1-23.2
				C1380.1,354.1,1367.2,339.6,1346.5,337.1z"/>
			<g class="st18">
				<path class="st12" d="M1484.7,767.5c1.8-6.2,2.8-12.8,2.8-19.5c0-40.7-35.4-73.8-79-73.8c-39.2,0-71.8,26.7-78,61.7
					c-86.2,14-151.2,76.8-151.2,152.1c0,11.5,1.6,22.7,4.4,33.5c-16.1-4.2-33.8-6.6-52.3-6.6c-76.4,0-138.3,39.7-138.3,88.7
					c0,49,61.9,88.7,138.3,88.7c67.9,0,124.3-31.4,136-72.7c28.8,14.9,62.8,23.6,99.3,23.6c103.5,0,187.4-69.4,187.4-155
					C1554.3,839.3,1527.1,795.9,1484.7,767.5z"/>
			</g>
			<g class="st18">
				<path class="st12" d="M250.3,759.2c-2.2-4.9-3.8-10.3-4.6-15.9c-4.7-33.8,20.8-65.3,57-70.4c32.6-4.6,62.1,21.3,71.3,49.6
					c123.3-49.1,194.7,76.8,168.3,140.8c57.7-52.6,163.7,27.3,108.2,138.8c-18.3,36.7-62.3-15.6-125.7-6.7
					c-56.3,7.9-50.5-19.5-65-52.4c-22.2,15.7-49.4,26.9-79.7,31.1c-85.9,12.1-163.6-35.8-173.5-106.8
					C200.9,826.9,218.4,787.7,250.3,759.2z"/>
			</g>
			<path class="st19" d="M1383.5,969.3c9.9-11.7,17.5-26.1,21.7-42.4c13.2-51.8-13.4-103.2-59.3-114.9
				c-38.2-9.7-77.7,11.1-97.6,48.1c-82-12.8-160.2,33.3-179.4,108.6c-20.5,80.5,34.1,163.8,121.9,186.2
				c87.8,22.4,175.6-24.7,196.1-105.2C1393.9,1022.4,1392.2,994.8,1383.5,969.3z"/>
			<path class="st19" d="M423.8,810.1c6.6,1.1,12.9,2.6,19.1,4.5c10.9-23,35.2-37,60.7-32.8c31.1,5.1,52,35.3,46.7,67.6
				c-2.5,15.2-10.4,28.2-21.4,37.1c13.5,26.3,19.1,56.9,14,88.2c-12.8,78-86.8,130.7-165.4,117.9C299,1079.6,245.7,1006,258.4,928
				C271.2,850,345.2,797.3,423.8,810.1z"/>
			<path class="st12" d="M269.4,919.8c-4.7-3-9.1-6.3-13.3-9.8c-16,14.1-39.5,16.8-57.8,5.2c-22.3-14.3-28.3-44.6-13.5-67.7
				c7-10.9,17.4-18.3,28.8-21.5c-1.7-24.8,4.2-50.2,18.5-72.7c35.8-55.9,110.4-72,166.8-36c56.3,36,73,110.6,37.2,166.5
				C400.4,939.8,325.7,955.9,269.4,919.8z"/>
			<path class="st12" d="M415,1081.8c-4.7-3-9.1-6.3-13.3-9.8c-16,14.1-39.5,16.8-57.8,5.2c-22.3-14.3-28.3-44.6-13.5-67.7
				c7-10.9,17.4-18.3,28.8-21.5c-1.7-24.8,4.2-50.2,18.5-72.7c35.8-55.9,110.4-72,166.8-36c56.3,36,73,110.6,37.2,166.5
				C546,1101.8,471.3,1117.8,415,1081.8z"/>
			<path class="st12" d="M724.1,1180.5c-4.7-3-9.1-6.3-13.3-9.8c-16,14.1-39.5,16.8-57.8,5.2c-22.3-14.3-28.3-44.6-13.5-67.7
				c7-10.9,17.4-18.3,28.8-21.5c-1.7-24.8,4.2-50.2,18.5-72.7c35.8-55.9,110.4-72,166.8-36c56.3,36,73,110.6,37.2,166.5
				C855.1,1200.4,780.4,1216.5,724.1,1180.5z"/>
			<path class="st12" d="M1047.8,1156.4c-4.7-3-9.1-6.3-13.3-9.8c-16,14.1-39.5,16.8-57.8,5.2c-22.3-14.3-28.3-44.6-13.5-67.7
				c7-10.9,17.4-18.3,28.8-21.5c-1.7-24.8,4.2-50.2,18.5-72.7c35.8-55.9,110.4-72,166.8-36c56.3,36,73,110.6,37.2,166.5
				C1178.7,1176.4,1104.1,1192.5,1047.8,1156.4z"/>
			<path class="st20" d="M1276.4,1110.5c-4.7-3-9.1-6.3-13.3-9.8c-16,14.1-39.5,16.8-57.8,5.2c-22.3-14.3-28.3-44.6-13.6-67.7
				c7-10.9,17.4-18.3,28.8-21.5c-1.7-24.8,4.2-50.2,18.5-72.7c35.8-55.9,110.4-72,166.8-36c56.3,36,73,110.6,37.2,166.5
				C1407.4,1130.4,1332.7,1146.5,1276.4,1110.5z"/>
			<path class="st12" d="M1444.8,993.7c-4.7-3-9.1-6.3-13.3-9.8c-16,14.1-39.5,16.8-57.8,5.1c-22.3-14.3-28.3-44.6-13.5-67.7
				c7-10.9,17.4-18.3,28.8-21.5c-1.7-24.8,4.2-50.2,18.5-72.7c35.8-55.9,110.4-72,166.8-36c56.3,36,73,110.6,37.2,166.5
				C1575.8,1013.6,1501.2,1029.7,1444.8,993.7z"/>
			<path class="st12" d="M550.7,1114.7c-4.7-3-9.1-6.3-13.3-9.8c-16,14.1-39.5,16.8-57.8,5.1c-22.3-14.3-28.3-44.6-13.5-67.7
				c7-10.9,17.4-18.3,28.8-21.5c-1.7-24.8,4.2-50.2,18.5-72.7c35.8-55.9,110.4-72,166.8-36c56.3,36,73,110.6,37.2,166.5
				C681.7,1134.6,607.1,1150.7,550.7,1114.7z"/>
			<path class="st19" d="M807.6,980.8c1.5,5.4,2.6,10.8,3.4,16.2c21.3,0.1,40.7,13.7,46.6,34.6c7.1,25.5-8.5,52.1-34.9,59.5
				c-12.5,3.5-25.2,2-35.8-3.1c-15.2,19.6-36.5,34.7-62.2,41.9c-63.9,17.9-130.4-19.7-148.4-84.1c-18.1-64.4,19.1-131.1,83-149.1
				C723.1,878.7,789.6,916.4,807.6,980.8z"/>
			<g>
				<path class="st21" d="M1048.4,122.7h5.9v175.6h-5.9V122.7z"/>
				<path class="st22" d="M1051.3,110c3.9,0,7,3.1,7,7c0,3.9-3.1,7-7,7s-7-3.1-7-7C1044.3,113.2,1047.4,110,1051.3,110z"/>
				<path class="st23" d="M1051.9,124.5c0,0,12.5,0,18.7,0c6.3,0,8.2,3.7,8.2,7c0,3.4-1.3,10.5,8.2,10.5s18.7-1.2,18.7-1.2v46.8
					c0,0-11,3.3-24.6,2.3c-13.6-0.9-15.2-3.1-15.2-7c0-3.9-14.1-1.2-14.1-1.2V124.5z"/>
			</g>
		</g>
	</g>
</g>
</svg>
