<?xml version="1.0" encoding="utf-8"?>
<!-- Generator: Adobe Illustrator 19.2.1, SVG Export Plug-In . SVG Version: 6.00 Build 0)  -->
<svg version="1.1" id="Layer_1" xmlns="http://www.w3.org/2000/svg" xmlns:xlink="http://www.w3.org/1999/xlink" x="0px" y="0px"
	 viewBox="0 0 40 40" style="enable-background:new 0 0 40 40;" xml:space="preserve">
<style type="text/css">
	.st0{fill:#FFFFFF;}
</style>
<g>
	<path class="st0" d="M18.8,24.3H7c-3.4,0-6.1-2.7-6.1-6.1V7.6c0-3.4,2.7-6.1,6.1-6.1h7.5c0.8,0,1.4,0.6,1.4,1.4s-0.6,1.4-1.4,1.4H7
		c-1.8,0-3.3,1.5-3.3,3.3v10.5c0,1.8,1.5,3.3,3.3,3.3h11.8c1.8,0,3.3-1.5,3.3-3.3v-4.7c0-0.8,0.6-1.4,1.4-1.4s1.4,0.6,1.4,1.4v4.7
		C24.9,21.5,22.1,24.3,18.8,24.3z"/>
</g>
<g>
	<path class="st0" d="M26.2,31.3H14.4c-3.4,0-6.1-2.7-6.1-6.1v-2.4c0-0.8,0.6-1.4,1.4-1.4c0.8,0,1.4,0.6,1.4,1.4v2.4
		c0,1.8,1.5,3.3,3.3,3.3h11.8c1.8,0,3.3-1.5,3.3-3.3V14.7c0-1.8-1.5-3.3-3.3-3.3c-0.8,0-1.4-0.6-1.4-1.4c0-0.8,0.6-1.4,1.4-1.4
		c3.4,0,6.1,2.7,6.1,6.1v10.5C32.3,28.6,29.6,31.3,26.2,31.3z"/>
</g>
<g>
	<path class="st0" d="M33.2,38.4H21.4c-3.4,0-6.1-2.7-6.1-6.1v-2.4c0-0.8,0.6-1.4,1.4-1.4c0.8,0,1.4,0.6,1.4,1.4v2.4
		c0,1.8,1.5,3.3,3.3,3.3h11.8c1.8,0,3.3-1.5,3.3-3.3V21.7c0-1.8-1.5-3.3-3.3-3.3h-2.4c-0.8,0-1.4-0.6-1.4-1.4c0-0.8,0.6-1.4,1.4-1.4
		h2.4c3.4,0,6.1,2.7,6.1,6.1v10.5C39.3,35.7,36.6,38.4,33.2,38.4z"/>
</g>
<g>
	<path class="st0" d="M13.2,17.4c-0.4,0-0.8-0.2-1.1-0.5L8.2,12c-0.5-0.6-0.4-1.5,0.2-2c0.6-0.5,1.5-0.4,2,0.2l3.9,4.8
		c0.5,0.6,0.4,1.5-0.2,2C13.8,17.3,13.5,17.4,13.2,17.4z"/>
</g>
<g>
	<path class="st0" d="M13.2,17.4c-0.2,0-0.3,0-0.5-0.1c-0.7-0.3-1.1-1.1-0.8-1.8c0.1-0.3,2.7-7.2,10.5-13.7c0.6-0.5,1.5-0.4,2,0.2
		c0.5,0.6,0.4,1.5-0.2,2c-7.2,5.9-9.6,12.4-9.6,12.5C14.3,17,13.7,17.4,13.2,17.4z"/>
</g>
</svg>
