<?xml version="1.0" encoding="utf-8"?>
<!-- Generator: Adobe Illustrator 19.2.1, SVG Export Plug-In . SVG Version: 6.00 Build 0)  -->
<svg version="1.1" id="Layer_1" xmlns="http://www.w3.org/2000/svg" xmlns:xlink="http://www.w3.org/1999/xlink" x="0px" y="0px"
	 viewBox="0 0 276.7 315.3" style="enable-background:new 0 0 276.7 315.3;" xml:space="preserve">
<style type="text/css">
	.st0{fill-rule:evenodd;clip-rule:evenodd;fill:#328ABD;}
	.st1{fill-rule:evenodd;clip-rule:evenodd;fill:#F5F5F5;}
	.st2{fill-rule:evenodd;clip-rule:evenodd;fill:#5A5A5F;}
	.st3{fill-rule:evenodd;clip-rule:evenodd;fill:none;stroke:#000000;stroke-miterlimit:10;}
	.st4{fill-rule:evenodd;clip-rule:evenodd;fill:none;stroke:#6F91A9;stroke-miterlimit:10;}
	.st5{fill-rule:evenodd;clip-rule:evenodd;fill:none;stroke:#FF7BAC;stroke-miterlimit:10;}
	.st6{fill-rule:evenodd;clip-rule:evenodd;fill:#C1A236;}
	.st7{fill-rule:evenodd;clip-rule:evenodd;fill:#002C5F;}
</style>
<path class="st0" d="M14.8,13.3h236c5.5,0,10,4.5,10,10v280c0,5.5-4.5,10-10,10h-236c-5.5,0-10-4.5-10-10v-280
	C4.8,17.8,9.3,13.3,14.8,13.3z"/>
<path class="st1" d="M10.8,10.3h244v298h-244V10.3z"/>
<g>
	<g>
		<path class="st2" d="M31.3,21.8c-3,0-5.5,2.5-5.5,5.5c0,3,2.5,5.5,5.5,5.5c3,0,5.5-2.5,5.5-5.5C36.8,24.3,34.4,21.8,31.3,21.8z
			 M60.3,21.8c-3,0-5.5,2.5-5.5,5.5c0,3,2.5,5.5,5.5,5.5c3,0,5.5-2.5,5.5-5.5C65.8,24.3,63.4,21.8,60.3,21.8z M89.3,21.8
			c-3,0-5.5,2.5-5.5,5.5c0,3,2.5,5.5,5.5,5.5c3,0,5.5-2.5,5.5-5.5C94.8,24.3,92.4,21.8,89.3,21.8z M118.3,21.8c-3,0-5.5,2.5-5.5,5.5
			c0,3,2.5,5.5,5.5,5.5c3,0,5.5-2.5,5.5-5.5C123.8,24.3,121.4,21.8,118.3,21.8z M147.3,21.8c-3,0-5.5,2.5-5.5,5.5
			c0,3,2.5,5.5,5.5,5.5c3,0,5.5-2.5,5.5-5.5C152.8,24.3,150.4,21.8,147.3,21.8z M176.3,21.8c-3,0-5.5,2.5-5.5,5.5
			c0,3,2.5,5.5,5.5,5.5c3,0,5.5-2.5,5.5-5.5C181.8,24.3,179.4,21.8,176.3,21.8z M205.3,21.8c-3,0-5.5,2.5-5.5,5.5
			c0,3,2.5,5.5,5.5,5.5c3,0,5.5-2.5,5.5-5.5C210.8,24.3,208.4,21.8,205.3,21.8z M234.3,21.8c-3,0-5.5,2.5-5.5,5.5
			c0,3,2.5,5.5,5.5,5.5c3,0,5.5-2.5,5.5-5.5C239.8,24.3,237.4,21.8,234.3,21.8z"/>
	</g>
</g>
<g>
	<line class="st3" x1="28.8" y1="3.3" x2="28.8" y2="25.3"/>
	<line class="st3" x1="32.8" y1="3.3" x2="32.8" y2="25.3"/>
	<line class="st3" x1="58.8" y1="3.3" x2="58.8" y2="25.3"/>
	<line class="st3" x1="62.8" y1="3.3" x2="62.8" y2="25.3"/>
	<line class="st3" x1="87.8" y1="3.3" x2="87.8" y2="25.3"/>
	<line class="st3" x1="91.8" y1="3.3" x2="91.8" y2="25.3"/>
	<line class="st3" x1="116.8" y1="3.3" x2="116.8" y2="25.3"/>
	<line class="st3" x1="120.8" y1="3.3" x2="120.8" y2="25.3"/>
	<line class="st3" x1="144.8" y1="3.3" x2="144.8" y2="25.3"/>
	<line class="st3" x1="148.8" y1="3.3" x2="148.8" y2="25.3"/>
	<line class="st3" x1="173.8" y1="3.3" x2="173.8" y2="25.3"/>
	<line class="st3" x1="177.8" y1="3.3" x2="177.8" y2="25.3"/>
	<line class="st3" x1="202.8" y1="3.3" x2="202.8" y2="25.3"/>
	<line class="st3" x1="206.8" y1="3.3" x2="206.8" y2="25.3"/>
	<line class="st3" x1="232.8" y1="3.3" x2="232.8" y2="25.3"/>
	<line class="st3" x1="236.8" y1="3.3" x2="236.8" y2="25.3"/>
</g>
<line class="st4" x1="10.3" y1="77.8" x2="254.3" y2="77.8"/>
<line class="st4" x1="10.3" y1="107.8" x2="254.3" y2="107.8"/>
<line class="st4" x1="10.3" y1="137.8" x2="254.3" y2="137.8"/>
<line class="st4" x1="10.3" y1="166.8" x2="254.3" y2="166.8"/>
<line class="st4" x1="10.3" y1="195.8" x2="254.3" y2="195.8"/>
<line class="st4" x1="10.3" y1="223.8" x2="254.3" y2="223.8"/>
<line class="st4" x1="10.3" y1="254.8" x2="254.3" y2="254.8"/>
<line class="st4" x1="10.3" y1="283.8" x2="254.3" y2="283.8"/>
<line class="st5" x1="43.8" y1="10.3" x2="43.8" y2="308.3"/>
<path class="st0" d="M261.3,111.5l10.7-29.1c1.9-5.2-0.7-10.9-5.9-12.8c-5.2-1.9-10.9,0.7-12.8,5.9l-10.7,29.1L261.3,111.5z"/>
<path class="st6" d="M268.5,103.5l5,2l-22,59l-7,4L268.5,103.5z"/>
<path class="st0" d="M185.5,251.2l0.2,33l4.7,1.7l20.3-25.7L185.5,251.2z"/>
<path class="st7" d="M246.1,87.1l25.2,9.1l-60.7,164.1l-25.2-9.1L246.1,87.1z"/>
<path class="st7" d="M187.8,286c0.8,0.3,1.2,1.1,0.9,1.9l-1.4,3.8c-0.3,0.8-1.2,1.2-1.9,0.9c-0.8-0.3-1.2-1.1-0.9-1.9l1.4-3.8
	C186.2,286.1,187,285.8,187.8,286z"/>
</svg>
