<svg id="_" data-name="$" xmlns="http://www.w3.org/2000/svg" viewBox="0 0 294.99 281"><defs><style>.cls-1{isolation:isolate;}.cls-2{fill:#011c3b;}.cls-3{fill:#2d698c;}.cls-4{fill:#002c5f;}.cls-4,.cls-5{fill-rule:evenodd;}.cls-5{fill:#328abd;}.cls-6{fill:#8d7522;}.cls-7{fill:#c1a236;}</style></defs><title>quiz-2</title><g id="Rectangle_29" data-name="Rectangle 29" class="cls-1"><g id="Rectangle_29-2" data-name="Rectangle 29"><rect class="cls-2" x="50.06" width="194.88" height="55"/></g></g><g id="Rectangle_29_copy" data-name="Rectangle 29 copy" class="cls-1"><g id="Rectangle_29_copy-2" data-name="Rectangle 29 copy"><rect class="cls-3" x="49.99" y="14.44" width="195" height="24.63"/></g></g><g id="Rectangle_30" data-name="Rectangle 30" class="cls-1"><g id="Rectangle_30-2" data-name="Rectangle 30"><polygon class="cls-4" points="50.23 0.01 0 29.35 97.36 200.01 147.59 170.66 50.23 0.01"/></g></g><g id="Rectangle_30_copy" data-name="Rectangle 30 copy" class="cls-1"><g id="Rectangle_30_copy-2" data-name="Rectangle 30 copy"><polygon class="cls-4" points="244.76 0.01 147.4 170.66 197.63 200.01 294.99 29.35 244.76 0.01"/></g></g><g id="Rectangle_30_copy_2" data-name="Rectangle 30 copy 2" class="cls-1"><g id="Rectangle_30_copy_2-2" data-name="Rectangle 30 copy 2"><polygon class="cls-5" points="261.76 10.01 164.4 178.53 182.63 189.51 279.99 20.99 261.76 10.01"/></g></g><g id="Rectangle_30_copy_3" data-name="Rectangle 30 copy 3" class="cls-1"><g id="Rectangle_30_copy_3-2" data-name="Rectangle 30 copy 3"><polygon class="cls-5" points="34.23 9.01 16 19.99 113.36 188.51 131.59 177.53 34.23 9.01"/></g></g><g id="Ellipse_17_copy" data-name="Ellipse 17 copy" class="cls-1"><g id="Ellipse_17_copy-2" data-name="Ellipse 17 copy"><ellipse class="cls-6" cx="147.49" cy="195.22" rx="85.84" ry="85.78"/></g></g><g id="Ellipse_17" data-name="Ellipse 17" class="cls-1"><g id="Ellipse_17-2" data-name="Ellipse 17"><circle class="cls-7" cx="147.99" cy="195" r="73"/></g></g><path class="cls-6" d="M121.23,224.26l5-8.87c1.05-1.87,2.8-2.68,4.44-1.52,0.35,0.23,7.47,5,13.54,7L144.34,202c-10.15-4.09-23.69-12.37-23.69-26.26,0-11.67,8.29-21.59,23.81-23.11v-3.73a2.22,2.22,0,0,1,2.22-2.22h2a2.22,2.22,0,0,1,2.22,2.22v3.85a44.35,44.35,0,0,1,21.71,8.52c1.4,0.82,1.17,2.92.7,3.73l-6.77,9.8a2.14,2.14,0,0,1-3.15.7c-0.82-.35-7-4.67-12.49-6.89V185c9.1,3.62,24.74,11.44,24.74,27.31,0,12-9.57,22.64-25,24v12.14a2.19,2.19,0,0,1-2.22,2.1h-2a2.2,2.2,0,0,1-2.22-2.1V236.4c-12.84-.93-20-6.42-22.41-8.87C120.64,226.36,120.18,225.89,121.23,224.26ZM144,167.07c-3.73.47-6.42,3.15-6.42,6.07,0,3.38,1.75,6.3,6.42,9.1V167.07Zm13.19,47.62c0-3.62-2.1-7-6.19-9.8v17C154.61,221,157.17,218.31,157.17,214.69Z" transform="translate(-0.01)"/></svg>