<?xml version="1.0" encoding="utf-8"?>
<!-- Generator: Adobe Illustrator 19.2.1, SVG Export Plug-In . SVG Version: 6.00 Build 0)  -->
<svg version="1.1" id="Layer_1" xmlns="http://www.w3.org/2000/svg" xmlns:xlink="http://www.w3.org/1999/xlink" x="0px" y="0px"
	 viewBox="0 0 75 75" style="enable-background:new 0 0 75 75;" xml:space="preserve">
<style type="text/css">
	.st0{fill:#FFFFFF;}
</style>
<path class="st0" d="M59.1,64.1c2.2,0,4-1.8,4-4c0-2.2-1.8-4-4-4c-2.2,0-4,1.8-4,4C55.1,62.3,56.9,64.1,59.1,64.1z"/>
<path class="st0" d="M73.2,12.2c0-1.6-0.6-3.1-1.8-4.3L67,3.6c-1.1-1.1-2.7-1.8-4.3-1.8s-3.1,0.6-4.3,1.8L38,24.1L16.3,2.4
	c-0.8-0.8-2.1-0.8-2.8,0L1.4,14.5c-0.8,0.8-0.8,2.1,0,2.8L23.1,39L6.5,55.7c-0.1,0.1-0.2,0.2-0.3,0.3c0,0,0,0.1-0.1,0.1
	c0,0.1-0.1,0.2-0.1,0.3c0,0,0,0,0,0.1l-5,15.1c-0.2,0.7-0.1,1.5,0.5,2.1c0.4,0.4,0.9,0.6,1.4,0.6c0.2,0,0.4,0,0.6-0.1l15.1-5
	c0,0,0,0,0.1,0c0.1,0,0.2-0.1,0.3-0.1c0,0,0.1,0,0.1-0.1c0.1-0.1,0.2-0.2,0.3-0.3L36,51.9l21.7,21.7c0.4,0.4,0.9,0.6,1.4,0.6
	s1-0.2,1.4-0.6l12.1-12.1c0.8-0.8,0.8-2.1,0-2.8L50.9,37l20.5-20.5C72.5,15.4,73.2,13.8,73.2,12.2z M20.9,31.1L18.7,29l2.6-2.6
	c0.8-0.8,0.8-2.1,0-2.8c-0.8-0.8-2.1-0.8-2.8,0l-2.6,2.6l-2.2-2.2l2.6-2.6c0.8-0.8,0.8-2.1,0-2.8c-0.8-0.8-2.1-0.8-2.8,0l-2.6,2.6
	l-5.2-5.2l9.2-9.2L35.2,27l-6.6,6.6L26,36.2L23.8,34l2.6-2.6c0.8-0.8,0.8-2.1,0-2.8c-0.8-0.8-2.1-0.8-2.8,0L20.9,31.1z M6,69
	l2.7-8.2l5.4,5.4L6,69z M68.3,60.1l-9.2,9.2L48.9,59.1l2.6-2.6c0.8-0.8,0.8-2.1,0-2.8c-0.8-0.8-2.1-0.8-2.8,0L46,56.3l-2.2-2.2
	l2.6-2.6c0.8-0.8,0.8-2.1,0-2.8c-0.8-0.8-2.1-0.8-2.8,0L41,51.2L38.8,49l2.6-2.6l6.6-6.6L68.3,60.1z M17.9,64.3l-7.2-7.2l44.9-44.9
	c0,0,0,0.1,0.1,0.1l7,7c0,0,0.1,0.1,0.1,0.1L17.9,64.3z M68.6,13.7l-2.9,2.9c0,0,0-0.1-0.1-0.1l-7-7c0,0-0.1-0.1-0.1-0.1l2.9-2.9
	c0.8-0.8,2.1-0.8,2.8,0l4.4,4.4c0.4,0.4,0.6,0.9,0.6,1.4C69.1,12.8,68.9,13.3,68.6,13.7z"/>
</svg>
