<svg id="Layer_1" data-name="Layer 1" xmlns="http://www.w3.org/2000/svg" xmlns:xlink="http://www.w3.org/1999/xlink" viewBox="0 0 230 230.67"><defs><style>.cls-1{fill:none;}.cls-2{clip-path:url(#clip-path);}.cls-3{fill:#7092aa;}.cls-3,.cls-4{fill-rule:evenodd;}.cls-4{fill:#161f4b;}.cls-5{clip-path:url(#clip-path-2);}.cls-6{fill:#1b2f5b;}.cls-7{fill:#348abd;}.cls-8{fill:#d5d6d6;}.cls-9{fill:#b0b0b0;}.cls-10{fill:#e0e1e0;}.cls-11{fill:#a0852f;}.cls-12{fill:#d4b143;}.cls-13{fill:#c0a235;}.cls-14{clip-path:url(#clip-path-3);}</style><clipPath id="clip-path"><circle class="cls-1" cx="433.66" cy="115.67" r="115"/></clipPath><clipPath id="clip-path-2"><circle class="cls-1" cx="115" cy="115.67" r="115"/></clipPath><clipPath id="clip-path-3"><circle class="cls-1" cx="-203.66" cy="115.67" r="115"/></clipPath></defs><title>results-icon-2</title><g class="cls-2"><path class="cls-3" d="M104.59-19.54H783.8v291H104.59v-291Z"/><path class="cls-4" d="M104.59-19.54l679.5,0.07-593,228.71-86.23,0Z"/></g><g class="cls-5"><path class="cls-3" d="M-147.9,18.56H390.24V233H-147.9V18.56Z"/><path class="cls-4" d="M-147.9-32.37l461.41,0,77,50.93L-79.39,199.82l-68.32,0Z"/><polygon class="cls-6" points="31.83 177.06 31.83 180.54 56.88 205.1 193.89 151.46 193.89 148.29 31.83 177.06"/><path class="cls-7" d="M31.83,177.06L57.2,201.95l136.69-53.66-24.28-23.84Z"/><path class="cls-8" d="M163.75,34c-5.13-4.06-10.53-.88-10.6,9.94h0v90.85l20,19.57V63.47c0.57-9.41-.78-16.39-2.64-20.57A23.35,23.35,0,0,0,163.75,34Z"/><path class="cls-9" d="M158.83,32.32s5.8-1.79,6-1.83a2,2,0,0,1,.84.11c2.35,0.8,6.83,4.87,8.93,9.74,2.44,5.66,2.6,14.13,2.6,17.35v95.13l-4,1.49V63.47c0-5.64.11-15.31-3.28-21.4C163.78,31.17,158.83,32.32,158.83,32.32Z"/><path class="cls-10" d="M161.76,57.61L60.18,96.14V92.4L161.76,53.87a1.55,1.55,0,0,1,1.44,1.53A2.23,2.23,0,0,1,161.76,57.61Z"/><path class="cls-9" d="M162,57.52L60.18,96.14V94.22l103-39.09S163.44,57,162,57.52Z"/><path class="cls-10" d="M161.76,93.39L60.18,131.92v-3.74L161.76,89.65a1.55,1.55,0,0,1,1.44,1.53A2.23,2.23,0,0,1,161.76,93.39Z"/><path class="cls-9" d="M162,93.3L60.18,131.92V130l103-39.09S163.44,92.75,162,93.3Z"/><path class="cls-10" d="M161.76,124.1L60.18,162.63v-3.74l101.59-38.53a1.55,1.55,0,0,1,1.44,1.53A2.23,2.23,0,0,1,161.76,124.1Z"/><path class="cls-9" d="M162,124L60.18,162.63v-1.92l103-39.09S163.44,123.46,162,124Z"/><path class="cls-11" d="M153.31,59.75c1,8.66-.53,14.29-2.94,14.57s-5.24-6-6.1-13.53,0.48-13.34,3-13.62S152.44,52.23,153.31,59.75Z"/><polygon class="cls-11" points="145.3 47.81 146.9 47.25 151.81 59.92 150.78 74.21 148.63 74.87 145.3 47.81"/><ellipse class="cls-12" cx="147.08" cy="61.33" rx="4.77" ry="13.63" transform="translate(-6.03 17.17) rotate(-6.55)"/><ellipse class="cls-13" cx="146.72" cy="61.3" rx="4.18" ry="12.63" transform="translate(-6.03 17.13) rotate(-6.55)"/><path class="cls-11" d="M144.26,63.52c0.17-.34.38-1.06,0.63-0.56A10.58,10.58,0,0,0,146,64.73c0-1,0-1.9,0-2.88a8.08,8.08,0,0,1-1.73-4.69c0-1.43.57-2.27,1.77-1.51V55.18c0-.17.08-0.23,0.17-0.16l0.11,0.09a0.58,0.58,0,0,1,.17.41V56A7.91,7.91,0,0,1,148,58.17a0.69,0.69,0,0,1,.05.54c-0.18.32-.44,0.95-0.64,0.55a14.42,14.42,0,0,0-.94-1.54v2.71a8.77,8.77,0,0,1,1.79,4.81c0,1.64-.66,2.34-1.84,1.56v1.56c0,0.17-.08.21-0.18,0.14A0.59,0.59,0,0,1,146,68V66.45A7.25,7.25,0,0,1,144.3,64,0.51,0.51,0,0,1,144.26,63.52ZM146,57.31c-0.44-.25-0.66,0-0.66.47a3.76,3.76,0,0,0,.65,2V57.31Zm1.1,7.25a4.15,4.15,0,0,0-.65-2v2.63C146.82,65.37,147.1,65.15,147.1,64.56Z"/><path class="cls-11" d="M146.79,61.43c1,8.66-.53,14.29-2.94,14.57s-5.24-6-6.1-13.53,0.48-13.34,3-13.62S145.93,53.91,146.79,61.43Z"/><polygon class="cls-11" points="138.79 49.49 140.39 48.93 145.3 61.6 144.27 75.89 142.12 76.55 138.79 49.49"/><ellipse class="cls-12" cx="140.57" cy="63.01" rx="4.77" ry="13.63" transform="translate(-6.27 16.44) rotate(-6.55)"/><ellipse class="cls-13" cx="140.21" cy="62.98" rx="4.18" ry="12.63" transform="translate(-6.27 16.4) rotate(-6.55)"/><path class="cls-11" d="M137.75,65.2c0.17-.34.38-1.06,0.63-0.56a10.58,10.58,0,0,0,1.08,1.77c0-1,0-1.9,0-2.88a8.08,8.08,0,0,1-1.73-4.69c0-1.43.57-2.27,1.77-1.51V56.86c0-.17.08-0.23,0.17-0.16l0.11,0.09a0.58,0.58,0,0,1,.17.41v0.5a7.91,7.91,0,0,1,1.52,2.15,0.69,0.69,0,0,1,.05.54c-0.18.32-.44,0.95-0.64,0.55A14.42,14.42,0,0,0,140,59.4v2.71a8.77,8.77,0,0,1,1.79,4.81c0,1.64-.66,2.34-1.84,1.56V70c0,0.17-.08.21-0.18,0.14a0.59,0.59,0,0,1-.27-0.48V68.13a7.25,7.25,0,0,1-1.66-2.44A0.51,0.51,0,0,1,137.75,65.2ZM139.49,59c-0.44-.25-0.66,0-0.66.47a3.76,3.76,0,0,0,.65,2V59Zm1.1,7.25a4.15,4.15,0,0,0-.65-2v2.63C140.31,67,140.59,66.83,140.59,66.24Z"/><path class="cls-11" d="M110,75c1,8.66-.53,14.29-2.94,14.57s-5.24-6-6.1-13.53,0.48-13.34,3-13.62S109.14,67.53,110,75Z"/><polygon class="cls-11" points="102 63.11 103.6 62.54 108.5 75.22 107.48 89.51 105.33 90.17 102 63.11"/><ellipse class="cls-12" cx="103.78" cy="76.62" rx="4.77" ry="13.63" transform="translate(-8.06 12.33) rotate(-6.55)"/><ellipse class="cls-13" cx="103.42" cy="76.6" rx="4.18" ry="12.63" transform="translate(-8.06 12.29) rotate(-6.55)"/><path class="cls-11" d="M101,78.81c0.17-.34.38-1.06,0.63-0.56A10.58,10.58,0,0,0,102.67,80c0-1,0-1.9,0-2.88A8.08,8.08,0,0,1,101,72.46c0-1.43.57-2.27,1.77-1.51V70.47c0-.17.08-0.23,0.17-0.16L103,70.4a0.58,0.58,0,0,1,.17.41v0.5a7.91,7.91,0,0,1,1.52,2.15,0.69,0.69,0,0,1,.05.54c-0.18.32-.44,0.95-0.64,0.55a14.42,14.42,0,0,0-.94-1.54v2.71A8.77,8.77,0,0,1,105,80.53c0,1.64-.66,2.34-1.84,1.56v1.56c0,0.17-.08.21-0.18,0.14a0.59,0.59,0,0,1-.27-0.48V81.74A7.25,7.25,0,0,1,101,79.3,0.51,0.51,0,0,1,101,78.81Zm1.74-6.21c-0.44-.25-0.66,0-0.66.47a3.76,3.76,0,0,0,.65,2V72.61Zm1.1,7.25a4.15,4.15,0,0,0-.65-2v2.63C103.51,80.66,103.8,80.44,103.8,79.86Z"/><path class="cls-11" d="M104,77.18c1,8.66-.53,14.29-2.94,14.57s-5.24-6-6.1-13.53,0.48-13.34,3-13.62S103.16,69.67,104,77.18Z"/><polygon class="cls-11" points="96.02 65.24 97.62 64.68 102.52 77.36 101.5 91.64 99.35 92.3 96.02 65.24"/><ellipse class="cls-12" cx="97.79" cy="78.76" rx="4.77" ry="13.63" transform="translate(-8.34 11.66) rotate(-6.55)"/><ellipse class="cls-13" cx="97.43" cy="78.73" rx="4.18" ry="12.63" transform="translate(-8.34 11.62) rotate(-6.55)"/><path class="cls-11" d="M95,81c0.17-.34.38-1.06,0.63-0.56a10.58,10.58,0,0,0,1.08,1.77c0-1,0-1.9,0-2.88A8.08,8.08,0,0,1,95,74.6c0-1.43.57-2.27,1.77-1.51V72.61c0-.17.08-0.23,0.17-0.16L97,72.54a0.58,0.58,0,0,1,.17.41v0.5a7.91,7.91,0,0,1,1.52,2.15,0.69,0.69,0,0,1,.05.54c-0.18.32-.44,0.95-0.64,0.55a14.42,14.42,0,0,0-.94-1.54v2.71A8.77,8.77,0,0,1,99,82.67c0,1.64-.66,2.34-1.84,1.56v1.56c0,0.17-.08.21-0.18,0.14a0.59,0.59,0,0,1-.27-0.48V83.88A7.25,7.25,0,0,1,95,81.44,0.51,0.51,0,0,1,95,81Zm1.74-6.21c-0.44-.25-0.66,0-0.66.47a3.76,3.76,0,0,0,.65,2V74.74ZM97.82,82a4.15,4.15,0,0,0-.65-2v2.63C97.53,82.8,97.81,82.58,97.82,82Z"/><path class="cls-11" d="M97.31,79.56c1,8.66-.53,14.29-2.94,14.57s-5.24-6-6.1-13.53,0.48-13.34,3-13.62S96.45,72,97.31,79.56Z"/><polygon class="cls-11" points="89.31 67.62 90.91 67.06 95.81 79.73 94.79 94.02 92.64 94.68 89.31 67.62"/><ellipse class="cls-12" cx="91.09" cy="81.14" rx="4.77" ry="13.63" transform="translate(-8.66 10.91) rotate(-6.55)"/><ellipse class="cls-13" cx="90.73" cy="81.11" rx="4.18" ry="12.63" transform="translate(-8.66 10.87) rotate(-6.55)"/><path class="cls-11" d="M88.27,83.33c0.17-.34.38-1.06,0.63-0.56A10.58,10.58,0,0,0,90,84.54c0-1,0-1.9,0-2.88A8.08,8.08,0,0,1,88.27,77c0-1.43.57-2.27,1.77-1.51V75c0-.17.08-0.23,0.17-0.16l0.11,0.09a0.58,0.58,0,0,1,.17.41v0.5A7.91,7.91,0,0,1,92,78a0.69,0.69,0,0,1,.05.54c-0.18.32-.44,0.95-0.64,0.55a14.42,14.42,0,0,0-.94-1.54v2.71A8.77,8.77,0,0,1,92.26,85c0,1.64-.66,2.34-1.84,1.56v1.56c0,0.17-.08.21-0.18,0.14A0.59,0.59,0,0,1,90,87.82V86.26a7.25,7.25,0,0,1-1.66-2.44A0.51,0.51,0,0,1,88.27,83.33ZM90,77.12c-0.44-.25-0.66,0-0.66.47a3.76,3.76,0,0,0,.65,2V77.12Zm1.1,7.25a4.15,4.15,0,0,0-.65-2V85C90.82,85.18,91.11,85,91.11,84.37Z"/><path class="cls-11" d="M83.76,120.95c1,8.66-.53,14.29-2.94,14.57s-5.24-6-6.1-13.53,0.48-13.34,3-13.62S82.9,113.43,83.76,120.95Z"/><polygon class="cls-11" points="75.76 109.01 77.36 108.44 82.26 121.12 81.24 135.41 79.09 136.07 75.76 109.01"/><ellipse class="cls-12" cx="77.53" cy="122.52" rx="4.77" ry="13.63" transform="matrix(0.99, -0.11, 0.11, 0.99, -13.46, 9.64)"/><ellipse class="cls-13" cx="77.17" cy="122.5" rx="4.18" ry="12.63" transform="translate(-13.46 9.6) rotate(-6.55)"/><path class="cls-11" d="M74.71,124.71c0.17-.34.38-1.06,0.63-0.56a10.58,10.58,0,0,0,1.08,1.77c0-1,0-1.9,0-2.88a8.08,8.08,0,0,1-1.73-4.69c0-1.43.57-2.27,1.77-1.51v-0.48c0-.17.08-0.23,0.17-0.16l0.11,0.09a0.58,0.58,0,0,1,.17.41v0.5a7.91,7.91,0,0,1,1.52,2.15,0.69,0.69,0,0,1,.05.54c-0.18.32-.44,0.95-0.64,0.55a14.42,14.42,0,0,0-.94-1.54v2.71a8.77,8.77,0,0,1,1.79,4.81c0,1.64-.66,2.34-1.84,1.56v1.56c0,0.17-.08.21-0.18,0.14a0.59,0.59,0,0,1-.27-0.48v-1.56a7.25,7.25,0,0,1-1.66-2.44A0.51,0.51,0,0,1,74.71,124.71Zm1.74-6.21c-0.44-.25-0.66,0-0.66.47a3.76,3.76,0,0,0,.65,2v-2.42Zm1.1,7.25a4.15,4.15,0,0,0-.65-2v2.63C77.27,126.56,77.55,126.34,77.56,125.76Z"/><path class="cls-11" d="M101.51,114.92c1,8.66-.53,14.29-2.94,14.57s-5.24-6-6.1-13.53,0.48-13.34,3-13.62S100.64,107.4,101.51,114.92Z"/><polygon class="cls-11" points="93.51 102.98 95.11 102.42 100.01 115.09 98.99 129.38 96.84 130.04 93.51 102.98"/><ellipse class="cls-12" cx="95.28" cy="116.5" rx="4.77" ry="13.63" transform="translate(-12.66 11.62) rotate(-6.55)"/><ellipse class="cls-13" cx="94.92" cy="116.47" rx="4.18" ry="12.63" transform="translate(-12.66 11.58) rotate(-6.55)"/><path class="cls-11" d="M92.46,118.69c0.17-.34.38-1.06,0.63-0.56a10.58,10.58,0,0,0,1.08,1.77c0-1,0-1.9,0-2.88a8.08,8.08,0,0,1-1.73-4.69c0-1.43.57-2.27,1.77-1.51v-0.48c0-.17.08-0.23,0.17-0.16l0.11,0.09a0.58,0.58,0,0,1,.17.41v0.5a7.91,7.91,0,0,1,1.52,2.15,0.69,0.69,0,0,1,.05.54c-0.18.32-.44,0.95-0.64,0.55a14.42,14.42,0,0,0-.94-1.54v2.71a8.77,8.77,0,0,1,1.79,4.81c0,1.64-.66,2.34-1.84,1.56v1.56c0,0.17-.08.21-0.18,0.14a0.59,0.59,0,0,1-.27-0.48v-1.56a7.25,7.25,0,0,1-1.66-2.44A0.51,0.51,0,0,1,92.46,118.69Zm1.74-6.21c-0.44-.25-0.66,0-0.66.47a3.76,3.76,0,0,0,.65,2v-2.42Zm1.1,7.25a4.15,4.15,0,0,0-.65-2v2.63C95,120.54,95.3,120.32,95.31,119.73Z"/><path class="cls-11" d="M141.37,100.22c1,8.66-.53,14.29-2.94,14.57s-5.24-6-6.1-13.53,0.48-13.34,3-13.62S140.51,92.7,141.37,100.22Z"/><polygon class="cls-11" points="133.37 88.28 134.97 87.71 139.87 100.39 138.85 114.68 136.7 115.34 133.37 88.28"/><ellipse class="cls-12" cx="135.15" cy="101.79" rx="4.77" ry="13.63" transform="translate(-10.72 16.07) rotate(-6.55)"/><ellipse class="cls-13" cx="134.78" cy="101.77" rx="4.18" ry="12.63" transform="translate(-10.72 16.03) rotate(-6.55)"/><path class="cls-11" d="M132.32,104c0.17-.34.38-1.06,0.63-0.56A10.58,10.58,0,0,0,134,105.2c0-1,0-1.9,0-2.88a8.08,8.08,0,0,1-1.73-4.69c0-1.43.57-2.27,1.77-1.51V95.64c0-.17.08-0.23,0.17-0.16l0.11,0.09a0.58,0.58,0,0,1,.17.41v0.5a7.91,7.91,0,0,1,1.52,2.15,0.69,0.69,0,0,1,.05.54c-0.18.32-.44,0.95-0.64,0.55a14.42,14.42,0,0,0-.94-1.54v2.71a8.77,8.77,0,0,1,1.79,4.81c0,1.64-.66,2.34-1.84,1.56v1.56c0,0.17-.08.21-0.18,0.14a0.59,0.59,0,0,1-.27-0.48v-1.56a7.25,7.25,0,0,1-1.66-2.44A0.51,0.51,0,0,1,132.32,104Zm1.74-6.21c-0.44-.25-0.66,0-0.66.47a3.76,3.76,0,0,0,.65,2V97.77Zm1.1,7.25a4.15,4.15,0,0,0-.65-2v2.63C134.88,105.83,135.17,105.61,135.17,105Z"/><path class="cls-11" d="M164.2,123c1,8.66-.53,14.29-2.94,14.57s-5.24-6-6.1-13.53,0.48-13.34,3-13.62S163.33,115.51,164.2,123Z"/><polygon class="cls-11" points="156.19 111.09 157.8 110.52 162.7 123.2 161.68 137.49 159.53 138.15 156.19 111.09"/><ellipse class="cls-12" cx="157.97" cy="124.6" rx="4.77" ry="13.63" transform="translate(-13.18 18.82) rotate(-6.55)"/><ellipse class="cls-13" cx="157.61" cy="124.58" rx="4.18" ry="12.63" transform="translate(-13.17 18.78) rotate(-6.55)"/><path class="cls-11" d="M155.15,126.79c0.17-.34.38-1.06,0.63-0.56a10.58,10.58,0,0,0,1.08,1.77c0-1,0-1.9,0-2.88a8.08,8.08,0,0,1-1.73-4.69c0-1.43.57-2.27,1.77-1.51v-0.48c0-.17.08-0.23,0.17-0.16l0.11,0.09a0.58,0.58,0,0,1,.17.41v0.5a7.91,7.91,0,0,1,1.52,2.15,0.69,0.69,0,0,1,.05.54c-0.18.32-.44,0.95-0.64,0.55a14.42,14.42,0,0,0-.94-1.54v2.71a8.77,8.77,0,0,1,1.79,4.81c0,1.64-.66,2.34-1.84,1.56v1.56c0,0.17-.08.21-0.18,0.14a0.59,0.59,0,0,1-.27-0.48v-1.56a7.25,7.25,0,0,1-1.66-2.44A0.51,0.51,0,0,1,155.15,126.79Zm1.74-6.21c-0.44-.25-0.66,0-0.66.47a3.76,3.76,0,0,0,.65,2v-2.42Zm1.1,7.25a4.15,4.15,0,0,0-.65-2v2.63C157.71,128.64,158,128.42,158,127.83Z"/><path class="cls-11" d="M157.26,125.17c1,8.66-.53,14.29-2.94,14.57s-5.24-6-6.1-13.53,0.48-13.34,3-13.62S156.4,117.65,157.26,125.17Z"/><polygon class="cls-11" points="149.26 113.23 150.86 112.67 155.76 125.34 154.74 139.63 152.59 140.29 149.26 113.23"/><ellipse class="cls-12" cx="151.04" cy="126.75" rx="4.77" ry="13.63" transform="translate(-13.47 18.05) rotate(-6.55)"/><ellipse class="cls-13" cx="150.67" cy="126.72" rx="4.18" ry="12.63" transform="translate(-13.46 18) rotate(-6.55)"/><path class="cls-11" d="M148.22,128.94c0.17-.34.38-1.06,0.63-0.56a10.58,10.58,0,0,0,1.08,1.77c0-1,0-1.9,0-2.88a8.08,8.08,0,0,1-1.73-4.69c0-1.43.57-2.27,1.77-1.51V120.6c0-.17.08-0.23,0.17-0.16l0.11,0.09a0.58,0.58,0,0,1,.17.41v0.5A7.91,7.91,0,0,1,152,123.6a0.69,0.69,0,0,1,.05.54c-0.18.32-.44,0.95-0.64,0.55a14.42,14.42,0,0,0-.94-1.54v2.71a8.77,8.77,0,0,1,1.79,4.81c0,1.64-.66,2.34-1.84,1.56v1.56c0,0.17-.08.21-0.18,0.14a0.59,0.59,0,0,1-.27-0.48v-1.56a7.25,7.25,0,0,1-1.66-2.44A0.51,0.51,0,0,1,148.22,128.94Zm1.74-6.21c-0.44-.25-0.66,0-0.66.47a3.76,3.76,0,0,0,.65,2v-2.42Zm1.1,7.25a4.15,4.15,0,0,0-.65-2v2.63C150.77,130.79,151.06,130.57,151.06,130Z"/><path class="cls-11" d="M129.38,134.8c1,8.66-.53,14.29-2.94,14.57s-5.24-6-6.1-13.53,0.48-13.34,3-13.62S128.52,127.28,129.38,134.8Z"/><polygon class="cls-11" points="121.38 122.86 122.98 122.29 127.89 134.97 126.86 149.26 124.71 149.92 121.38 122.86"/><ellipse class="cls-12" cx="123.16" cy="136.38" rx="4.77" ry="13.63" transform="translate(-14.74 14.93) rotate(-6.55)"/><ellipse class="cls-13" cx="122.8" cy="136.35" rx="4.18" ry="12.63" transform="translate(-14.74 14.89) rotate(-6.55)"/><path class="cls-11" d="M120.34,138.57c0.17-.34.38-1.06,0.63-0.56a10.58,10.58,0,0,0,1.08,1.77c0-1,0-1.9,0-2.88a8.08,8.08,0,0,1-1.73-4.69c0-1.43.57-2.27,1.77-1.51v-0.48c0-.17.08-0.23,0.17-0.16l0.11,0.09a0.58,0.58,0,0,1,.17.41v0.5a7.91,7.91,0,0,1,1.52,2.15,0.69,0.69,0,0,1,.05.54c-0.18.32-.44,0.95-0.64,0.55a14.42,14.42,0,0,0-.94-1.54v2.71a8.77,8.77,0,0,1,1.79,4.81c0,1.64-.66,2.34-1.84,1.56v1.56c0,0.17-.08.21-0.18,0.14a0.59,0.59,0,0,1-.27-0.48v-1.56a7.25,7.25,0,0,1-1.66-2.44A0.51,0.51,0,0,1,120.34,138.57Zm1.74-6.21c-0.44-.25-0.66,0-0.66.47a3.76,3.76,0,0,0,.65,2v-2.42Zm1.1,7.25a4.15,4.15,0,0,0-.65-2v2.63C122.9,140.41,123.18,140.19,123.18,139.61Z"/><path class="cls-11" d="M122.93,137c1,8.66-.53,14.29-2.94,14.57s-5.24-6-6.1-13.53,0.48-13.34,3-13.62S122.06,129.48,122.93,137Z"/><polygon class="cls-11" points="114.92 125.06 116.52 124.5 121.43 137.17 120.4 151.46 118.25 152.12 114.92 125.06"/><ellipse class="cls-12" cx="116.7" cy="138.58" rx="4.77" ry="13.63" transform="translate(-15.04 14.21) rotate(-6.55)"/><ellipse class="cls-13" cx="116.34" cy="138.55" rx="4.18" ry="12.63" transform="translate(-15.04 14.17) rotate(-6.55)"/><path class="cls-11" d="M113.88,140.77c0.17-.34.38-1.06,0.63-0.56a10.58,10.58,0,0,0,1.08,1.77c0-1,0-1.9,0-2.88a8.08,8.08,0,0,1-1.73-4.69c0-1.43.57-2.27,1.77-1.51v-0.48c0-.17.08-0.23,0.17-0.16l0.11,0.09a0.58,0.58,0,0,1,.17.41v0.5a7.91,7.91,0,0,1,1.52,2.15,0.69,0.69,0,0,1,.05.54c-0.18.32-.44,0.95-0.64,0.55a14.42,14.42,0,0,0-.94-1.54v2.71a8.77,8.77,0,0,1,1.79,4.81c0,1.64-.66,2.34-1.84,1.56v1.56c0,0.17-.08.21-0.18,0.14a0.59,0.59,0,0,1-.27-0.48V143.7a7.25,7.25,0,0,1-1.66-2.44A0.51,0.51,0,0,1,113.88,140.77Zm1.74-6.21c-0.44-.25-0.66,0-0.66.47a3.76,3.76,0,0,0,.65,2v-2.42Zm1.1,7.25a4.15,4.15,0,0,0-.65-2v2.63C116.44,142.62,116.72,142.4,116.72,141.81Z"/><path class="cls-11" d="M117.15,139.88c1,8.66-.53,14.29-2.94,14.57s-5.24-6-6.1-13.53,0.48-13.34,3-13.62S116.28,132.36,117.15,139.88Z"/><polygon class="cls-11" points="109.15 127.94 110.75 127.37 115.65 140.05 114.63 154.34 112.48 155 109.15 127.94"/><ellipse class="cls-12" cx="110.92" cy="141.46" rx="4.77" ry="13.63" transform="translate(-15.4 13.57) rotate(-6.55)"/><ellipse class="cls-13" cx="110.56" cy="141.43" rx="4.18" ry="12.63" transform="translate(-15.4 13.53) rotate(-6.55)"/><path class="cls-11" d="M108.1,143.65c0.17-.34.38-1.06,0.63-0.56a10.58,10.58,0,0,0,1.08,1.77c0-1,0-1.9,0-2.88a8.08,8.08,0,0,1-1.73-4.69c0-1.43.57-2.27,1.77-1.51v-0.48c0-.17.08-0.23,0.17-0.16l0.11,0.09a0.58,0.58,0,0,1,.17.41v0.5a7.91,7.91,0,0,1,1.52,2.15,0.69,0.69,0,0,1,.05.54c-0.18.32-.44,0.95-0.64,0.55a14.42,14.42,0,0,0-.94-1.54v2.71a8.77,8.77,0,0,1,1.79,4.81c0,1.64-.66,2.34-1.84,1.56v1.56c0,0.17-.08.21-0.18,0.14a0.59,0.59,0,0,1-.27-0.48v-1.56a7.25,7.25,0,0,1-1.66-2.44A0.51,0.51,0,0,1,108.1,143.65Zm1.74-6.21c-0.44-.25-0.66,0-0.66.47a3.76,3.76,0,0,0,.65,2v-2.42Zm1.1,7.25a4.15,4.15,0,0,0-.65-2v2.63C110.66,145.5,110.94,145.28,110.95,144.69Z"/><path class="cls-11" d="M111,141.41c1,8.66-.53,14.29-2.94,14.57s-5.24-6-6.1-13.53,0.48-13.34,3-13.62S110.1,133.89,111,141.41Z"/><polygon class="cls-11" points="102.96 129.47 104.56 128.9 109.46 141.58 108.44 155.87 106.29 156.53 102.96 129.47"/><ellipse class="cls-12" cx="104.74" cy="142.99" rx="4.77" ry="13.63" transform="translate(-15.62 12.87) rotate(-6.55)"/><ellipse class="cls-13" cx="104.37" cy="142.96" rx="4.18" ry="12.63" transform="translate(-15.62 12.83) rotate(-6.55)"/><path class="cls-11" d="M101.91,145.18c0.17-.34.38-1.06,0.63-0.56a10.58,10.58,0,0,0,1.08,1.77c0-1,0-1.9,0-2.88a8.08,8.08,0,0,1-1.73-4.69c0-1.43.57-2.27,1.77-1.51v-0.48c0-.17.08-0.23,0.17-0.16l0.11,0.09a0.58,0.58,0,0,1,.17.41v0.5a7.91,7.91,0,0,1,1.52,2.15,0.69,0.69,0,0,1,.05.54c-0.18.32-.44,0.95-0.64,0.55a14.42,14.42,0,0,0-.94-1.54v2.71a8.77,8.77,0,0,1,1.79,4.81c0,1.64-.66,2.34-1.84,1.56V150c0,0.17-.08.21-0.18,0.14a0.59,0.59,0,0,1-.27-0.48v-1.56a7.25,7.25,0,0,1-1.66-2.44A0.51,0.51,0,0,1,101.91,145.18Zm1.74-6.21c-0.44-.25-0.66,0-0.66.47a3.76,3.76,0,0,0,.65,2V139Zm1.1,7.25a4.15,4.15,0,0,0-.65-2v2.63C104.47,147,104.76,146.81,104.76,146.22Z"/><path class="cls-11" d="M135.61,102.76c1,8.66-.53,14.29-2.94,14.57s-5.24-6-6.1-13.53,0.48-13.34,3-13.62S134.74,95.24,135.61,102.76Z"/><polygon class="cls-11" points="127.61 90.82 129.21 90.26 134.11 102.93 133.09 117.22 130.94 117.88 127.61 90.82"/><ellipse class="cls-12" cx="129.38" cy="104.34" rx="4.77" ry="13.63" transform="translate(-11.05 15.43) rotate(-6.55)"/><ellipse class="cls-13" cx="129.02" cy="104.31" rx="4.18" ry="12.63" transform="translate(-11.05 15.39) rotate(-6.55)"/><path class="cls-11" d="M126.56,106.53c0.17-.34.38-1.06,0.63-0.56a10.58,10.58,0,0,0,1.08,1.77c0-1,0-1.9,0-2.88a8.08,8.08,0,0,1-1.73-4.69c0-1.43.57-2.27,1.77-1.51V98.19c0-.17.08-0.23,0.17-0.16l0.11,0.09a0.58,0.58,0,0,1,.17.41V99a7.91,7.91,0,0,1,1.52,2.15,0.69,0.69,0,0,1,.05.54c-0.18.32-.44,0.95-0.64,0.55a14.42,14.42,0,0,0-.94-1.54v2.71a8.77,8.77,0,0,1,1.79,4.81c0,1.64-.66,2.34-1.84,1.56v1.56c0,0.17-.08.21-0.18,0.14a0.59,0.59,0,0,1-.27-0.48v-1.56A7.25,7.25,0,0,1,126.6,107,0.51,0.51,0,0,1,126.56,106.53Zm1.74-6.21c-0.44-.25-0.66,0-0.66.47a3.76,3.76,0,0,0,.65,2v-2.42Zm1.1,7.25a4.15,4.15,0,0,0-.65-2v2.63C129.12,108.38,129.4,108.16,129.41,107.57Z"/><path class="cls-10" d="M138.47,66.44l-5.85,2.22V64.92l5.85-2.22a1.55,1.55,0,0,1,1.44,1.53A2.23,2.23,0,0,1,138.47,66.44Z"/><path class="cls-9" d="M138.71,66.35l-6.09,2.31V66.74L139.9,64S140.15,65.8,138.71,66.35Z"/><path class="cls-10" d="M89.09,85.17l-5.85,2.22V83.66l5.85-2.22A1.55,1.55,0,0,1,90.54,83,2.23,2.23,0,0,1,89.09,85.17Z"/><path class="cls-9" d="M89.33,85.08l-6.09,2.31V85.47l7.28-2.78S90.77,84.53,89.33,85.08Z"/><path class="cls-10" d="M93.39,119.31l-5.85,2.22v-3.74l5.85-2.22a1.55,1.55,0,0,1,1.44,1.53A2.23,2.23,0,0,1,93.39,119.31Z"/><path class="cls-9" d="M93.63,119.22l-6.09,2.31v-1.92l7.28-2.78S95.07,118.67,93.63,119.22Z"/><path class="cls-10" d="M102.91,146.42l-5.85,2.22V144.9l5.85-2.22a1.55,1.55,0,0,1,1.44,1.53A2.23,2.23,0,0,1,102.91,146.42Z"/><path class="cls-9" d="M103.14,146.33l-6.09,2.31v-1.92l7.28-2.78S104.58,145.77,103.14,146.33Z"/><path class="cls-10" d="M149.31,128.82L143.45,131v-3.74l5.85-2.22a1.55,1.55,0,0,1,1.44,1.53A2.23,2.23,0,0,1,149.31,128.82Z"/><path class="cls-9" d="M149.54,128.73L143.45,131v-1.92l7.28-2.78S151,128.18,149.54,128.73Z"/><path class="cls-10" d="M127.94,106.23l-5.85,2.22v-3.74l5.85-2.22a1.55,1.55,0,0,1,1.44,1.53A2.23,2.23,0,0,1,127.94,106.23Z"/><path class="cls-9" d="M128.17,106.14l-6.09,2.31v-1.92l7.28-2.78S129.61,105.58,128.17,106.14Z"/><path class="cls-10" d="M76.09,125.89l-5.85,2.22v-3.74l5.85-2.22a1.55,1.55,0,0,1,1.44,1.53A2.23,2.23,0,0,1,76.09,125.89Z"/><path class="cls-9" d="M76.32,125.8l-6.09,2.31v-1.92l7.28-2.78S77.77,125.24,76.32,125.8Z"/><path class="cls-8" d="M58,72.88c-5.13-4.06-10.53-.88-10.6,9.94h0v90.85l20,19.57V102.39C68,93,66.65,86,64.79,81.81A23.35,23.35,0,0,0,58,72.88Z"/><path class="cls-9" d="M53.12,71.24s5.8-1.79,6-1.83a2,2,0,0,1,.84.11c2.35,0.8,6.83,4.87,8.93,9.74,2.44,5.66,2.6,14.13,2.6,17.35v95.13l-4,1.49V102.39c0-5.64.11-15.31-3.28-21.4C58.08,70.08,53.12,71.24,53.12,71.24Z"/></g><g class="cls-14"><path class="cls-3" d="M-617.77-7.84H152.47V251.58H-617.77V-7.84Z"/><path class="cls-4" d="M-617.77-7.84L152.81-7.76-519.72,251.61l-97.78,0Z"/></g></svg>