<svg id="Layer_1" data-name="Layer 1" xmlns="http://www.w3.org/2000/svg" xmlns:xlink="http://www.w3.org/1999/xlink" viewBox="0 0 230 230.67"><defs><style>.cls-1,.cls-21,.cls-22,.cls-26,.cls-28{fill:none;}.cls-2{clip-path:url(#clip-path);}.cls-3{fill:#7092aa;}.cls-3,.cls-4{fill-rule:evenodd;}.cls-4,.cls-6{fill:#161f4b;}.cls-5{clip-path:url(#clip-path-2);}.cls-7{fill:#d5d6d6;}.cls-8{fill:#e5eae9;}.cls-9{fill:#f0efef;}.cls-10{fill:#1b2f5b;}.cls-11{fill:#099e87;}.cls-12{fill:#0e7c67;}.cls-13{fill:#e5e5e5;}.cls-14{fill:#b2b2b3;}.cls-15{fill:#c4c4c4;}.cls-16{fill:#348abd;}.cls-17{fill:#c0a235;}.cls-18{fill:#dcc783;}.cls-19{fill:#d8dbe4;}.cls-19,.cls-22{stroke:#fff;stroke-width:0.11px;}.cls-19,.cls-21,.cls-22,.cls-26,.cls-28{stroke-miterlimit:10;}.cls-20{fill:#e1e4ea;}.cls-21{stroke:#2d79a0;stroke-width:0.45px;}.cls-23{fill:#8fcec8;}.cls-24{fill:#fff;}.cls-25{clip-path:url(#clip-path-3);}.cls-26,.cls-28{stroke:#8fcec8;}.cls-26{stroke-width:2.85px;}.cls-27{clip-path:url(#clip-path-4);}.cls-28{stroke-width:3.11px;}.cls-29{clip-path:url(#clip-path-5);}</style><clipPath id="clip-path"><circle class="cls-1" cx="433.66" cy="115.67" r="115"/></clipPath><clipPath id="clip-path-2"><circle class="cls-1" cx="115" cy="115.67" r="115"/></clipPath><clipPath id="clip-path-3"><path class="cls-1" d="M12.44,127.88L56,170.07l101-40.27L114.59,88.68Z"/></clipPath><clipPath id="clip-path-4"><polygon class="cls-1" points="209.04 77.82 157.07 129.81 114.53 88.6 166.47 36.44 209.04 77.82"/></clipPath><clipPath id="clip-path-5"><circle class="cls-1" cx="-203.66" cy="115.67" r="115"/></clipPath></defs><title>results-icon-3</title><g class="cls-2"><path class="cls-3" d="M138.47,0h592V285.73h-592V0Z"/><path class="cls-4" d="M138.47,0L730.77,0.06,213.84,199.42l-75.16,0Z"/></g><g class="cls-5"><path class="cls-3" d="M-214.06-19.54h679.2v291h-679.2v-291Z"/><path class="cls-4" d="M-214.06-19.54l679.5,0.07-593,228.71-86.23,0Z"/><path class="cls-6" d="M10.69,142.31l46.93,44.51,146.69-58.26-44.8-42.92Z"/><polygon class="cls-7" points="194.76 113.13 197.92 116.18 197.92 130.73 194.76 127.68 194.76 113.13"/><polygon class="cls-8" points="197.92 116.18 202.65 114.32 202.65 128.87 197.92 130.73 197.92 116.18"/><polygon class="cls-9" points="199.49 111.27 194.76 113.13 197.92 116.18 202.65 114.32 199.49 111.27"/><polygon class="cls-9" points="204.01 109.48 155.52 128.64 158.68 131.69 207.17 112.52 204.01 109.48"/><polygon class="cls-7" points="204.01 105.18 155.52 124.35 158.68 127.39 207.17 108.23 204.01 105.18"/><polygon class="cls-8" points="158.68 131.69 207.17 112.52 207.17 108.23 158.68 127.39 158.68 131.69"/><polygon class="cls-7" points="58.88 167.11 62.04 170.16 62.04 184.71 58.88 181.66 58.88 167.11"/><polygon class="cls-8" points="62.04 170.16 66.76 168.3 66.76 182.85 62.04 184.71 62.04 170.16"/><polygon class="cls-9" points="63.61 165.25 58.88 167.11 62.04 170.16 66.76 168.3 63.61 165.25"/><polygon class="cls-7" points="21.19 130.15 24.35 133.2 24.35 147.75 21.19 144.7 21.19 130.15"/><polygon class="cls-8" points="24.35 133.2 29.08 131.34 29.08 145.89 24.35 147.75 24.35 133.2"/><polygon class="cls-9" points="25.92 128.29 21.19 130.15 24.35 133.2 29.08 131.34 25.92 128.29"/><polygon class="cls-10" points="12.44 127.88 12.44 131.44 55.71 173.31 158.65 132.71 157.07 129.81 12.44 127.88"/><path class="cls-11" d="M12.44,127.88L56,170.07l101-40.27L114.59,88.68Z"/><polygon class="cls-12" points="209.04 77.82 157.07 129.81 114.53 88.6 166.47 36.44 209.04 77.82"/><polygon class="cls-10" points="157.07 129.81 158.65 132.71 209.04 82.19 209.04 77.82 157.07 129.81"/><polygon class="cls-13" points="187.66 103.62 185.71 105.58 193.54 113.29 196.36 112.18 187.66 103.62"/><polygon class="cls-14" points="185.7 105.59 193.53 113.29 193.53 116.32 184.25 107.05 185.7 105.59"/><polygon class="cls-15" points="196.35 115.21 193.53 116.32 193.53 113.29 196.35 112.18 196.35 115.21"/><polygon class="cls-8" points="191.52 114.42 192.72 113.94 192.72 115.59 191.52 114.42"/><polygon class="cls-7" points="191.6 114.39 192.72 113.94 189.59 110.88 188.52 111.31 191.6 114.39"/><ellipse class="cls-10" cx="144.62" cy="184.83" rx="13.05" ry="8.17"/><rect class="cls-10" x="131.57" y="183.23" width="26.11" height="1.6"/><ellipse class="cls-16" cx="144.62" cy="183.23" rx="13.05" ry="8.17"/><polygon class="cls-7" points="142.07 161.1 144.11 163.07 144.11 184.31 142.07 182.34 142.07 161.1"/><polygon class="cls-8" points="144.11 163.07 147.17 161.87 147.17 183.11 144.11 184.31 144.11 163.07"/><polygon class="cls-9" points="145.13 159.9 142.07 161.1 144.11 163.07 147.17 161.87 145.13 159.9"/><ellipse class="cls-10" cx="144.62" cy="158.13" rx="18.27" ry="11.44"/><rect class="cls-10" x="126.35" y="155.88" width="36.54" height="2.24"/><ellipse class="cls-16" cx="144.62" cy="155.88" rx="18.27" ry="11.44"/><rect class="cls-17" x="142.43" y="137.37" width="5.95" height="17.57"/><ellipse class="cls-18" cx="145.41" cy="154.94" rx="2.97" ry="2.33"/><ellipse class="cls-19" cx="145.41" cy="137.37" rx="2.91" ry="2.28"/><path class="cls-20" d="M145.41,139.69c-1.64,0-3-1-3-2.33v6.56h5.95v-6.56C148.38,138.65,147,139.69,145.41,139.69Z"/><ellipse class="cls-18" cx="145.41" cy="143.93" rx="2.97" ry="2.33"/><line class="cls-21" x1="144.79" y1="153.78" x2="148.85" y2="130.68"/><path class="cls-22" d="M148.32,137.37c0,1.26-1.3,2.28-2.91,2.28s-2.91-1-2.91-2.28,1.3-2.28,2.91-2.28"/><path class="cls-23" d="M125.76,113.18c6.68,5.87,4.17,14.18-5.63,18.56S97,134.92,90.3,129s-4.17-14.18,5.63-18.56S119.07,107.31,125.76,113.18Z"/><path class="cls-24" d="M105.54,128.37l-0.27-2a0.74,0.74,0,0,1,.9-0.77,34.26,34.26,0,0,0,4.85-.49l-3.39-3c-3.43.56-8.52,0.85-11-1.36-2.11-1.85-1.71-4.41,2.13-6.5l-0.68-.59c-0.23-.2-0.12-0.48.19-0.62l0.53-.24a1,1,0,0,1,1,.09l0.7,0.61a22.16,22.16,0,0,1,7.29-1.22,0.8,0.8,0,0,1,.86.51l0,2.36a0.61,0.61,0,0,1-.71.49c-0.28,0-2.7.09-4.56,0.39l3,2.61c3.07-.51,8.63-1.12,11.5,1.4,2.17,1.91,1.56,4.73-2.27,6.78l2.2,1.93c0.21,0.19.1,0.46-.21,0.6l-0.53.24a1,1,0,0,1-1-.07l-2.2-1.93a17.52,17.52,0,0,1-7.54,1.25C105.76,128.78,105.55,128.76,105.54,128.37Zm-4.31-11.78c-0.91.52-1.13,1.26-.6,1.73s1.6,0.79,3.35.68Zm12.11,6a5.06,5.06,0,0,0-3.41-.82l3.08,2.71C113.79,123.9,114,123.16,113.33,122.59Z"/><g class="cls-25"><path class="cls-26" d="M179.85,105.65L155.58,86.72c-6.13,2.39-14.62,1.52-18.92-1.9L35.07,124.58c3.69,3.58,1.93,8.37-4,10.67l20.15,19.93c6.08-2.34,14.25-1.12,18.27,2.78l107.31-41.15C172.15,113.07,173.51,108.09,179.85,105.65Z"/></g><g class="cls-27"><path class="cls-28" d="M193.53,71.94L173.22,51.41a10,10,0,0,1-14.07.09L91.67,118.28a10,10,0,0,1-.24,14.06l20.31,20.53a10,10,0,0,1,14.07-.09L193.3,86A10,10,0,0,1,193.53,71.94Z"/></g></g><g class="cls-29"><path class="cls-3" d="M-466.55,18.56H71.59V233H-466.55V18.56Z"/><path class="cls-4" d="M-466.55-32.37l461.41,0,77,50.93L-398,199.82l-68.32,0Z"/></g></svg>