<svg id="Layer_1" data-name="Layer 1" xmlns="http://www.w3.org/2000/svg" xmlns:xlink="http://www.w3.org/1999/xlink" viewBox="0 0 230 230.67"><defs><style>.cls-1{fill:none;}.cls-2{clip-path:url(#clip-path);}.cls-3{fill:#7092aa;}.cls-3,.cls-4{fill-rule:evenodd;}.cls-11,.cls-4{fill:#161f4b;}.cls-5{fill:#1b305d;}.cls-6{fill:#348abd;}.cls-7{fill:#1a1b4f;}.cls-8{fill:#d5d6d6;}.cls-9{fill:#e5eae9;}.cls-10{fill:#2a5694;}.cls-12{fill:#d94c27;}.cls-13{fill:#099e87;}.cls-14{clip-path:url(#clip-path-2);}</style><clipPath id="clip-path"><circle class="cls-1" cx="115" cy="115.67" r="115"/></clipPath><clipPath id="clip-path-2"><circle class="cls-1" cx="-203.66" cy="115.67" r="115"/></clipPath></defs><title>results-icon-4</title><g class="cls-2"><path class="cls-3" d="M-180.18,0h592V285.73h-592V0Z"/><path class="cls-4" d="M-180.18,0L412.11,0.06-104.82,199.42l-75.16,0Z"/><path class="cls-5" d="M59.59,181.35l51.13-29.42s8.75,5.92,11.92,7.55,3.77,2.23,7.89-.34,13.12-7,15.1-8.23,0.69-3.52-1-4.55S131.39,139,131.39,139l64.94-36.52-28-16.14L28,163.18Z"/><polygon class="cls-6" points="25.88 159.47 59.59 178.26 201.47 78.75 168.53 60.05 25.88 159.47"/><polygon class="cls-7" points="25.88 159.47 26.65 162.39 59.59 181.34 59.59 178.26 25.88 159.47"/><polygon class="cls-7" points="201.47 78.75 201.47 82.61 59.59 181.34 59.59 178.26 201.47 78.75"/><path class="cls-8" d="M126.32,156.73l-3.09-1.8V130c0-7.38,9.51-12.68,13-10.89,2.34,1.18,4.37,1.8,4.37,5v24.36Z"/><path class="cls-9" d="M126.32,156.73V132c0-5.23,4.63-10.09,8.49-10.72s5.83,1.37,5.83,2.83v24.36Z"/><path class="cls-8" d="M90.3,114.57s-0.69-9.68,4.87-12.75c2.85-1.43,4.65-1.95,7.22-1.62a8.3,8.3,0,0,1,4.75,2.64Z"/><path class="cls-9" d="M93.58,112.29s-0.54-5,4.94-8.15c3.47-2,7.71-.67,7.71-0.67Z"/><polygon class="cls-10" points="201.45 78.73 64.24 132.9 168.46 59.84 201.45 78.73"/><path class="cls-11" d="M78.87,148.46l-19,7.35c-1.35.54-2.57,0.54-2.81,0l-3.85-7.35c-2.26-5.21-1.55-9.5,11.11-15.35,7.32-3.39,16.32-5,18.35-1.15a0.65,0.65,0,0,0,.7,0c9.29-3.81,15.26-2.24,16,1.15C100.69,138.71,91.9,143.25,78.87,148.46Z"/><path class="cls-12" d="M70.88,144.33L59.42,155.6a1.89,1.89,0,0,1-2.81,0L45.2,144.33c-7.62-8-11.32-14.54-4.68-23.5,3.84-5.19,11.23-7.59,17.17-1.76a0.49,0.49,0,0,0,.7,0c5.38-5.83,13-3.43,17.21,1.76C82.67,129.4,78.55,136.35,70.88,144.33Z"/><path class="cls-11" d="M157.78,81.77L162,80a3,3,0,0,1,2.16-.3,13.54,13.54,0,0,0,3.66,1.38l4.81-3.73c-3-.81-6.37-2.44-2.87-5.18,2.94-2.3,8.76-4.26,15.36-4.56l0.94-.74a2.73,2.73,0,0,1,1.45-.44h0.79c0.47,0,.65.18,0.33,0.44l-1,.76c4,0.18,5.87,1.22,6.54,1.68,0.35,0.16-.27.58-0.66,0.74L188.38,72a2,2,0,0,1-1.44.14,19.24,19.24,0,0,0-3.26-1.36L179.53,74c2.73,0.71,7,2.26,3,5.39-3,2.37-9.54,4.47-16.06,4.74l-3.06,2.39A2.74,2.74,0,0,1,162,87h-0.79c-0.47,0-.65-0.18-0.36-0.41l3.06-2.39c-4.9-.18-6.37-1.27-6.74-1.75C157,82.19,157,82.09,157.78,81.77Zm23.52-11.28a8.57,8.57,0,0,0-4.1,1.2c-0.85.67-.89,1.24,0.28,1.8Zm-6.72,9.39c0.91-.71.92-1.38,0-1.93l-4.29,3.36A9.24,9.24,0,0,0,174.59,79.88Z"/><path class="cls-13" d="M151.14,76.41l2-3.55a1.19,1.19,0,0,1,1.78-.61,26.57,26.57,0,0,0,5.42,2.8l0-7.57c-4.07-1.64-9.49-5-9.49-10.51,0-4.67,3.32-8.64,9.53-9.25v-1.5a0.89,0.89,0,0,1,.89-0.89h0.79a0.89,0.89,0,0,1,.89.89v1.54a17.76,17.76,0,0,1,8.69,3.41,1.18,1.18,0,0,1,.28,1.5l-2.71,3.93a0.86,0.86,0,0,1-1.26.28,40.91,40.91,0,0,0-5-2.76v6.59c3.64,1.45,9.91,4.58,9.91,10.93,0,4.81-3.83,9.07-10,9.63v4.86A0.88,0.88,0,0,1,162,87h-0.79a0.88,0.88,0,0,1-.89-0.84V81.27c-5.14-.37-8-2.57-9-3.55C150.9,77.25,150.72,77.07,151.14,76.41Zm9.11-22.9a2.71,2.71,0,0,0-2.57,2.43c0,1.35.7,2.52,2.57,3.64V53.52Zm5.28,19.07a4.86,4.86,0,0,0-2.48-3.93v6.82A3,3,0,0,0,165.53,72.58Z"/></g><g class="cls-14"><path class="cls-3" d="M-532.72-19.54h679.2v291h-679.2v-291Z"/><path class="cls-4" d="M-532.72-19.54l679.5,0.07-593,228.71-86.23,0Z"/></g></svg>