<svg id="Layer_1" data-name="Layer 1" xmlns="http://www.w3.org/2000/svg" xmlns:xlink="http://www.w3.org/1999/xlink" viewBox="0 0 230 230.67"><defs><style>.cls-1{fill:none;}.cls-2{clip-path:url(#clip-path);}.cls-3{fill:#7092aa;}.cls-3,.cls-4{fill-rule:evenodd;}.cls-4{fill:#161f4b;}.cls-5{clip-path:url(#clip-path-2);}.cls-6{fill:#e5eae9;}.cls-7{fill:#f0efef;}.cls-8{fill:#d5d6d6;}.cls-9{fill:#1b2f5b;}.cls-10{fill:#348abd;}.cls-11{fill:#f9cbdf;}.cls-12{fill:#c06c83;}.cls-13{fill:#df90a7;}.cls-14{fill:#f6a9c2;}.cls-15{fill:#49210d;}.cls-16{fill:#6a323b;}.cls-17{fill:#b0b0b0;}</style><clipPath id="clip-path"><circle class="cls-1" cx="433.66" cy="115.67" r="115"/></clipPath><clipPath id="clip-path-2"><circle class="cls-1" cx="115" cy="115.67" r="115"/></clipPath></defs><title>results-icon-1</title><g class="cls-2"><path class="cls-3" d="M170.76,18.56H708.9V233H170.76V18.56Z"/><path class="cls-4" d="M170.76-32.37l461.41,0,77,50.93L239.27,199.82l-68.32,0Z"/></g><g class="cls-5"><path class="cls-3" d="M-299.12-7.84H471.13V251.58H-299.12V-7.84Z"/><path class="cls-4" d="M-299.12-7.84L471.47-7.76-201.06,251.61l-97.78,0Z"/><path class="cls-4" d="M203.16,194h0a4.42,4.42,0,0,0,.59-2.63l-0.51-2.87h0a2.35,2.35,0,0,0-2.7.48h0l0.38,2.09a2.35,2.35,0,0,1-.69,2,30.49,30.49,0,0,0-9.79-.64,44,44,0,0,0-9,1.73l-15.55-16,14.82-5.82L141.4,133.69-81.68,219l41.09,40.34,201.47-79.19L176.35,196a34.84,34.84,0,0,0-10.22,6.76l0,0s-2.33-.64-6.95.39c-5,1.13-.57,5,2.16,6.91h0a23.49,23.49,0,0,0-1.33,8.18,1.38,1.38,0,0,0-.15.4c-0.41,2,1,3.92,2,4.79a7.06,7.06,0,0,0,3.63,1.73h0l0.1,0.58s0.63,0.6,3.46.36,3.53-.93,3.53-0.93h-2.11l0.11,0c1.71,0.05,3.65.08,5.42,0,1.09,0,2.18-.14,3.28-0.26l0.56,3.13a8,8,0,0,0,5.27.54c3.37-.61,4.45-2.44,4.45-2.44L189,222.92l1.33-.37a39,39,0,0,0,10.45-5.3h0a11.8,11.8,0,0,0,4.2-.11,7.13,7.13,0,0,0,3.85-1.86L208,210.19h0a13.88,13.88,0,0,0,2-4.77C211.08,200.06,208.21,196.1,203.16,194Z"/><polygon class="cls-6" points="107.86 72.39 113.79 70.05 113.79 183.28 107.86 185.63 107.86 72.39"/><polygon class="cls-7" points="109.83 66.22 103.89 68.56 107.86 72.39 113.79 70.05 109.83 66.22"/><polygon class="cls-8" points="-3.39 154.84 0.58 158.67 0.58 227.82 -3.39 224 -3.39 154.84"/><polygon class="cls-6" points="0.58 158.67 6.52 156.33 6.52 225.49 0.58 227.82 0.58 158.67"/><polygon class="cls-7" points="2.55 152.5 -3.39 154.84 0.58 158.67 6.52 156.33 2.55 152.5"/><polygon class="cls-9" points="-25.64 171.45 -25.64 175.93 6.63 207.58 183.16 138.47 183.16 134.38 -25.64 171.45"/><path class="cls-10" d="M-25.64,171.45L7.06,203.51l176.1-69.13-31.29-30.72Z"/><polygon class="cls-6" points="134.74 99.28 140.68 96.94 140.68 210.17 134.74 212.51 134.74 99.28"/><polygon class="cls-7" points="136.72 93.11 130.78 95.45 134.74 99.28 140.68 96.94 136.72 93.11"/><polygon class="cls-8" points="18.27 191.73 22.24 195.56 22.24 256.26 18.27 252.43 18.27 191.73"/><polygon class="cls-6" points="22.24 195.56 28.18 193.22 28.18 253.92 22.24 256.26 22.24 195.56"/><polygon class="cls-7" points="24.21 189.39 18.27 191.73 22.24 195.56 28.18 193.22 24.21 189.39"/><path class="cls-11" d="M62.55,30.18s-2.1-1.6-6.66-1.29c-5,.34-1.39,7.34.88,11S60.58,34,60.58,34Z"/><path class="cls-12" d="M56.77,39.91a30.16,30.16,0,0,1-2.5-6.34c-0.61-2.82-.17-3.66.82-4a7.78,7.78,0,0,1,3.82-.06A8.31,8.31,0,0,1,62,30.76"/><path class="cls-13" d="M101,52.78V60.7a5.41,5.41,0,0,1-4,1.76,7.75,7.75,0,0,1-4-1V53.24"/><path class="cls-13" d="M80.84,64.92v6.89a5.32,5.32,0,0,1-4.64,2.47A6.21,6.21,0,0,1,71.28,72V64.92"/><path class="cls-13" d="M58.15,63.86v0.91s0.5,1.07,3.22,1.48,3.51-.44,3.51-0.44"/><path class="cls-14" d="M53.91,54.78s0.29-12,5.57-20.57,16.24-14.8,27.87-13.07S107,33,103.7,46.12,87.45,65.76,82.17,66.67a36.19,36.19,0,0,1-14,0,65.92,65.92,0,0,1-9.61-3.13Z"/><path class="cls-11" d="M55,60.26a12,12,0,0,1-1.11-7.78c0.82-3.27,6.82-2.5,9.71,2.69s1.68,11.24-2.46,10C56.8,63.87,55.76,61.66,55,60.26Z"/><circle class="cls-15" cx="60.58" cy="42.29" r="1.22"/><circle class="cls-15" cx="68.53" cy="48.3" r="1.22"/><path class="cls-15" d="M73.47,34L71,32.5a38.78,38.78,0,0,1,6.5-4.42c3.4-1.75,4.7-1.76,4.7-1.76l1.8,1a46.37,46.37,0,0,0-5.93,3.15A52.58,52.58,0,0,0,73.47,34Z"/><path class="cls-14" d="M96.25,25.08A4.28,4.28,0,0,0,97.53,22V18.73h2.65V23.2a9,9,0,0,1-1,3.81"/><ellipse class="cls-11" cx="98.85" cy="18.74" rx="1.32" ry="0.69"/><path class="cls-12" d="M71.81,33s3.14-2.44,5-3.58A32.45,32.45,0,0,1,82.09,27l1.19,0.61L84,27.29l-2-1a20.69,20.69,0,0,0-5.79,2.54A27.36,27.36,0,0,0,71,32.5Z"/><rect class="cls-12" x="56.57" y="54.72" width="1.25" height="4.45" rx="0.62" ry="0.62"/><path class="cls-16" d="M57.82,55.41a0.5,0.5,0,0,0-.45-0.59c-0.5,0-.44.69-0.44,1v2.69c0,0.34.61,0.72,0.89,0"/><rect class="cls-12" x="59.04" y="57.04" width="1.25" height="4.45" rx="0.62" ry="0.62"/><path class="cls-16" d="M60.28,57.73a0.5,0.5,0,0,0-.45-0.59c-0.5,0-.44.69-0.44,1v2.69c0,0.34.61,0.72,0.89,0"/><path class="cls-11" d="M77.06,40.5a15.52,15.52,0,0,1,7-1.27c3.5,0.33,6.35,2.53,5.58,3.67s-6.31,8.46-6.31,8.46a11.51,11.51,0,0,0-1.39-5.72,27,27,0,0,0-4.56-5.13"/><path class="cls-12" d="M77.06,40.5a12.54,12.54,0,0,1,7.77,0c4.62,1.32,4,2.38,3.66,3.24s-5.2,7.62-5.2,7.62a15,15,0,0,0-2.61-6.61A43.17,43.17,0,0,0,77.06,40.5Z"/><path class="cls-8" d="M165.4,127L89.73,51.94a2.36,2.36,0,0,1,.81-2.42,1.9,1.9,0,0,1,2.45-.1l76.45,75.38Z"/><path class="cls-8" d="M107.85,167.95v17.64l-4-3.83V169.5"/><path class="cls-17" d="M90.54,49.52l73.16,72.61-2,3.2-72-73.39a2.48,2.48,0,0,1,.06-1.4A2.08,2.08,0,0,1,90.54,49.52Z"/><path class="cls-6" d="M107.85,72.39l1-.39a11.34,11.34,0,0,0-1.21-4.3A2.25,2.25,0,0,0,106,66.38a2,2,0,0,0-1.76,1C103.58,68.6,107.85,72.39,107.85,72.39Z"/><path class="cls-8" d="M103.89,68.56c0-1.13.89-2.49,1.77-1.68,1.88,1.76,2.2,5.51,2.2,5.51v48.08l-4,1.51V68.56Z"/><path class="cls-6" d="M134.74,99.28l1-.39a11.34,11.34,0,0,0-1.21-4.3,2.25,2.25,0,0,0-1.67-1.32,2,2,0,0,0-1.76,1C130.46,95.49,134.74,99.28,134.74,99.28Z"/><path class="cls-8" d="M130.78,95.45c0-1.13.89-2.49,1.77-1.68,1.88,1.76,2.2,5.51,2.2,5.51V212.51l-4-3.83V95.45Z"/><path class="cls-11" d="M163.7,121.48s-2.1-1.6-6.66-1.29c-5,.34-1.39,7.34.88,11s3.81-5.88,3.81-5.88Z"/><path class="cls-12" d="M157.92,131.21a30.16,30.16,0,0,1-2.5-6.34c-0.61-2.82-.17-3.66.82-4a7.78,7.78,0,0,1,3.82-.06,8.31,8.31,0,0,1,3.12,1.19"/><path class="cls-13" d="M202.11,144.07V152a5.41,5.41,0,0,1-4,1.76,7.75,7.75,0,0,1-4-1v-8.26"/><path class="cls-13" d="M182,156.22v6.89a5.32,5.32,0,0,1-4.64,2.47,6.21,6.21,0,0,1-4.91-2.24v-7.12"/><path class="cls-13" d="M159.3,155.16v0.91s0.5,1.07,3.22,1.48,3.51-.44,3.51-0.44"/><path class="cls-14" d="M155.06,146.08s0.29-12,5.57-20.57,16.24-14.8,27.87-13.07,19.61,11.89,16.34,25S188.61,157.06,183.32,158a36.19,36.19,0,0,1-14,0,65.92,65.92,0,0,1-9.61-3.13Z"/><path class="cls-11" d="M156.17,151.56a12,12,0,0,1-1.11-7.78c0.82-3.27,6.82-2.5,9.71,2.69s1.68,11.24-2.46,10C158,155.16,156.92,153,156.17,151.56Z"/><circle class="cls-15" cx="161.73" cy="133.58" r="1.22"/><circle class="cls-15" cx="169.68" cy="139.6" r="1.22"/><path class="cls-15" d="M174.63,125.33l-2.46-1.53a38.78,38.78,0,0,1,6.5-4.42c3.4-1.75,4.7-1.76,4.7-1.76l1.8,1a46.37,46.37,0,0,0-5.93,3.15A52.58,52.58,0,0,0,174.63,125.33Z"/><path class="cls-14" d="M197.4,116.38a4.28,4.28,0,0,0,1.28-3.09V110h2.65v4.47a9,9,0,0,1-1,3.81"/><ellipse class="cls-11" cx="200" cy="110.03" rx="1.32" ry="0.69"/><path class="cls-12" d="M173,124.3s3.14-2.44,5-3.58a32.45,32.45,0,0,1,5.28-2.41l1.19,0.61,0.74-.34-2-1a20.69,20.69,0,0,0-5.79,2.54,27.36,27.36,0,0,0-5.25,3.72Z"/><rect class="cls-12" x="157.73" y="146.02" width="1.25" height="4.45" rx="0.62" ry="0.62"/><path class="cls-16" d="M159,146.7a0.5,0.5,0,0,0-.45-0.59c-0.5,0-.44.69-0.44,1v2.69c0,0.34.61,0.72,0.89,0"/><rect class="cls-12" x="160.19" y="148.34" width="1.25" height="4.45" rx="0.62" ry="0.62"/><path class="cls-16" d="M161.44,149a0.5,0.5,0,0,0-.45-0.59c-0.5,0-.44.69-0.44,1v2.69c0,0.34.61,0.72,0.89,0"/><path class="cls-11" d="M178.21,131.8a15.52,15.52,0,0,1,7-1.27c3.5,0.33,6.35,2.53,5.58,3.67s-6.31,8.46-6.31,8.46a11.51,11.51,0,0,0-1.39-5.72,27,27,0,0,0-4.56-5.13"/><path class="cls-12" d="M178.21,131.8a12.54,12.54,0,0,1,7.77,0c4.62,1.32,4,2.38,3.66,3.24s-5.2,7.62-5.2,7.62a15,15,0,0,0-2.61-6.61A43.17,43.17,0,0,0,178.21,131.8Z"/><path class="cls-6" d="M109.83,66a1.79,1.79,0,0,1,2.38-.27c2.09,1.36,1.57,4.16,1.57,4.16Z"/><path class="cls-17" d="M109.95,66.14a1.29,1.29,0,0,1,1.88.08,4.62,4.62,0,0,1,1.24,3Z"/><path class="cls-6" d="M137,92.82a1.79,1.79,0,0,1,2.38-.27c2.09,1.36,1.57,4.16,1.57,4.16Z"/><path class="cls-17" d="M137.14,92.94A1.29,1.29,0,0,1,139,93a4.62,4.62,0,0,1,1.24,3Z"/></g></svg>