<svg xmlns="http://www.w3.org/2000/svg" viewBox="0 0 395 502.5"><defs><style>.bc1ae40f-2ebd-4cd4-8ca3-bc5e7d38d348{isolation:isolate;}.\38 5ef3290-5ae4-45ce-a2d9-112e91c9ba24{fill:none;stroke:#fff;stroke-width:4px;}.\38 ea9a1db-7195-436a-baf0-dcd995e98764,.bed70f3b-b201-463f-813d-cd7e17336913{fill:#328abd;}.\38 ea9a1db-7195-436a-baf0-dcd995e98764{fill-rule:evenodd;}</style></defs><title>sign_post</title><g id="aec88a2c-0286-4e3c-ae59-03fb8a945fc1" data-name="Ellipse 21" class="bc1ae40f-2ebd-4cd4-8ca3-bc5e7d38d348"><g id="c45c2b2f-7ad9-4af8-964b-8db597afe6c0" data-name="Ellipse 21"><ellipse class="85ef3290-5ae4-45ce-a2d9-112e91c9ba24" cx="192.5" cy="478" rx="90" ry="22.5"/></g></g><g id="5eb796ad-4166-4e35-85f7-ae0756ac3e58" data-name="Rounded Rectangle 8" class="bc1ae40f-2ebd-4cd4-8ca3-bc5e7d38d348"><g id="af5b9c6a-b65e-449a-8dbf-f53b33fcdbb6" data-name="Rounded Rectangle 8"><rect class="bed70f3b-b201-463f-813d-cd7e17336913" x="179.22" y="2" width="24.91" height="481" rx="10" ry="10"/><rect class="85ef3290-5ae4-45ce-a2d9-112e91c9ba24" x="179.22" y="2" width="24.91" height="481" rx="10" ry="10"/></g></g><g id="943c9677-8210-41d5-8d4d-88eaa88b59c2" data-name="Rounded Rectangle 9 copy" class="bc1ae40f-2ebd-4cd4-8ca3-bc5e7d38d348"><g id="4e8f07f2-c9c1-4533-911b-20960eb1a3cc" data-name="Rounded Rectangle 9 copy"><path class="8ea9a1db-7195-436a-baf0-dcd995e98764" d="M286.16,124.85h-244c-4.41,0-13,8.83-38.39,33.83C2,160.51,2,165.83,4.36,168c24.26,22.83,33.85,32.2,37.85,32.2h244a7.55,7.55,0,0,0,7.55-7.54V132.39A7.55,7.55,0,0,0,286.16,124.85Z" transform="translate(-0.5 -0.5)"/><path class="85ef3290-5ae4-45ce-a2d9-112e91c9ba24" d="M286.16,124.85h-244c-4.41,0-13,8.83-38.39,33.83C2,160.51,2,165.83,4.36,168c24.26,22.83,33.85,32.2,37.85,32.2h244a7.55,7.55,0,0,0,7.55-7.54V132.39A7.55,7.55,0,0,0,286.16,124.85Z" transform="translate(-0.5 -0.5)"/></g></g><g id="4d3ac586-be40-4e10-92c4-b885f3d9be11" data-name="Rounded Rectangle 9 copy 2" class="bc1ae40f-2ebd-4cd4-8ca3-bc5e7d38d348"><g id="99dc93e2-efa3-4749-baed-8e2407cc52e3" data-name="Rounded Rectangle 9 copy 2"><path class="8ea9a1db-7195-436a-baf0-dcd995e98764" d="M392.18,65.69c-25.39-25-34-33.83-38.39-33.83h-244a7.55,7.55,0,0,0-7.55,7.54V99.7a7.55,7.55,0,0,0,7.55,7.54h244c4,0,13.59-9.37,37.85-32.2C394,72.83,394,67.51,392.18,65.69Z" transform="translate(-0.5 -0.5)"/><path class="85ef3290-5ae4-45ce-a2d9-112e91c9ba24" d="M392.18,65.69c-25.39-25-34-33.83-38.39-33.83h-244a7.55,7.55,0,0,0-7.55,7.54V99.7a7.55,7.55,0,0,0,7.55,7.54h244c4,0,13.59-9.37,37.85-32.2C394,72.83,394,67.51,392.18,65.69Z" transform="translate(-0.5 -0.5)"/></g></g></svg>