<?xml version="1.0" encoding="utf-8"?>
<!-- Generator: Adobe Illustrator 19.2.1, SVG Export Plug-In . SVG Version: 6.00 Build 0)  -->
<svg version="1.1" id="Layer_1" xmlns="http://www.w3.org/2000/svg" xmlns:xlink="http://www.w3.org/1999/xlink" x="0px" y="0px"
	 viewBox="0 0 224 80" style="enable-background:new 0 0 224 80;" xml:space="preserve">
<style type="text/css">
	.st0{fill:#002C5F;}
</style>
<title>slider-bubble</title>
<g id="_x39_3c2551e-4363-41cc-9109-94b3f2aed43a">
	<g id="_x35_5961720-c585-469c-b15a-418b270112ba">
		<path class="st0" d="M5,0h214c2.8,0,5,2.2,5,5v58c0,2.8-2.2,5-5,5H5c-2.8,0-5-2.2-5-5V5C0,2.2,2.2,0,5,0z"/>
	</g>
	<path class="st0" d="M100.8,68L112,80l11-12h96c0,0,5,0,5-5V5c0.2-2.6-1.8-4.8-4.4-5c-0.2,0-0.4,0-0.6,0H5c0,0-5,0-5,5v58
		c-0.2,2.6,1.8,4.8,4.4,5c0.2,0,0.4,0,0.6,0H100.8z"/>
</g>
<g id="a6ca9ca9-b0f1-4fcf-9da9-b2d9a1920b99">
	<g id="de05158b-3d28-4725-97d4-c3dce5cccd69">
		<polygon class="st0" points="100.8,68 112,80 123,68 		"/>
	</g>
</g>
</svg>
