<?xml version="1.0" encoding="utf-8"?>
<!-- Generator: Adobe Illustrator 19.2.1, SVG Export Plug-In . SVG Version: 6.00 Build 0)  -->
<svg version="1.1" id="Layer_1" xmlns="http://www.w3.org/2000/svg" xmlns:xlink="http://www.w3.org/1999/xlink" x="0px" y="0px"
	 viewBox="0 0 1900 872" style="enable-background:new 0 0 1900 872;" xml:space="preserve">
<style type="text/css">
	.st0{fill:#0B9E87;}
	.st1{opacity:0.13;enable-background:new    ;}
	.st2{fill:#F0F6F7;}
	.st3{fill:#416369;}
	.st4{opacity:0.49;fill:#B4D9DE;enable-background:new    ;}
	.st5{opacity:2.000000e-02;fill:#FFFFFF;enable-background:new    ;}
	.st6{fill:#F2F5F7;}
	.st7{clip-path:url(#SVGID_15_);}
	.st8{clip-path:url(#SVGID_16_);fill:url(#SVGID_18_);}
	.st9{opacity:0.16;fill:url(#SVGID_20_);enable-background:new    ;}
	.st10{opacity:0.37;}
	.st11{fill:#086078;}
	.st12{fill:#F7F7F7;}
	.st13{fill:#10A1A1;}
	.st14{opacity:0.21;clip-path:url(#SVGID_23_);fill:#360000;enable-background:new    ;}
	.st15{opacity:9.000000e-02;enable-background:new    ;}
	.st16{fill:#EFBF87;}
	.st17{clip-path:url(#SVGID_27_);}
	.st18{clip-path:url(#SVGID_29_);fill:url(#SVGID_31_);}
	.st19{opacity:0.88;fill:url(#SVGID_32_);enable-background:new    ;}
	.st20{clip-path:url(#SVGID_35_);}
	.st21{clip-path:url(#SVGID_36_);fill:url(#SVGID_37_);}
	.st22{opacity:0.31;fill:url(#SVGID_38_);enable-background:new    ;}
	.st23{fill:url(#SVGID_39_);}
	.st24{fill:url(#SVGID_40_);}
	.st25{clip-path:url(#SVGID_43_);}
	.st26{clip-path:url(#SVGID_44_);fill:url(#SVGID_45_);}
	.st27{fill:url(#SVGID_46_);}
	.st28{clip-path:url(#SVGID_49_);}
	.st29{clip-path:url(#SVGID_50_);fill:url(#SVGID_51_);}
	.st30{opacity:0.32;fill:#FFFFFF;enable-background:new    ;}
	.st31{fill:#E64047;}
	.st32{opacity:0.49;fill:#BD151D;enable-background:new    ;}
	.st33{fill:#AEAEB3;}
	.st34{fill:#E2E2E8;}
	.st35{fill:#7F7F82;}
	.st36{fill:#717173;}
	.st37{fill:#2E2E2E;}
	.st38{fill:#333333;}
	.st39{fill:#3B3B3B;}
	.st40{clip-path:url(#SVGID_54_);}
	.st41{clip-path:url(#SVGID_55_);fill:url(#SVGID_56_);}
	.st42{opacity:0.23;fill:url(#SVGID_57_);enable-background:new    ;}
	.st43{opacity:0.11;}
	.st44{fill:#FFFFFF;}
	.st45{fill:#D1D1D1;}
	.st46{clip-path:url(#SVGID_60_);}
	.st47{clip-path:url(#SVGID_61_);fill:url(#SVGID_62_);}
	.st48{opacity:0.23;fill:url(#SVGID_63_);enable-background:new    ;}
	.st49{opacity:0.23;}
	.st50{clip-path:url(#SVGID_66_);}
	.st51{clip-path:url(#SVGID_67_);fill:url(#SVGID_68_);}
	.st52{fill:url(#SVGID_69_);}
	.st53{fill:#E1E8E8;}
	.st54{fill:#CAE4E6;}
	.st55{fill:#222626;}
	.st56{fill:#1E3D4D;}
	.st57{clip-path:url(#SVGID_71_);}
	.st58{opacity:0.57;fill:#BFBFBF;enable-background:new    ;}
	.st59{opacity:0.16;clip-path:url(#SVGID_73_);}
	.st60{opacity:0.22;fill:#313838;enable-background:new    ;}
	.st61{fill:#313838;}
	.st62{fill:#D2D6D6;stroke:#CCCCCC;stroke-width:1.9596;stroke-miterlimit:10;}
	.st63{opacity:9.000000e-02;fill:#383E42;enable-background:new    ;}
	.st64{fill:#E3EBDF;}
	.st65{opacity:0.14;clip-path:url(#SVGID_75_);fill:#383E42;enable-background:new    ;}
	.st66{fill:#664C1C;}
	.st67{fill:#523600;}
	.st68{opacity:9.000000e-02;fill:#A8A499;enable-background:new    ;}
	.st69{display:none;}
	.st70{display:inline;opacity:0.24;fill:#FFFFFF;enable-background:new    ;}
	.st71{display:inline;opacity:0.12;fill:#FFFFFF;enable-background:new    ;}
	.st72{display:inline;opacity:0.16;fill:#FFFFFF;enable-background:new    ;}
	.st73{fill:#EFF7F7;}
	.st74{fill:#EBAD78;}
	.st75{fill:#E8AA75;}
	.st76{opacity:0.14;fill:#A64D00;enable-background:new    ;}
	.st77{fill:#E6A56C;}
	.st78{fill:#1CC6E6;}
	.st79{opacity:0.16;fill:#8FA0B5;enable-background:new    ;}
	.st80{fill:#31D7F5;}
	.st81{opacity:0.28;fill:#8FA0B5;enable-background:new    ;}
	.st82{fill:#AD957D;}
	.st83{fill:#F0B786;}
</style>
<g id="Layer_1_1_">
	<rect class="st0" width="1900" height="872"/>
</g>
<g id="Layer_6">
	<g>
		<g>
			<path class="st1" d="M634,775.6l-60.4,42.8c-4.7,3.3-11.3,2.2-14.6-2.5L470.8,690c-3.3-4.7-2.2-11.2,2.5-14.5l60.4-42.8
				c4.7-3.3,11.3-2.2,14.6,2.5L636.5,761C639.8,765.8,638.7,772.3,634,775.6z"/>
			<path class="st2" d="M630.7,767.4l-58.4,41.4c-4.6,3.2-10.9,2.2-14.1-2.4l-84.7-120.8c-3.2-4.5-2.1-10.8,2.5-14l58.4-41.4
				c4.6-3.2,10.9-2.2,14.1,2.4l84.7,120.8C636.4,758,635.3,764.2,630.7,767.4z"/>
			<polygon class="st3" points="623.3,744.8 554.7,793.4 482.6,690.7 551.3,642.1 			"/>
			<path class="st4" d="M519.9,656.7l-14.1,10c-0.7,0.5-1.7,0.3-2.2-0.4l0,0c-0.5-0.7-0.3-1.7,0.4-2.2l14.1-10
				c0.7-0.5,1.7-0.3,2.2,0.4l0,0C520.8,655.2,520.6,656.2,519.9,656.7z"/>
			<path class="st4" d="M602.9,779.8l-8.2,6.1c-0.5,0.4-1.2,0.3-1.6-0.2l-6.1-8.2c-0.4-0.5-0.3-1.2,0.2-1.6l8.2-6.1
				c0.5-0.4,1.2-0.3,1.6,0.2l6.1,8.2C603.5,778.7,603.4,779.4,602.9,779.8z"/>
		</g>
		<polygon class="st5" points="552.1,643.4 554,794.7 483,691.3 		"/>
	</g>
</g>
<g id="Layer_7">
	<g>
		<polygon class="st1" points="1242,386.6 1198.4,326.3 1118.2,225.5 1322.2,63.3 1447.2,210.7 1410.6,243.2 1277.1,355.9 		"/>
		<polygon class="st6" points="1244.3,367.1 1202.8,319.5 1122.7,218.7 1326.7,56.5 1448,209.1 1297.1,329.1 		"/>
		<g>
			<g>
				<defs>
					<polygon id="SVGID_12_" points="1,1 2,1 1,2 					"/>
				</defs>
				<defs>
					<polygon id="SVGID_13_" points="-1,-1 -2,-1 -1,-2 					"/>
				</defs>
				<clipPath id="SVGID_15_">
					<use xlink:href="#SVGID_12_"  style="overflow:visible;"/>
				</clipPath>
				<clipPath id="SVGID_16_" class="st7">
					<use xlink:href="#SVGID_13_"  style="overflow:visible;"/>
				</clipPath>
				
					<linearGradient id="SVGID_18_" gradientUnits="userSpaceOnUse" x1="1009.7931" y1="315.8282" x2="1286.9032" y2="176.0058" gradientTransform="matrix(0.6224 0.7827 0.7827 -0.6224 344.5571 -691.9534)">
					<stop  offset="0.3602" style="stop-color:#FFFFFF"/>
					<stop  offset="1" style="stop-color:#000000"/>
				</linearGradient>
				<polygon class="st8" points="1244.7,362 1202.5,319.2 1123.4,219.8 1326.5,58.3 1446.9,209.7 1288.1,336 				"/>
			</g>
		</g>
		
			<linearGradient id="SVGID_20_" gradientUnits="userSpaceOnUse" x1="1009.7931" y1="315.8282" x2="1286.9032" y2="176.0058" gradientTransform="matrix(0.6224 0.7827 0.7827 -0.6224 344.5571 -691.9534)">
			<stop  offset="0.3602" style="stop-color:#000000"/>
			<stop  offset="1" style="stop-color:#000000"/>
		</linearGradient>
		<polygon class="st9" points="1244.7,362 1202.5,319.2 1123.4,219.8 1326.5,58.3 1446.9,209.7 1288.1,336 		"/>
	</g>
	<g>
		<g class="st10">
			
				<image style="overflow:visible;opacity:0.28;enable-background:new    ;" width="875" height="192" xlink:href="9C0786AE0D5FACF3.png"  transform="matrix(0.238 0 0 0.238 1247.5977 186.0703)">
			</image>
		</g>
		<path class="st11" d="M1268.6,180.6l-13-2.5c2.1-4.7,10-7.1,18.8-5.4l64.9,12.6c4.8,0.9,8.9,2.9,11.6,5.3c-0.2,0-0.4-0.1-0.6-0.1
			l-64.9-12.6C1278.4,176.4,1272,177.7,1268.6,180.6z"/>
		<path class="st11" d="M1250.7,191.1c-2.1-0.4-3.5-2.1-3.2-3.7l1.6-8.2c0.3-1.6,2.2-2.6,4.4-2.2l74.2,13.2l-3.2,16.4L1250.7,191.1z
			 M1335.3,208.7c23.6,4.6,88.6,14.5,108.2,14.6l0.8-4c-18.5-7.3-83.5-22.7-105.8-27L1335.3,208.7z"/>
		<path class="st12" d="M1444.1,219.3c4.9,1.3,8.9,2.8,8.7,3.8c-0.2,1-4.4,0.9-9.5,0.3L1444.1,219.3z"/>
		
			<rect x="1322.9" y="193.9" transform="matrix(0.1914 -0.9815 0.9815 0.1914 880.9097 1468.1547)" class="st13" width="17.3" height="11"/>
		<g>
			<g>
				<defs>
					<path id="SVGID_21_" d="M1389.9,147.5l-20.6,53.4l0.3,0.2l-5.5,13.6l-0.3-0.2c-9.6,23.2-35.2,79.4-45.4,95.6
						c-2.2,4.6-4.4,8.1-5.3,7.7c-0.9-0.4,0-4.5,1.5-9.3c3.8-18.6,25.4-79,35-103.3l-0.3-0.2l4.1-10.2l0.3,0.1l29.4-69.4
						c0.8-2,2.7-3,4.2-2.4l7.7,3.1c1.5,0.6,2.1,2.7,1.3,4.7l-1.2,3.1L1389.9,147.5z"/>
				</defs>
				<clipPath id="SVGID_23_">
					<use xlink:href="#SVGID_21_"  style="overflow:visible;"/>
				</clipPath>
				
					<rect x="1333.1" y="94" transform="matrix(0.1914 -0.9815 0.9815 0.1914 877.6228 1491.0798)" class="st14" width="21.4" height="237.7"/>
			</g>
		</g>
	</g>
	<g>
		<path class="st15" d="M1439.5,207.1l-170-75.5c-3.3-1.5-6.4-3.4-9.2-5.6l-16.7-13.9c-0.3-0.2-0.1-0.7,0.3-0.6l18.7,4.7l186.2,83.8
			l1.1,4.7c0.4,1.9-3.1,5.4-5,4.8C1442.4,208.7,1440.3,207.5,1439.5,207.1z"/>
		<g>
			<path class="st16" d="M1242.6,106.9c0.3-0.6,31.6,7.2,31.6,7.2l10.6,4.7l-5.1,11.5l-10.6-4.7
				C1269.1,125.5,1242.4,107.4,1242.6,106.9z"/>
			<g>
				<g>
					<defs>
						<polygon id="SVGID_24_" points="1,1 2,1 1,2 						"/>
					</defs>
					<defs>
						<polygon id="SVGID_26_" points="-1,-1 -2,-1 -1,-2 						"/>
					</defs>
					<clipPath id="SVGID_27_">
						<use xlink:href="#SVGID_24_"  style="overflow:visible;"/>
					</clipPath>
					<clipPath id="SVGID_29_" class="st17">
						<use xlink:href="#SVGID_26_"  style="overflow:visible;"/>
					</clipPath>
					
						<linearGradient id="SVGID_31_" gradientUnits="userSpaceOnUse" x1="1421.0085" y1="-324.3274" x2="1435.1853" y2="-321.8277" gradientTransform="matrix(-0.406 0.9139 0.9139 0.406 2137.3599 -1055.4514)">
						<stop  offset="2.586150e-02" style="stop-color:#000000"/>
						<stop  offset="0.1248" style="stop-color:#232323"/>
						<stop  offset="0.1536" style="stop-color:#616161"/>
						<stop  offset="0.195" style="stop-color:#B5B5B5"/>
						<stop  offset="0.2242" style="stop-color:#EBEBEB"/>
						<stop  offset="0.2384" style="stop-color:#FFFFFF"/>
						<stop  offset="0.4004" style="stop-color:#9D9D9D"/>
						<stop  offset="0.5789" style="stop-color:#2D2D2D"/>
						<stop  offset="0.8451" style="stop-color:#000000"/>
					</linearGradient>
					<path class="st18" d="M1242.6,106.9c0.3-0.6,31.6,7.2,31.6,7.2l10.6,4.7l-5.1,11.5l-10.6-4.7
						C1269.1,125.5,1242.4,107.4,1242.6,106.9z"/>
				</g>
			</g>
			
				<linearGradient id="SVGID_32_" gradientUnits="userSpaceOnUse" x1="1421.9432" y1="-329.6285" x2="1434.2303" y2="-327.462" gradientTransform="matrix(-0.406 0.9139 0.9139 0.406 2137.3599 -1055.4514)">
				<stop  offset="2.586150e-02" style="stop-color:#FFFFFF"/>
				<stop  offset="0.1248" style="stop-color:#FFFFFF"/>
				<stop  offset="0.2384" style="stop-color:#FFFFFF"/>
				<stop  offset="0.5789" style="stop-color:#FFFFFF"/>
				<stop  offset="0.8451" style="stop-color:#FFFFFF"/>
			</linearGradient>
			<path class="st19" d="M1242.6,106.9c0.3-0.6,31.6,7.2,31.6,7.2l0.6,0.3l-5.1,11.5l-0.6-0.3
				C1269.1,125.5,1242.4,107.4,1242.6,106.9z"/>
			<g>
				<g>
					<defs>
						<polygon id="SVGID_33_" points="1,1 2,1 1,2 						"/>
					</defs>
					<defs>
						<polygon id="SVGID_34_" points="-1,-1 -2,-1 -1,-2 						"/>
					</defs>
					<clipPath id="SVGID_35_">
						<use xlink:href="#SVGID_33_"  style="overflow:visible;"/>
					</clipPath>
					<clipPath id="SVGID_36_" class="st20">
						<use xlink:href="#SVGID_34_"  style="overflow:visible;"/>
					</clipPath>
					
						<linearGradient id="SVGID_37_" gradientUnits="userSpaceOnUse" x1="1413.3027" y1="-318.5028" x2="1432.7455" y2="-325.5794" gradientTransform="matrix(-0.406 0.9139 0.9139 0.406 2137.3599 -1055.4514)">
						<stop  offset="0.7988" style="stop-color:#555555"/>
						<stop  offset="0.8452" style="stop-color:#B3B3B3"/>
						<stop  offset="0.9257" style="stop-color:#000000"/>
					</linearGradient>
					<path class="st21" d="M1242.7,106.8c0.3-0.6,31.6,7.3,31.6,7.3l10.6,4.7l-5,11.3l-10.6-4.7
						C1269.2,125.3,1242.4,107.3,1242.7,106.8z"/>
				</g>
			</g>
			
				<linearGradient id="SVGID_38_" gradientUnits="userSpaceOnUse" x1="1413.3027" y1="-318.5028" x2="1432.7455" y2="-325.5794" gradientTransform="matrix(-0.406 0.9139 0.9139 0.406 2137.3599 -1055.4514)">
				<stop  offset="0.7988" style="stop-color:#FFFFFF"/>
				<stop  offset="0.8452" style="stop-color:#FFFFFF"/>
				<stop  offset="0.9257" style="stop-color:#FFFFFF"/>
			</linearGradient>
			<path class="st22" d="M1242.7,106.8c0.3-0.6,31.6,7.3,31.6,7.3l10.6,4.7l-5,11.3l-10.6-4.7
				C1269.2,125.3,1242.4,107.3,1242.7,106.8z"/>
			
				<linearGradient id="SVGID_39_" gradientUnits="userSpaceOnUse" x1="1419.1851" y1="-236.5773" x2="1431.7494" y2="-236.5773" gradientTransform="matrix(-0.406 0.9139 0.9139 0.406 2137.3599 -1055.4514)">
				<stop  offset="0.2427" style="stop-color:#FFD468"/>
				<stop  offset="0.2609" style="stop-color:#F89C38"/>
				<stop  offset="0.2782" style="stop-color:#F9A941"/>
				<stop  offset="0.7365" style="stop-color:#FBB34A"/>
				<stop  offset="0.7365" style="stop-color:#FBB34A"/>
				<stop  offset="0.7405" style="stop-color:#F49939"/>
				<stop  offset="0.7447" style="stop-color:#EE872D"/>
				<stop  offset="0.7491" style="stop-color:#EB7D26"/>
				<stop  offset="0.7541" style="stop-color:#EA7924"/>
				<stop  offset="0.7797" style="stop-color:#EE8222"/>
			</linearGradient>
			<path class="st23" d="M1269.2,125.6c0,0-0.3-0.2-0.4-1.3c0-1.1,0.4-2,0.4-2s-1.4-1.6-0.5-3.5s3-2.3,3-2.3s0.4-1.2,0.9-1.9
				c0.1-0.1,0.2-0.2,0.3-0.3c0.6-0.4,1.3-0.1,1.3-0.1l144.3,64.1l-5.1,11.5L1269.2,125.6z"/>
			
				<linearGradient id="SVGID_40_" gradientUnits="userSpaceOnUse" x1="1423.7852" y1="-342.1148" x2="1427.1421" y2="-342.1148" gradientTransform="matrix(-0.406 0.9139 0.9139 0.406 2137.3599 -1055.4514)">
				<stop  offset="0" style="stop-color:#999999"/>
				<stop  offset="1" style="stop-color:#363636"/>
			</linearGradient>
			<path class="st24" d="M1248.7,109.6c0.2-0.5,0.8-0.9,1.1-1.3c-4.1-0.9-7.1-1.5-7.1-1.3c-0.1,0.2,2.4,2,5.8,4.4
				C1248.5,110.7,1248.4,110.1,1248.7,109.6z"/>
			<g>
				<g>
					<defs>
						<polygon id="SVGID_41_" points="1,1 2,1 1,2 						"/>
					</defs>
					<defs>
						<polygon id="SVGID_42_" points="-1,-1 -2,-1 -1,-2 						"/>
					</defs>
					<clipPath id="SVGID_43_">
						<use xlink:href="#SVGID_41_"  style="overflow:visible;"/>
					</clipPath>
					<clipPath id="SVGID_44_" class="st25">
						<use xlink:href="#SVGID_42_"  style="overflow:visible;"/>
					</clipPath>
					
						<linearGradient id="SVGID_45_" gradientUnits="userSpaceOnUse" x1="946.0359" y1="19.9369" x2="961.2903" y2="19.9369" gradientTransform="matrix(0.3861 0.9224 0.9224 -0.3861 874.2557 -759.7715)">
						<stop  offset="0" style="stop-color:#B3B3B3"/>
						<stop  offset="1" style="stop-color:#B3B3B3"/>
					</linearGradient>
					<path class="st26" d="M1249.6,108.6l22.7,5.4c0,0-0.2,0.3-0.2,0.8s-2.3,1.9-2.3,1.9l-20.8-7.3L1249.6,108.6z"/>
				</g>
			</g>
			
				<linearGradient id="SVGID_46_" gradientUnits="userSpaceOnUse" x1="946.0359" y1="19.9369" x2="961.2903" y2="19.9369" gradientTransform="matrix(0.3861 0.9224 0.9224 -0.3861 874.2557 -759.7715)">
				<stop  offset="0" style="stop-color:#FFFFFF"/>
				<stop  offset="1" style="stop-color:#FFFFFF"/>
			</linearGradient>
			<path class="st27" d="M1249.6,108.6l22.7,5.4c0,0-0.2,0.3-0.2,0.8s-2.3,1.9-2.3,1.9l-20.8-7.3L1249.6,108.6z"/>
			<g>
				<g>
					<defs>
						<polygon id="SVGID_47_" points="1,1 2,1 1,2 						"/>
					</defs>
					<defs>
						<polygon id="SVGID_48_" points="-1,-1 -2,-1 -1,-2 						"/>
					</defs>
					<clipPath id="SVGID_49_">
						<use xlink:href="#SVGID_47_"  style="overflow:visible;"/>
					</clipPath>
					<clipPath id="SVGID_50_" class="st28">
						<use xlink:href="#SVGID_48_"  style="overflow:visible;"/>
					</clipPath>
					
						<linearGradient id="SVGID_51_" gradientUnits="userSpaceOnUse" x1="1015.3931" y1="52.0831" x2="1012.9406" y2="54.5358" gradientTransform="matrix(0.3537 0.9354 0.9354 -0.3537 917.2903 -791.0981)">
						<stop  offset="0" style="stop-color:#000000"/>
						<stop  offset="3.705668e-02" style="stop-color:#202020"/>
						<stop  offset="9.896553e-02" style="stop-color:#4E4E4E"/>
						<stop  offset="0.1665" style="stop-color:#787878"/>
						<stop  offset="0.2382" style="stop-color:#9D9D9D"/>
						<stop  offset="0.3153" style="stop-color:#BBBBBB"/>
						<stop  offset="0.3992" style="stop-color:#D4D4D4"/>
						<stop  offset="0.4928" style="stop-color:#E7E7E7"/>
						<stop  offset="0.6015" style="stop-color:#F5F5F5"/>
						<stop  offset="0.739" style="stop-color:#FDFDFD"/>
						<stop  offset="1" style="stop-color:#FFFFFF"/>
					</linearGradient>
					<path class="st29" d="M1272.2,116.4c0,0,0.5-2.5,1.8-2.3c1.3,0.3,104.7,46.5,104.7,46.5l-0.2,3L1272.2,116.4z"/>
				</g>
			</g>
			<path class="st30" d="M1272.2,116.4c0,0,0.5-2.5,1.8-2.3c1.3,0.3,142.2,63.2,142.2,63.2l-0.2,3L1272.2,116.4z"/>
		</g>
		<path class="st31" d="M1447.3,202.8c0,0,1.4-2,2.3-4.1s1.4-4.2,1.4-4.2c0.3-0.7-0.4-1.7-1.5-2.2l-28-12.5
			c-1.1-0.5-2.3-0.4-2.6,0.3l-3.7,8.3c-0.3,0.7,0.4,1.7,1.5,2.2l28,12.5C1445.8,203.6,1447,203.5,1447.3,202.8z"/>
		<path class="st32" d="M1446.4,203.2c0,0,0.8-0.8,1.2-1.7c0.4-0.9,0.4-1.9,0.4-1.9c0.1-0.3-0.7-0.9-1.8-1.4l-27.5-12.2
			c-1.1-0.5-2.1-0.7-2.3-0.4l-1.6,3.6c-0.1,0.3,0.7,0.9,1.8,1.4l27.5,12.2C1445.2,203.4,1446.2,203.5,1446.4,203.2z"/>
		
			<rect x="1420.4" y="175.7" transform="matrix(0.406 -0.9139 0.9139 0.406 675.0444 1416.3539)" class="st33" width="13.2" height="26.4"/>
		
			<rect x="1427.4" y="171.7" transform="matrix(0.406 -0.9139 0.9139 0.406 679.8424 1415.6503)" class="st34" width="3.1" height="26.4"/>
		
			<rect x="1423.1" y="179.7" transform="matrix(0.406 -0.9139 0.9139 0.406 670.3189 1417.1136)" class="st35" width="4.4" height="26.4"/>
		
			<rect x="1424.1" y="181.5" transform="matrix(0.4059 -0.9139 0.9139 0.4059 668.2924 1417.4191)" class="st36" width="0.5" height="26.4"/>
	</g>
</g>
<g id="Layer_8">
	<g>
		<path class="st1" d="M625.8,164.4l-5.9,3.4l-17.5,10.1c-5,2.9-9.9,6-14.6,9.2c-4.2,2.9-8.3,5.9-12.2,9L549.3,217
			c-0.2,0.1-0.3,0.2-0.5,0.4c-0.2,0.1-0.3,0.2-0.5,0.3l-28.9,17.1c-4.4,2.6-8.7,5.3-12.8,8.2c-4.7,3.3-9.4,6.7-13.9,10.3L477,266
			l-5.3,4.3c-0.7,0.6-0.9,1.6-0.5,2.3l5.4,7.8c0.5,0.7,1.4,0.9,2.2,0.4l6.3-3.3c0.5-0.3,1.1-0.2,1.4,0.2l11.3,12.1
			c-0.7,2.8-0.5,5.7,0.6,8.2l2.9,6.7c0.5,1.1,1.4,1.9,2.6,2.1c1.2,0.3,2.6,0,3.7-0.8c0.8-0.5,1.4-1.3,1.7-2.1l2.3-5.6
			c4.1,0.4,8.3-0.6,11.9-2.8l7-4.1c1.9-1.1,3.8-2.3,5.6-3.6c2.5-1.7,4.9-3.5,7.2-5.4l8.4-7c4.8-4,7.2-10,6.1-15.6l-4-21.7l0.4-0.2
			c1.2-0.6,2.4-1.3,3.5-2.1c0.8-0.6,1.6-1.2,2.4-1.8c0.9-0.5,1.7-1,2.6-1.6c1.1-0.8,2.2-1.6,3.2-2.6l0.4-0.3l18.8,11.5
			c4.9,3,11.3,2.9,16.7-0.1l9.5-5.3c2.6-1.5,5.2-3.1,7.6-4.7c1.8-1.3,3.6-2.6,5.4-4l6.3-5c3.3-2.6,5.8-6.2,6.9-10.1l6-0.1
			c0.9,0,1.8-0.3,2.6-0.8l0,0c1.1-0.7,1.8-1.9,2-3.2c0.2-1.2-0.2-2.4-1-3.2l-5.2-5.1c-1.9-1.9-4.5-3.1-7.3-3.5l-7.3-15
			c-0.2-0.4-0.1-1,0.3-1.4l5.4-4.7c0.7-0.6,0.9-1.6,0.4-2.2l-5.4-7.8C627.6,164.1,626.6,163.9,625.8,164.4z M589.6,208.6
			c0.6-0.4,1.1-0.9,1.7-1.3l31.5-24.6c0.8,0.9,1.5,1.8,2,2.9l5.1,10.4c-0.3,0-0.5,0.1-0.7,0.2C615.9,199.5,602.6,203.7,589.6,208.6z
			 M589.8,191.2c4.4-3,8.9-5.9,13.4-8.5l1.2-0.7l-37.1,30.5c-0.4,0.3-0.8,0.7-1.2,1c0.7-3.2,2.6-6.2,5.4-8.5l7-5.5
			C582.2,196.7,586,193.9,589.8,191.2z M633.4,211.9c-0.8,2.4-2.3,4.6-4.3,6.3c-4,3.6-8.4,7-12.8,10c-4.5,3.1-9.2,5.9-13.9,8.4
			l-1.8,0.9c-4.8,2.5-10.4,2.2-14.4-0.6c0,0-15.7-11.2-15.7-11.3l4.5-4.1l0.2-0.2c8.1-5.6,17.4-8.6,26.8-8.8L633.4,211.9z
			 M525.1,265.4c3.6-8.7,9.7-16.3,17.8-21.9l0.2-0.2l5.5-2.7l4.9,18.7c1.2,4.7-0.6,10.1-4.6,13.7l-1.5,1.3c-4,3.6-8.3,7-12.8,10
			c-4.5,3.1-9.2,5.9-13.9,8.4c-2.4,1.2-4.9,1.8-7.5,1.7L525.1,265.4z M500.1,284.9c-0.1,0.2-0.2,0.4-0.4,0.5l-7.9-8.5
			c-0.8-0.9-1.5-1.9-2-2.9l34.2-20.5c0.6-0.4,1.2-0.7,1.8-1.1C516.6,262.8,508,273.7,500.1,284.9z M521.4,238.8l7.7-4.6
			c3.1-1.8,6.6-2.5,9.8-2c-0.5,0.3-1,0.6-1.5,0.8l-41.7,23.7l1.1-0.9c4.1-3.3,8.4-6.5,12.8-9.5C513.5,243.7,517.5,241.1,521.4,238.8
			z"/>
		<g>
			<path class="st37" d="M468,267.6l6.1,8.9l45.3-27.2c4.4-2.6,8.9-5.1,13.5-7.4l16.8-8.2c2.1-1,4.1-2.4,5.9-3.9l10-8.8
				c9.1-7.9,20.6-12.5,32.2-12.8l41.5-0.9c3.1-0.1,4.9-3.7,2.8-5.7l-5.2-5.1c-3-3-7.5-4.1-12-2.9l0,0c-31.7,8-62.5,20.4-91.4,36.7
				L468,267.6z"/>
			<path class="st38" d="M622.1,161.7l6.1,8.9l-41.6,32.5c-4.1,3.2-8,6.5-11.7,10l-13.7,12.8c-1.7,1.6-3.7,3-5.8,4.1l-11.8,6.2
				c-10.7,5.6-19.1,14.7-23.5,25.5l-15.7,38.4c-1.2,2.8-5.2,3.2-6.3,0.6l-2.9-6.7c-1.7-3.8-1.1-8.5,1.6-12.2l0,0
				c18.8-26.8,41.4-51.1,67.1-72.1L622.1,161.7z"/>
		</g>
		<g>
			<path class="st39" d="M622.1,161.7l-5.9,3.4l-17.5,10.1c-9.3,5.4-18.3,11.5-26.7,18.2l-26.3,20.8c-0.2,0.1-0.4,0.3-0.5,0.4
				c-0.2,0.1-0.4,0.3-0.6,0.4l-28.9,17.1c-9.3,5.5-18.2,11.7-26.6,18.4l-15.7,12.7l-5.3,4.3c-0.3,0.3-0.4,0.7-0.2,1.1l5.4,7.8
				c0.2,0.3,0.7,0.4,1,0.2l6.3-3.3c0.9-0.5,1.9-0.3,2.5,0.3c4.6,4.9,10,10.8,14.5,15.6c5.2,5.6,14.1,6.5,21.4,2.1
				c2.4-1.4,4.8-2.9,7-4.1c4.5-2.6,8.7-5.6,12.7-8.9l8.4-7c4.5-3.7,6.7-9.4,5.8-14.7L548,230c-0.5-2.5,0.7-5.2,3-6.8l0,0
				c2.3-1.6,5.2-1.7,7.4-0.4l23.1,14.1c4.6,2.8,10.6,2.7,15.7-0.1l9.5-5.3c4.5-2.5,8.8-5.4,12.9-8.6l6.3-5c6.7-5.3,9-13.9,5.7-20.8
				c-2.9-5.9-6.4-13.1-9.3-19.2c-0.4-0.8-0.1-1.8,0.6-2.5c1.6-1.4,4.2-3.7,5.4-4.7c0.3-0.3,0.4-0.7,0.2-1l-5.4-7.8
				C622.9,161.5,622.4,161.5,622.1,161.7z M545.5,237l4.8,18.6c1.3,5.1-0.6,10.8-4.9,14.6l-1.5,1.3c-8.2,7.3-17.3,13.5-27,18.5
				c-6,3.1-13.1,2.2-17.2-2.3L486.9,274c-5.3-5.7-4.1-15,2.6-20.4l2.6-2.1c7.8-6.3,16.1-12,24.7-17.1l7.7-4.6
				C533,225,543.3,228.4,545.5,237z M621.5,181.7l8.2,16.8c2.7,5.5,1,12.4-4.1,16.9c-8.2,7.3-17.3,13.5-27,18.5l-1.8,0.9
				c-5.1,2.7-11.1,2.4-15.4-0.6L565.9,223c-7.2-5.2-6.8-16,0.9-22.1l7-5.5c7.9-6.2,16.2-11.9,24.8-16.9l2.9-1.7
				C609,172.5,618.1,174.7,621.5,181.7z"/>
			<g>
				<g>
					<g>
						<defs>
							<polygon id="SVGID_52_" points="1,1 2,1 1,2 							"/>
						</defs>
						<defs>
							<polygon id="SVGID_53_" points="-1,-1 -2,-1 -1,-2 							"/>
						</defs>
						<clipPath id="SVGID_54_">
							<use xlink:href="#SVGID_52_"  style="overflow:visible;"/>
						</clipPath>
						<clipPath id="SVGID_55_" class="st40">
							<use xlink:href="#SVGID_53_"  style="overflow:visible;"/>
						</clipPath>
						
							<linearGradient id="SVGID_56_" gradientUnits="userSpaceOnUse" x1="659.7952" y1="1080.5812" x2="659.7952" y2="1033.2756" gradientTransform="matrix(0.8242 -0.5663 -0.5663 -0.8242 574.7594 1505.2555)">
							<stop  offset="0" style="stop-color:#F7F7F7"/>
							<stop  offset="1" style="stop-color:#000000"/>
						</linearGradient>
						<path class="st41" d="M545.4,270.2l-1.5,1.3c-8.2,7.3-17.3,13.5-27,18.5l0,0c-6,3.1-13.1,2.2-17.2-2.3L486.9,274
							c-5.3-5.7-4.1-15,2.6-20.4l2.6-2.1c7.8-6.3,16.1-12,24.7-17.1l7.7-4.6c8.4-5,18.7-1.5,21,7.1l4.8,18.6
							C551.7,260.7,549.8,266.4,545.4,270.2z"/>
					</g>
				</g>
				
					<linearGradient id="SVGID_57_" gradientUnits="userSpaceOnUse" x1="659.7952" y1="1080.5812" x2="659.7952" y2="1033.2756" gradientTransform="matrix(0.8242 -0.5663 -0.5663 -0.8242 574.7594 1505.2555)">
					<stop  offset="0" style="stop-color:#FFFFFF"/>
					<stop  offset="1" style="stop-color:#FFFFFF"/>
				</linearGradient>
				<path class="st42" d="M545.4,270.2l-1.5,1.3c-8.2,7.3-17.3,13.5-27,18.5l0,0c-6,3.1-13.1,2.2-17.2-2.3L486.9,274
					c-5.3-5.7-4.1-15,2.6-20.4l2.6-2.1c7.8-6.3,16.1-12,24.7-17.1l7.7-4.6c8.4-5,18.7-1.5,21,7.1l4.8,18.6
					C551.7,260.7,549.8,266.4,545.4,270.2z"/>
				<g class="st43">
					<path class="st44" d="M505,242.1l0.5,0.7l0,0c3.8-2.6,7.8-5.2,11.8-7.5l7.7-4.6c3.8-2.2,8.1-2.8,12-1.5s6.6,4.2,7.6,8.1
						l4.8,18.6c1.2,4.7-0.6,10.1-4.6,13.7l-1.5,1.3c-4,3.6-8.4,7-12.8,10c-4.5,3.1-9.2,5.9-13.9,8.4c-5.6,2.9-12.3,2-16.1-2.1
						l-12.8-13.7c-2.4-2.6-3.5-6-3-9.6s2.4-7,5.5-9.5l2.6-2.1c4.1-3.3,8.4-6.5,12.8-9.5L505,242.1 M505,242.1
						c-4.4,3-8.7,6.2-12.8,9.5l-2.6,2.1c-6.7,5.4-7.9,14.7-2.6,20.4l12.8,13.7c4.2,4.5,11.2,5.4,17.2,2.3l0,0
						c4.9-2.5,9.6-5.3,14.1-8.4s8.8-6.5,12.9-10.1l1.5-1.3c4.3-3.8,6.2-9.5,4.9-14.6l-4.8-18.6c-2.2-8.6-12.5-12.1-21-7.1l-7.7,4.6
						C512.8,236.9,508.9,239.5,505,242.1L505,242.1z"/>
				</g>
				<path class="st45" d="M480,266.5l-6.1,3.6c-0.3,0.2-0.7,0.1-0.9-0.2l0,0c-0.2-0.3-0.1-0.7,0.2-0.9l5.5-4.4
					c0.6-0.5,1.4-0.4,1.8,0.2l0,0C480.8,265.3,480.6,266.1,480,266.5z"/>
			</g>
			<g>
				<g>
					<g class="st43">
						<path class="st44" d="M596.9,234.9l1.8-0.9c9.7-5,18.8-11.3,27-18.5l0,0c5.1-4.5,6.7-11.4,4.1-16.9l-8.2-16.8
							c-3.4-7-12.5-9.2-20-4.8l-2.9,1.7c-8.7,5-17,10.7-24.8,16.9l-7,5.5c-7.7,6.1-8.1,16.9-0.9,22.1l15.6,11.2
							C585.8,237.3,591.7,237.5,596.9,234.9z"/>
					</g>
				</g>
				<g>
					<g>
						<defs>
							<polygon id="SVGID_58_" points="1,1 2,1 1,2 							"/>
						</defs>
						<defs>
							<polygon id="SVGID_59_" points="-1,-1 -2,-1 -1,-2 							"/>
						</defs>
						<clipPath id="SVGID_60_">
							<use xlink:href="#SVGID_58_"  style="overflow:visible;"/>
						</clipPath>
						<clipPath id="SVGID_61_" class="st46">
							<use xlink:href="#SVGID_59_"  style="overflow:visible;"/>
						</clipPath>
						
							<linearGradient id="SVGID_62_" gradientUnits="userSpaceOnUse" x1="659.7952" y1="1080.5812" x2="659.7952" y2="1033.2756" gradientTransform="matrix(0.8242 -0.5663 -0.5663 -0.8242 574.7594 1505.2555)">
							<stop  offset="0" style="stop-color:#F7F7F7"/>
							<stop  offset="1" style="stop-color:#000000"/>
						</linearGradient>
						<path class="st47" d="M545.4,270.2l-1.5,1.3c-8.2,7.3-17.3,13.5-27,18.5l0,0c-6,3.1-13.1,2.2-17.2-2.3L486.9,274
							c-5.3-5.7-4.1-15,2.6-20.4l2.6-2.1c7.8-6.3,16.1-12,24.7-17.1l7.7-4.6c8.4-5,18.7-1.5,21,7.1l4.8,18.6
							C551.7,260.7,549.8,266.4,545.4,270.2z"/>
					</g>
				</g>
				
					<linearGradient id="SVGID_63_" gradientUnits="userSpaceOnUse" x1="659.7952" y1="1080.5812" x2="659.7952" y2="1033.2756" gradientTransform="matrix(0.8242 -0.5663 -0.5663 -0.8242 574.7594 1505.2555)">
					<stop  offset="0" style="stop-color:#FFFFFF"/>
					<stop  offset="1" style="stop-color:#FFFFFF"/>
				</linearGradient>
				<path class="st48" d="M545.4,270.2l-1.5,1.3c-8.2,7.3-17.3,13.5-27,18.5l0,0c-6,3.1-13.1,2.2-17.2-2.3L486.9,274
					c-5.3-5.7-4.1-15,2.6-20.4l2.6-2.1c7.8-6.3,16.1-12,24.7-17.1l7.7-4.6c8.4-5,18.7-1.5,21,7.1l4.8,18.6
					C551.7,260.7,549.8,266.4,545.4,270.2z"/>
				<g class="st49">
					<g>
						<g>
							<defs>
								<polygon id="SVGID_64_" points="1,1 2,1 1,2 								"/>
							</defs>
							<defs>
								<polygon id="SVGID_65_" points="-1,-1 -2,-1 -1,-2 								"/>
							</defs>
							<clipPath id="SVGID_66_">
								<use xlink:href="#SVGID_64_"  style="overflow:visible;"/>
							</clipPath>
							<clipPath id="SVGID_67_" class="st50">
								<use xlink:href="#SVGID_65_"  style="overflow:visible;"/>
							</clipPath>
							
								<linearGradient id="SVGID_68_" gradientUnits="userSpaceOnUse" x1="753.1439" y1="1080.5806" x2="753.1439" y2="1033.275" gradientTransform="matrix(0.8242 -0.5663 -0.5663 -0.8242 574.7594 1505.2555)">
								<stop  offset="0" style="stop-color:#F7F7F7"/>
								<stop  offset="1" style="stop-color:#000000"/>
							</linearGradient>
							<path class="st51" d="M596.9,234.9l1.8-0.9c9.7-5,18.8-11.3,27-18.5l0,0c5.1-4.5,6.7-11.4,4.1-16.9l-8.2-16.8
								c-3.4-7-12.5-9.2-20-4.8l-2.9,1.7c-8.7,5-17,10.7-24.8,16.9l-7,5.5c-7.7,6.1-8.1,16.9-0.9,22.1l15.6,11.2
								C585.8,237.3,591.7,237.5,596.9,234.9z"/>
						</g>
					</g>
					
						<linearGradient id="SVGID_69_" gradientUnits="userSpaceOnUse" x1="753.1439" y1="1080.5806" x2="753.1439" y2="1033.275" gradientTransform="matrix(0.8242 -0.5663 -0.5663 -0.8242 574.7594 1505.2555)">
						<stop  offset="0" style="stop-color:#FFFFFF"/>
						<stop  offset="1" style="stop-color:#FFFFFF"/>
					</linearGradient>
					<path class="st52" d="M596.9,234.9l1.8-0.9c9.7-5,18.8-11.3,27-18.5l0,0c5.1-4.5,6.7-11.4,4.1-16.9l-8.2-16.8
						c-3.4-7-12.5-9.2-20-4.8l-2.9,1.7c-8.7,5-17,10.7-24.8,16.9l-7,5.5c-7.7,6.1-8.1,16.9-0.9,22.1l15.6,11.2
						C585.8,237.3,591.7,237.5,596.9,234.9z"/>
				</g>
				<g>
					<g class="st43">
						<path class="st44" d="M585.6,187.8c4.4-3,8.9-5.9,13.4-8.5l2.9-1.7c3.4-2,7.2-2.6,10.8-1.7c3.6,0.9,6.4,3.1,7.9,6.2l8.2,16.8
							c2.5,5.1,0.9,11.6-3.8,15.8c-4,3.6-8.4,7-12.8,10c-4.5,3.1-9.2,5.9-13.9,8.4l-1.8,0.9c-4.8,2.5-10.4,2.2-14.4-0.6l-15.6-11.2
							c-3.2-2.3-5-6-4.8-10c0.2-4.1,2.2-8,5.7-10.7l7-5.5C578,193.2,581.8,190.4,585.6,187.8 M585.1,187c-3.9,2.7-7.6,5.4-11.3,8.4
							l-7,5.5c-7.7,6.1-8.1,16.9-0.9,22.1l15.6,11.2c4.3,3.1,10.3,3.3,15.4,0.6l1.8-0.9c4.9-2.5,9.6-5.3,14.1-8.4
							c4.5-3.1,8.8-6.5,12.9-10.1l0,0c5.1-4.5,6.7-11.4,4.1-16.9l-8.2-16.8c-3.4-7-12.5-9.2-20-4.8l-2.9,1.7
							C594.1,181.2,589.5,184,585.1,187L585.1,187z"/>
					</g>
				</g>
				<path class="st45" d="M616.9,172.4l5.5-4.4c0.3-0.2,0.4-0.6,0.2-0.9l0,0c-0.2-0.3-0.6-0.3-0.9-0.2l-6.1,3.6
					c-0.6,0.4-0.9,1.2-0.5,1.7l0,0C615.5,172.8,616.3,172.9,616.9,172.4z"/>
			</g>
		</g>
	</g>
</g>
<g id="Layer_2">
	<g>
		<path class="st1" d="M897.8,395.8c-9.5-15.9-18.7,178.7-25.4,171.9L709.8,403.9c-3.9,2.7-6.4,7.2-6.4,12.2v298.2
			c0,8.2,6.7,14.9,14.9,14.9h465.4c8.2,0,14.9-6.7,14.9-14.9V416.4c0-11.4-9.2-20.6-20.6-20.6L897.8,395.8z"/>
		<path class="st53" d="M1178.2,712.5h-480c-4.2,0-7.5-3.4-7.5-7.5V392.2c0-4.2,3.4-7.5,7.5-7.5h480c4.2,0,7.5,3.4,7.5,7.5V705
			C1185.8,709.2,1182.4,712.5,1178.2,712.5z"/>
		<g>
			<path class="st54" d="M1172,376.3H704.5c-8,0-15.1-6.6-15.8-14.8l-17.4-202.7c-0.8-9.5,5.5-17.2,14.2-17.2h505.6
				c8.7,0,15,7.7,14.2,17.2l-17.5,202.7C1187,369.7,1180,376.3,1172,376.3z"/>
			<path class="st55" d="M1171.3,384.3H705.1c-8,0-15-6.6-15.7-14.8L672,168c-0.8-9.4,5.5-17.1,14.2-17.1h504
				c8.6,0,15,7.7,14.2,17.1L1187,369.6C1186.4,377.7,1179.3,384.3,1171.3,384.3z"/>
			<g>
				<g>
					<path id="SVGID_28_" class="st56" d="M1141.7,364.8H734.8c-8,0-15.1-6.7-15.7-15l-12-159.6c-0.7-9.3,5.7-16.8,14.3-16.8h433.8
						c8.6,0,14.9,7.6,14.2,16.8l-12,159.6C1156.7,358.1,1149.7,364.8,1141.7,364.8z"/>
				</g>
				<g>
					<defs>
						<path id="SVGID_70_" d="M1141.7,364.8H734.8c-8,0-15.1-6.7-15.7-15l-12-159.6c-0.7-9.3,5.7-16.8,14.3-16.8h433.8
							c8.6,0,14.9,7.6,14.2,16.8l-12,159.6C1156.7,358.1,1149.7,364.8,1141.7,364.8z"/>
					</defs>
					<clipPath id="SVGID_71_">
						<use xlink:href="#SVGID_70_"  style="overflow:visible;"/>
					</clipPath>
					<g class="st57">
						<g>
							<path class="st58" d="M1089.5,341c-0.1,1.4-2,2.6-4.2,2.6H782.1c-2.2,0-4.1-1.2-4.2-2.6c-0.1-1.4,1.6-2.6,3.8-2.6h303.9
								C1087.8,338.4,1089.6,339.5,1089.5,341z"/>
							<path class="st44" d="M781.7,338.4c-2.2,0-3.9,1.2-3.8,2.6c0.1,1.4,2,2.6,4.2,2.6h218.3l0.2-5.2H781.7z"/>
							<polygon class="st44" points="992.8,347.7 985.5,347.7 985.8,334.2 993.1,334.2 							"/>
						</g>
						<path class="st44" d="M753.8,345.7l-0.8-9.4c0-0.4,0.6-0.6,1.2-0.4l11.3,4.7c0.5,0.2,0.5,0.6,0.1,0.8l-10.5,4.7
							C754.6,346.3,753.9,346.1,753.8,345.7z"/>
						<g>
							<polygon class="st44" points="1105.4,344.5 1100.7,344.5 1101,340.2 1105.7,340.2 							"/>
							<polygon class="st44" points="1111.7,344.5 1107.1,344.5 1107.6,338.1 1112.3,338.1 							"/>
							<polygon class="st44" points="1118.1,344.5 1113.4,344.5 1114.2,335.3 1118.9,335.3 							"/>
						</g>
					</g>
				</g>
				<g>
					<defs>
						<path id="SVGID_72_" d="M1141.7,364.8H734.8c-8,0-15.1-6.7-15.7-15l-12-159.6c-0.7-9.3,5.7-16.8,14.3-16.8h433.8
							c8.6,0,14.9,7.6,14.2,16.8l-12,159.6C1156.7,358.1,1149.7,364.8,1141.7,364.8z"/>
					</defs>
					<clipPath id="SVGID_73_">
						<use xlink:href="#SVGID_72_"  style="overflow:visible;"/>
					</clipPath>
					<g class="st59">
						<polygon class="st44" points="875.3,398.8 857,382.6 1025.4,152.7 1043.7,169 						"/>
						<polygon class="st44" points="988.2,468.6 898.8,389.2 1137.5,63.4 1227,142.8 						"/>
					</g>
				</g>
			</g>
		</g>
		<path class="st60" d="M985.9,712.5h-95.3l0,0c0-5.8,4.7-10.5,10.5-10.5h74.4C981.2,702.1,985.9,706.8,985.9,712.5L985.9,712.5z"/>
		<rect x="769.6" y="384.6" class="st61" width="337.2" height="11.2"/>
		<rect x="769.6" y="395.7" class="st60" width="337.2" height="8.4"/>
		<path class="st62" d="M1002.6,683.1H873.9c-2.3,0-4.2-1.9-4.2-4.2v-83.6c0-2.3,1.9-4.2,4.2-4.2h128.7c2.3,0,4.2,1.9,4.2,4.2v83.6
			C1006.8,681.2,1004.9,683.1,1002.6,683.1z"/>
		<g>
			<g>
				<path class="st61" d="M744.8,458.8h-22c-1.5,0-2.7-1.2-2.7-2.7v-22c0-1.5,1.2-2.7,2.7-2.7h22c1.5,0,2.7,1.2,2.7,2.7v22
					C747.5,457.5,746.3,458.8,744.8,458.8z"/>
				<path class="st61" d="M780,458.8h-22c-1.5,0-2.7-1.2-2.7-2.7v-22c0-1.5,1.2-2.7,2.7-2.7h22c1.5,0,2.7,1.2,2.7,2.7v22
					C782.7,457.5,781.5,458.8,780,458.8z"/>
				<path class="st61" d="M815.2,458.8h-22c-1.5,0-2.7-1.2-2.7-2.7v-22c0-1.5,1.2-2.7,2.7-2.7h22c1.5,0,2.7,1.2,2.7,2.7v22
					C817.9,457.5,816.7,458.8,815.2,458.8z"/>
				<path class="st61" d="M850.4,458.8h-22c-1.5,0-2.7-1.2-2.7-2.7v-22c0-1.5,1.2-2.7,2.7-2.7h22c1.5,0,2.7,1.2,2.7,2.7v22
					C853.1,457.5,851.9,458.8,850.4,458.8z"/>
				<path class="st61" d="M885.6,458.8h-22c-1.5,0-2.7-1.2-2.7-2.7v-22c0-1.5,1.2-2.7,2.7-2.7h22c1.5,0,2.7,1.2,2.7,2.7v22
					C888.4,457.5,887.1,458.8,885.6,458.8z"/>
				<path class="st61" d="M920.8,458.8h-22c-1.5,0-2.7-1.2-2.7-2.7v-22c0-1.5,1.2-2.7,2.7-2.7h22c1.5,0,2.7,1.2,2.7,2.7v22
					C923.6,457.5,922.3,458.8,920.8,458.8z"/>
				<path class="st61" d="M956,458.8h-22c-1.5,0-2.7-1.2-2.7-2.7v-22c0-1.5,1.2-2.7,2.7-2.7h22c1.5,0,2.7,1.2,2.7,2.7v22
					C958.8,457.5,957.5,458.8,956,458.8z"/>
				<path class="st61" d="M991.2,458.8h-22c-1.5,0-2.7-1.2-2.7-2.7v-22c0-1.5,1.2-2.7,2.7-2.7h22c1.5,0,2.7,1.2,2.7,2.7v22
					C994,457.5,992.7,458.8,991.2,458.8z"/>
				<path class="st61" d="M1026.4,458.8h-22c-1.5,0-2.7-1.2-2.7-2.7v-22c0-1.5,1.2-2.7,2.7-2.7h22c1.5,0,2.7,1.2,2.7,2.7v22
					C1029.2,457.5,1027.9,458.8,1026.4,458.8z"/>
				<path class="st61" d="M1061.6,458.8h-22c-1.5,0-2.7-1.2-2.7-2.7v-22c0-1.5,1.2-2.7,2.7-2.7h22c1.5,0,2.7,1.2,2.7,2.7v22
					C1064.4,457.5,1063.1,458.8,1061.6,458.8z"/>
				<path class="st61" d="M1096.8,458.8h-22c-1.5,0-2.7-1.2-2.7-2.7v-22c0-1.5,1.2-2.7,2.7-2.7h22c1.5,0,2.7,1.2,2.7,2.7v22
					C1099.6,457.5,1098.3,458.8,1096.8,458.8z"/>
				<path class="st61" d="M1153.6,458.8h-43.5c-1.5,0-2.7-1.2-2.7-2.7v-22c0-1.5,1.2-2.7,2.7-2.7h43.5c1.5,0,2.7,1.2,2.7,2.7v22
					C1156.3,457.5,1155.1,458.8,1153.6,458.8z"/>
			</g>
			<g>
				<path class="st61" d="M766.4,493.4h-43.5c-1.5,0-2.7-1.2-2.7-2.7v-22c0-1.5,1.2-2.7,2.7-2.7h43.5c1.5,0,2.7,1.2,2.7,2.7v22
					C769.1,492.2,767.9,493.4,766.4,493.4z"/>
				<path class="st61" d="M801.6,493.4h-22c-1.5,0-2.7-1.2-2.7-2.7v-22c0-1.5,1.2-2.7,2.7-2.7h22c1.5,0,2.7,1.2,2.7,2.7v22
					C804.3,492.2,803.1,493.4,801.6,493.4z"/>
				<path class="st61" d="M836.8,493.4h-22c-1.5,0-2.7-1.2-2.7-2.7v-22c0-1.5,1.2-2.7,2.7-2.7h22c1.5,0,2.7,1.2,2.7,2.7v22
					C839.5,492.2,838.3,493.4,836.8,493.4z"/>
				<path class="st61" d="M872,493.4h-22c-1.5,0-2.7-1.2-2.7-2.7v-22c0-1.5,1.2-2.7,2.7-2.7h22c1.5,0,2.7,1.2,2.7,2.7v22
					C874.7,492.2,873.5,493.4,872,493.4z"/>
				<path class="st61" d="M907.2,493.4h-22c-1.5,0-2.7-1.2-2.7-2.7v-22c0-1.5,1.2-2.7,2.7-2.7h22c1.5,0,2.7,1.2,2.7,2.7v22
					C909.9,492.2,908.7,493.4,907.2,493.4z"/>
				<path class="st61" d="M942.4,493.4h-22c-1.5,0-2.7-1.2-2.7-2.7v-22c0-1.5,1.2-2.7,2.7-2.7h22c1.5,0,2.7,1.2,2.7,2.7v22
					C945.1,492.2,943.9,493.4,942.4,493.4z"/>
				<path class="st61" d="M977.6,493.4h-22c-1.5,0-2.7-1.2-2.7-2.7v-22c0-1.5,1.2-2.7,2.7-2.7h22c1.5,0,2.7,1.2,2.7,2.7v22
					C980.3,492.2,979.1,493.4,977.6,493.4z"/>
				<path class="st61" d="M1012.8,493.4h-22c-1.5,0-2.7-1.2-2.7-2.7v-22c0-1.5,1.2-2.7,2.7-2.7h22c1.5,0,2.7,1.2,2.7,2.7v22
					C1015.5,492.2,1014.3,493.4,1012.8,493.4z"/>
				<path class="st61" d="M1048,493.4h-22c-1.5,0-2.7-1.2-2.7-2.7v-22c0-1.5,1.2-2.7,2.7-2.7h22c1.5,0,2.7,1.2,2.7,2.7v22
					C1050.7,492.2,1049.5,493.4,1048,493.4z"/>
				<path class="st61" d="M1083.2,493.4h-22c-1.5,0-2.7-1.2-2.7-2.7v-22c0-1.5,1.2-2.7,2.7-2.7h22c1.5,0,2.7,1.2,2.7,2.7v22
					C1085.9,492.2,1084.7,493.4,1083.2,493.4z"/>
				<path class="st61" d="M1118.4,493.4h-22c-1.5,0-2.7-1.2-2.7-2.7v-22c0-1.5,1.2-2.7,2.7-2.7h22c1.5,0,2.7,1.2,2.7,2.7v22
					C1121.1,492.2,1119.9,493.4,1118.4,493.4z"/>
				<path class="st61" d="M1153.6,493.4h-22c-1.5,0-2.7-1.2-2.7-2.7v-22c0-1.5,1.2-2.7,2.7-2.7h22c1.5,0,2.7,1.2,2.7,2.7v22
					C1156.3,492.2,1155.1,493.4,1153.6,493.4z"/>
			</g>
			<g>
				<path class="st61" d="M783,528h-60.2c-1.5,0-2.7-1.2-2.7-2.7v-22c0-1.5,1.2-2.7,2.7-2.7H783c1.5,0,2.7,1.2,2.7,2.7v22
					C785.7,526.8,784.5,528,783,528z"/>
				<path class="st61" d="M818.2,528h-22c-1.5,0-2.7-1.2-2.7-2.7v-22c0-1.5,1.2-2.7,2.7-2.7h22c1.5,0,2.7,1.2,2.7,2.7v22
					C821,526.8,819.7,528,818.2,528z"/>
				<path class="st61" d="M853.4,528h-22c-1.5,0-2.7-1.2-2.7-2.7v-22c0-1.5,1.2-2.7,2.7-2.7h22c1.5,0,2.7,1.2,2.7,2.7v22
					C856.2,526.8,854.9,528,853.4,528z"/>
				<path class="st61" d="M888.6,528h-22c-1.5,0-2.7-1.2-2.7-2.7v-22c0-1.5,1.2-2.7,2.7-2.7h22c1.5,0,2.7,1.2,2.7,2.7v22
					C891.4,526.8,890.1,528,888.6,528z"/>
				<path class="st61" d="M923.8,528h-22c-1.5,0-2.7-1.2-2.7-2.7v-22c0-1.5,1.2-2.7,2.7-2.7h22c1.5,0,2.7,1.2,2.7,2.7v22
					C926.6,526.8,925.3,528,923.8,528z"/>
				<path class="st61" d="M959,528h-22c-1.5,0-2.7-1.2-2.7-2.7v-22c0-1.5,1.2-2.7,2.7-2.7h22c1.5,0,2.7,1.2,2.7,2.7v22
					C961.8,526.8,960.5,528,959,528z"/>
				<path class="st61" d="M994.2,528h-22c-1.5,0-2.7-1.2-2.7-2.7v-22c0-1.5,1.2-2.7,2.7-2.7h22c1.5,0,2.7,1.2,2.7,2.7v22
					C997,526.8,995.7,528,994.2,528z"/>
				<path class="st61" d="M1029.4,528h-22c-1.5,0-2.7-1.2-2.7-2.7v-22c0-1.5,1.2-2.7,2.7-2.7h22c1.5,0,2.7,1.2,2.7,2.7v22
					C1032.2,526.8,1030.9,528,1029.4,528z"/>
				<path class="st61" d="M1064.6,528h-22c-1.5,0-2.7-1.2-2.7-2.7v-22c0-1.5,1.2-2.7,2.7-2.7h22c1.5,0,2.7,1.2,2.7,2.7v22
					C1067.4,526.8,1066.1,528,1064.6,528z"/>
				<path class="st61" d="M1099.8,528h-22c-1.5,0-2.7-1.2-2.7-2.7v-22c0-1.5,1.2-2.7,2.7-2.7h22c1.5,0,2.7,1.2,2.7,2.7v22
					C1102.6,526.8,1101.4,528,1099.8,528z"/>
				<path class="st61" d="M1153.5,528h-40.4c-1.5,0-2.7-1.2-2.7-2.7v-22c0-1.5,1.2-2.7,2.7-2.7h40.4c1.5,0,2.7,1.2,2.7,2.7v22
					C1156.3,526.8,1155,528,1153.5,528z"/>
			</g>
			<g>
				<path class="st61" d="M744.8,562.6h-22c-1.5,0-2.7-1.2-2.7-2.7v-22c0-1.5,1.2-2.7,2.7-2.7h22c1.5,0,2.7,1.2,2.7,2.7v22
					C747.5,561.4,746.3,562.6,744.8,562.6z"/>
				<path class="st61" d="M780,562.6h-22c-1.5,0-2.7-1.2-2.7-2.7v-22c0-1.5,1.2-2.7,2.7-2.7h22c1.5,0,2.7,1.2,2.7,2.7v22
					C782.7,561.4,781.5,562.6,780,562.6z"/>
				<path class="st61" d="M815.2,562.6h-22c-1.5,0-2.7-1.2-2.7-2.7v-22c0-1.5,1.2-2.7,2.7-2.7h22c1.5,0,2.7,1.2,2.7,2.7v22
					C817.9,561.4,816.7,562.6,815.2,562.6z"/>
				<path class="st61" d="M978.4,562.6H827.6c-1,0-1.9-0.8-1.9-1.9V537c0-1,0.8-1.9,1.9-1.9h150.8c1,0,1.9,0.8,1.9,1.9v23.7
					C980.2,561.8,979.4,562.6,978.4,562.6z"/>
				<path class="st61" d="M1012.7,562.6h-22c-1.5,0-2.7-1.2-2.7-2.7v-22c0-1.5,1.2-2.7,2.7-2.7h22c1.5,0,2.7,1.2,2.7,2.7v22
					C1015.4,561.4,1014.2,562.6,1012.7,562.6z"/>
				<path class="st61" d="M1047.9,562.6h-22c-1.5,0-2.7-1.2-2.7-2.7v-22c0-1.5,1.2-2.7,2.7-2.7h22c1.5,0,2.7,1.2,2.7,2.7v22
					C1050.6,561.4,1049.4,562.6,1047.9,562.6z"/>
				<path class="st61" d="M1085,562.6h-25.8c-0.5,0-0.8-0.4-0.8-0.8v-12.1c0-0.5,0.4-0.8,0.8-0.8h25.8c0.5,0,0.8,0.4,0.8,0.8v12.1
					C1085.8,562.3,1085.5,562.6,1085,562.6z"/>
				<path class="st61" d="M1118.3,562.6h-22c-1.5,0-2.7-1.2-2.7-2.7v-22c0-1.5,1.2-2.7,2.7-2.7h22c1.5,0,2.7,1.2,2.7,2.7v22
					C1121.1,561.4,1119.8,562.6,1118.3,562.6z"/>
				<path class="st61" d="M1155.4,562.6h-25.8c-0.5,0-0.8-0.4-0.8-0.8v-12.1c0-0.5,0.4-0.8,0.8-0.8h25.8c0.5,0,0.8,0.4,0.8,0.8v12.1
					C1156.3,562.3,1155.9,562.6,1155.4,562.6z"/>
			</g>
		</g>
		<path class="st1" d="M1173.6,479.7H706c-9.5,0-14.9-1.9-14.9-5.2l-0.4-85.5c0-1.6,7.9-4.4,12.6-4.4h467.6
			c9.5,0,14.9,7.8,14.9,11.2l0.4,71.8c0,5.2-5.6,11.4-11.5,12C1174.3,479.7,1174,479.7,1173.6,479.7z"/>
	</g>
</g>
<g id="Layer_4">
	<g>
		<g>
			<ellipse class="st63" cx="552.6" cy="488" rx="91.1" ry="92.7"/>
			<g>
				<g>
					<circle id="SVGID_30_" class="st64" cx="549.1" cy="483.1" r="87.7"/>
				</g>
				<g>
					<defs>
						<circle id="SVGID_74_" cx="549.1" cy="483.1" r="87.7"/>
					</defs>
					<clipPath id="SVGID_75_">
						<use xlink:href="#SVGID_74_"  style="overflow:visible;"/>
					</clipPath>
					<polygon class="st65" points="529.3,587.6 635.3,543.6 595,459.1 497.9,499.4 					"/>
				</g>
			</g>
			<g>
				<path class="st44" d="M522.4,556.1l12.2-23l-10.4-5.5l-12.2,23c-1.5,2.9-0.4,6.5,2.5,8l0,0C517.3,560.1,520.8,559,522.4,556.1z"
					/>
				<circle class="st44" cx="549.1" cy="483.1" r="57.3"/>
			</g>
			<circle class="st66" cx="549.1" cy="483.1" r="49.2"/>
			<path class="st67" d="M591.5,489.3c-6.3,19.5-16.3,32.6-43.3,32.6s-45.5-15.8-45.5-41.5s19.2-46.6,46.3-46.6
				C576,433.8,599.5,464.8,591.5,489.3z"/>
			<path class="st68" d="M582.5,457.5c4.6,14.7-13.6,15.8-34,22.1c-20.4,6.4-35.4,15.7-40,1c-4.6-14.7,8.2-31.8,28.7-38.1
				C557.7,436.1,577.9,442.8,582.5,457.5z"/>
		</g>
		<circle class="st66" cx="556.3" cy="521.9" r="3.8"/>
		<circle class="st66" cx="562.4" cy="520.4" r="3.4"/>
		<circle class="st66" cx="567.9" cy="520.4" r="3.4"/>
		<circle class="st66" cx="571.3" cy="518.2" r="2.2"/>
		<circle class="st67" cx="556.3" cy="521.9" r="1.8"/>
		<circle class="st67" cx="562.4" cy="520.4" r="2.2"/>
		<circle class="st67" cx="567.9" cy="520.4" r="2.2"/>
		<circle class="st67" cx="572.5" cy="518.2" r="1.2"/>
		<g class="st69">
			<path class="st70" d="M639.6,421.3h-48.2c-7.5,0-13.5-6-13.5-13.5v-26.2c0-7.5,6-13.5,13.5-13.5h48.2c7.5,0,13.5,6,13.5,13.5
				v26.2C653.1,415.3,647.1,421.3,639.6,421.3z"/>
			<path class="st71" d="M626.1,442.7h-54.2c-7.2,0-13-5.8-13-13v-31.2c0-7.2,5.8-13,13-13h54.2c7.2,0,13,5.8,13,13v31.2
				C639.1,436.9,633.3,442.7,626.1,442.7z"/>
			<path class="st72" d="M709.3,369.1c0,43-45.1,43.4-101.2,43.4s-101.9-19-101.9-61.9c0-43,63.4-42.3,119.5-42.3
				S709.3,326.1,709.3,369.1z"/>
		</g>
	</g>
</g>
<g id="Layer_3">
	<g>
		<path class="st73" d="M1346.1,627.3h-58.7c-16.7,0-30.2-13.5-30.2-30.2V470.2c0-16.7,13.5-30.2,30.2-30.2h58.7
			c16.7,0,30.2,13.5,30.2,30.2v126.9C1376.3,613.8,1362.8,627.3,1346.1,627.3z"/>
	</g>
	<path class="st1" d="M1422.8,872.9H1322V441.6l0,0c50.7,0,91.7,41.1,91.7,91.7l-5.4,121.4c-0.3,6.5,0.5,13.1,2.4,19.3l4.6,15.3
		c3.1,10.4,4.5,21.2,4.1,32L1422.8,872.9z"/>
	<g>
		<path class="st74" d="M1266.9,612.6l-3.1-13.3l-3.4-38.8l2.4-12.3c2.3-11.5-4.3-22.9-15.5-26.7l-1.1-0.4l-16.1,34.3
			c-1.3,2.8-1.9,5.9-1.6,9c1.3,14.8,5.4,60.2,7.2,72.7c0.9,6,9.2,9.8,14.3,13.2l37.5,25.4l-17.8-71.7L1266.9,612.6z"/>
	</g>
	<g>
		<g id="arm_1_">
			<g>
				<g>
					<path class="st75" d="M1303.5,458.6l-1.4,83.5c-0.4,7.8-7.3,13.9-15.6,13.6l0,0c-8.2-0.3-14.6-6.8-14.3-14.6l1.4-83.5
						c0.4-7.8,7.3-13.9,15.6-13.6l0,0C1297.5,444.2,1303.8,450.8,1303.5,458.6z"/>
					<path class="st76" d="M1289.2,443.9l-0.9,77.9c8.2,0.3,14.1,11.3,14.5,3.5l0.7-66.8C1303.8,450.8,1297.5,444.2,1289.2,443.9z"
						/>
				</g>
				<path class="st77" d="M1330,558.8L1330,558.8c-1.5,7.7-9.2,12.7-17.3,11.2l0,0c-8.1-1.5-13.5-8.8-12-16.5l0,0
					c1.5-7.7,9.2-12.7,17.3-11.2l0,0C1326.1,543.8,1331.4,551.2,1330,558.8z"/>
				<g>
					<path class="st75" d="M1346.5,475l-16.5,83.8c-1.5,7.7-9.2,12.7-17.3,11.2l0,0c-8.1-1.5-13.5-8.8-12-16.5l16.5-83.8
						c1.5-7.7,9.2-12.7,17.3-11.2l0,0C1342.6,460,1348,467.4,1346.5,475z"/>
					<path class="st76" d="M1334.5,458.6L1334.5,458.6c8.1,1.5,13.5,8.8,12,16.5l-12,60.5c-1.5,7.7-6.1-7.3-14.2-8.8L1334.5,458.6z"
						/>
				</g>
				<g>
					<path class="st75" d="M1370.9,511.9L1361,559c-1.2,7.7-8.8,13-16.9,11.8l0,0c-8.2-1.2-13.8-8.4-12.6-16.1l9.9-47.1
						c1.2-7.7,8.8-13,16.9-11.8l0,0C1366.4,497,1372.1,504.2,1370.9,511.9z"/>
					<path class="st76" d="M1358.3,495.8L1358.3,495.8c8.2,1.2,13.8,8.4,12.6,16.1l-7.4,27.4c-1.2,7.7-6.2-5.4-14.4-6.6
						L1358.3,495.8z"/>
				</g>
				<path class="st75" d="M1392.5,545.1l-2.2,23.4c-0.7,7.8-8,13.5-16.2,12.8l0,0c-8.2-0.7-14.3-7.5-13.5-15.3l2.2-23.4
					c0.7-7.3,7.5-12.7,15.3-12.1l1.7,0.1C1387.5,531.4,1393.2,537.8,1392.5,545.1z"/>
			</g>
			<path class="st74" d="M1388.9,632.4l-4.5,30.4l9.5,163.9l-97.1,40.8L1285,669.1l-15.1-65l2.4-59.6l0,0
				c1.2-7.4,8.5-12.2,15.8-10.4l102.9,26.8l-0.8,28.4C1391.5,603.6,1391,618.1,1388.9,632.4z"/>
		</g>
	</g>
	<path class="st76" d="M1378.5,530.9l-4.9,61.5l0.2,13.3c0.3,20,10,47.4-7.3,57.3v3.2c4.5,4.5,5.8,12.5,5.2,18.9l0.2,14.3l-81.9,25
		l-1.3,3.9l80.9-11.8L1358.2,849l36-22l-9.6-164.1l4.6-31.1c2-13.9,2.5-27.9,1.4-41.9l0.2-24.7l1.9-21.2c-0.2-7.5-5.8-13-14.1-13.4
		L1378.5,530.9z"/>
	<g>
		<polygon class="st78" points="1404.9,872.9 1394,715.7 1283.2,740.2 1288.6,872.9 		"/>
		<polygon class="st79" points="1404.9,872.9 1394,715.7 1335.5,728.6 1341.3,872.9 		"/>
		<path class="st80" d="M1402.7,766.1l-4-55.8c-0.3-3.5-3.5-5.9-6.9-5.1l-115.9,25.9c-2.7,0.6-4.6,3.2-4.4,6l3.2,43.7
			c0.2,3.2,3.1,5.6,6.3,5.2l116.8-13.9C1400.7,771.8,1402.9,769.1,1402.7,766.1z"/>
		<path class="st79" d="M1402.7,765.9l-4-55.5c-0.3-3.6-3.6-6.1-7.1-5.3l-61.7,13.8l2.4,60.9l65.3-7.8
			C1400.6,771.8,1402.9,769,1402.7,765.9z"/>
		<polygon class="st81" points="1294.1,784.5 1398.3,780.9 1398,772.1 		"/>
	</g>
</g>
<g id="Layer_5">
	<g>
		<polygon class="st82" points="1031.6,860.8 1105.8,872.3 1031.6,872.3 		"/>
		<path class="st1" d="M1054,868c-0.5-0.1-0.5-0.6,0-0.6l63.9,5l7.4,0.5h24.7l-50-32.5c-8.5-6.1-20.3-5.5-25.7-4.8l-71.5,8.5
			c-19,3.4-48,7.3-65.5-0.6l-8.9-4.5l1.6,10.2l-0.5,23.9h172.9L1054,868z"/>
		<path class="st83" d="M1036.3,867.2c-0.4-0.1-0.4-0.7,0-0.7l54.9,5.8l6.4,0.6h21.2l-42.9-37.6c-7.3-7.1-17.5-6.3-22.1-5.6
			l-61.4,9.8c-16.3,3.9-41.3,8.4-56.3-0.7l-7.6-5.2l1.3,11.8l-0.4,27.6H1078L1036.3,867.2z"/>
		<path class="st78" d="M936.8,826.9l-245.6,20.3c-14.2,1.2-27.9,5.7-40,13.2l-19.7,12.5h6.3H947L936.8,826.9z"/>
	</g>
	<path class="st80" d="M950,872.9l-11.8-48.4c-0.9-3.6-4.1-6-7.8-5.9l-54.6,2c-5.1,0.2-8.6,5.1-7.1,10l12.8,42.3L950,872.9
		L950,872.9z"/>
	<polygon class="st81" points="869.2,832.5 875.6,873.2 881.5,872.9 	"/>
</g>
</svg>
