<?xml version="1.0" encoding="utf-8"?>
<!-- Generator: Adobe Illustrator 19.2.1, SVG Export Plug-In . SVG Version: 6.00 Build 0)  -->
<svg version="1.1" id="Layer_1" xmlns="http://www.w3.org/2000/svg" xmlns:xlink="http://www.w3.org/1999/xlink" x="0px" y="0px"
	 viewBox="0 0 610.1 407.8" style="enable-background:new 0 0 610.1 407.8;" xml:space="preserve">
<style type="text/css">
	.st0{display:none;}
	.st1{display:inline;fill:#9ADEFC;}
	.st2{display:inline;fill:#3FA9F5;}
	.st3{display:inline;fill:#2F86BC;}
	.st4{fill:#ACAFAF;}
	.st5{fill:#BEBEBE;}
	.st6{fill:#231F20;}
	.st7{fill:#666666;}
	.st8{fill:#FFFFFF;}
	.st9{fill:#ED1E79;}
	.st10{fill:#4D4D4D;}
	.st11{fill:#333333;}
	.st12{fill:#ED1C24;}
	.st13{fill:#F2F2F2;}
	.st14{clip-path:url(#SVGID_2_);}
	.st15{fill:#FBB03B;}
	.st16{fill:none;stroke:#000000;stroke-miterlimit:10;}
	.st17{fill:#FF4A26;}
	.st18{display:inline;fill:#0071BC;}
	.st19{display:inline;fill:#29ABE2;}
	.st20{display:inline;fill:#004683;}
	.st21{display:inline;fill:#FFFFFF;}
	.st22{display:inline;fill:#ED1E79;}
	.st23{display:inline;fill:#CCCCCC;}
	.st24{display:inline;fill:#FF4A26;}
	.st25{display:inline;fill:#4D4D4D;}
	.st26{display:inline;}
	.st27{fill:#009245;}
	.st28{fill:#CCCCCC;}
	.st29{clip-path:url(#SVGID_4_);}
</style>
<g id="Layer_5" class="st0">
	<rect x="-129.5" y="-75.2" class="st1" width="902.1" height="714.7"/>
	<rect x="-348.8" y="-96.1" class="st2" width="38.9" height="910.5"/>
	<polygon class="st3" points="-309.9,814.4 -129.5,639.5 -129.5,-75.2 -309.9,-96.1 	"/>
	<polygon class="st3" points="772.6,-75.2 772.6,639.5 953,814.4 953,-96.1 	"/>
	<rect x="953" y="-96.1" class="st2" width="38.9" height="910.5"/>
</g>
<g id="Layer_2">
	<rect x="-308.3" y="360.6" class="st4" width="1184.5" height="20.8"/>
	<polygon class="st5" points="876.4,360.6 -308.3,360.6 -232.1,313.4 821.2,313.4 	"/>
</g>
<g id="Layer_1_1_">
	<path class="st6" d="M771.9,264.7"/>
	<path class="st7" d="M483,329.8c15.4,0,30.8,0,46.3,0c1.2,10.5-3.8,16.9-13.4,17.8c-1.7,0.3-3.2,0-4.9,0c-140.5,0-280.8,0-421.4,0
		c-13.4,0-18.9-4.9-18.6-17.5c14.8,0,29.4,0,44.5,0c0-34.9,0-69.3,0-103.3c0-30.8,0-61.7,0-92.5c0-12.8,4.7-17.8,17.8-17.8
		c110.3,0,220.6,0,331.1,0c13.7,0,18,4.4,18,18c0,64.3,0,128.9,0,193.2C482.4,328.4,482.7,328.7,483,329.8z M461.2,315.6
		c0-55.9,0-111.2,0-166.7c-107.7,0-215.3,0-322.7,0c0,55.9,0,111.2,0,166.7C246.1,315.6,353.5,315.6,461.2,315.6z"/>
	<rect x="138.4" y="134" class="st8" width="322.7" height="181.6"/>
	<rect x="167.8" y="134" class="st9" width="43.4" height="16.9"/>
	<rect x="170.5" y="136.6" class="st8" width="3.8" height="5.8"/>
	<rect x="173.4" y="139.5" class="st8" width="6.4" height="5.8"/>
	<rect x="175.7" y="136.6" class="st8" width="6.4" height="5.8"/>
	<rect x="185.3" y="141" class="st8" width="6.4" height="5.8"/>
	<rect x="183.3" y="138.1" class="st8" width="6.4" height="5.8"/>
	<rect x="187.6" y="139.5" class="st8" width="6.4" height="5.8"/>
	<rect x="191.4" y="139.5" class="st8" width="6.4" height="5.8"/>
	<rect x="194" y="138.1" class="st8" width="6.4" height="5.8"/>
	<rect x="143.7" y="138.1" width="6.4" height="5.8"/>
	<rect x="148.6" y="140.4" width="6.4" height="5.8"/>
	<rect x="146.3" y="142.4" width="6.4" height="5.8"/>
	<rect x="155" y="141" width="6.4" height="5.8"/>
	<rect x="157.4" y="138.1" width="6.4" height="5.8"/>
	<rect x="143.7" y="155" class="st10" width="311.7" height="140"/>
	<rect x="143.7" y="291.1" class="st11" width="311.7" height="5.5"/>
	<rect x="143.7" y="291.1" class="st12" width="132.1" height="5.5"/>
	<rect x="143.7" y="296.7" width="311.7" height="11.1"/>
	<rect x="151.8" y="300.4" class="st13" width="4.1" height="4.4"/>
	<rect x="160.6" y="300.4" class="st13" width="4.1" height="4.4"/>
	<rect x="168.4" y="300.4" class="st13" width="4.1" height="4.4"/>
	<rect x="410.5" y="300.4" class="st13" width="4.1" height="4.4"/>
	<rect x="420.4" y="300.4" class="st13" width="4.1" height="4.4"/>
	<g>
		<g>
			<g>
				<defs>
					<rect id="SVGID_1_" x="144" y="162.2" width="311.7" height="128.9"/>
				</defs>
				<clipPath id="SVGID_2_">
					<use xlink:href="#SVGID_1_"  style="overflow:visible;"/>
				</clipPath>
				<g class="st14">
					<rect x="239.7" y="199.2" class="st15" width="114.9" height="83.5"/>
					<rect x="255.7" y="173.9" class="st15" width="24.2" height="28.2"/>
					<rect x="312.5" y="173.9" class="st15" width="24.2" height="28.2"/>
					<g>
						<rect x="255.7" y="214" class="st8" width="24.2" height="13.4"/>
						<rect x="263.9" y="217.5" width="7.6" height="6.4"/>
					</g>
					<g>
						<rect x="312.5" y="214" class="st8" width="24.2" height="13.4"/>
						<rect x="320.6" y="217.5" width="7.6" height="6.4"/>
					</g>
					<line class="st16" x1="294.7" y1="247.2" x2="267.6" y2="252.7"/>
					<line class="st16" x1="294.7" y1="245.2" x2="267.6" y2="241.7"/>
					<line class="st16" x1="299.1" y1="247.2" x2="326.1" y2="252.7"/>
					<line class="st16" x1="299.1" y1="245.2" x2="326.1" y2="241.7"/>
					<rect x="291.2" y="240.5" class="st9" width="11.9" height="11.9"/>
					<rect x="261.5" y="188.1" class="st9" width="11.9" height="11.9"/>
					<rect x="318.6" y="188.1" class="st9" width="11.9" height="11.9"/>
					<rect x="239.7" y="247.5" width="19.8" height="6.4"/>
					<rect x="334.9" y="247.5" width="19.8" height="6.4"/>
					<rect x="239.7" y="257.7" width="19.8" height="6.4"/>
					<rect x="334.9" y="257.7" width="19.8" height="6.4"/>
					<rect x="199.6" y="279.8" class="st15" width="195" height="128"/>
					<rect x="199.6" y="313.5" width="49.8" height="24.4"/>
					<rect x="199.6" y="351.7" width="49.8" height="24.4"/>
					<rect x="344.8" y="313.5" width="49.8" height="24.4"/>
					<rect x="344.8" y="351.7" width="49.8" height="24.4"/>
				</g>
			</g>
		</g>
	</g>
	<path class="st17" d="M486.3,659.6"/>
	<g id="Layer_2_1_" class="st0">
		<rect x="676.1" y="218.2" class="st18" width="15" height="12.5"/>
		<path class="st19" d="M670.6,223.3h26c13.8,0,25-11.2,25-25v-35.5v-31.5v-27.1h-76v27.1v31.4v35.6
			C645.6,212,656.9,223.3,670.6,223.3z"/>
		<path class="st18" d="M721.2,110h-75.1c-3.2,0-5.8-2.6-5.8-5.8l0,0c0-3.2,2.6-5.8,5.8-5.8h75.1c3.2,0,5.8,2.6,5.8,5.8l0,0
			C726.9,107.4,724.3,110,721.2,110z"/>
		<path class="st18" d="M721.2,132.7h-75.1c-3.2,0-5.8-2.6-5.8-5.8l0,0c0-3.2,2.6-5.8,5.8-5.8h75.1c3.2,0,5.8,2.6,5.8,5.8l0,0
			C726.9,130.1,724.3,132.7,721.2,132.7z"/>
		<path class="st18" d="M721.2,202h-75.1c-3.2,0-5.8-2.6-5.8-5.8l0,0c0-3.2,2.6-5.8,5.8-5.8h75.1c3.2,0,5.8,2.6,5.8,5.8l0,0
			C726.9,199.4,724.3,202,721.2,202z"/>
		<path class="st20" d="M714.1,357.3h-60.9c-6.6,0-12-5.4-12-12v-105c0-6.6,5.4-12,12-12h60.9c6.6,0,12,5.4,12,12v105
			C726.1,351.9,720.7,357.3,714.1,357.3z"/>
		<path class="st21" d="M651.6,302v-53.3c0-6.6,5.4-12,12-12h40c6.6,0,12,5.4,12,12V302H651.6z"/>
		<polygon class="st22" points="674.1,268.3 670.6,268.3 668.6,246.8 676.1,246.8 		"/>
		<circle class="st22" cx="672.3" cy="258.3" r="4.7"/>
		<polygon class="st19" points="696.6,268.3 693.1,268.3 691.1,246.8 698.6,246.8 		"/>
		<circle class="st19" cx="694.9" cy="258.3" r="4.7"/>
		<rect x="641.2" y="344.9" class="st20" width="84.9" height="94.9"/>
		<rect x="657.9" y="292.7" class="st23" width="51.3" height="6.7"/>
	</g>
</g>
<g id="Layer_3" class="st0">
	<path class="st20" d="M364,366.1c-0.1,1.1-0.2,2.1-0.2,3c0,11,0.1,21.9-0.1,32.9c0,2.6,0.7,3.4,3.3,3.7c20.3,2.3,37.8,11,53.2,24.1
		c3.5,3,4,8.1,1.4,11.9c-2.5,3.6-7.3,4.9-11.3,3s-6-6.3-4.8-10.7c0.2-0.8,0.6-1.6,1-2.6c-14.1-10-29.5-15.6-47.2-16.7
		c0,4.6-0.1,8.9,0.1,13.3c0,0.7,0.8,1.5,1.3,2.2c3.6,4.3,3.4,9.8-0.5,13.2c-3.6,3.1-9.2,2.9-12.5-0.6c-3.5-3.6-3.3-9.1,0.4-13
		c0.6-0.7,1.4-1.6,1.4-2.4c0.1-4.1,0.1-8.2,0.1-12.7c-9.3,0.3-18.1,2-26.3,5.6c-6.5,2.8-12.7,6.5-19,9.8c-1.6,0.8-2,1.8-1.4,3.8
		c1.5,4.9-1,9.6-5.4,11.2c-4.5,1.6-9.6-0.6-11.5-5c-1.9-4.5,0-9,4.4-11.7c3.8-2.3,7.3-5.1,11.1-7.6c12.4-8.2,26.1-13.2,40.8-15.1
		c1.5-0.2,2.6-0.3,2.5-2.2v-37.4L364,366.1L364,366.1z"/>
	<path class="st24" d="M372.4,323.7c6.1,0,12.1,0.1,18,0c9.9-0.2,15.9-6.3,15.4-16.2c-1.2-24.4-2.5-48.7-3.9-73.1
		c-0.6-10-6.5-15.4-16.6-15.5c-9.5-0.1-19,0-28.5,0c-11.4,0-22.8-0.1-34.2,0c-9.5,0.1-15.2,5.4-16,14.9c-0.3,3.9-0.4,7.8-0.6,11.7
		c-1.1,20.9-2.2,41.8-3.3,62.7c-0.2,4.5,1.3,8.4,4.6,11.5c3.1,2.9,6.9,4,11.1,3.9c5.9,0,11.8,0,17.9,0L372.4,323.7z"/>
	<path class="st24" d="M344.5,366.1c-8.8,0-17.2,0-25.5,0c-4.8,0-9.6,0-14.4,0c-9.9-0.1-17.7-7.6-17.9-17.2
		c-0.3-9.6,7.1-17.6,17.1-18c9.5-0.3,19-0.1,28.5-0.1c1.3,0,2.6,0,4.1,0l36.1-0.2c1.1,0.1,2.3,0.2,3.5,0.2c9.4,0,18.8-0.2,28.2,0.1
		c12.5,0.3,20.8,11.6,17.1,23.1c-2.3,7.2-8.9,12-16.8,12.1c-12.2,0.1-24.4,0-36.6,0c-1.2,0-2.5,0-4,0H344.5L344.5,366.1z"/>
	<rect x="335.1" y="291.8" class="st20" width="38.3" height="80.3"/>
</g>
<g id="Layer_4" class="st0">
	<polygon class="st25" points="144.6,227.3 124.8,236.2 122.8,247.3 134.6,247.3 148.3,231.2 	"/>
	<g class="st26">
		<rect x="144.7" y="201.5" class="st8" width="45.1" height="45.5"/>
		<path class="st27" d="M157.1,251.6c-3.7,0-7.3,0-11,0c-0.3,0-0.6,0.3-0.8,0.5c-1.6,1.5-3.4,2-5.4,1.2c-1.9-0.7-3-2.1-3.2-4.1
			c-0.2-2.2,0.7-3.8,2.6-5c0.3-0.2,0.7-0.6,0.7-0.9c0-3.6,0-7.2,0-10.8c0-0.1,0-0.2-0.1-0.4c-2.2-0.2-3.9-1.2-4.7-3.4
			s-0.1-4,1.5-5.6c-3.6-3.5-1.4-8.7,3.2-9c0-0.3,0.1-0.6,0.1-0.9c0-3.1,0-6.2,0-9.3c0-0.6-0.1-0.9-0.7-1.2c-2-1.1-3-3.2-2.5-5.3
			c0.4-2,2.1-3.7,4.1-4c2.2-0.3,4.2,0.7,5.3,2.7c0.2,0.3,0.6,0.7,0.9,0.7c3.2,0,6.4,0,9.6,0c0.1,0,0.3,0,0.4-0.1c1.2-5,5.1-6.2,9-3
			c3.5-3.5,8.4-1.4,9,3c0.3,0,0.6,0.1,0.9,0.1c3.6,0,7.3,0,10.9,0c0.6,0,1-0.1,1.3-0.7c1-2,3-3,5.2-2.7c2,0.3,3.6,1.8,4.1,3.8
			s-0.3,4.1-2.1,5.3c-0.3,0.2-0.6,0.6-0.6,0.9c0,3.6,0,7.1,0,10.8c2.1,0.4,3.7,1.4,4.4,3.5s0,3.9-1.6,5.4c3.2,3,2.1,8-2.8,9
			c0,2.3,0,4.5,0,6.8c0,1.5,0,2.9,0,4.4c0,0.4,0.3,0.9,0.6,1.1c2.5,1.8,3.1,5.1,1.2,7.4c-1.9,2.3-5.2,2.4-7.5,0.3
			c-0.3-0.2-0.7-0.5-1-0.5c-4.2,0-8.3,0-12.5,0c-0.2,0-0.3,0-0.5,0.1c-0.7,4.8-5.8,6.3-9,3C162.8,258.1,157.8,256.3,157.1,251.6z
			 M189,202.6c-14.4,0-28.8,0-43.2,0c0,14.4,0,28.8,0,43.2c14.4,0,28.8,0,43.2,0C189,231.4,189,217.1,189,202.6z"/>
		<path class="st28" d="M150.2,207.1c11.4,0,22.7,0,34.1,0c0,11.4,0,22.7,0,34.1c-11.3,0-22.7,0-34.1,0
			C150.2,229.9,150.2,218.6,150.2,207.1z"/>
	</g>
	<g class="st26">
		<g>
			<g>
				<g>
					<defs>
						<path id="SVGID_3_" d="M150.2,207.1c11.4,0,22.7,0,34.1,0c0,11.4,0,22.7,0,34.1c-11.3,0-22.7,0-34.1,0
							C150.2,229.9,150.2,218.6,150.2,207.1z"/>
					</defs>
					<clipPath id="SVGID_4_">
						<use xlink:href="#SVGID_3_"  style="overflow:visible;"/>
					</clipPath>
					<g class="st29">
						<path class="st10" d="M162.9,245.3c-3.5,0-6.8,0-10.3,0c0-0.2,0-0.4,0-0.6c0-5.4,0-10.7,0-16.1c0-1,0.2-2,0.7-3
							c1.1-2.1,2.7-3.3,5.2-3.2c-2-0.7-3.5-2-4.4-4s-0.8-4,0.1-5.9c1.6-3.3,5.3-4.8,8.7-3.6s5.4,4.7,4.6,8.3c-0.7,3.2-3.9,6-8.1,5.5
							v0.1c2.6,1.2,3.7,3.3,3.7,6c0,0.2,0.2,0.5,0.3,0.6c1.8,1.5,3.6,3,5.4,4.6c-1.1,1.3-2.2,2.6-3.3,3.9c-0.9-0.8-1.8-1.5-2.7-2.3
							C162.9,238.8,162.9,242,162.9,245.3z"/>
						<path class="st10" d="M182.5,245.2c-3.3,0-6.5,0-9.8,0c0-3,0-5.9,0-9c-1.3,1.5-2.5,3-3.7,4.4c-1-0.8-2-1.7-3-2.5
							c1.3-1.5,2.5-3,3.7-4.4c0.9-1.1,1.8-2.1,2.7-3.2c0.3-0.3,0.4-0.6,0.4-1c0-0.9,0-1.9,0.2-2.8c0.6-2.5,2.9-4.1,5.2-3.8
							c2.5,0.3,4.4,2.5,4.4,5.2c0,5.6,0,11.2,0,16.7C182.5,244.9,182.5,245.1,182.5,245.2z"/>
						<path class="st10" d="M167.9,216.6c0-3.6,2.9-6.6,6.5-6.6s6.6,2.9,6.6,6.5s-2.9,6.6-6.6,6.6
							C170.8,223.1,167.9,220.2,167.9,216.6z"/>
						<path class="st9" d="M168.2,224.6c0.6-0.5,1.2-0.7,2-0.5c1.3,0.3,1.9,1.9,0.9,2.9s-2,1.9-3.1,2.9c-0.9-1-2-2.1-3-3.3
							c-0.6-0.7-0.4-1.6,0.2-2.2c0.6-0.6,1.7-0.7,2.5-0.2C167.8,224.2,167.9,224.4,168.2,224.6z"/>
					</g>
				</g>
			</g>
		</g>
	</g>
</g>
</svg>
