<?xml version="1.0" encoding="UTF-8"?>
<svg width="233px" height="45px" viewBox="0 0 233 45" version="1.1" xmlns="http://www.w3.org/2000/svg" xmlns:xlink="http://www.w3.org/1999/xlink">
    <!-- Generator: Sketch 50.2 (55047) - http://www.bohemiancoding.com/sketch -->
    <title>Group 2</title>
    <desc>Created with Sketch.</desc>
    <defs></defs>
    <g id="Page-1" stroke="none" stroke-width="1" fill="none" fill-rule="evenodd">
        <g id="Desktop" transform="translate(-420.000000, -383.000000)">
            <g id="Group-2" transform="translate(420.000000, 383.000000)">
                <rect id="Rectangle-3" stroke="#3389B6" fill="#3389B6" x="0.5" y="0.5" width="232" height="44" rx="3"></rect>
                <path d="M65.944,27.984 L61,17.216 C60.904,17.008 61.032,16.8 61.272,16.8 L62.904,16.8 C63.048,16.8 63.144,16.896 63.176,16.976 L66.248,23.856 L66.36,23.856 L69.432,16.976 C69.464,16.896 69.56,16.8 69.704,16.8 L71.336,16.8 C71.576,16.8 71.704,17.008 71.608,17.216 L66.648,27.984 C66.6,28.08 66.52,28.16 66.376,28.16 L66.216,28.16 C66.072,28.16 65.992,28.08 65.944,27.984 Z M73.064,27.696 L73.064,17.104 C73.064,16.944 73.208,16.8 73.368,16.8 L74.856,16.8 C75.016,16.8 75.16,16.944 75.16,17.104 L75.16,27.696 C75.16,27.856 75.016,28 74.856,28 L73.368,28 C73.208,28 73.064,27.856 73.064,27.696 Z M78.072,27.696 L78.072,17.104 C78.072,16.944 78.2,16.8 78.376,16.8 L84.888,16.8 C85.064,16.8 85.192,16.944 85.192,17.104 L85.192,18.416 C85.192,18.576 85.064,18.72 84.888,18.72 L80.152,18.72 L80.152,21.344 L84.104,21.344 C84.264,21.344 84.408,21.488 84.408,21.648 L84.408,22.976 C84.408,23.152 84.264,23.28 84.104,23.28 L80.152,23.28 L80.152,26.08 L84.888,26.08 C85.064,26.08 85.192,26.224 85.192,26.384 L85.192,27.696 C85.192,27.856 85.064,28 84.888,28 L78.376,28 C78.2,28 78.072,27.856 78.072,27.696 Z M89.512,27.936 L86.488,17.184 C86.424,16.96 86.552,16.8 86.776,16.8 L88.248,16.8 C88.376,16.8 88.504,16.912 88.536,17.024 L90.2,23.408 L90.264,23.408 L92.808,16.816 C92.84,16.72 92.92,16.64 93.08,16.64 L93.368,16.64 C93.528,16.64 93.608,16.72 93.64,16.816 L96.2,23.408 L96.264,23.408 L97.896,17.024 C97.928,16.912 98.056,16.8 98.184,16.8 L99.656,16.8 C99.88,16.8 100.008,16.96 99.944,17.184 L96.92,27.936 C96.888,28.064 96.76,28.16 96.632,28.16 L96.376,28.16 C96.232,28.16 96.136,28.08 96.104,27.984 L93.24,20.736 L93.16,20.736 L90.328,27.984 C90.28,28.08 90.216,28.16 90.056,28.16 L89.8,28.16 C89.672,28.16 89.544,28.064 89.512,27.936 Z M105.4,27.696 L105.4,17.104 C105.4,16.944 105.528,16.8 105.704,16.8 L112.216,16.8 C112.392,16.8 112.52,16.944 112.52,17.104 L112.52,18.416 C112.52,18.576 112.392,18.72 112.216,18.72 L107.48,18.72 L107.48,21.344 L111.432,21.344 C111.592,21.344 111.736,21.488 111.736,21.648 L111.736,22.976 C111.736,23.152 111.592,23.28 111.432,23.28 L107.48,23.28 L107.48,26.08 L112.216,26.08 C112.392,26.08 112.52,26.224 112.52,26.384 L112.52,27.696 C112.52,27.856 112.392,28 112.216,28 L105.704,28 C105.528,28 105.4,27.856 105.4,27.696 Z M114.2,24.928 C114.024,24.928 113.896,24.8 113.896,24.64 L113.896,23.568 C113.896,23.392 114.024,23.264 114.2,23.264 L117.768,23.264 C117.944,23.264 118.072,23.392 118.072,23.568 L118.072,24.64 C118.072,24.8 117.944,24.928 117.768,24.928 L114.2,24.928 Z M120.216,27.696 L120.216,17.104 C120.216,16.944 120.344,16.8 120.52,16.8 L124.184,16.8 C126.088,16.8 127.56,18.08 127.56,19.76 C127.56,20.992 126.552,21.952 125.8,22.304 C126.648,22.576 127.88,23.44 127.88,24.912 C127.88,26.704 126.344,28 124.392,28 L120.52,28 C120.344,28 120.216,27.856 120.216,27.696 Z M122.28,21.504 L123.992,21.504 C124.808,21.504 125.368,20.864 125.368,20.064 C125.368,19.264 124.808,18.704 123.992,18.704 L122.28,18.704 L122.28,21.504 Z M122.28,26.112 L124.216,26.112 C125.016,26.112 125.656,25.488 125.656,24.656 C125.656,23.856 124.856,23.264 124.024,23.264 L122.28,23.264 L122.28,26.112 Z M129.288,22.416 C129.288,19.216 131.832,16.64 135.032,16.64 C138.232,16.64 140.792,19.216 140.792,22.416 C140.792,25.616 138.232,28.16 135.032,28.16 C131.832,28.16 129.288,25.616 129.288,22.416 Z M131.368,22.416 C131.368,24.432 133.016,26.08 135.032,26.08 C137.048,26.08 138.712,24.432 138.712,22.416 C138.712,20.4 137.048,18.72 135.032,18.72 C133.016,18.72 131.368,20.4 131.368,22.416 Z M142.088,22.416 C142.088,19.216 144.632,16.64 147.832,16.64 C151.032,16.64 153.592,19.216 153.592,22.416 C153.592,25.616 151.032,28.16 147.832,28.16 C144.632,28.16 142.088,25.616 142.088,22.416 Z M144.168,22.416 C144.168,24.432 145.816,26.08 147.832,26.08 C149.848,26.08 151.512,24.432 151.512,22.416 C151.512,20.4 149.848,18.72 147.832,18.72 C145.816,18.72 144.168,20.4 144.168,22.416 Z M155.688,27.616 L155.688,17.184 C155.688,16.976 155.848,16.8 156.072,16.8 L157.48,16.8 C157.688,16.8 157.864,16.976 157.864,17.184 L157.864,21.504 L161.896,16.96 C161.96,16.88 162.056,16.8 162.2,16.8 L163.8,16.8 C164.104,16.8 164.264,17.136 164.056,17.376 L159.88,22.08 L164.36,27.44 C164.52,27.648 164.392,28 164.072,28 L162.328,28 C162.168,28 162.072,27.936 162.04,27.888 L157.864,22.736 L157.864,27.616 C157.864,27.824 157.688,28 157.48,28 L156.072,28 C155.848,28 155.688,27.824 155.688,27.616 Z" id="VIEW-E-BOOK" fill="#FFFFFF"></path>
            </g>
        </g>
    </g>
</svg>