<?xml version="1.0" encoding="UTF-8"?>
<svg width="233px" height="45px" viewBox="0 0 233 45" version="1.1" xmlns="http://www.w3.org/2000/svg" xmlns:xlink="http://www.w3.org/1999/xlink">
    <!-- Generator: Sketch 50.2 (55047) - http://www.bohemiancoding.com/sketch -->
    <title>Group 3</title>
    <desc>Created with Sketch.</desc>
    <defs></defs>
    <g id="Page-1" stroke="none" stroke-width="1" fill="none" fill-rule="evenodd">
        <g id="Desktop" transform="translate(-420.000000, -313.000000)">
            <g id="Group-3" transform="translate(420.000000, 313.000000)">
                <rect id="Rectangle-3" stroke="#3389B6" fill="#3389B6" x="0.5" y="0.5" width="232" height="44" rx="3"></rect>
                <path d="M19.4105,27.7055 L19.4105,17.4445 C19.4105,17.2895 19.5345,17.15 19.6895,17.15 L23.363,17.15 C26.3545,17.15 28.8035,19.5835 28.8035,22.5595 C28.8035,25.5665 26.3545,28 23.363,28 L19.6895,28 C19.5345,28 19.4105,27.8605 19.4105,27.7055 Z M21.41,26.109 L23.177,26.109 C25.192,26.109 26.6645,24.59 26.6645,22.5595 C26.6645,20.5445 25.192,19.0255 23.177,19.0255 L21.41,19.0255 L21.41,26.109 Z M30.0745,22.5905 C30.0745,19.4905 32.539,16.995 35.639,16.995 C38.739,16.995 41.219,19.4905 41.219,22.5905 C41.219,25.6905 38.739,28.155 35.639,28.155 C32.539,28.155 30.0745,25.6905 30.0745,22.5905 Z M32.0895,22.5905 C32.0895,24.5435 33.686,26.14 35.639,26.14 C37.592,26.14 39.204,24.5435 39.204,22.5905 C39.204,20.6375 37.592,19.01 35.639,19.01 C33.686,19.01 32.0895,20.6375 32.0895,22.5905 Z M45.1405,27.938 L42.211,17.522 C42.149,17.305 42.273,17.15 42.49,17.15 L43.916,17.15 C44.04,17.15 44.164,17.2585 44.195,17.367 L45.807,23.5515 L45.869,23.5515 L48.3335,17.1655 C48.3645,17.0725 48.442,16.995 48.597,16.995 L48.876,16.995 C49.031,16.995 49.1085,17.0725 49.1395,17.1655 L51.6195,23.5515 L51.6815,23.5515 L53.2625,17.367 C53.2935,17.2585 53.4175,17.15 53.5415,17.15 L54.9675,17.15 C55.1845,17.15 55.3085,17.305 55.2465,17.522 L52.317,27.938 C52.286,28.062 52.162,28.155 52.038,28.155 L51.79,28.155 C51.6505,28.155 51.5575,28.0775 51.5265,27.9845 L48.752,20.963 L48.6745,20.963 L45.931,27.9845 C45.8845,28.0775 45.8225,28.155 45.6675,28.155 L45.4195,28.155 C45.2955,28.155 45.1715,28.062 45.1405,27.938 Z M57.06,27.7055 L57.06,17.274 C57.06,17.119 57.1995,16.995 57.3545,16.995 L57.742,16.995 L64.19,23.846 L64.2055,23.846 L64.2055,17.4445 C64.2055,17.2895 64.3295,17.15 64.5,17.15 L65.926,17.15 C66.081,17.15 66.2205,17.2895 66.2205,17.4445 L66.2205,27.876 C66.2205,28.031 66.081,28.155 65.926,28.155 L65.554,28.155 L59.075,21.0405 L59.0595,21.0405 L59.0595,27.7055 C59.0595,27.8605 58.9355,28 58.765,28 L57.3545,28 C57.1995,28 57.06,27.8605 57.06,27.7055 Z M69.0415,27.7055 L69.0415,17.4445 C69.0415,17.2895 69.1655,17.15 69.336,17.15 L70.762,17.15 C70.917,17.15 71.0565,17.2895 71.0565,17.4445 L71.0565,26.14 L75.009,26.14 C75.1795,26.14 75.3035,26.2795 75.3035,26.4345 L75.3035,27.7055 C75.3035,27.8605 75.1795,28 75.009,28 L69.336,28 C69.1655,28 69.0415,27.8605 69.0415,27.7055 Z M75.9855,22.5905 C75.9855,19.4905 78.45,16.995 81.55,16.995 C84.65,16.995 87.13,19.4905 87.13,22.5905 C87.13,25.6905 84.65,28.155 81.55,28.155 C78.45,28.155 75.9855,25.6905 75.9855,22.5905 Z M78.0005,22.5905 C78.0005,24.5435 79.597,26.14 81.55,26.14 C83.503,26.14 85.115,24.5435 85.115,22.5905 C85.115,20.6375 83.503,19.01 81.55,19.01 C79.597,19.01 78.0005,20.6375 78.0005,22.5905 Z M87.936,28 C87.7035,28 87.5795,27.7985 87.6725,27.597 L92.493,17.1655 C92.5395,17.0725 92.617,16.995 92.7565,16.995 L92.9115,16.995 C93.0665,16.995 93.1285,17.0725 93.175,17.1655 L97.949,27.597 C98.042,27.7985 97.918,28 97.6855,28 L96.337,28 C96.1045,28 95.996,27.907 95.8875,27.69 L95.128,26.016 L90.4935,26.016 L89.734,27.69 C89.672,27.845 89.5325,28 89.2845,28 L87.936,28 Z M91.253,24.2955 L94.3685,24.2955 L92.8185,20.8855 L92.772,20.8855 L91.253,24.2955 Z M99.3595,27.7055 L99.3595,17.4445 C99.3595,17.2895 99.4835,17.15 99.6385,17.15 L103.312,17.15 C106.3035,17.15 108.7525,19.5835 108.7525,22.5595 C108.7525,25.5665 106.3035,28 103.312,28 L99.6385,28 C99.4835,28 99.3595,27.8605 99.3595,27.7055 Z M101.359,26.109 L103.126,26.109 C105.141,26.109 106.6135,24.59 106.6135,22.5595 C106.6135,20.5445 105.141,19.0255 103.126,19.0255 L101.359,19.0255 L101.359,26.109 Z M114.224,27.7055 L114.224,17.4445 C114.224,17.2895 114.348,17.15 114.5185,17.15 L120.827,17.15 C120.9975,17.15 121.1215,17.2895 121.1215,17.4445 L121.1215,18.7155 C121.1215,18.8705 120.9975,19.01 120.827,19.01 L116.239,19.01 L116.239,21.924 L120.0675,21.924 C120.2225,21.924 120.362,22.0635 120.362,22.2185 L120.362,23.4895 C120.362,23.6445 120.2225,23.784 120.0675,23.784 L116.239,23.784 L116.239,27.7055 C116.239,27.8605 116.0995,28 115.9445,28 L114.5185,28 C114.348,28 114.224,27.8605 114.224,27.7055 Z M122.966,27.7055 L122.966,17.4445 C122.966,17.2895 123.09,17.15 123.2605,17.15 L127.6935,17.15 C129.5535,17.15 131.0725,18.638 131.0725,20.4825 C131.0725,21.9085 130.127,23.071 128.7785,23.6135 L130.902,27.5505 C131.0105,27.752 130.902,28 130.6385,28 L129.011,28 C128.8715,28 128.794,27.9225 128.763,27.8605 L126.7015,23.753 L124.981,23.753 L124.981,27.7055 C124.981,27.8605 124.8415,28 124.6865,28 L123.2605,28 C123.09,28 122.966,27.8605 122.966,27.7055 Z M124.9965,22.0945 L127.523,22.0945 C128.3445,22.0945 129.0575,21.3815 129.0575,20.5135 C129.0575,19.692 128.3445,19.01 127.523,19.01 L124.9965,19.01 L124.9965,22.0945 Z M133.289,27.7055 L133.289,17.4445 C133.289,17.2895 133.413,17.15 133.5835,17.15 L139.892,17.15 C140.0625,17.15 140.1865,17.2895 140.1865,17.4445 L140.1865,18.7155 C140.1865,18.8705 140.0625,19.01 139.892,19.01 L135.304,19.01 L135.304,21.552 L139.1325,21.552 C139.2875,21.552 139.427,21.6915 139.427,21.8465 L139.427,23.133 C139.427,23.3035 139.2875,23.4275 139.1325,23.4275 L135.304,23.4275 L135.304,26.14 L139.892,26.14 C140.0625,26.14 140.1865,26.2795 140.1865,26.4345 L140.1865,27.7055 C140.1865,27.8605 140.0625,28 139.892,28 L133.5835,28 C133.413,28 133.289,27.8605 133.289,27.7055 Z M142.403,27.7055 L142.403,17.4445 C142.403,17.2895 142.527,17.15 142.6975,17.15 L149.006,17.15 C149.1765,17.15 149.3005,17.2895 149.3005,17.4445 L149.3005,18.7155 C149.3005,18.8705 149.1765,19.01 149.006,19.01 L144.418,19.01 L144.418,21.552 L148.2465,21.552 C148.4015,21.552 148.541,21.6915 148.541,21.8465 L148.541,23.133 C148.541,23.3035 148.4015,23.4275 148.2465,23.4275 L144.418,23.4275 L144.418,26.14 L149.006,26.14 C149.1765,26.14 149.3005,26.2795 149.3005,26.4345 L149.3005,27.7055 C149.3005,27.8605 149.1765,28 149.006,28 L142.6975,28 C142.527,28 142.403,27.8605 142.403,27.7055 Z M154.9425,27.7055 L154.9425,17.4445 C154.9425,17.2895 155.0665,17.15 155.237,17.15 L161.5455,17.15 C161.716,17.15 161.84,17.2895 161.84,17.4445 L161.84,18.7155 C161.84,18.8705 161.716,19.01 161.5455,19.01 L156.9575,19.01 L156.9575,21.552 L160.786,21.552 C160.941,21.552 161.0805,21.6915 161.0805,21.8465 L161.0805,23.133 C161.0805,23.3035 160.941,23.4275 160.786,23.4275 L156.9575,23.4275 L156.9575,26.14 L161.5455,26.14 C161.716,26.14 161.84,26.2795 161.84,26.4345 L161.84,27.7055 C161.84,27.8605 161.716,28 161.5455,28 L155.237,28 C155.0665,28 154.9425,27.8605 154.9425,27.7055 Z M163.4675,25.024 C163.297,25.024 163.173,24.9 163.173,24.745 L163.173,23.7065 C163.173,23.536 163.297,23.412 163.4675,23.412 L166.924,23.412 C167.0945,23.412 167.2185,23.536 167.2185,23.7065 L167.2185,24.745 C167.2185,24.9 167.0945,25.024 166.924,25.024 L163.4675,25.024 Z M169.2955,27.7055 L169.2955,17.4445 C169.2955,17.2895 169.4195,17.15 169.59,17.15 L173.1395,17.15 C174.984,17.15 176.41,18.39 176.41,20.0175 C176.41,21.211 175.4335,22.141 174.705,22.482 C175.5265,22.7455 176.72,23.5825 176.72,25.0085 C176.72,26.7445 175.232,28 173.341,28 L169.59,28 C169.4195,28 169.2955,27.8605 169.2955,27.7055 Z M171.295,21.707 L172.9535,21.707 C173.744,21.707 174.2865,21.087 174.2865,20.312 C174.2865,19.537 173.744,18.9945 172.9535,18.9945 L171.295,18.9945 L171.295,21.707 Z M171.295,26.171 L173.1705,26.171 C173.9455,26.171 174.5655,25.5665 174.5655,24.7605 C174.5655,23.9855 173.7905,23.412 172.9845,23.412 L171.295,23.412 L171.295,26.171 Z M178.084,22.5905 C178.084,19.4905 180.5485,16.995 183.6485,16.995 C186.7485,16.995 189.2285,19.4905 189.2285,22.5905 C189.2285,25.6905 186.7485,28.155 183.6485,28.155 C180.5485,28.155 178.084,25.6905 178.084,22.5905 Z M180.099,22.5905 C180.099,24.5435 181.6955,26.14 183.6485,26.14 C185.6015,26.14 187.2135,24.5435 187.2135,22.5905 C187.2135,20.6375 185.6015,19.01 183.6485,19.01 C181.6955,19.01 180.099,20.6375 180.099,22.5905 Z M190.484,22.5905 C190.484,19.4905 192.9485,16.995 196.0485,16.995 C199.1485,16.995 201.6285,19.4905 201.6285,22.5905 C201.6285,25.6905 199.1485,28.155 196.0485,28.155 C192.9485,28.155 190.484,25.6905 190.484,22.5905 Z M192.499,22.5905 C192.499,24.5435 194.0955,26.14 196.0485,26.14 C198.0015,26.14 199.6135,24.5435 199.6135,22.5905 C199.6135,20.6375 198.0015,19.01 196.0485,19.01 C194.0955,19.01 192.499,20.6375 192.499,22.5905 Z M203.659,27.628 L203.659,17.522 C203.659,17.3205 203.814,17.15 204.031,17.15 L205.395,17.15 C205.5965,17.15 205.767,17.3205 205.767,17.522 L205.767,21.707 L209.673,17.305 C209.735,17.2275 209.828,17.15 209.9675,17.15 L211.5175,17.15 C211.812,17.15 211.967,17.4755 211.7655,17.708 L207.72,22.265 L212.06,27.4575 C212.215,27.659 212.091,28 211.781,28 L210.0915,28 C209.9365,28 209.8435,27.938 209.8125,27.8915 L205.767,22.9005 L205.767,27.628 C205.767,27.8295 205.5965,28 205.395,28 L204.031,28 C203.814,28 203.659,27.8295 203.659,27.628 Z" id="DOWNLOAD-FREE-E-BOOK" fill="#FFFFFF"></path>
            </g>
        </g>
    </g>
</svg>