
<svg width="88px" height="41px" viewBox="0 0 88 41" version="1.1" xmlns="http://www.w3.org/2000/svg" xmlns:xlink="http://www.w3.org/1999/xlink">
    <!-- Generator: Sketch 49.2 (51160) - http://www.bohemiancoding.com/sketch -->
    <desc>Created with Sketch.</desc>
    <defs>
        <polygon id="path-1" points="0.000160277384 0.895 87.999 0.895 87.999 40.9999 0.000160277384 40.9999"></polygon>
    </defs>
    <g id="Page-1" stroke="none" stroke-width="1" fill="none" fill-rule="evenodd">
        <g id="DI_Desktop-HD" transform="translate(-676.000000, -1712.000000)">
            <g id="What-if" transform="translate(377.000000, 1557.000000)">
                <g id="Car" transform="translate(299.000000, 154.000000)">
                    <path d="M12.6136,28.9911 C11.4836,28.9911 10.5706,29.9051 10.5706,31.0331 C10.5706,32.1631 11.4846,33.0761 12.6136,33.0761 C13.7416,33.0761 14.6566,32.1621 14.6566,31.0331 C14.6566,29.9051 13.7416,28.9911 12.6136,28.9911" id="Fill-1" fill="#71B2C9"></path>
                    <path d="M73.1239,28.9911 C71.9949,28.9911 71.0799,29.9051 71.0799,31.0331 C71.0799,32.1631 71.9949,33.0761 73.1239,33.0761 C74.2539,33.0761 75.1689,32.1621 75.1689,31.0331 C75.1679,29.9051 74.2529,28.9911 73.1239,28.9911" id="Fill-3" fill="#71B2C9"></path>
                    <g id="Group-7" transform="translate(0.000000, 0.105400)">
                        <mask id="mask-2" fill="white">
                            <use xlink:href="#path-1"></use>
                        </mask>
                        <g id="Clip-6"></g>
                        <path d="M83.6991,17.2509 L83.5621,17.1189 C83.2241,16.8339 79.9581,14.2829 69.1991,12.2029 C69.1901,12.1999 68.2951,11.9689 67.4241,11.4819 L54.2981,4.1359 C54.1211,4.0319 49.8681,1.5459 42.3771,1.2859 C41.9271,1.2519 35.6161,0.7839 27.5951,0.9189 C25.1281,0.9409 22.8141,1.0339 20.6621,1.1879 C16.5521,1.4489 12.3101,1.9079 8.3841,2.6829 L6.0341,3.1439 L7.5321,5.0549 C5.6291,6.8249 2.3111,11.0719 2.1701,19.2359 C1.1741,19.7529 0.2551,20.8489 0.1461,22.7539 C0.1161,23.0219 -0.8629,29.8369 2.6841,32.5659 C3.4701,37.3409 7.6161,40.9999 12.6111,40.9999 C16.7091,40.9999 21.2161,38.1279 22.7891,34.6089 L63.9191,34.6089 C65.4911,38.1279 69.0241,40.9999 73.1221,40.9999 C77.5111,40.9999 81.2421,38.1769 82.6201,34.2549 L87.1931,32.4229 L87.4091,31.7779 C87.4341,31.6999 88.0521,29.8349 87.9951,27.5009 L88.0001,25.2359 L87.1501,23.1039 C87.1041,22.9669 85.9571,19.7229 83.6991,17.2509 Z M59.5121,9.6379 L39.0431,9.6379 L39.0431,3.7619 C41.6591,3.8659 41.8121,3.7579 41.8861,3.7619 C49.2771,3.7579 56.8681,8.1579 59.5121,9.6379 Z M15.5051,3.9679 C15.5051,3.9679 35.0001,3.7989 36.0101,3.8459 L36.0101,9.6379 L15.5051,9.6379 L15.5051,3.9679 Z M12.6111,38.0629 C8.6781,38.0629 5.4771,34.8639 5.4771,30.9299 C5.4771,26.9959 8.6781,23.7959 12.6111,23.7959 C16.5481,23.7959 19.7481,26.9969 19.7481,30.9299 C19.7481,34.8629 16.5481,38.0629 12.6111,38.0629 Z M65.9871,30.9299 C65.9871,26.9959 69.1881,23.7959 73.1241,23.7959 C77.0581,23.7959 80.2611,26.9969 80.2611,30.9299 C80.2611,34.8629 77.0581,38.0629 73.1241,38.0629 C69.1871,38.0629 65.9871,34.8629 65.9871,30.9299 Z M84.7861,30.2229 L83.1941,30.8609 C83.1561,25.3389 78.6551,20.8579 73.1241,20.8579 C67.5681,20.8579 63.0501,25.3759 63.0501,30.9299 C63.0501,31.3209 62.4501,31.6719 62.4501,31.6719 L22.6861,31.6719 C22.7301,31.2929 22.6861,31.3209 22.6861,30.9299 C22.6861,25.3759 18.1661,20.8579 12.6111,20.8579 C8.3101,20.8579 4.6411,23.5729 3.2001,27.3729 C2.9181,25.6489 2.9701,23.8989 3.0731,23.0129 C3.1141,22.2839 3.3331,21.8329 3.5961,21.8059 L5.1351,21.8519 L5.1081,20.3139 C4.9361,10.8359 10.3141,5.8779 12.5041,5.6989 C12.4901,5.7919 12.5041,12.5779 12.5041,12.5779 C12.5041,12.5779 62.2271,12.5029 63.9201,12.5779 C65.6111,12.6529 68.3811,15.0279 68.5641,15.0719 C77.8921,16.8769 81.1731,19.0149 81.6151,19.3269 C83.4031,21.3359 84.3691,24.0499 84.3991,24.1299 L85.0611,25.7969 L85.0601,27.5359 C85.0851,28.6459 84.9201,29.6239 84.7861,30.2229 Z" id="Fill-5" fill="#71B2C9" mask="url(#mask-2)"></path>
                    </g>
                </g>
            </g>
        </g>
    </g>
</svg>