
<svg width="37px" height="64px" viewBox="0 0 37 64" version="1.1" xmlns="http://www.w3.org/2000/svg" xmlns:xlink="http://www.w3.org/1999/xlink">
    <!-- Generator: Sketch 49.2 (51160) - http://www.bohemiancoding.com/sketch -->
    <desc>Created with Sketch.</desc>
    <defs>
        <polygon id="path-1" points="0 0 36.555852 0 36.555852 64 0 64"></polygon>
        <polygon id="path-3" points="0 64 37 64 37 0 0 0"></polygon>
    </defs>
    <g id="Page-1" stroke="none" stroke-width="1" fill="none" fill-rule="evenodd">
        <g id="DI_Desktop-HD" transform="translate(-840.000000, -1694.000000)">
            <g id="What-if" transform="translate(377.000000, 1557.000000)">
                <g id="Smart-Phone" transform="translate(463.000000, 137.000000)">
                    <g id="Group-3">
                        <mask id="mask-2" fill="white">
                            <use xlink:href="#path-1"></use>
                        </mask>
                        <g id="Clip-2"></g>
                        <path d="M32.189852,61.0574713 L4.365852,61.0574713 C3.589592,61.0574713 2.959852,60.4314483 2.959852,59.6597701 L2.959852,49.8022989 L33.595852,49.8022989 L33.595852,59.6597701 C33.595852,60.4314483 32.966852,61.0574713 32.189852,61.0574713 Z M2.959852,46.8597701 L33.595852,46.8597701 L33.595852,12.8735632 L2.959852,12.8735632 L2.959852,46.8597701 Z M4.365852,2.94252874 L32.189852,2.94252874 C32.966852,2.94252874 33.595852,3.56855172 33.595852,4.34022989 L33.595852,9.93103448 L2.959852,9.93103448 L2.959852,4.34022989 C2.959852,3.56855172 3.589592,2.94252874 4.365852,2.94252874 Z M36.555852,4.34022989 C36.555852,1.94354023 34.601512,0 32.189852,0 L4.365852,0 C1.954932,0 -0.000148,1.94354023 -0.000148,4.34022989 L-0.000148,59.6597701 C-0.000148,62.0564598 1.954932,64 4.365852,64 L32.189852,64 C34.601512,64 36.555852,62.0564598 36.555852,59.6597701 L36.555852,4.34022989 Z" id="Fill-1" fill="#71B2C9" mask="url(#mask-2)"></path>
                    </g>
                    <mask id="mask-4" fill="white">
                        <use xlink:href="#path-3"></use>
                    </mask>
                    <g id="Clip-5"></g>
                    <polygon id="Fill-4" fill="#71B2C9" mask="url(#mask-4)" points="14 57 21 57 21 54 14 54"></polygon>
                </g>
            </g>
        </g>
    </g>
</svg>