
<svg width="53px" height="53px" viewBox="0 0 53 53" version="1.1" xmlns="http://www.w3.org/2000/svg" xmlns:xlink="http://www.w3.org/1999/xlink">
    <!-- Generator: Sketch 49.2 (51160) - http://www.bohemiancoding.com/sketch -->
    <desc>Created with Sketch.</desc>
    <defs>
        <polygon id="path-1" points="0 0.0999 52.982 0.0999 52.982 23.020039 0 23.020039"></polygon>
    </defs>
    <g id="Page-1" stroke="none" stroke-width="1" fill="none" fill-rule="evenodd">
        <g id="DI_Desktop-HD" transform="translate(-547.000000, -1700.000000)">
            <g id="What-if" transform="translate(377.000000, 1557.000000)">
                <g id="House" transform="translate(170.000000, 143.000000)">
                    <g id="Group-3">
                        <mask id="mask-2" fill="white">
                            <use xlink:href="#path-1"></use>
                        </mask>
                        <g id="Clip-2"></g>
                        <path d="M52.4205,20.3999 L27.4205,0.3999 C26.8195,-0.0001 26.0205,-0.0001 25.5205,0.3999 L0.5205,20.3999 C-0.0795,20.8999 -0.1805,21.8999 0.3195,22.4999 C0.8195,23.0999 1.8195,23.1999 2.4205,22.6999 L26.5205,3.3999 L50.6195,22.6999 C50.8195,22.8999 51.2205,22.9999 51.5205,22.9999 C51.9205,22.9999 52.4205,22.7999 52.6195,22.4999 C53.2205,21.8999 53.0205,20.8999 52.4205,20.3999" id="Fill-1" fill="#71B2C9" mask="url(#mask-2)"></path>
                    </g>
                    <path d="M41.5201,8 C42.3201,8 43.0201,7.3 43.0201,6.5 L43.0201,3 L45.0201,3 L45.0201,11.5 C45.0201,12.3 45.7201,13 46.5201,13 C47.3201,13 48.0201,12.3 48.0201,11.5 L48.0201,1.5 C48.0201,0.7 47.3201,0 46.5201,0 L41.5201,0 C40.7201,0 40.0201,0.7 40.0201,1.5 L40.0201,6.5 C40.0201,7.3 40.7201,8 41.5201,8" id="Fill-4" fill="#71B2C9"></path>
                    <path d="M47.5201,50 L33.0201,50 L33.0201,36.5 C33.0201,35.7 32.3201,35 31.5201,35 L21.5201,35 C20.7201,35 20.0201,35.7 20.0201,36.5 L20.0201,50 L5.5201,50 L5.5201,27.2 L25.7231,11.479 L26.5201,10.9 L47.5201,27.2 L47.5201,50 Z M50.4201,25.9 C50.4201,25.9 50.4201,25.8 50.3201,25.8 L50.2201,25.7 L50.1201,25.6 L50.0201,25.5 L49.9201,25.4 L27.4201,7.8 C26.8201,7.3 25.9201,7.4 25.4201,8 C25.3201,8 25.2201,8.1 25.2201,8.1 L23.6201,9.3 C23.5991,9.315 23.5891,9.34 23.5691,9.356 L3.1201,25.3 C2.7201,25.6 2.5201,26 2.5201,26.5 L2.5201,51.5 C2.5201,52.3 3.2201,53 4.0201,53 L21.5201,53 C22.3201,53 23.0201,52.3 23.0201,51.5 L23.0201,38 L30.0201,38 L30.0201,51.5 C30.0201,52.3 30.7201,53 31.5201,53 L49.0201,53 C49.8201,53 50.5201,52.3 50.5201,51.5 L50.5201,26.442 L50.5201,26.4 L50.5201,26.2 L50.5201,26.1 L50.5201,26 C50.5201,26 50.5201,25.9 50.4201,25.9 Z" id="Fill-6" fill="#71B2C9"></path>
                </g>
            </g>
        </g>
    </g>
</svg>