
<svg width="22px" height="14px" viewBox="0 0 22 14" version="1.1" xmlns="http://www.w3.org/2000/svg" xmlns:xlink="http://www.w3.org/1999/xlink">
    <!-- Generator: Sketch 49.2 (51160) - http://www.bohemiancoding.com/sketch -->
    <desc>Created with Sketch.</desc>
    <defs>
        <polygon id="path-1" points="0 0 22 0 22 14 0 14"></polygon>
    </defs>
    <g id="Page-1" stroke="none" stroke-width="1" fill="none" fill-rule="evenodd">
        <g id="DI_Desktop-HD" transform="translate(-1146.000000, -1926.000000)">
            <g id="What-if" transform="translate(377.000000, 1557.000000)">
                <g id="Resources-Panel" transform="translate(740.000000, 254.000000)">
                    <g id="Video" transform="translate(29.000000, 115.000000)">
                        <mask id="mask-2" fill="white">
                            <use xlink:href="#path-1"></use>
                        </mask>
                        <g id="Clip-2"></g>
                        <path d="M15.5129686,12.6909648 L1.43578704,12.6909648 C1.34337919,12.6909648 1.26829781,12.6134719 1.26829781,12.5169037 L1.26829781,1.48309631 C1.26829781,1.38772034 1.34337919,1.31022737 1.43578704,1.31022737 L15.5129686,1.31022737 C15.6053765,1.31022737 15.6804578,1.38772034 15.6804578,1.48309631 L15.6804578,12.5169037 C15.6816129,12.6134719 15.6053765,12.6909648 15.5129686,12.6909648 Z M20.7317022,3.0472622 L20.7317022,10.9527378 L16.9499107,8.58145278 L16.9499107,5.41854722 L20.7317022,3.0472622 Z M21.6765725,1.31380397 C21.4767405,1.19696841 21.2307046,1.20173721 21.0366481,1.32334157 L16.9499107,3.88776292 L16.9499107,1.48309631 C16.9499107,0.666439581 16.305366,0 15.5141237,0 L1.43578704,0 C0.644544786,0 0,0.666439581 0,1.48309631 L0,12.5169037 C0,13.3347526 0.644544786,14 1.43578704,14 L15.5129686,14 C16.3042109,14 16.9487556,13.3347526 16.9487556,12.5169037 L16.9487556,10.1122371 L21.0366481,12.674274 C21.2283944,12.7958784 21.4790507,12.8006472 21.6765725,12.6850038 C21.8764045,12.5693605 22,12.3523801 22,12.1163246 L22,1.88367538 C22,1.64642766 21.8752494,1.42944733 21.6765725,1.31380397 Z" id="Fill-1" fill="#FFFFFF" mask="url(#mask-2)"></path>
                    </g>
                </g>
            </g>
        </g>
    </g>
</svg>