<svg id="ada8cc7a-b6d4-4ee3-a253-e02a4edb1f1e" data-name="Layer 1" xmlns="http://www.w3.org/2000/svg" viewBox="0 0 72.4 72.5"><title>icon-pencil-ruler</title><path d="M73.2,12.2a6,6,0,0,0-1.8-4.3L67,3.6a6.22,6.22,0,0,0-4.3-1.8,6,6,0,0,0-4.3,1.8L38,24.1,16.3,2.4a1.93,1.93,0,0,0-2.8,0L1.4,14.5a1.93,1.93,0,0,0,0,2.8L23.1,39,6.5,55.7l-.3.3a.1.1,0,0,1-.1.1c0,.1-.1.2-.1.3v.1L1,71.6a2.09,2.09,0,0,0,.5,2.1,2,2,0,0,0,1.4.6,1.27,1.27,0,0,0,.6-.1l15.1-5h.1c.1,0,.2-.1.3-.1a.1.1,0,0,0,.1-.1l.3-.3L36,51.9,57.7,73.6a1.93,1.93,0,0,0,2.8,0L72.6,61.5a1.93,1.93,0,0,0,0-2.8L50.9,37,71.4,16.5A6.22,6.22,0,0,0,73.2,12.2ZM20.9,31.1,18.7,29l2.6-2.6a2,2,0,0,0-2.8-2.8l-2.6,2.6L13.7,24l2.6-2.6a2,2,0,0,0-2.8-2.8l-2.6,2.6L5.7,16l9.2-9.2L35.2,27l-6.6,6.6L26,36.2,23.8,34l2.6-2.6a2,2,0,0,0-2.8-2.8ZM6,69l2.7-8.2,5.4,5.4Zm62.3-8.9-9.2,9.2L48.9,59.1l2.6-2.6a2,2,0,0,0-2.8-2.8L46,56.3l-2.2-2.2,2.6-2.6a2,2,0,1,0-2.8-2.8L41,51.2,38.8,49l2.6-2.6L48,39.8ZM17.9,64.3l-7.2-7.2L55.6,12.2a.1.1,0,0,0,.1.1l7,7,.1.1ZM68.6,13.7l-2.9,2.9a.1.1,0,0,0-.1-.1l-7-7-.1-.1,2.9-2.9a1.93,1.93,0,0,1,2.8,0l4.4,4.4a2,2,0,0,1,.6,1.4A3.51,3.51,0,0,1,68.6,13.7Z" transform="translate(-0.8 -1.8)" fill="#fff"/></svg>