<svg xmlns="http://www.w3.org/2000/svg" viewBox="0 0 765.95 52.48"><title>logo_101018</title><g id="275c31ca-806e-4a7d-b72a-83f943d48bb4" data-name="Layer 1"><path d="M20.55,282.18a1,1,0,0,1,.95-.94h1.6a1,1,0,0,1,.88.94v47H47.23c.88,0,1,.44,1,.95v1.31a.85.85,0,0,1-1,.8H21.5a1,1,0,0,1-.95-.95Z" transform="translate(-20.55 -280.51)" fill="#fff"/><path d="M56.2,282.18a1,1,0,0,1,.94-.94h1.61a1,1,0,0,1,1,.94v49.13a1,1,0,0,1-1,.95H57.14a1,1,0,0,1-.94-.95Z" transform="translate(-20.55 -280.51)" fill="#fff"/><path d="M67.86,282.18c-.29-.58-.07-.94.58-.94h2a.84.84,0,0,1,.8.51L90.89,327H91l19.9-45.26a.84.84,0,0,1,.8-.51h1.89c.66,0,1,.43.66,1L91.91,332.33A.92.92,0,0,1,91,333h-.37a1,1,0,0,1-.8-.66Z" transform="translate(-20.55 -280.51)" fill="#fff"/><path d="M122.6,282.18a1,1,0,0,1,1-.94h1.6a1,1,0,0,1,.95.94v49.13a1,1,0,0,1-1,.95h-1.53a1,1,0,0,1-1-.95Z" transform="translate(-20.55 -280.51)" fill="#fff"/><path d="M141.55,281.46a1,1,0,0,1,1.09-.95h1.24l35,45.55h.07V282.18a1,1,0,0,1,.95-.94h1.46a1,1,0,0,1,1,.94V332c0,.66-.59.95-1.17.95h-.95c-.07,0-.65-.22-35.28-46h-.07v44.32a1,1,0,0,1-1,.95H142.5a1,1,0,0,1-.95-.95Z" transform="translate(-20.55 -280.51)" fill="#fff"/><path d="M220.49,280.51a24.93,24.93,0,0,1,17.64,6.78.91.91,0,0,1,.07,1.31c-.36.44-.8.87-1.16,1.24s-.8.43-1.24,0a22.42,22.42,0,0,0-15.38-6.13,23,23,0,0,0,0,45.93c8.89,0,14.43-3.43,15.16-4V311.92H223.12c-.81,0-1-.29-1-.94v-1.46c0-.59.14-.88,1-.88h14.94a1,1,0,0,1,.95.88v16.91a2,2,0,0,1-1,1.89,33.71,33.71,0,0,1-17.5,4.67,26.24,26.24,0,1,1,0-52.48Z" transform="translate(-20.55 -280.51)" fill="#fff"/><path d="M288.86,280.51a24.47,24.47,0,0,1,17.64,6.78,1.35,1.35,0,0,1,.08,2l-5.69,5.9a1.27,1.27,0,0,1-1.82,0,14.93,14.93,0,0,0-9.84-3.72c-8.24,0-14.29,6.86-14.29,15s6.12,14.8,14.36,14.8a15.42,15.42,0,0,0,9.77-3.5,1.43,1.43,0,0,1,1.89.07l5.69,6.05a1.46,1.46,0,0,1-.07,2A25,25,0,0,1,288.86,333a26.24,26.24,0,1,1,0-52.48Z" transform="translate(-20.55 -280.51)" fill="#fff"/><path d="M337.55,280.51a26.24,26.24,0,1,1-26.16,26.31A26.2,26.2,0,0,1,337.55,280.51Zm0,40.82a14.58,14.58,0,1,0-14.5-14.51A14.61,14.61,0,0,0,337.55,321.33Z" transform="translate(-20.55 -280.51)" fill="#fff"/><path d="M372.54,281.82a1.37,1.37,0,0,1,1.39-1.31h1.82l29.08,28h.08V282.62a1.38,1.38,0,0,1,1.38-1.38H415a1.42,1.42,0,0,1,1.38,1.38v49.06A1.36,1.36,0,0,1,415,333h-1.17a2.13,2.13,0,0,1-.95-.37l-28.79-28.93h-.07v27.19a1.38,1.38,0,0,1-1.39,1.38H374a1.43,1.43,0,0,1-1.38-1.38Z" transform="translate(-20.55 -280.51)" fill="#fff"/><path d="M429,282.62a1.38,1.38,0,0,1,1.38-1.38h30.18a1.38,1.38,0,0,1,1.39,1.38v7.95a1.39,1.39,0,0,1-1.39,1.38H440.33v10.5H457a1.42,1.42,0,0,1,1.38,1.38v7.95a1.42,1.42,0,0,1-1.38,1.38H440.33v17.72a1.44,1.44,0,0,1-1.38,1.38h-8.61a1.38,1.38,0,0,1-1.38-1.38Z" transform="translate(-20.55 -280.51)" fill="#fff"/><path d="M470,282.62a1.42,1.42,0,0,1,1.38-1.38h8.75a1.42,1.42,0,0,1,1.38,1.38v48.26a1.43,1.43,0,0,1-1.38,1.38h-8.75a1.43,1.43,0,0,1-1.38-1.38Z" transform="translate(-20.55 -280.51)" fill="#fff"/><path d="M494.05,282.62a1.36,1.36,0,0,1,1.31-1.38h17.79a25.51,25.51,0,1,1,0,51H495.36a1.37,1.37,0,0,1-1.31-1.38Zm18.37,38.85c8.24,0,14.21-6.49,14.21-14.8s-6-14.72-14.21-14.72h-7v29.52Z" transform="translate(-20.55 -280.51)" fill="#fff"/><path d="M547.62,282.62a1.38,1.38,0,0,1,1.39-1.38h30.18a1.38,1.38,0,0,1,1.38,1.38v7.95a1.38,1.38,0,0,1-1.38,1.38H559v9h16.62a1.44,1.44,0,0,1,1.38,1.39v7.94a1.39,1.39,0,0,1-1.38,1.39H559v9.83h20.19a1.38,1.38,0,0,1,1.38,1.39v7.95a1.38,1.38,0,0,1-1.38,1.38H549a1.39,1.39,0,0,1-1.39-1.38Z" transform="translate(-20.55 -280.51)" fill="#fff"/><path d="M590.27,281.82a1.36,1.36,0,0,1,1.38-1.31h1.82l29.09,28h.07V282.62a1.38,1.38,0,0,1,1.39-1.38h8.74a1.43,1.43,0,0,1,1.39,1.38v49.06a1.37,1.37,0,0,1-1.39,1.31H631.6a2.08,2.08,0,0,1-1-.37l-28.79-28.93h-.08v27.19a1.38,1.38,0,0,1-1.38,1.38h-8.68a1.44,1.44,0,0,1-1.38-1.38Z" transform="translate(-20.55 -280.51)" fill="#fff"/><path d="M653.25,292H642.82a1.38,1.38,0,0,1-1.38-1.38v-7.95a1.38,1.38,0,0,1,1.38-1.38h32.37a1.38,1.38,0,0,1,1.38,1.38v7.95a1.38,1.38,0,0,1-1.38,1.38H664.76v38.93a1.43,1.43,0,0,1-1.38,1.38h-8.75a1.43,1.43,0,0,1-1.38-1.38Z" transform="translate(-20.55 -280.51)" fill="#fff"/><path d="M683.86,282.62a1.38,1.38,0,0,1,1.38-1.38h8.68a1.42,1.42,0,0,1,1.38,1.38v38.92h17.35a1.39,1.39,0,0,1,1.39,1.39v7.95a1.39,1.39,0,0,1-1.39,1.38H685.24a1.38,1.38,0,0,1-1.38-1.38Z" transform="translate(-20.55 -280.51)" fill="#fff"/><path d="M727,307.7,710.9,283.35a1.35,1.35,0,0,1,1.17-2.11h9.47a1.45,1.45,0,0,1,1.17.65l10.13,14.94L743,281.89a1.34,1.34,0,0,1,1.17-.65h9.48a1.34,1.34,0,0,1,1.16,2.11l-16.33,24.27v23.26a1.43,1.43,0,0,1-1.38,1.38H728.4a1.38,1.38,0,0,1-1.39-1.38Z" transform="translate(-20.55 -280.51)" fill="#fff"/></g><g id="2af23336-d850-4124-b2d5-6d18b43d37d5" data-name="Layer 2"><path d="M773,308.05a14.62,14.62,0,0,1-5.43-1,13.14,13.14,0,0,1-4.3-2.73,12,12,0,0,1-2.85-4.21,15.43,15.43,0,0,1,0-11,11.93,11.93,0,0,1,2.85-4.22,13.14,13.14,0,0,1,4.3-2.73,15.45,15.45,0,0,1,10.83,0,12.84,12.84,0,0,1,4.3,2.73,12.13,12.13,0,0,1,2.82,4.22,15.43,15.43,0,0,1,0,11,12.18,12.18,0,0,1-2.82,4.21,12.84,12.84,0,0,1-4.3,2.73A14.68,14.68,0,0,1,773,308.05Zm0-2.85a11.15,11.15,0,0,0,4.21-.77,9.82,9.82,0,0,0,3.27-2.14,9.58,9.58,0,0,0,2.13-3.32,12.44,12.44,0,0,0,0-8.67,9.58,9.58,0,0,0-2.13-3.32,9.82,9.82,0,0,0-3.27-2.14,11.15,11.15,0,0,0-4.21-.77,11.44,11.44,0,0,0-4.25.77,9.41,9.41,0,0,0-5.43,5.46,12.59,12.59,0,0,0,0,8.67,9.41,9.41,0,0,0,5.43,5.46A11.44,11.44,0,0,0,773,305.2Zm-4.69-17.57h5.4a4.59,4.59,0,0,1,3.18,1.1,3.83,3.83,0,0,1,1.21,3,4,4,0,0,1-.68,2.43,4.28,4.28,0,0,1-1.75,1.43l3.26,5h-3.2l-2.85-4.75H771v4.75h-2.67Zm4.51,6.23a3.48,3.48,0,0,0,1.84-.44,1.76,1.76,0,0,0,.71-1.63,1.71,1.71,0,0,0-.65-1.49,2.39,2.39,0,0,0-1.42-.47H771v4Z" transform="translate(-20.55 -280.51)" fill="#fff"/></g></svg>