<?xml version="1.0" encoding="utf-8"?>
<!-- Generator: Adobe Illustrator 19.2.0, SVG Export Plug-In . SVG Version: 6.00 Build 0)  -->
<svg version="1.1" xmlns="http://www.w3.org/2000/svg" xmlns:xlink="http://www.w3.org/1999/xlink" x="0px" y="0px"
	 viewBox="0 0 500.8 418.1" style="enable-background:new 0 0 500.8 418.1;" xml:space="preserve">
<style type="text/css">
	.st0{fill:#1DCFA8;}
	.st1{fill:none;stroke:#1B1464;stroke-width:20;stroke-miterlimit:10;}
	.st2{fill:#1B1464;}
	.st3{fill:#9A0047;}
	.st4{fill:#D10257;}
	.st5{fill:#D4145A;}
	.st6{display:none;}
	.st7{display:inline;fill:none;stroke:#1B1464;stroke-width:9;stroke-miterlimit:10;}
	.st8{display:inline;fill:#C1272D;}
	.st9{display:inline;fill:#EA506A;}
	.st10{display:inline;fill:none;stroke:#1B1464;stroke-width:9;stroke-linecap:round;stroke-miterlimit:10;}
	.st11{display:inline;fill:#1DCFA8;}
	.st12{display:inline;fill:#9A0047;}
	.st13{fill:#525DBA;}
	.st14{fill:#1B1464;stroke:#1DCFA8;stroke-width:10;stroke-miterlimit:10;}
	.st15{fill:#576093;}
	.st16{fill:#F7F6F5;}
	.st17{fill:#C1272D;}
	.st18{fill:#D6BCB4;}
	.st19{fill:#CCB382;}
	.st20{fill:#7F622E;}
	.st21{fill:#C3C8D6;}
</style>
<g id="Layer_1">
	<circle class="st0" cx="62.1" cy="373.5" r="44.4"/>
	<path class="st1" d="M31.3,351c0,0-19.6-10.7-20.7-34c-1.6-33.7,43.1-33.7,52.9-33.7s56,2.1,52.8,33.8
		c-2.3,22.9-21.1,37.5-21.1,37.5"/>
	<path class="st2" d="M401.8,93.7c2.7-10.4,5.4-21.1,8.3-31.7c2-7.5,9-10.1,14.4-5.7c4,3.2,3.2,7.4,2.1,11.6
		c-5.3,20.1-10.4,40.3-16.1,60.3c-3.2,11.3-4.8,22.5-4.2,34.4c2,39,2.6,78,5.5,116.9c1.1,15.8,6.4,31.3,10.2,46.9
		c3.8,16.4,7.9,32.6,12.1,48.9c0.9,3.4,2.4,6.8,4.3,9.7c8.4,13.3,0.4,30.6-15.2,32.6c-1.5,0.2-3,0.2-4.6,0.2
		c-64.7,0.1-129.3,0.3-193.9,0.3c-32.7,0-58.8-21.5-65.3-53.4c-7.5-36.6,19.8-73.7,56.8-77.5c33.5-3.6,74.9,27.6,74.9,27.6
		c13.9,6.4,90.2,39.4,106.5,46.9c-0.6-15.7-1.1-30.3-1.9-44.9c-0.5-11.1-0.3-22.3-2.3-33.1c-3-16.1-8-31.9-11.4-47.9
		c-7.3-33.7-19.3-66.2-22.1-100.4l3.7-36.6c0.9-11.7,1.5-23.2,2.4-34.9c0.5-6.4,3.9-9.6,9.3-9.1c5.6,0.4,8.4,4.3,8,11
		c-0.7,10.6-1.5,21.3-2.3,33l-1.9,32.1c-0.7,8.9-1.8,17.7,1,26.5c3.7,12,6.4,24.4,9.4,36.6c1.5-23.5-2.3-39,5.6-71.5
		C402.8,89.9,401.8,93.7,401.8,93.7z M265.6,353c0-23.6-18.7-42.1-42.3-42c-23.3,0.1-41.9,18.6-41.9,41.9
		c-0.1,23.6,18.5,42.3,42,42.3C247,395.2,265.7,376.6,265.6,353z"/>
	<polygon class="st2" points="213.2,208.7 194.8,208.7 237.3,307.4 255.7,307.4 	"/>
	<path class="st3" d="M237.3,218.2h-64.6c-4,0-7.3-3.3-7.3-7.3v-4.6c0-4,3.3-7.3,7.3-7.3h64.6c4,0,7.3,3.3,7.3,7.3v4.6
		C244.6,215,241.4,218.2,237.3,218.2z"/>
	<g>
		<path class="st0" d="M466.8,389.6c0-5.8,0-11.7,0-17.5c0-0.9,0.3-1.4,1-1.8c4.6-2.8,4.7-8.4,0.1-11.3c-0.8-0.5-1.1-1.1-1.1-2.1
			c0.1-3.1,0-6.3,0-9.4c0-4.8,3.2-8.4,8-8.6c6-0.2,12-0.2,17.9,0c4.8,0.2,8.1,3.8,8.1,8.6c0,3.2,0,6.3,0,9.5c0,0.8-0.2,1.4-1,1.7
			c-4.8,2.1-5.1,8.4-0.2,11.3c0.7,0.4,0.9,0.9,0.9,1.7c0,11.5,0,23,0,34.5c0,5.1-3.6,8.7-8.7,8.8c-5.5,0-11,0-16.5,0
			c-5.1,0-8.7-3.7-8.7-8.8C466.8,400.7,466.8,395.1,466.8,389.6z"/>
		<path class="st4" d="M480.7,327.4c0-2.9,0-5.5,0-8.2c2,0,3.9,0,6.1,0c0,1.9,0,3.8,0,5.7c0,0.5,0,1,0,1.5c-0.1,0.8,0.3,1,1,1
			c1.3,0,2.6,0,4,0c0,2.1,0,4,0,6.1c-5.4,0-10.7,0-16.1,0c0-2,0-3.9,0-6.1C477.2,327.4,478.8,327.4,480.7,327.4z"/>
	</g>
	<circle class="st3" cx="223.4" cy="353" r="43.1"/>
	<path class="st5" d="M223.8,385c-18,0.1-32.1-13.8-32.3-31.8c-0.2-17.9,13.8-32.2,31.7-32.4c17.5-0.3,32.2,14.3,32.5,31.9
		C255.8,370.6,241.6,384.9,223.8,385z"/>
	<g id="Layer_2" class="st6">
		<line class="st7" x1="614.8" y1="-81.3" x2="614.8" y2="11.7"/>
		<path class="st8" d="M647-6.3h-64.7c-3.5,0-6.3,2.9-6.3,6.3l0,0c0,3.5,2.8,6.3,6.3,6.3H647c3.5,0,6.3-2.8,6.3-6.3l0,0
			C653.4-3.5,650.5-6.3,647-6.3z"/>
		<path class="st9" d="M659.4,220.3c0,0,0.7,20.1-43.7,20.1s-43.6-20.1-43.6-20.1V3.6c0,0,0-3.3,2.4-3.3s80.8,0,82.8,0
			c2.1,0,2.1,3.2,2.1,3.2V220.3L659.4,220.3z"/>
		<polyline class="st10" points="586.4,11.7 586.4,-6.3 615.8,-81.3 		"/>
		<polyline class="st10" points="644,11.7 644,-6.3 614.8,-81.3 		"/>
		<circle class="st11" cx="542" cy="-81.3" r="17.2"/>
		<circle class="st11" cx="685.9" cy="-81.3" r="17.2"/>
		<path class="st12" d="M687.5-73.8H544c-4.1,0-7.5-3.4-7.5-7.5l0,0c0-4.1,3.4-7.5,7.5-7.5h143.5c4.1,0,7.5,3.4,7.5,7.5l0,0
			C695-77.2,691.5-73.8,687.5-73.8z"/>
	</g>
</g>
<g id="Layer_2_1_">
	<g>
		<rect y="32.2" class="st13" width="118.6" height="161.3"/>
		<rect x="12" y="22.3" class="st14" width="118.6" height="161.3"/>
		<g>
			<polygon class="st3" points="43.3,179.9 65.8,179.9 69.5,145 47,145 			"/>
			<polygon class="st3" points="89.7,179.9 67.1,179.9 63.5,145 86,145 			"/>
			<g>
				<rect x="48.4" y="127.9" class="st15" width="37.9" height="5.7"/>
				<rect x="48.4" y="133.6" class="st16" width="37.9" height="5.7"/>
				<rect x="48.4" y="139.2" class="st17" width="37.9" height="5.7"/>
			</g>
			<ellipse class="st18" cx="71.8" cy="69.2" rx="10.6" ry="14.5"/>
			<path class="st18" d="M62.8,76.9c0.3,3.4,0.3,6.5-4.9,8.1s-5.8,2.9-9.3,3.5s-10.9,2.9-12.5,10.4c-1.7,7.5-0.9,7.2-1.7,10.6
				c-0.7,3.3-2.2,7.8-1.4,11.8c0.7,4,1.4,2.7,1.1,5.2c-0.3,2.6-1.9,8.1,0.7,13.2c2.6,5.2,7.6,10.2,7.6,10.2h3.1l4.2-3.8
				c0,0,1.1-5.1-1.7-11c-2.8-6-2.8-6.9-2.8-6.9l2.8-5.8l1.6,5.6l23.8,0.1l12.4-0.1c0,0-0.6-2.7,0-5c0.6-2.2,1.2-5.6,1.2-7.1
				s-1.1,8.9,0,12.1s5.8,7.8,5.8,7.8s-0.7,5.1,0,8c0.7,2.9,1.1,8.6,1.1,8.6l8.4,2.3c0,0,2.2-7.5,2.9-12c1.1-7.5-2.9-13.6-2.9-13.6
				s0.7-7.5-0.3-10.9c-1.1-3.4-2.3-8.7-2.3-12.4c0-3.7-2.1-10.5-8.7-11.5c-3.3-0.5-4.2-2.9-8.6-5.1C77.8,87.2,77,87,77,87
				s2-2.3,1.8-12.1C78.7,65.1,62.8,76.9,62.8,76.9z"/>
			<path d="M62.6,74c0,0-2.7-2.9-2.9-4.2s-1.2-5.2-0.9-7.2c0.3-2-0.4-4.3,1.4-5.5c1.8-1.2,2.7-1.7,4.1-3.2c1.3-1.6,1.1-0.9,2.9-2
				c1.8-1.1,3.1,0,4.6-1.8c1.5-1.8,6.9,2.6,8,3.8c1.1,1.2,2.6,2.6,3.5,5.5c0.9,2.9,2.6,3.8,2.6,5.6c0,1.8-3.2,9.6-4.2,10.6
				c-0.9,0.9-0.9,0.9-0.9,0.9s-0.6-1.2,0.2-2.2c0.7-0.9,2.2-4.3,0.4-4.2S79.8,70,79.7,68c-0.2-2,1.2-3.2-0.6-4.8
				c-1.8-1.7-4-3.2-5.2-1.9s-3.2,3.9-4.3,1.9c-1.1-2.1,0-5.3-2.7-3.7s-3.3,2.5-2.6,4.2c0.7,1.7,0,3.2-0.5,4.2c-0.6,0.9-1,2.7-1,2.8
				C62.5,70.6,63.9,72.8,62.6,74z"/>
			<ellipse class="st19" cx="74.4" cy="137.2" rx="10.1" ry="11"/>
			<path class="st20" d="M76.1,140.7c0.2,0.2,0.3,0.5,0.5,0.7c0.2,0.3,0.2,0.6-0.1,0.8c-0.2,0.2-0.6,0.5-0.8,0.7
				c-0.4,0.3-1,0.3-1.4,0c-0.3-0.2-0.7-0.6-0.9-0.8c-0.2-0.2-0.2-0.5-0.1-0.7c0.2-0.2,0.3-0.4,0.6-0.7c0,0,0.1-0.1,0.1-0.2
				c-0.2,0-0.4,0-0.6,0.1c-0.5,0.1-0.9,0-1.4-0.1c-0.4-0.1-0.8-0.2-1.2-0.3c-0.1,0-0.1-0.1-0.2-0.2c0.1-0.1,0.1-0.1,0.2-0.2
				c0,0,0,0,0.1,0c0.2-0.2,0.3-0.2,0.1-0.5c-0.3-0.2-0.7-0.5-1-0.7c-0.1-0.1-0.1-0.2-0.2-0.2c0.1,0,0.2-0.1,0.2-0.1
				c0.5-0.1,0.6-0.1,0.2-0.6c-0.3-0.6-0.7-1.1-1-1.7c-0.1-0.2-0.1-0.2,0.2-0.3c0.2,0,0.3-0.1,0.5-0.1c0.2-0.1,0.2-0.2,0.2-0.4
				c-0.2-0.3-0.3-0.7-0.4-1.1c-0.1-0.2,0-0.5,0.3-0.4c0.6,0.1,0.6-0.1,0.7-0.4c0.2-0.7,0.6-1.2,0.9-1.7c0-0.1,0.2-0.1,0.2-0.1
				c0.1,0,0.1,0.1,0.2,0.2c0.2,0.7,0.4,1.3,0.6,2c0.2,0.6,0.4,1.2,0.6,1.8c0,0.1,0.1,0.1,0.1,0.2c0.2,0.3,0.4,0.7,0.7,1
				c0.1,0.1,0.2,0.2,0.2,0.2c0.1-0.2,0.1-0.4,0.2-0.6c0.1-0.3,0.2-0.6,0.5-0.7c0.2-0.2,0.7-0.2,0.8,0.1c0.2,0.2,0.4,0.3,0.7,0.4
				c0,0,0.1,0,0.1,0.1c-0.2,0-0.3,0-0.5,0.1c-0.2,0-0.3,0.2-0.2,0.3c0.1,0.2,0.2,0.3,0.2,0.5c0.2-0.2,0.3-0.2,0.5-0.4
				c0.2-0.3,0.5-0.7,0.7-1c0-0.1,0.1-0.1,0.1-0.2c0.4-1.2,0.7-2.5,1.2-3.7c0-0.1,0-0.1,0-0.2c0.1-0.2,0.2-0.2,0.2,0
				c0.1,0.2,0.2,0.2,0.2,0.4c0.3,0.5,0.6,1,0.7,1.6c0.1,0.2,0.2,0.2,0.4,0.2c0.1,0,0.2,0,0.2,0c0.3,0,0.4,0.1,0.3,0.4
				c-0.2,0.3-0.2,0.7-0.4,1.1c-0.1,0.2,0,0.4,0.2,0.4c0.2,0,0.3,0.1,0.5,0.1s0.2,0.2,0.2,0.3c-0.4,0.6-0.7,1.2-1.2,1.8
				c-0.2,0.2-0.1,0.3,0.2,0.3c0.1,0,0.2,0,0.2,0c0.1,0,0.2,0.1,0.2,0.1c-0.1,0.1-0.1,0.2-0.2,0.2c-0.3,0.2-0.7,0.5-1,0.7
				c-0.1,0-0.1,0.1-0.2,0.1c-0.2,0.2-0.2,0.3,0.1,0.4c0.1,0,0.1,0,0.2,0.1c0.1,0.1,0.2,0.1,0.2,0.2s-0.1,0.1-0.2,0.2
				c-0.4,0.2-0.9,0.3-1.5,0.4C77.2,140.7,76.7,140.7,76.1,140.7C76.2,140.7,76.1,140.7,76.1,140.7z"/>
			<path class="st21" d="M51.2,155.4L51.2,155.4c-2.6,1.6-5.9,0.8-7.5-1.7l0,0c-1.6-2.5-0.8-5.9,1.7-7.5l0,0
				c2.5-1.6,5.9-0.8,7.5,1.7l0,0C54.5,150.5,53.8,153.8,51.2,155.4z"/>
			<path class="st5" d="M47.5,157.4c-0.2,1.2-0.8,5.8,3,11c3.8,5.2,6.9,5.9,10.1,5.3c4.4-0.8,10.8-6.6,10.5-9.5
				c-0.3-2.6-1.3-3.7-2.9-3.7c-1.6,0-4-0.6-4-0.6s6.4,1.4,6.9-0.5s-0.3-4.2-4.8-5.5c-4.5-1.2-6.2-0.8-7.9-0.7
				c-1.6,0.2-3.2-0.4-3.2-0.4L47.5,157.4z"/>
			<path class="st5" d="M92.1,158.6c0,0-0.9,0.5-1.9,0.6c-1,0.1-4.7,1-6.8,2.6c-2.2,1.6-3.7,4.3-2.7,6.6c1.1,2.3,2.2,1.4,2.8,0.8
				s2.2-1.4,3.3-1.7c1.1-0.2,2.4,0,1.7,0.2s-2.1-0.7-4.2,1.1c-2.1,1.7-1.4,3.2-0.7,4.7c0.7,1.5,4.2,7.1,9.5,6.3
				c5.2-0.7,5.9-4.9,6.3-7.1s1.7-11.7,1.7-11.7s-0.5-0.5-3.1-1.6C95.7,158.3,92.6,157.8,92.1,158.6z"/>
			<path class="st21" d="M97,160L97,160c-3-0.7-4.8-3.5-4.2-6.4l0,0c0.6-2.9,3.5-4.8,6.4-4.2h0.1c2.9,0.6,4.8,3.5,4.2,6.4l0,0
				C102.9,158.8,99.9,160.6,97,160z"/>
		</g>
		<g>
			<path class="st0" d="M25.7,45.9l4.7-10.1c0.1-0.1,0.2-0.2,0.2-0.2h0.2c0.1,0,0.2,0.1,0.2,0.2l4.7,10.1c0.1,0.2,0,0.4-0.2,0.4
				h-1.7c-0.2,0-0.4-0.1-0.5-0.4l-0.5-1.2h-4.1l-0.5,1.2c-0.1,0.2-0.2,0.3-0.5,0.3H26C25.8,46.3,25.6,46.1,25.7,45.9z M31.8,42.7
				l-1.2-2.5l0,0l-1.2,2.5H31.8z"/>
			<path class="st0" d="M37,36.1c0-0.2,0.1-0.2,0.2-0.2h3.7c2.9,0,5.2,2.3,5.2,5.2s-2.3,5.2-5.2,5.2h-3.7c-0.2,0-0.2-0.2-0.2-0.2
				V36.1z M40.7,44.1c1.7,0,2.9-1.3,2.9-3.1c0-1.7-1.2-3-2.9-3h-1.4v6.1H40.7z"/>
			<path class="st0" d="M47.9,36.1c0-0.2,0.1-0.2,0.2-0.2h4.5c1.8,0,3.2,1.4,3.2,3.2c0,1.4-0.9,2.5-2.2,3l2.1,3.8
				c0.1,0.2,0,0.4-0.2,0.4h-2c-0.1,0-0.2-0.1-0.2-0.2l-2-4h-1V46c0,0.2-0.2,0.2-0.2,0.2h-1.7c-0.2,0-0.2-0.2-0.2-0.2L47.9,36.1
				L47.9,36.1L47.9,36.1z M52.5,40.3c0.6,0,1.2-0.6,1.2-1.2c0-0.6-0.5-1.2-1.2-1.2h-2.2v2.3L52.5,40.3L52.5,40.3z"/>
			<path class="st0" d="M58,36.1c0-0.2,0.2-0.2,0.2-0.2h1.8c0.2,0,0.2,0.2,0.2,0.2V46c0,0.2-0.2,0.2-0.2,0.2h-1.8
				c-0.2,0-0.2-0.2-0.2-0.2V36.1z"/>
			<path class="st0" d="M61.6,45.9l4.7-10.1c0.1-0.1,0.2-0.2,0.2-0.2h0.2c0.1,0,0.2,0.1,0.2,0.2l4.7,10.1c0.1,0.2,0,0.4-0.2,0.4
				h-1.7c-0.2,0-0.4-0.1-0.5-0.4l-0.5-1.2h-4.1l-0.5,1.2c-0.1,0.2-0.2,0.3-0.5,0.3h-1.7C61.6,46.3,61.5,46.1,61.6,45.9z M67.7,42.7
				l-1.2-2.5l0,0l-1.2,2.5H67.7z"/>
			<path class="st0" d="M72.8,36c0-0.2,0.2-0.2,0.2-0.2h0.4l6,5.7l0,0v-5.3c0-0.2,0.1-0.2,0.2-0.2h1.8c0.2,0,0.2,0.2,0.2,0.2v10.1
				c0,0.2-0.2,0.2-0.2,0.2h-0.2c-0.1,0-0.2-0.1-0.2-0.1l-5.9-5.9l0,0V46c0,0.2-0.1,0.2-0.2,0.2h-1.7c-0.2,0-0.2-0.2-0.2-0.2L72.8,36
				z"/>
			<path class="st0" d="M85.3,43.6c0.7,0,1.4,0.7,1.4,1.4s-0.7,1.4-1.4,1.4c-0.7,0-1.4-0.7-1.4-1.4C83.9,44.3,84.6,43.6,85.3,43.6z
				 M84.7,42L84,37.9v-1.7c0-0.2,0.2-0.2,0.2-0.2h2.1c0.2,0,0.2,0.2,0.2,0.2v1.7L85.8,42c0,0.1-0.2,0.2-0.2,0.2h-0.7
				C84.9,42.2,84.7,42.1,84.7,42z"/>
		</g>
	</g>
</g>
</svg>
