<?xml version="1.0" encoding="utf-8"?>
<!-- Generator: Adobe Illustrator 19.2.0, SVG Export Plug-In . SVG Version: 6.00 Build 0)  -->
<svg version="1.1" xmlns="http://www.w3.org/2000/svg" xmlns:xlink="http://www.w3.org/1999/xlink" x="0px" y="0px"
	 viewBox="0 0 360 360" style="enable-background:new 0 0 360 360;" xml:space="preserve">
<metadata><?xpacket begin="﻿" id="W5M0MpCehiHzreSzNTczkc9d"?>
<x:xmpmeta xmlns:x="adobe:ns:meta/" x:xmptk="Adobe XMP Core 5.6-c111 79.158366, 2015/09/25-01:12:00        ">
   <rdf:RDF xmlns:rdf="http://www.w3.org/1999/02/22-rdf-syntax-ns#">
      <rdf:Description rdf:about=""
            xmlns:ExtensisFontSense="http://www.extensis.com/meta/FontSense/">
         <ExtensisFontSense:slug>
            <rdf:Bag>
               <rdf:li>
                  <rdf:Description>
                     <ExtensisFontSense:Family>Brandon Grotesque</ExtensisFontSense:Family>
                     <ExtensisFontSense:Version>001.000</ExtensisFontSense:Version>
                     <ExtensisFontSense:OutlineFileSize>0</ExtensisFontSense:OutlineFileSize>
                     <ExtensisFontSense:KerningChecksum>0</ExtensisFontSense:KerningChecksum>
                     <ExtensisFontSense:Foundry>--</ExtensisFontSense:Foundry>
                     <ExtensisFontSense:FontKind>OpenType - PS</ExtensisFontSense:FontKind>
                     <ExtensisFontSense:Checksum>1221546243</ExtensisFontSense:Checksum>
                     <ExtensisFontSense:PostScriptName>BrandonGrotesque-Regular</ExtensisFontSense:PostScriptName>
                     <ExtensisFontSense:FontSense_1.2_Checksum>1221546243</ExtensisFontSense:FontSense_1.2_Checksum>
                  </rdf:Description>
               </rdf:li>
            </rdf:Bag>
         </ExtensisFontSense:slug>
      </rdf:Description>
   </rdf:RDF>
</x:xmpmeta>
                                                                                                    
                                                                                                    
                                                                                                    
                                                                                                    
                                                                                                    
                                                                                                    
                                                                                                    
                                                                                                    
                                                                                                    
                                                                                                    
                                                                                                    
                                                                                                    
                                                                                                    
                                                                                                    
                                                                                                    
                                                                                                    
                                                                                                    
                                                                                                    
                                                                                                    
                                                                                                    
                           
<?xpacket end="w"?></metadata>
<style type="text/css">
	.st0{display:none;}
	.st1{display:inline;fill:#A00404;}
	.st2{fill:#FFFFFF;}
	.st3{enable-background:new    ;}
	.st4{display:inline;fill:#FFFFFF;}
	.st5{font-family:'BrandonGrotesque-Regular';}
	.st6{font-size:252.4486px;}
	.st7{display:inline;}
</style>
<g id="Layer_1">
	<g id="Layer_3" class="st0">
		<rect x="-95" y="-72" class="st1" width="554" height="469"/>
	</g>
	<g id="Layer_1_1_">
		<title>plus</title>
		<path class="st2" d="M180.5,0C279.7,0.2,360.2,81.1,360,180.4c-0.2,99.5-81.1,179.9-180.7,179.6C79.9,359.8-0.3,278.7,0,178.9
			C0.3,80.1,81.3-0.2,180.5,0z M180,338.3c87.3,0.1,158.2-70.6,158.3-158c0-0.1,0-0.2,0-0.2c0.1-87.3-70.6-158.3-157.9-158.4
			c-0.1,0-0.1,0-0.2,0C92.9,21.5,21.9,92.1,21.7,179.5c0,0.2,0,0.5,0,0.7c0,87.3,70.8,158.1,158.2,158.1
			C179.9,338.3,179.9,338.3,180,338.3z"/>
	</g>
	<g id="Layer_4">
		<g class="st3">
			<path class="st2" d="M172.1,129.3l-18.2,14.1c-2,1.5-4,1.8-5.8-0.3l-4.8-5.3c-1.8-2-0.8-4.3,0.5-5.6L179.2,98h6.8
				c2.5,0,4.5,2.3,4.5,4.8v162.1c0,2.5-2,4.8-4.5,4.8h-9.1c-2.8,0-4.8-2.3-4.8-4.8V129.3z"/>
		</g>
	</g>
	<g id="Layer_5" class="st0">
		<text transform="matrix(1 0 0 1 113.915 268.4092)" class="st4 st5 st6">2</text>
	</g>
	<g id="Layer_6" class="st0">
		<text transform="matrix(1 0 0 1 117.3335 268.4092)" class="st4 st5 st6">3</text>
	</g>
	<g id="Layer_7" class="st0">
		<text transform="matrix(1 0 0 1 101.0312 268.4092)" class="st4 st5 st6">4</text>
	</g>
	<g id="Layer_2" class="st0">
		<path class="st4" d="M166.8,53.8v100.1h96.9v21.8H167V269h-21.7v-93h-97v-21.8H145V53.8H166.8L166.8,53.8z"/>
	</g>
</g>
<g id="Layer_2_1_" class="st0">
	<g id="Layer_4_1_" class="st7">
		<text transform="matrix(1 0 0 1 134.479 269.6738)" class="st2 st5 st6">1</text>
	</g>
</g>
</svg>
