<?xml version="1.0" encoding="utf-8"?>
<!-- Generator: Adobe Illustrator 19.2.1, SVG Export Plug-In . SVG Version: 6.00 Build 0)  -->
<svg version="1.1" id="Layer_1" xmlns="http://www.w3.org/2000/svg" xmlns:xlink="http://www.w3.org/1999/xlink" x="0px" y="0px"
	 viewBox="0 0 100 100" style="enable-background:new 0 0 100 100;" xml:space="preserve">
<style type="text/css">
	.st0{fill:#FFFFFF;}
</style>
<path class="st0" d="M15.2,66.9c-1.4,1.5-4.1,1.1-5.9-0.8l0,0c-1.8-1.9-2.2-4.6-0.7-6.1l20.8-21.2c1.4-1.5,4.1-1.1,5.9,0.8l0,0
	c1.8,1.9,2.2,4.6,0.7,6.1L15.2,66.9z"/>
<path class="st0" d="M45.3,9c-11.4,0-20.6,9.2-20.6,20.6s9.2,20.6,20.6,20.6s20.6-9.2,20.6-20.6C65.9,18.2,56.7,9,45.3,9z
	 M45.3,43.3c-7.6,0-13.8-6.2-13.8-13.8s6.2-13.8,13.8-13.8S59.1,22,59.1,29.6C59.1,37.2,52.9,43.3,45.3,43.3z"/>
<g>
	<rect x="49" y="70.8" class="st0" width="29.8" height="3.3"/>
	<rect x="49" y="61.4" class="st0" width="29.8" height="3.3"/>
	<rect x="49" y="52" class="st0" width="29.8" height="3.3"/>
	<path class="st0" d="M56.3,20L56,20.2c2.6,2.3,3.5,5.6,3.5,9.3c0,6.8-5.4,14-14.2,14c-3.6,0-8-2.1-10.2-4.6l-0.6,0.7v51.6H93V20
		H56.3z M86.6,84.9H40.9V44.5H58l4-18.1h24.5V84.9z"/>
</g>
</svg>
