<?xml version="1.0" encoding="utf-8"?>
<!-- Generator: Adobe Illustrator 19.2.1, SVG Export Plug-In . SVG Version: 6.00 Build 0)  -->
<svg version="1.1" id="Layer_1" xmlns="http://www.w3.org/2000/svg" xmlns:xlink="http://www.w3.org/1999/xlink" x="0px" y="0px"
	 viewBox="0 0 1680 768" style="enable-background:new 0 0 1680 768;" xml:space="preserve">
<style type="text/css">
	.st0{fill:#D74827;}
	.st1{fill:#7C1A0A;}
	.st2{fill:none;stroke:#5B1109;stroke-width:2;stroke-miterlimit:10;}
	.st3{fill:#75C0BF;}
	.st4{fill:#594E3B;}
	.st5{fill:#7B6B53;}
	.st6{fill:#FFFFFF;}
	.st7{fill:#8B4B20;}
	.st8{fill:#FFEAB0;}
	.st9{fill:#D9F1FD;}
	.st10{fill:#006837;}
	.st11{fill:#2B2B2B;}
	.st12{display:none;}
	.st13{display:inline;}
	.st14{fill:#E27614;}
	.st15{fill:#8E4B14;}
	.st16{fill:#3B3B3B;}
	.st17{fill:#79839B;}
	.st18{fill:none;stroke:#E27614;stroke-width:10;stroke-linecap:round;stroke-miterlimit:10;stroke-dasharray:0.5,10;}
</style>
<title>RW_bg_60s</title>
<g id="Layer_3">
	<rect class="st0" width="1680" height="768"/>
	<rect y="580.7" class="st1" width="1680" height="187.3"/>
</g>
<g id="Layer_4">
	<line class="st2" x1="0" y1="605.2" x2="427.1" y2="605.2"/>
	<line class="st2" x1="560.6" y1="607.8" x2="821.3" y2="607.8"/>
	<line class="st2" x1="1055.1" y1="607.8" x2="1163.9" y2="607.8"/>
	<line class="st2" x1="1192.2" y1="607.8" x2="1286.3" y2="607.8"/>
	<line class="st2" x1="1456.3" y1="607.8" x2="1647.1" y2="607.8"/>
	<line class="st2" x1="254.2" y1="630.9" x2="585" y2="630.9"/>
	<line class="st2" x1="617.9" y1="630.9" x2="654.5" y2="630.9"/>
	<line class="st2" x1="720.2" y1="651.8" x2="876.8" y2="651.8"/>
	<line class="st2" x1="896.1" y1="628.8" x2="986.7" y2="628.8"/>
	<line class="st2" x1="986.7" y1="672.2" x2="1062.2" y2="672.2"/>
	<line class="st2" x1="1113.6" y1="672.2" x2="1261.8" y2="672.2"/>
	<line class="st2" x1="518" y1="672.2" x2="664.9" y2="672.2"/>
	<line class="st2" x1="234.3" y1="698.4" x2="426" y2="698.4"/>
	<line class="st2" x1="0" y1="742.9" x2="518" y2="742.9"/>
	<line class="st2" x1="560.6" y1="742.9" x2="690.9" y2="742.9"/>
	<line class="st2" x1="1174.3" y1="719.3" x2="1677.4" y2="719.3"/>
	<line class="st2" x1="1465.2" y1="698.4" x2="1601.1" y2="698.4"/>
	<line class="st2" x1="110.4" y1="765.4" x2="632.6" y2="765.4"/>
	<line class="st2" x1="688.1" y1="765.4" x2="795.6" y2="765.4"/>
	<line class="st2" x1="1117" y1="765.4" x2="1342.3" y2="765.4"/>
	<path class="st2" d="M371.5,651.8H657c8,0.3,15.9,1.9,23.1,4.8l29.3,13c7.3,2.9,15.1,4.5,23.1,4.8h63.1"/>
	<path class="st2" d="M107.6,719.3h492.2c8-0.3,15.9-2,23-5l28.3-13.1c7.1-3,15-4.7,23-5h122.9c8-0.3,15.6-2.3,22.4-5.7l18.4-10.5
		c6.8-3.5,14.4-5.4,22.4-5.7h26.3c8,0.3,15.7,2.2,22.6,5.4l22.1,11.6c6.9,3.3,14.6,5.1,22.6,5.4h273.3c8-0.3,15.7-2.2,22.5-5.5
		l21.4-11.5c6.9-3.3,14.6-5.2,22.5-5.5h15.4c8,0.3,15.9,2,22.9,5l29.6,14c7.1,3,14.9,4.7,22.9,5h19.2c6.8,0,16.5-2.9,21.6-6.5
		l16-11.1c5.2-3.6,14.9-6.5,21.6-6.5H1680"/>
	<path class="st2" d="M679.7,628.8H829c7.9-0.3,15.6-2.3,22.3-5.9l15.5-9.2c6.6-3.5,14.3-5.6,22.3-5.9h105.5
		c8,0.3,15.9,2.1,22.9,5.2l22,10.7c7,3.1,14.9,4.9,22.9,5.1h246.5c8-0.3,15.6-2.3,22.4-5.8l21-12.1c6.8-3.5,14.4-5.4,22.4-5.8h19.8
		c8,0.3,15.7,2.2,22.5,5.6l26.1,14.4c6.8,3.4,14.5,5.3,22.5,5.6H1680"/>
	<path class="st2" d="M916.6,651.8h392.1c8,0.3,15.9,1.9,23,4.9l27.5,12.7c7.1,3,15,4.7,23,4.9h16.6c6.8,0,16.5-3,21.5-6.6l13-9.3
		c5-3.6,14.8-6.6,21.5-6.6h222.4"/>
	<path class="st2" d="M672.6,719.3h126.8c7.9-0.3,15.6-2.3,22.3-5.9l18.1-10.7c6.6-3.5,14.3-5.6,22.3-5.9h21.8
		c8,0.3,15.6,2.3,22.4,5.7l19.7,11.1c6.8,3.4,14.5,5.4,22.4,5.7h191.9"/>
	<path class="st2" d="M735.1,740.3h58.5c8,0.3,15.7,2.2,22.5,5.6l20.8,11.4c6.8,3.4,14.5,5.3,22.5,5.6h26.9c7.9-0.3,15.5-2.4,22-6.1
		l16.6-10.3c6.5-3.7,14.1-5.8,22-6.1h398.5c8,0.3,15.9,1.9,23.1,4.8l35.1,15.5c7.3,2.9,15.1,4.5,23.1,4.8h253.3"/>
	<ellipse class="st2" cx="872.8" cy="730.9" rx="27.1" ry="22"/>
	<ellipse class="st2" cx="1390" cy="640.8" rx="27.3" ry="22.2"/>
	<ellipse class="st2" cx="872.8" cy="730.9" rx="9" ry="7.3"/>
	<ellipse class="st2" cx="1390" cy="640.8" rx="9" ry="7.3"/>
	<path class="st2" d="M0,651.3h49.3c7.9-0.3,15.6-2.3,22.3-5.9l18.1-10.7c6.6-3.6,14.3-5.6,22.3-5.9h21.8c8,0.3,15.6,2.3,22.4,5.7
		l19.7,11.1c6.8,3.4,14.5,5.4,22.4,5.7H390"/>
	<path class="st2" d="M0,672.2h43.5c8,0.3,15.7,2.2,22.5,5.6l20.8,11.4c6.8,3.4,14.5,5.3,22.5,5.6h26.9c7.9-0.3,15.5-2.4,22-6.1
		l16.6-10.3c6.5-3.7,14.1-5.8,22-6.1H475c8,0.2,16,1.9,23.1,4.8l35.1,15.5c7.3,2.9,15.1,4.5,23.1,4.8h57.9"/>
	<ellipse class="st2" cx="122.7" cy="662.8" rx="27.1" ry="22"/>
	<ellipse class="st2" cx="122.7" cy="662.8" rx="9" ry="7.3"/>
	<line class="st2" x1="1544.7" y1="742.9" x2="1680" y2="742.9"/>
</g>
<g id="Layer_2">
	<path class="st3" d="M476.4,410.6c0-13.2,11.6-23.9,33.7-23.9h338.3c19.6,0,41.6,15,50.5,34.6s3.4,49,44.1,52s14.1,2.5,14.1,2.5
		s-0.3-7.6,3.7-7.6h33.1c4,0,8,3.1,8,4.9s5.5,0.6,8,0.6s4,0.9,4,3.7V553c0,2.8-1.5,3.7-4,3.7s-8-1.2-8,0.6s-4,4.9-8,4.9h-33.1
		c-4,0-3.7-7.7-3.7-7.7s26.6-0.6-14.1,2.5s-35.2,32.5-44.1,52s-30.9,34.6-50.5,34.6H510c-22,0-33.7-10.7-33.7-23.9L476.4,410.6
		L476.4,410.6z"/>
	<rect x="584.4" y="399" class="st4" width="8.6" height="158.6"/>
	<rect x="681.5" y="408.3" class="st4" width="8.6" height="149.2"/>
	<path class="st5" d="M527.5,538.5h-34.3v67.7c0,11.9,10.7,24.2,31.5,24.2H826c0,0,0.3-31.2,24.8-51.1s49.9-32.8,75.9-35.8
		s30.3-4.9,30.3-4.9H747.9v19H534.2L527.5,538.5z"/>
	<path class="st6" d="M753.7,492c0.3,0.9,0,34.9,0,34.9h106.8c0,0-39.5-9.2-67.3-17.5S753.7,492,753.7,492z"/>
	<path class="st6" d="M544,469.1h85.7c0,0,16.2,18.7,16.2,40.4c0,21.7-17.1,37.4-17.1,37.4h-82.7c0,0,14.7-23.3,14.7-38.9
		S544,469.1,544,469.1z"/>
	<path class="st6" d="M553.1,408.3h65c0,0,12.3,12.4,12.3,26.8s-13,24.8-13,24.8h-62.7c0,0,11.1-15.4,11.1-25.8
		S553.1,408.3,553.1,408.3z"/>
	<path class="st6" d="M653.9,417.5h65c0,0,12.3,12.4,12.3,26.8s-13,24.8-13,24.8h-62.7c0,0,11.1-15.4,11.1-25.8
		S653.9,417.5,653.9,417.5z"/>
	<path class="st6" d="M649.3,475.3H725c0,0,14.3,17,14.3,36.8s-15.2,34-15.2,34H651c0,0,13-21.2,13-35.5S649.3,475.3,649.3,475.3z"
		/>
	<path class="st7" d="M1042.4,477.6c0-6.1-6.4-3.4-14.7,0c-8.3,3.4-60.3,17.1-60.3,17.1v41c0,0,64.3,18.1,68.9,19.6s6.1,3.4,6.1-1.8
		V477.6z"/>
	<path class="st7" d="M1028.2,494.2c0,1-0.8,1.8-1.8,1.8l0,0h-1.7c-1,0-1.8-0.8-1.8-1.8l0,0l0,0c0-1,0.8-1.8,1.8-1.8l0,0h1.7
		C1027.4,492.4,1028.2,493.2,1028.2,494.2L1028.2,494.2L1028.2,494.2L1028.2,494.2z"/>
	<path class="st7" d="M1005.7,523.2c0,1-0.8,1.8-1.8,1.8l0,0h-1.7c-1,0-1.8-0.8-1.8-1.8l0,0l0,0c0-1,0.8-1.8,1.8-1.8l0,0h1.7
		C1004.9,521.4,1005.7,522.2,1005.7,523.2L1005.7,523.2L1005.7,523.2L1005.7,523.2z"/>
	<path class="st7" d="M1038.8,541.1c0,1-0.8,1.8-1.8,1.8l0,0h-1.7c-1,0-1.8-0.8-1.8-1.8l0,0l0,0c0-1,0.8-1.8,1.8-1.8l0,0h1.7
		C1038,539.3,1038.8,540.1,1038.8,541.1L1038.8,541.1L1038.8,541.1z"/>
	<path class="st7" d="M985.6,507.5c0,1-0.8,1.8-1.8,1.8l0,0h-1.7c-1,0-1.8-0.8-1.8-1.8l0,0l0,0c0-1,0.8-1.8,1.8-1.8l0,0h1.7
		C984.8,505.7,985.6,506.5,985.6,507.5L985.6,507.5L985.6,507.5z"/>
	<path class="st7" d="M975.5,528.5c0,1-0.8,1.8-1.8,1.8l0,0H972c-1,0-1.8-0.8-1.8-1.8l0,0l0,0c0-1,0.8-1.8,1.8-1.8l0,0h1.7
		C974.7,526.7,975.5,527.5,975.5,528.5L975.5,528.5L975.5,528.5z"/>
	<path class="st8" d="M777.4,612.2c5.6-0.6,13.3-5.9,15.7-13.5c-0.8-0.3-1.5-0.5-2.3-0.8c-1.6-0.4-2.5-2.1-2-3.6
		c0.2-0.6,0.5-1.1,1-1.5c3.3-3.2,6.8-6.3,10.1-9.5c0.7-0.8,1.8-1.1,2.8-0.8c1.1,0.3,1.9,1.2,2,2.4c0.8,4.6,1.5,9.2,2.2,13.8
		c0.2,1.6-0.9,3-2.5,3.3c-0.4,0-0.7,0-1.1-0.1c-0.8-0.2-1.6-0.5-2.4-0.8c-5.4,13-15,20.1-29.3,19.7c-11-0.3-21.7-7.8-25.7-19.7
		l-2,0.7c-2.4,0.7-4.4-0.8-4-3.3c0.7-4.6,1.4-9.2,2.2-13.8c0.2-1.5,1.6-2.5,3.1-2.3c0.5,0.1,1.1,0.3,1.5,0.7c3.5,3.2,7,6.5,10.5,9.8
		c1.2,1.1,1.2,2.9,0.2,4.1c-0.3,0.3-0.7,0.6-1.2,0.8c-0.8,0.3-1.7,0.6-2.5,0.9c1.7,6,8.2,12.4,16.1,13.6v-1.1c0-14.3,0-28.6,0-42.8
		c0.1-0.6-0.3-1.2-0.8-1.5c-4.2-2.2-6.3-7.1-4.9-11.7c1.6-5.3,7.1-8.3,12.4-6.7c3.8,1.1,6.6,4.4,7.1,8.3c0.6,4.2-1.5,8.2-5.3,10.2
		c-0.5,0.2-0.9,0.8-0.8,1.4c0,14.3,0,28.6,0,42.8C777.3,611.5,777.3,611.8,777.4,612.2z M777.5,558.2c0-2.3-1.9-4.1-4.1-4.1
		c-2.3,0-4.1,1.9-4.1,4.1c0,2.3,1.9,4.1,4.1,4.1c0,0,0,0,0.1,0C775.7,562.2,777.5,560.4,777.5,558.2L777.5,558.2L777.5,558.2z"/>
	<path class="st8" d="M789,577.4c0,1.8-1.5,3.3-3.3,3.3h-24.3c-1.8,0-3.3-1.5-3.3-3.3l0,0c0-1.8,1.5-3.3,3.3-3.3l0,0h24.3
		C787.5,574.1,789,575.6,789,577.4L789,577.4L789,577.4z"/>
	<rect x="513.6" y="635.6" class="st7" width="35.7" height="51.1"/>
	<rect x="811.3" y="635.6" class="st7" width="35.7" height="51.1"/>
	<path class="st9" d="M398.9,561.5c10.6,3.5,16.5,11.5,16.5,22.8c0,22,0,43.9,0,65.8c0,9-5.6,14.7-14.6,14.7c-17.4,0-34.9,0-52.3,0
		c-9,0-14.6-5.7-14.6-14.7c0-22,0-43.9,0-65.9c0-11.2,5.8-19.3,16.5-22.8h48.5V561.5z M352,612.6c0,5.4,0,10.8,0,16.3
		c0,4.3,0,8.7,0,13.1c-0.1,2.5,1.8,4.6,4.2,4.7h0.1c2.5,0,4.5-1.9,4.6-4.8c0-0.3,0-0.7,0-1c0-18.8,0-37.6,0-56.4c0-0.7,0-1.3-0.1-2
		c-0.5-2-1.8-3.7-3.8-3.5c-1.6,0.2-3.1,0.9-4.3,2.1c-0.7,0.7-0.7,2.3-0.7,3.5C352,593.9,352,603.2,352,612.6L352,612.6z"/>
	<path class="st10" d="M352,555.3c0-3.6,0-7.2,0-10.8c0-4.2,1.5-5.7,5.6-5.7h4.3c2.2-9.8,4.4-19.5,6.5-29.2c0.5-2.4,1-4.8,1.6-7.2
		c0.6-2.8,2.3-4.3,4.6-4.3c2.3,0,4,1.6,4.6,4.3c2.5,11.2,5,22.4,7.5,33.7c0.2,0.9,0.4,1.7,0.7,2.8c1.5,0,3,0,4.5,0
		c3.8,0,5.4,1.6,5.4,5.4s0,7.6,0,11.3"/>
	<path class="st11" d="M1033.3,680l9.1-10.7c2.2-2.5,4.3-5,6.5-7.5c0.5-0.5,1.2-0.8,1.9-0.9c16,0,31.9,0,47.9,0
		c0.7,0,1.4,0.3,1.8,0.8c5.1,5.9,10.2,11.8,15.2,17.7c0.1,0.2,0.2,0.4,0.3,0.5L1033.3,680L1033.3,680z"/>
	<path class="st11" d="M1116.3,577.8l-10.1,11.8c-1.4,1.6-2.7,3.3-4.2,4.8c-0.6,0.6-1.3,0.9-2.1,0.9c-16.8,0.1-33.7,0.1-50.5,0
		c-0.6,0-1.3-0.2-1.8-0.6c-4.7-5.4-9.4-10.9-14-16.3c-0.1-0.2-0.2-0.3-0.2-0.5L1116.3,577.8L1116.3,577.8z"/>
	<path class="st8" d="M1029.5,602.3c1,2.1,2,3.9,2.8,5.7c0.1,0.4,0.2,0.9,0.1,1.3c-1.4,6.7,0.4,13.6,4.8,18.8
		c9.1,11,5.7,26-3.2,33.9c-0.3,0.2-0.6,0.4-1,0.7l-2.9-3.7c3.2-2.7,5.5-6.3,6.7-10.3c1.9-6.5,0.8-12.5-3.5-17.7
		c-7-8.3-7.6-17.6-4.4-27.5C1029,603.2,1029.2,602.9,1029.5,602.3z"/>
	<path class="st8" d="M1049.9,653.5c-0.8-1.4-0.8-3.1-0.1-4.6c0.2-0.4,0.6-0.7,1-0.8c16.2-5.9,32.3-11.8,48.5-17.7
		c0.1,0,0.3-0.1,0.4-0.1c1.6,2.1,0.9,4.7-1.5,5.6l-46.9,17L1049.9,653.5z"/>
	<path class="st8" d="M1050,636.5c-1.5-2.6-0.7-4.8,1.8-5.8l46.6-17c1.6-0.6,2-0.3,2.1,1.4c0.2,2.3-0.3,3.2-2.5,3.9l-46.6,17
		L1050,636.5z"/>
	<path class="st8" d="M1050,627.9c-1.5-2.5-0.7-4.8,1.8-5.7l46.5-16.9c1.8-0.7,2.2-0.3,2.3,1.6c0.1,2.2-0.4,2.8-2.5,3.6l-46.5,16.9
		C1051,627.6,1050.5,627.8,1050,627.9z"/>
	<path class="st8" d="M1049.3,642.7c0-2.2,0.4-2.7,2.4-3.4l46.6-17c1.7-0.6,2.2-0.3,2.2,1.5c0.1,2.2-0.4,3-2.4,3.7l-46.5,16.9
		C1049.6,645.1,1049.3,644.9,1049.3,642.7z"/>
	<path class="st8" d="M1050,619.5c-1.5-2.6-0.8-4.8,1.7-5.8c13.5-4.9,26.9-9.9,40.4-14.6c2.5-0.9,5.4-0.6,8.2-0.9
		c0.3,2.4,0,3-1.8,3.6L1050,619.5z"/>
	<path class="st8" d="M1049.7,657.1c0.4-0.2,0.9-0.4,1.3-0.6l47.5-17.3c1.5-0.5,1.9-0.3,2,1.3c0.1,2,0,3.2-2.5,4.1
		c-11.5,4-22.9,8.3-34.3,12.4c-1.2,0.4-2.5,0.6-3.8,0.7c-2.9,0.1-5.8,0-8.7,0c-0.5,0-1,0-1.5-0.1V657.1z"/>
	<path class="st3" d="M1045.8,629.1l-8.9-17.6c-2-4-4-7.9-6-11.9c-1.4-2.9-0.7-5.6,1.8-6.9s5.3-0.3,6.8,2.6
		c2.1,4.1,4.2,8.2,6.2,12.3c0.3,0.5,0.5,1.1,0.5,1.8c0,6.4,0,12.8,0,19.2c0,0.2,0,0.4,0,0.6L1045.8,629.1z M1035.1,595.3
		c-0.9-0.1-1.8,0.5-1.9,1.5c-0.1,0.4,0.1,0.8,0.3,1.2c1.8,3.6,3.6,7.2,5.4,10.8c0.5,1,1.2,1.5,2.2,1s1.1-1.4,0.6-2.4
		c-1.8-3.6-3.7-7.3-5.5-10.9C1036,596,1035.6,595.6,1035.1,595.3z"/>
	<path class="st8" d="M1050,611c-1.5-2.6-0.7-4.9,1.8-5.8l17.3-6.3c0.5-0.2,1-0.4,1.5-0.4c4.2,0,8.4,0,12.8,0.3L1050,611z"/>
	<path class="st8" d="M1072.2,657.3l27.5-10c1.5,2.4,0.9,5.5-1.5,7.1c-0.2,0.1-0.4,0.2-0.6,0.3c-3.2,1.5-6.5,3.1-10.3,3
		c-5-0.1-10,0-15,0L1072.2,657.3z"/>
	<path class="st8" d="M1059.9,598.8l-10.2,3.8l-0.5-4h10.7V598.8z"/>
</g>
<g id="Layer_2_1_" class="st12">
	<g id="Layer_5" class="st13">
		<path class="st14" d="M1350.7,470c23.4,2.5,44.7,9.6,62.4,25.4c11.2,9.9,18.9,22,20.2,37.3c1.5,17.4-5.5,31.5-18.3,42.9
			c-15.1,13.5-33.3,19.8-53.2,21.7c-24.5,2.4-47.8-2-69.2-14.4c-9.5-5.4-17.7-12.7-24.1-21.5c-15.2-21.1-13.5-46.5,4.5-65.2
			c14.8-15.3,33.5-22.5,54.2-25C1335,470.3,1342.9,470.4,1350.7,470z M1352.5,478c-24.4-1.8-46,3.6-61.8,14.7
			c-27.3,19.1-29.7,51.5-5.4,74.3c14.2,13.4,31.6,20.2,50.7,22.5c23.7,2.9,46.3-0.6,66.1-14.9c26.2-18.9,28.4-50.1,5.3-72.6
			c-15.9-15.4-35.7-21.9-54.9-23.8L1352.5,478z"/>
		<path class="st14" d="M1401.2,668.3c-11.8,12.5-45.2,22-75.2,23.1c-8.4,0.3-16.7-0.2-24.8-0.7c-4.4-0.1-8.6-1.4-12.2-3.9
			c-7.1-5-16.2-6.9-26.9-5.9c-1.5,0.2-3,0.2-4.4-0.2c-18.4-7.6-30.1-17.1-31.9-29.9c-2.2-15.2,14.5-29.5,39.9-37.3
			c17.4-5.3,34.3-7.2,51.7-7.1c19.4,0.1,37.9,2.6,55.5,8.8c16.8,5.8,30.8,14.1,36.5,27.1C1409.7,643.2,1412,656.9,1401.2,668.3z
			 M1277.3,679c24,5.6,48.9,6.6,75,0.9c16-3.5,29.3-9.3,37.8-18c12.5-13,7-27.6-10.8-37.9c-11.6-6.7-25-10.6-39.6-12.6
			c-20.4-2.8-40.4-2.6-61.7,2.3c-11.6,2.7-22.3,6.7-30.8,13c-12.5,9.3-14.7,18.3-10.4,27.4C1242.5,666.1,1257.6,674.1,1277.3,679z"
			/>
		<path class="st15" d="M1289,691.3c-10.3,4.2-28-0.6-29.2-7.2C1268.7,680.5,1284.5,684.1,1289,691.3z"/>
		<path class="st15" d="M1351,600.5l-0.4,5.4l-19.3-1.4l0.4-5.4L1351,600.5z"/>
		<path class="st15" d="M1353.5,600.2l11.7-0.9l-0.7,9.5C1353.9,608.8,1352.1,607.4,1353.5,600.2z"/>
		<path class="st15" d="M1329.2,598.5c1.2,5.4-0.4,7.5-5.4,7c-2.1-0.2-4.2,0.3-6.6,0.5l0.7-9.9L1329.2,598.5z"/>
		<path class="st15" d="M1343.4,591.3c-17.8-1.6-33.7-5.5-47.4-15c-7.1-4.8-13.5-10.6-18.8-17.3c-14.7-18.9-12.8-42.8,4.3-59.6
			c14.1-14,31.7-20.2,51.1-22c21.9-2,42.8,1.8,61.6,13.5c7.1,4.4,13.5,9.9,19,16.3c16.9,19.9,14.8,46-4.6,63.6
			c-15.4,14-34.1,19.5-54.5,20.5C1350.1,591.5,1346.1,591.3,1343.4,591.3z"/>
		<path class="st16" d="M1343.7,585.5c-16-1.4-30.3-4.9-42.6-13.5c-6.4-4.3-12.1-9.5-16.9-15.5c-13.2-16.9-11.4-38.4,3.8-53.6
			c12.7-12.6,28.5-18.1,45.9-19.8c19.7-1.8,38.4,1.6,55.3,12.1c6.4,4,12.2,8.9,17.1,14.6c15.2,17.9,13.3,41.3-4.1,57.1
			c-13.8,12.6-30.7,17.5-48.9,18.5C1349.7,585.6,1346.1,585.5,1343.7,585.5z"/>
		<path class="st15" d="M1311.8,684.4c-43.9-3.2-82.2-15.1-80.6-37s42-42.7,85.9-39.5s84.5,15.4,82.9,37.3
			S1355.8,687.5,1311.8,684.4z"/>
		<path class="st16" d="M1328,611c18.6,1.6,36,5.5,50.2,14.1c24.5,14.9,20.1,36.7-17.7,48c-29.7,8.9-61.4,8.6-90.9-0.8
			c-15.8-5-26.5-12.2-30.7-21.6c-6.5-14.7,10.3-29.2,37.2-35.9C1293.7,610.5,1310.6,609.7,1328,611z"/>
		<path class="st17" d="M1345.1,537.5c0-9.8,8-17.8,17.8-17.8s17.8,8,17.8,17.8s-8,17.8-17.8,17.8S1345.1,547.3,1345.1,537.5z
			 M1349.9,537.5c0,7.2,5.8,13.1,13,13.2c7.2,0,13.1-5.8,13.2-13s-5.8-13.1-13-13.2c-0.1,0-0.2,0-0.2,0
			C1355.7,524.5,1349.9,530.3,1349.9,537.5L1349.9,537.5z"/>
		<path class="st17" d="M1340.6,537.6c-0.4,9.5-4.3,17.2-12.3,22.6c-1.4,1-3.1,1.8-4.3-0.1s0.1-3,1.7-4c13.6-9.3,13.5-28-0.1-37.3
			c-1.5-1-2.7-2.2-1.5-4s2.9-0.9,4.3,0C1336.3,520.3,1340.3,528,1340.6,537.6z"/>
		<path class="st0" d="M1322.1,537.6c0.2,0.2,0.4,0.4,0.6,0.6c1.8,2.1,1.7,5.2-0.2,7.2c-1.2,1.4-3,2.3-4.9,2.3
			c-0.8,0-1.5-0.2-2.2-0.5c-1.3-0.7-2.6-1.6-3.7-2.7c-2-1.9-3.8-4.1-5.4-6.4c-0.3-0.3-0.3-0.8,0-1.1c1.9-2.9,4.2-5.5,6.8-7.7
			c0.5-0.4,1.1-0.8,1.6-1.1c1.7-1.1,3.7-1.1,5.5-0.2c1.8,0.7,3.1,2.3,3.5,4.2c0.5,1.9-0.2,3.9-1.6,5.2L1322.1,537.6
			C1322.1,537.5,1322.1,537.6,1322.1,537.6z"/>
		<path class="st17" d="M1312.8,643.6c4-8.3,15.7-14,26.8-13.3c11.4,0.7,19.4,7.9,17.4,16.9c-2.3,10.2-15.6,17.8-29.4,16.1
			C1314.5,661.9,1308.4,652.8,1312.8,643.6z M1318.3,644c-3,6.7,1.9,13.3,11.2,14.2c9.6,1,19.4-4.5,21.2-11.6
			c1.7-6.6-4.3-12-12.9-12.5C1329.6,633.7,1321.1,638,1318.3,644L1318.3,644z"/>
		<path class="st17" d="M1307.6,643.3c-4.9,8.7-13.6,15.7-26.3,20.3c-2.4,0.8-4.9,1.5-5-0.7c-0.1-2,2.1-3,4.5-3.9
			c21-7.4,29.4-23.7,19.1-31.6c-1.1-0.8-1.7-1.7,0.2-2.8c1.3-1,3.1-0.8,4.2,0.2C1310.1,629.2,1311.3,635.3,1307.6,643.3z"/>
		<path class="st0" d="M1287.3,641.6c0.1,0.2,0.2,0.4,0.3,0.6c0.8,1.9-0.9,4.6-4.1,6.3c-2,1.1-4.4,1.7-6.7,1.5
			c-0.7-0.1-1.4-0.3-2-0.7c-1-0.7-1.8-1.6-2.3-2.7c-0.9-1.8-1.5-3.8-1.7-5.8c0-0.4,0.3-0.8,0.6-0.9c3.5-2.1,7.2-3.9,11.1-5.4
			c0.7-0.3,1.5-0.5,2.2-0.7c1.8-0.7,3.9-0.6,5.6,0.2c1.4,0.8,2.1,1.9,1.6,3.5s-2,3-4.3,4.1L1287.3,641.6L1287.3,641.6z"/>
		<path class="st18" d="M1411.4,657.7h61c5.5,0,10,4.5,10,10v10.1c0,5.5-4.5,10-10,10h-51c-5.5,0-10,2.4-10,5.3s4.5,5.3,10,5.3h81.4
			c5.5,0,10,4.5,10,10v0.9c0,5.5-4.5,10-10,10h-268.1"/>
	</g>
</g>
</svg>
