<?xml version="1.0" encoding="utf-8"?>
<!-- Generator: Adobe Illustrator 19.2.1, SVG Export Plug-In . SVG Version: 6.00 Build 0)  -->
<svg version="1.1" id="Layer_1" xmlns="http://www.w3.org/2000/svg" xmlns:xlink="http://www.w3.org/1999/xlink" x="0px" y="0px"
	 viewBox="0 0 1680 768" style="enable-background:new 0 0 1680 768;" xml:space="preserve">
<style type="text/css">
	.st0{fill:#0B9830;}
	.st1{fill:#525DBA;}
	.st2{fill:#1B1464;stroke:#1DCFA8;stroke-width:10;stroke-miterlimit:10;}
	.st3{fill:#1DCFA8;}
	.st4{fill:none;stroke:#1B1464;stroke-width:20;stroke-miterlimit:10;}
	.st5{fill:#1B1464;}
	.st6{fill:#9A0047;}
	.st7{fill:#D10257;}
	.st8{fill:none;stroke:#1B1464;stroke-width:5;stroke-miterlimit:10;}
	.st9{fill:#EA506A;}
	.st10{fill:#D4145A;}
	.st11{fill:#576093;}
	.st12{fill:#F7F6F5;}
	.st13{fill:#C1272D;}
	.st14{fill:#D6BCB4;}
	.st15{fill:#CCB382;}
	.st16{fill:#7F622E;}
	.st17{fill:#C3C8D6;}
	.st18{display:none;}
	.st19{display:inline;fill:none;stroke:#1B1464;stroke-width:9;stroke-miterlimit:10;}
	.st20{display:inline;fill:#C1272D;}
	.st21{display:inline;fill:#EA506A;}
	.st22{display:inline;fill:none;stroke:#1B1464;stroke-width:9;stroke-linecap:round;stroke-miterlimit:10;}
	.st23{display:inline;fill:#1DCFA8;}
	.st24{display:inline;fill:#9A0047;}
</style>
<g id="Layer_1_1_">
	<g id="Shape_194_copy">
		<g>
			<rect y="669" class="st0" width="1680" height="100"/>
		</g>
	</g>
	<rect x="387.8" y="160.8" class="st1" width="142.8" height="194.2"/>
	<rect x="402.2" y="148.9" class="st2" width="142.8" height="194.2"/>
	<circle class="st3" cx="589.4" cy="649.4" r="44.4"/>
	<path class="st4" d="M558.6,626.9c0,0-19.6-10.7-20.7-34c-1.6-33.7,43.1-33.7,52.9-33.7s56,2.1,52.8,33.8
		c-2.3,22.9-21.1,37.5-21.1,37.5"/>
	<path class="st5" d="M963.2,321.1c3.1-11.9,6.2-24.2,9.5-36.4c2.3-8.6,10.3-11.6,16.6-6.5c4.6,3.7,3.7,8.5,2.4,13.3
		c-6.1,23.1-11.9,46.3-18.5,69.3c-3.7,13-5.5,25.9-4.8,39.5c2.3,44.8,3,89.6,6.3,134.3c1.3,18.2,7.4,36,11.7,53.9
		c4.4,18.8,9.1,37.5,13.9,56.2c1,3.9,2.7,7.8,4.9,11.2c9.7,15.3,0.5,35.2-17.5,37.4c-1.7,0.2-3.5,0.2-5.3,0.2
		c-74.3,0.1-148.5,0.3-222.8,0.3c-37.6,0-67.5-24.7-75-61.4c-8.6-42,22.7-84.7,65.3-89c38.5-4.1,86.1,31.7,86.1,31.7
		c16,7.4,103.6,45.3,122.3,53.9c-0.7-18-1.3-34.8-2.2-51.6c-0.6-12.7-0.3-25.6-2.6-38c-3.4-18.5-9.2-36.6-13.1-55
		C932,445.7,918.2,408.3,915,369l4.2-42.1c1-13.4,1.7-26.7,2.7-40.1c0.6-7.4,4.5-11,10.7-10.5c6.4,0.5,9.7,4.9,9.2,12.6
		c-0.8,12.2-1.7,24.5-2.6,37.9l-2.2,36.9c-0.8,10.2-2.1,20.3,1.1,30.5c4.3,13.8,7.3,28,10.8,42c1.7-27-2.6-44.8,6.4-82.1
		C964.4,316.7,963.2,321.1,963.2,321.1z M806.7,619c0-27.1-21.5-48.4-48.6-48.3c-26.8,0.1-48.1,21.4-48.1,48.1
		c-0.1,27.1,21.3,48.6,48.3,48.6C785.4,667.5,806.8,646.1,806.7,619z"/>
	<polygon class="st5" points="746.5,453.2 725.4,453.2 774.2,566.6 795.3,566.6 	"/>
	<path class="st6" d="M774.2,464.2H700c-4.6,0-8.4-3.8-8.4-8.4v-5.3c0-4.6,3.8-8.4,8.4-8.4h74.2c4.6,0,8.4,3.8,8.4,8.4v5.3
		C782.6,460.5,778.9,464.2,774.2,464.2z"/>
	<g>
		<path class="st3" d="M1024.6,665.3c0-5.8,0-11.7,0-17.5c0-0.9,0.3-1.4,1-1.8c4.6-2.8,4.7-8.4,0.1-11.3c-0.8-0.5-1.1-1.1-1.1-2.1
			c0.1-3.1,0-6.3,0-9.4c0-4.8,3.2-8.4,8-8.6c6-0.2,12-0.2,17.9,0c4.8,0.2,8.1,3.8,8.1,8.6c0,3.2,0,6.3,0,9.5c0,0.8-0.2,1.4-1,1.7
			c-4.8,2.1-5.1,8.4-0.2,11.3c0.7,0.4,0.9,0.9,0.9,1.7c0,11.5,0,23,0,34.5c0,5.1-3.6,8.7-8.7,8.8c-5.5,0-11,0-16.5,0
			c-5.1,0-8.7-3.7-8.7-8.8C1024.6,676.4,1024.6,670.8,1024.6,665.3z"/>
		<path class="st7" d="M1038.5,603.1c0-2.9,0-5.5,0-8.2c2,0,3.9,0,6.1,0c0,1.9,0,3.8,0,5.7c0,0.5,0,1,0,1.5c-0.1,0.8,0.3,1,1,1
			c1.3,0,2.6,0,4,0c0,2.1,0,4,0,6.1c-5.4,0-10.7,0-16.1,0c0-2,0-3.9,0-6.1C1035.1,603.1,1036.7,603.1,1038.5,603.1z"/>
	</g>
	<g>
		<path class="st8" d="M1149,682h85.5c11,0,20,4.7,20,10.3s-9,10.3-20,10.3h-30.2c-11,0-20,4.4-20,9.7s9,9.7,20,9.7h80.7
			c11,0,20,7,20,15.4c0,8.5-9,15.4-20,15.4h-115.3"/>
	</g>
	<path class="st9" d="M1166.1,690h-34c-4.4,0-8-3.6-8-8l0,0c0-4.4,3.6-8,8-8h34c4.4,0,8,3.6,8,8l0,0
		C1174.1,686.4,1170.5,690,1166.1,690z"/>
	<path class="st9" d="M1172.4,761h-34c-4.4,0-8-3.6-8-8l0,0c0-4.4,3.6-8,8-8h34c4.4,0,8,3.6,8,8l0,0
		C1180.4,757.4,1176.8,761,1172.4,761z"/>
	<circle class="st6" cx="758.3" cy="619" r="49.5"/>
	<path class="st10" d="M758.7,655.8c-20.7,0.1-36.9-15.8-37.1-36.5c-0.2-20.6,15.8-37,36.4-37.2c20.1-0.3,37,16.4,37.3,36.7
		C795.5,639.2,779.2,655.7,758.7,655.8z"/>
	<g>
		<polygon class="st6" points="439.9,338.6 467,338.6 471.5,296.6 444.4,296.6 		"/>
		<polygon class="st6" points="495.8,338.6 468.6,338.6 464.2,296.6 491.3,296.6 		"/>
		<g>
			<rect x="446.1" y="276" class="st11" width="45.6" height="6.9"/>
			<rect x="446.1" y="282.9" class="st12" width="45.6" height="6.9"/>
			<rect x="446.1" y="289.7" class="st13" width="45.6" height="6.9"/>
		</g>
		<ellipse class="st14" cx="474.2" cy="205.4" rx="12.8" ry="17.4"/>
		<path class="st14" d="M463.4,214.6c0.4,4.1,0.4,7.8-5.9,9.8s-7,3.5-11.2,4.2s-13.1,3.5-15.1,12.5s-1.1,8.7-2,12.7
			c-0.9,4-2.6,9.4-1.7,14.2s1.7,3.3,1.3,6.3c-0.4,3.1-2.3,9.7,0.8,15.9s9.1,12.3,9.1,12.3h3.7l5.1-4.6c0,0,1.3-6.1-2.1-13.3
			c-3.4-7.2-3.4-8.3-3.4-8.3l3.4-7l1.9,6.8l28.7,0.1l14.9-0.1c0,0-0.7-3.3,0-6c0.7-2.6,1.5-6.8,1.5-8.5s-1.3,10.7,0,14.6
			s7,9.4,7,9.4s-0.9,6.1,0,9.6s1.3,10.3,1.3,10.3l10.1,2.8c0,0,2.7-9,3.5-14.4c1.3-9-3.5-16.4-3.5-16.4s0.9-9-0.4-13.1
			s-2.8-10.5-2.8-14.9s-2.5-12.6-10.5-13.8c-4-0.6-5.1-3.5-10.4-6.1c-5.2-2.6-6.2-2.8-6.2-2.8s2.4-2.8,2.2-14.6
			S463.4,214.6,463.4,214.6z"/>
		<path d="M463.2,211.2c0,0-3.3-3.5-3.5-5s-1.5-6.3-1.1-8.7s-0.5-5.2,1.7-6.6s3.3-2,4.9-3.9s1.3-1.1,3.5-2.4c2.2-1.3,3.7,0,5.5-2.2
			s8.3,3.1,9.6,4.6c1.3,1.5,3.1,3.1,4.2,6.6s3.1,4.6,3.1,6.8s-3.9,11.6-5,12.7c-1.1,1.1-1.1,1.1-1.1,1.1s-0.7-1.5,0.2-2.6
			s2.7-5.2,0.5-5s-1.8-0.2-2-2.6c-0.2-2.4,1.5-3.8-0.7-5.8s-4.8-3.8-6.3-2.3s-3.9,4.7-5.2,2.3c-1.3-2.5,0-6.4-3.3-4.4s-4,3-3.1,5.1
			s0,3.9-0.6,5c-0.7,1.1-1.2,3.3-1.2,3.4C463,207.1,464.7,209.7,463.2,211.2z"/>
		<ellipse class="st15" cx="477.3" cy="287.2" rx="12.1" ry="13.3"/>
		<path class="st16" d="M479.4,291.4c0.2,0.3,0.4,0.6,0.6,0.9c0.3,0.4,0.2,0.7-0.1,1c-0.3,0.3-0.7,0.6-1,0.9c-0.5,0.4-1.2,0.4-1.7,0
			c-0.4-0.3-0.8-0.7-1.1-1c-0.3-0.2-0.3-0.6-0.1-0.9c0.2-0.3,0.4-0.5,0.7-0.8c0,0,0.1-0.1,0.1-0.2c-0.3,0-0.5,0-0.7,0.1
			c-0.6,0.1-1.1,0-1.7-0.1c-0.5-0.1-1-0.2-1.5-0.4c-0.1,0-0.1-0.1-0.2-0.2c0.1-0.1,0.1-0.1,0.2-0.2c0,0,0,0,0.1,0
			c0.3-0.2,0.4-0.3,0.1-0.6c-0.4-0.3-0.8-0.6-1.2-0.9c-0.1-0.1-0.1-0.2-0.2-0.2c0.1,0,0.2-0.1,0.3-0.1c0.6-0.1,0.7-0.1,0.3-0.7
			c-0.4-0.7-0.8-1.3-1.2-2c-0.1-0.2-0.1-0.3,0.2-0.4c0.2,0,0.4-0.1,0.6-0.1c0.2-0.1,0.3-0.2,0.2-0.5c-0.2-0.4-0.4-0.9-0.5-1.3
			c-0.1-0.3,0-0.6,0.4-0.5c0.7,0.1,0.7-0.1,0.8-0.5c0.2-0.8,0.7-1.4,1.1-2c0-0.1,0.2-0.1,0.2-0.1c0.1,0,0.1,0.1,0.2,0.2
			c0.2,0.8,0.5,1.6,0.7,2.4c0.2,0.7,0.5,1.5,0.7,2.2c0,0.1,0.1,0.1,0.1,0.2c0.3,0.4,0.5,0.8,0.8,1.2c0.1,0.1,0.2,0.2,0.3,0.3
			c0.1-0.3,0.1-0.5,0.2-0.7c0.1-0.4,0.3-0.7,0.6-0.9c0.3-0.2,0.8-0.2,1,0.1c0.2,0.3,0.5,0.4,0.8,0.5c0,0,0.1,0,0.1,0.1
			c-0.2,0-0.4,0-0.6,0.1c-0.3,0-0.4,0.2-0.2,0.4c0.1,0.2,0.2,0.4,0.3,0.6c0.2-0.2,0.4-0.3,0.6-0.5c0.3-0.4,0.6-0.8,0.8-1.2
			c0-0.1,0.1-0.1,0.1-0.2c0.5-1.5,0.9-3,1.4-4.5c0-0.1,0-0.1,0-0.2c0.1-0.2,0.2-0.2,0.3,0c0.1,0.2,0.2,0.3,0.3,0.5
			c0.4,0.6,0.7,1.2,0.9,1.9c0.1,0.2,0.2,0.3,0.5,0.3c0.1,0,0.2,0,0.3,0c0.4,0,0.5,0.1,0.4,0.5c-0.2,0.4-0.3,0.8-0.5,1.3
			c-0.1,0.3,0,0.5,0.3,0.5c0.2,0,0.4,0.1,0.6,0.1s0.3,0.2,0.2,0.4c-0.5,0.7-0.9,1.5-1.4,2.2c-0.2,0.2-0.1,0.4,0.2,0.4
			c0.1,0,0.2,0,0.3,0c0.1,0,0.2,0.1,0.3,0.1c-0.1,0.1-0.1,0.2-0.2,0.2c-0.4,0.3-0.8,0.6-1.2,0.9c-0.1,0-0.1,0.1-0.2,0.1
			c-0.2,0.2-0.2,0.4,0.1,0.5c0.1,0,0.1,0,0.2,0.1s0.2,0.1,0.2,0.2s-0.1,0.1-0.2,0.2c-0.5,0.3-1.1,0.4-1.8,0.5
			C480.7,291.5,480.1,291.5,479.4,291.4C479.5,291.4,479.4,291.4,479.4,291.4z"/>
		<path class="st17" d="M449.4,309.1L449.4,309.1c-3.1,1.9-7.1,1-9-2l0,0c-1.9-3-1-7.1,2-9l0,0c3-1.9,7.1-1,9,2l0,0
			C453.4,303.2,452.5,307.2,449.4,309.1z"/>
		<path class="st10" d="M445,311.5c-0.2,1.4-1,7,3.6,13.2s8.3,7.1,12.1,6.4c5.3-1,13-7.9,12.6-11.4c-0.4-3.1-1.6-4.4-3.5-4.5
			c-1.9,0-4.8-0.7-4.8-0.7s7.7,1.7,8.3-0.6s-0.4-5.1-5.8-6.6s-7.5-1-9.5-0.9c-1.9,0.2-3.9-0.5-3.9-0.5L445,311.5z"/>
		<path class="st10" d="M498.6,313c0,0-1.1,0.6-2.3,0.7c-1.2,0.1-5.7,1.2-8.2,3.1c-2.6,1.9-4.5,5.2-3.2,8s2.7,1.7,3.4,1s2.7-1.7,4-2
			c1.3-0.2,2.9,0,2.1,0.3s-2.5-0.8-5,1.3c-2.5,2.1-1.7,3.8-0.9,5.6c0.9,1.8,5.1,8.5,11.4,7.6s7.1-5.9,7.6-8.6s2.1-14.1,2.1-14.1
			s-0.6-0.6-3.7-1.9C503,312.6,499.3,312,498.6,313z"/>
		<path class="st17" d="M504.6,314.7L504.6,314.7c-3.6-0.8-5.8-4.2-5.1-7.7l0,0c0.7-3.5,4.2-5.8,7.7-5h0.1c3.5,0.7,5.8,4.2,5,7.7
			l0,0C511.6,313.2,508.1,315.4,504.6,314.7z"/>
	</g>
	<g>
		<path class="st3" d="M418.7,177.4l5.6-12.1c0.1-0.1,0.2-0.2,0.3-0.2h0.2c0.1,0,0.3,0.1,0.3,0.2l5.6,12.1c0.1,0.2,0,0.5-0.3,0.5h-2
			c-0.3,0-0.5-0.1-0.6-0.5l-0.6-1.4h-4.9l-0.6,1.4c-0.1,0.2-0.3,0.4-0.6,0.4h-2C418.8,177.8,418.6,177.6,418.7,177.4z M426.1,173.5
			l-1.4-3l0,0l-1.4,3H426.1z"/>
		<path class="st3" d="M432.3,165.6c0-0.2,0.1-0.3,0.3-0.3h4.4c3.5,0,6.3,2.8,6.3,6.3s-2.8,6.3-6.3,6.3h-4.4c-0.2,0-0.3-0.2-0.3-0.3
			V165.6z M436.8,175.2c2,0,3.5-1.6,3.5-3.7c0-2-1.5-3.6-3.5-3.6h-1.7v7.3H436.8z"/>
		<path class="st3" d="M445.5,165.6c0-0.2,0.1-0.3,0.3-0.3h5.4c2.2,0,3.9,1.7,3.9,3.9c0,1.7-1.1,3-2.7,3.6l2.5,4.6
			c0.1,0.2,0,0.5-0.3,0.5h-2.4c-0.1,0-0.3-0.1-0.3-0.2l-2.4-4.8h-1.2v4.6c0,0.2-0.2,0.3-0.3,0.3h-2.1c-0.2,0-0.3-0.2-0.3-0.3v-11.9
			L445.5,165.6L445.5,165.6z M451,170.6c0.7,0,1.4-0.7,1.4-1.4s-0.6-1.4-1.4-1.4h-2.7v2.8L451,170.6L451,170.6z"/>
		<path class="st3" d="M457.6,165.6c0-0.2,0.2-0.3,0.3-0.3h2.2c0.2,0,0.3,0.2,0.3,0.3v11.9c0,0.2-0.2,0.3-0.3,0.3h-2.2
			c-0.2,0-0.3-0.2-0.3-0.3V165.6z"/>
		<path class="st3" d="M461.9,177.4l5.6-12.1c0.1-0.1,0.2-0.2,0.3-0.2h0.2c0.1,0,0.3,0.1,0.3,0.2l5.6,12.1c0.1,0.2,0,0.5-0.3,0.5h-2
			c-0.3,0-0.5-0.1-0.6-0.5l-0.6-1.4h-4.9l-0.6,1.4c-0.1,0.2-0.3,0.4-0.6,0.4h-2C461.9,177.8,461.8,177.6,461.9,177.4z M469.3,173.5
			l-1.4-3l0,0l-1.4,3H469.3z"/>
		<path class="st3" d="M475.4,165.4c0-0.2,0.2-0.3,0.3-0.3h0.5l7.2,6.9l0,0v-6.4c0-0.2,0.1-0.3,0.3-0.3h2.2c0.2,0,0.3,0.2,0.3,0.3
			v12.1c0,0.2-0.2,0.3-0.3,0.3h-0.3c-0.1,0-0.2-0.1-0.2-0.1l-7.1-7.1l0,0v6.7c0,0.2-0.1,0.3-0.3,0.3h-2.1c-0.2,0-0.3-0.2-0.3-0.3
			L475.4,165.4z"/>
		<path class="st3" d="M490.5,174.6c0.9,0,1.7,0.8,1.7,1.7s-0.8,1.7-1.7,1.7c-0.9,0-1.7-0.8-1.7-1.7
			C488.8,175.4,489.6,174.6,490.5,174.6z M489.8,172.7l-0.9-5v-2.1c0-0.2,0.2-0.3,0.3-0.3h2.5c0.2,0,0.3,0.2,0.3,0.3v2l-0.9,5.1
			c0,0.1-0.2,0.3-0.3,0.3H490C490,172.9,489.8,172.8,489.8,172.7z"/>
	</g>
</g>
<g id="Layer_2" class="st18">
	<line class="st19" x1="1173.1" y1="194.4" x2="1173.1" y2="287.4"/>
	<path class="st20" d="M1205.4,269.4h-64.7c-3.5,0-6.3,2.9-6.3,6.3l0,0c0,3.5,2.8,6.3,6.3,6.3h64.7c3.5,0,6.3-2.8,6.3-6.3l0,0
		C1211.7,272.2,1208.9,269.4,1205.4,269.4z"/>
	<path class="st21" d="M1217.7,496c0,0,0.7,20.1-43.7,20.1c-44.4,0-43.6-20.1-43.6-20.1V279.3c0,0,0-3.3,2.4-3.3s80.8,0,82.8,0
		c2.1,0,2.1,3.2,2.1,3.2L1217.7,496L1217.7,496z"/>
	<polyline class="st22" points="1144.7,287.4 1144.7,269.4 1174.1,194.4 	"/>
	<polyline class="st22" points="1202.4,287.4 1202.4,269.4 1173.1,194.4 	"/>
	<circle class="st23" cx="1100.3" cy="194.4" r="17.2"/>
	<circle class="st23" cx="1244.2" cy="194.4" r="17.2"/>
	<path class="st24" d="M1245.8,201.9h-143.5c-4.1,0-7.5-3.4-7.5-7.5l0,0c0-4.1,3.4-7.5,7.5-7.5h143.5c4.1,0,7.5,3.4,7.5,7.5l0,0
		C1253.3,198.5,1249.9,201.9,1245.8,201.9z"/>
</g>
</svg>
