<?xml version="1.0" encoding="utf-8"?>
<!-- Generator: Adobe Illustrator 19.2.1, SVG Export Plug-In . SVG Version: 6.00 Build 0)  -->
<svg version="1.1" id="Layer_1" xmlns="http://www.w3.org/2000/svg" xmlns:xlink="http://www.w3.org/1999/xlink" x="0px" y="0px"
	 viewBox="0 0 1680 768" style="enable-background:new 0 0 1680 768;" xml:space="preserve">
<style type="text/css">
	.st0{fill:#CEEFDD;}
	.st1{fill:#F6A822;}
	.st2{fill:#40C8BD;}
	.st3{fill:#949B9C;}
	.st4{fill:none;stroke:#5E849E;stroke-width:8;stroke-miterlimit:10;}
	.st5{fill:#1A9635;stroke:#FCFCFC;stroke-width:10;stroke-miterlimit:10;}
	.st6{fill:none;stroke:#FFFFFF;stroke-miterlimit:10;}
	.st7{fill:#FFFFFF;}
	.st8{fill:#1A9635;}
	.st9{fill:#D74827;}
	.st10{fill:#AD3427;}
	.st11{fill:none;stroke:#D74827;stroke-width:5;stroke-miterlimit:10;}
	.st12{fill:#48126A;stroke:#93FFFD;stroke-width:5;stroke-miterlimit:10;}
	.st13{fill:none;stroke:#128F12;stroke-linecap:round;stroke-miterlimit:10;}
	.st14{fill:#F36F21;}
	.st15{fill:none;stroke:#F36F21;stroke-width:1.87;stroke-linecap:round;stroke-miterlimit:10;}
	.st16{fill:#288EAD;}
	.st17{fill:#58C6F2;}
	.st18{fill:#D10257;}
	.st19{clip-path:url(#SVGID_2_);}
	.st20{fill:#5B658E;}
	.st21{fill:#48126A;}
	.st22{fill:none;stroke:#72361C;stroke-width:45;stroke-miterlimit:10;}
	.st23{fill:none;stroke:#682617;stroke-width:3;stroke-miterlimit:10;stroke-dasharray:11.8426,11.8426;}
	.st24{fill:#FBB03B;}
	.st25{fill:#B2341F;}
	.st26{fill:#F4940B;}
	.st27{display:none;fill:#48126A;}
	.st28{fill:#5ABA47;}
	.st29{display:none;fill:#D10257;}
	.st30{display:none;fill:#FBB03B;}
	.st31{display:none;fill:#1A9635;}
	.st32{display:none;fill:none;stroke:#1A9635;stroke-width:4;stroke-linecap:round;stroke-miterlimit:10;}
	.st33{fill:#81CCCA;stroke:#48126A;stroke-width:10;stroke-miterlimit:10;}
	.st34{clip-path:url(#SVGID_4_);fill:#1A9635;}
	.st35{clip-path:url(#SVGID_6_);}
	.st36{fill:#81CCCA;}
	.st37{fill:#007CBF;}
	.st38{fill:none;stroke:#BC3B26;stroke-width:2;stroke-miterlimit:10;}
	.st39{fill:none;stroke:#ABE7DB;stroke-width:4;stroke-miterlimit:10;}
	.st40{fill:#912929;}
	.st41{fill:#A03232;}
	.st42{fill:none;stroke:#701E0B;stroke-width:4;stroke-miterlimit:10;}
</style>
<g id="Layer_1_1_">
	<rect class="st0" width="1680" height="768"/>
</g>
<g id="Layer_7">
	<rect x="157.9" y="666.4" class="st1" width="1365.1" height="100"/>
</g>
<g id="Layer_5">
	<path class="st2" d="M0,543c0,0,486.1-92.2,796.3-92.2S1680,538,1680,538v182.8H0V543z"/>
	<path class="st3" d="M682,454.6L530.5,646.3h545.8L926.8,455.7c0,0-57.4-4.7-113.5-4.7C721.6,450.9,682,454.6,682,454.6z"/>
	<g>
		<line class="st4" x1="480.7" y1="462.8" x2="480.7" y2="487.4"/>
		<line class="st4" x1="574.6" y1="462.8" x2="574.6" y2="487.4"/>
		<path class="st5" d="M629.6,462.8H431.5c-6.6,0-12-5.4-12-12v-68.5c0-6.6,5.4-12,12-12h198.1c6.6,0,12,5.4,12,12v68.5
			C641.6,457.4,636.2,462.8,629.6,462.8z"/>
		<g>
			<g>
				<line class="st6" x1="470.1" y1="394.2" x2="456" y2="394.2"/>
				<g>
					<polygon class="st7" points="457.5,389.2 448.9,394.2 457.5,399.2 					"/>
				</g>
			</g>
		</g>
		<g>
			<g>
				<line class="st6" x1="598.5" y1="434.3" x2="612.5" y2="434.3"/>
				<g>
					<polygon class="st7" points="611.1,439.3 619.7,434.3 611.1,429.3 					"/>
				</g>
			</g>
		</g>
		<g>
			<path class="st7" d="M475.5,400.7l6.1-12.4c0.1-0.1,0.2-0.2,0.3-0.2h0.2c0.1,0,0.3,0.1,0.3,0.2l6.1,12.4c0.1,0.2,0,0.5-0.3,0.5
				H486c-0.4,0-0.5-0.1-0.7-0.5l-0.7-1.5h-5.3l-0.7,1.5c-0.1,0.2-0.3,0.4-0.7,0.4h-2.2C475.6,401.1,475.4,400.9,475.5,400.7z
				 M483.6,396.7l-1.5-3.1l0,0l-1.5,3.1H483.6z"/>
			<path class="st7" d="M496.2,388c1.6,0,3.4,0.6,4.8,1.7c0.2,0.1,0.2,0.4,0,0.5l-1.5,1.6c-0.2,0.1-0.4,0.1-0.5,0
				c-0.7-0.6-1.6-0.9-2.6-0.9c-2.1,0-3.9,1.7-3.9,3.7s1.7,3.7,3.9,3.7c0.6,0,1.2-0.1,1.7-0.3v-1h-1.2c-0.2,0-0.4-0.1-0.4-0.3v-1.8
				c0-0.2,0.2-0.4,0.4-0.4h3.9c0.2,0,0.4,0.2,0.4,0.4v5c0,0.1-0.1,0.2-0.2,0.3c0,0-2,1.2-4.9,1.2c-3.9,0-7-2.9-7-6.6
				C489.2,391,492.3,388,496.2,388z"/>
			<path class="st7" d="M510,388c1.6,0,3.4,0.6,4.8,1.7c0.2,0.1,0.2,0.4,0,0.5l-1.5,1.6c-0.2,0.1-0.4,0.1-0.5,0
				c-0.7-0.6-1.6-0.9-2.6-0.9c-2.1,0-3.9,1.7-3.9,3.7s1.7,3.7,3.9,3.7c0.6,0,1.2-0.1,1.7-0.3v-1h-1.2c-0.2,0-0.4-0.1-0.4-0.3v-1.8
				c0-0.2,0.2-0.4,0.4-0.4h3.9c0.2,0,0.4,0.2,0.4,0.4v5c0,0.1-0.1,0.2-0.2,0.3c0,0-2,1.2-4.9,1.2c-3.9,0-7-2.9-7-6.6
				C502.9,391,506.1,388,510,388z"/>
			<path class="st7" d="M517.7,388.5c0-0.2,0.2-0.4,0.4-0.4h5.9c2.4,0,4.3,1.8,4.3,4c0,1.7-1.2,3.1-2.9,3.7l2.7,4.7
				c0.1,0.2,0,0.5-0.3,0.5H525c-0.2,0-0.3-0.1-0.3-0.2l-2.6-4.9h-1.4v4.7c0,0.2-0.2,0.4-0.4,0.4H518c-0.2,0-0.4-0.2-0.4-0.4v-12.1
				L517.7,388.5L517.7,388.5z M523.7,393.7c0.8,0,1.5-0.7,1.5-1.5s-0.7-1.4-1.5-1.4h-2.9v2.9H523.7z"/>
			<path class="st7" d="M530.8,388.5c0-0.2,0.2-0.4,0.4-0.4h8.1c0.2,0,0.4,0.2,0.4,0.4v2c0,0.2-0.2,0.4-0.4,0.4h-5.4v2.3h4.5
				c0.2,0,0.4,0.2,0.4,0.4v2c0,0.2-0.2,0.4-0.4,0.4h-4.5v2.5h5.4c0.2,0,0.4,0.2,0.4,0.4v2c0,0.2-0.2,0.4-0.4,0.4h-8.1
				c-0.2,0-0.4-0.2-0.4-0.4V388.5z"/>
			<path class="st7" d="M541.5,399.4l0.9-1.5c0.2-0.2,0.5-0.2,0.7-0.1c0.1,0,1.5,1,2.8,1c0.8,0,1.4-0.5,1.4-1.1c0-0.8-0.7-1.4-2-1.9
				c-1.7-0.6-3.8-1.9-3.8-4.1c0-1.8,1.5-3.7,4.5-3.7c2,0,3.6,1,4.2,1.4c0.2,0.1,0.2,0.5,0.1,0.6l-1,1.4c-0.1,0.2-0.5,0.4-0.7,0.2
				c-0.2-0.1-1.6-1.1-2.8-1.1c-0.7,0-1.2,0.4-1.2,0.9c0,0.7,0.6,1.2,2.1,1.8c1.5,0.6,4,1.7,4,4.2c0,1.9-1.7,3.8-4.6,3.8
				c-2.5,0-4-1-4.4-1.4C541.4,399.7,541.3,399.6,541.5,399.4z"/>
			<path class="st7" d="M552.2,399.4l0.9-1.5c0.2-0.2,0.5-0.2,0.7-0.1c0.1,0,1.5,1,2.8,1c0.8,0,1.4-0.5,1.4-1.1c0-0.8-0.7-1.4-2-1.9
				c-1.7-0.6-3.8-1.9-3.8-4.1c0-1.8,1.5-3.7,4.5-3.7c2,0,3.6,1,4.2,1.4c0.2,0.1,0.2,0.5,0.1,0.6l-1,1.4c-0.1,0.2-0.5,0.4-0.7,0.2
				c-0.2-0.1-1.6-1.1-2.8-1.1c-0.7,0-1.2,0.4-1.2,0.9c0,0.7,0.6,1.2,2.1,1.8c1.5,0.6,4,1.7,4,4.2c0,1.9-1.7,3.8-4.6,3.8
				c-2.5,0-4-1-4.4-1.4C552.1,399.7,552.1,399.6,552.2,399.4z"/>
			<path class="st7" d="M563.8,388.5c0-0.2,0.2-0.4,0.4-0.4h2.4c0.2,0,0.4,0.2,0.4,0.4v12.2c0,0.2-0.2,0.4-0.4,0.4h-2.4
				c-0.2,0-0.4-0.2-0.4-0.4V388.5z"/>
			<path class="st7" d="M568.5,388.7c-0.1-0.2,0-0.5,0.3-0.5h2.6c0.2,0,0.3,0.1,0.3,0.2l3.2,6.8h0.1l3.2-6.8c0-0.1,0.2-0.2,0.3-0.2
				h2.6c0.3,0,0.5,0.2,0.3,0.5l-6.2,12.4c-0.1,0.1-0.2,0.2-0.3,0.2h-0.2c-0.2,0-0.3-0.1-0.3-0.2L568.5,388.7z"/>
			<path class="st7" d="M583.2,388.5c0-0.2,0.2-0.4,0.4-0.4h8.1c0.2,0,0.4,0.2,0.4,0.4v2c0,0.2-0.2,0.4-0.4,0.4h-5.4v2.3h4.5
				c0.2,0,0.4,0.2,0.4,0.4v2c0,0.2-0.2,0.4-0.4,0.4h-4.5v2.5h5.4c0.2,0,0.4,0.2,0.4,0.4v2c0,0.2-0.2,0.4-0.4,0.4h-8.1
				c-0.2,0-0.4-0.2-0.4-0.4V388.5z"/>
		</g>
		<g>
			<path class="st7" d="M456.6,428.1c2,0,3.4,0.6,4.7,1.7c0.2,0.1,0.2,0.4,0,0.5l-1.5,1.5c-0.1,0.1-0.4,0.1-0.5,0
				c-0.7-0.6-1.7-0.9-2.6-0.9c-2.2,0-3.8,1.7-3.8,3.8c0,2.1,1.6,3.8,3.9,3.8c0.9,0,1.9-0.3,2.6-0.9c0.1-0.1,0.4-0.1,0.5,0l1.5,1.5
				c0.1,0.1,0.1,0.4,0,0.5c-1.3,1.2-3,1.8-4.8,1.8c-3.9,0-7.1-2.9-7.1-6.6C449.5,431.1,452.7,428.1,456.6,428.1z"/>
			<path class="st7" d="M469.7,428.1c3.9,0,7.1,3,7.1,6.7s-3.1,6.6-7.1,6.6c-3.9,0-7-2.9-7-6.6S465.8,428.1,469.7,428.1z
				 M469.7,438.4c2.2,0,3.9-1.7,3.9-3.7s-1.8-3.7-3.9-3.7s-3.9,1.7-3.9,3.7C465.8,436.8,467.6,438.4,469.7,438.4z"/>
			<path class="st7" d="M479.1,428.4c0-0.2,0.2-0.3,0.4-0.3h0.5l7.8,7.1l0,0v-6.6c0-0.2,0.2-0.4,0.4-0.4h2.4c0.2,0,0.4,0.2,0.4,0.4
				V441c0,0.2-0.2,0.3-0.4,0.3h-0.3c-0.1,0-0.2-0.1-0.3-0.1l-7.7-7.3l0,0v6.9c0,0.2-0.2,0.4-0.4,0.4h-2.3c-0.2,0-0.4-0.2-0.4-0.4
				L479.1,428.4z"/>
			<path class="st7" d="M493.5,439.5l0.9-1.5c0.2-0.2,0.5-0.2,0.7-0.1c0.1,0,1.5,1,2.8,1c0.8,0,1.4-0.5,1.4-1.1c0-0.8-0.7-1.4-2-1.9
				c-1.7-0.6-3.8-1.9-3.8-4.1c0-1.8,1.5-3.7,4.5-3.7c2,0,3.6,1,4.2,1.4c0.2,0.1,0.2,0.5,0.1,0.6l-1,1.4c-0.1,0.2-0.5,0.4-0.7,0.2
				c-0.2-0.1-1.6-1.1-2.8-1.1c-0.7,0-1.2,0.4-1.2,0.9c0,0.7,0.6,1.2,2.1,1.8c1.5,0.6,4,1.7,4,4.2c0,1.9-1.7,3.8-4.6,3.8
				c-2.5,0-4-1-4.4-1.4C493.4,439.8,493.3,439.7,493.5,439.5z"/>
			<path class="st7" d="M505,428.6c0-0.2,0.2-0.4,0.4-0.4h8.1c0.2,0,0.4,0.2,0.4,0.4v2c0,0.2-0.2,0.4-0.4,0.4h-5.4v2.3h4.5
				c0.2,0,0.4,0.2,0.4,0.4v2c0,0.2-0.2,0.4-0.4,0.4h-4.5v2.5h5.4c0.2,0,0.4,0.2,0.4,0.4v2c0,0.2-0.2,0.4-0.4,0.4h-8.1
				c-0.2,0-0.4-0.2-0.4-0.4V428.6z"/>
			<path class="st7" d="M516.5,428.6c0-0.2,0.2-0.4,0.4-0.4h5.9c2.4,0,4.3,1.8,4.3,4c0,1.7-1.2,3.1-2.9,3.7l2.7,4.7
				c0.1,0.2,0,0.5-0.3,0.5H524c-0.2,0-0.3-0.1-0.3-0.2l-2.6-4.9h-1.4v4.7c0,0.2-0.2,0.4-0.4,0.4H517c-0.2,0-0.4-0.2-0.4-0.4
				L516.5,428.6L516.5,428.6L516.5,428.6z M522.5,433.8c0.8,0,1.5-0.7,1.5-1.5s-0.7-1.4-1.5-1.4h-2.9v2.9H522.5z"/>
			<path class="st7" d="M527.9,428.7c-0.1-0.2,0-0.5,0.3-0.5h2.6c0.2,0,0.3,0.1,0.3,0.2l3.2,6.8h0.1l3.2-6.8c0-0.1,0.2-0.2,0.3-0.2
				h2.6c0.3,0,0.5,0.2,0.3,0.5l-6.2,12.4c-0.1,0.1-0.2,0.2-0.3,0.2h-0.2c-0.2,0-0.3-0.1-0.3-0.2L527.9,428.7z"/>
			<path class="st7" d="M539.7,440.7l6.1-12.4c0.1-0.1,0.2-0.2,0.3-0.2h0.2c0.1,0,0.3,0.1,0.3,0.2l6.1,12.4c0.1,0.2,0,0.5-0.3,0.5
				h-2.2c-0.4,0-0.5-0.1-0.7-0.5l-0.7-1.5h-5.3l-0.7,1.5c-0.1,0.2-0.3,0.4-0.7,0.4h-2.2C539.8,441.2,539.6,441,539.7,440.7z
				 M547.8,436.8l-1.5-3.1l0,0l-1.5,3.1H547.8z"/>
			<path class="st7" d="M555.5,431h-2.8c-0.2,0-0.4-0.2-0.4-0.4v-2c0-0.2,0.2-0.4,0.4-0.4h8.7c0.2,0,0.4,0.2,0.4,0.4v2
				c0,0.2-0.2,0.4-0.4,0.4h-2.8v9.9c0,0.2-0.2,0.4-0.4,0.4h-2.4c-0.2,0-0.4-0.2-0.4-0.4L555.5,431L555.5,431z"/>
			<path class="st7" d="M563.8,428.6c0-0.2,0.2-0.4,0.4-0.4h2.4c0.2,0,0.4,0.2,0.4,0.4v12.2c0,0.2-0.2,0.4-0.4,0.4h-2.4
				c-0.2,0-0.4-0.2-0.4-0.4V428.6z"/>
			<path class="st7" d="M568.5,428.7c-0.1-0.2,0-0.5,0.3-0.5h2.6c0.2,0,0.3,0.1,0.3,0.2l3.2,6.8h0.1l3.2-6.8c0-0.1,0.2-0.2,0.3-0.2
				h2.6c0.3,0,0.5,0.2,0.3,0.5l-6.2,12.4c-0.1,0.1-0.2,0.2-0.3,0.2h-0.2c-0.2,0-0.3-0.1-0.3-0.2L568.5,428.7z"/>
			<path class="st7" d="M583.2,428.6c0-0.2,0.2-0.4,0.4-0.4h8.1c0.2,0,0.4,0.2,0.4,0.4v2c0,0.2-0.2,0.4-0.4,0.4h-5.4v2.3h4.5
				c0.2,0,0.4,0.2,0.4,0.4v2c0,0.2-0.2,0.4-0.4,0.4h-4.5v2.5h5.4c0.2,0,0.4,0.2,0.4,0.4v2c0,0.2-0.2,0.4-0.4,0.4h-8.1
				c-0.2,0-0.4-0.2-0.4-0.4V428.6z"/>
		</g>
	</g>
	<g>
		<path d="M534.2,661.3h-3.1v2.9h3.5v0.9H530V657h4.4v0.9h-3.3v2.6h3.1V661.3z"/>
	</g>
</g>
<path class="st8" d="M1679.8,337.9V0H0.2v337.9c0,0,393.8-100.9,823.3-100.9S1679.8,337.9,1679.8,337.9z"/>
<rect y="623.5" class="st9" width="1680" height="144.5"/>
<polygon class="st10" points="1470.7,716.4 208.4,716.4 156.8,623.5 1510.7,623.5 "/>
<polygon class="st9" points="1468,585.8 204.7,585.8 171.3,623.5 1510.7,623.5 "/>
<g>
	<circle class="st9" cx="217.3" cy="651.1" r="65.3"/>
	<circle class="st10" cx="217.3" cy="651.1" r="46"/>
	<g>
		<line class="st11" x1="171.8" y1="642.4" x2="277.7" y2="642.4"/>
		<line class="st11" x1="164.3" y1="623.5" x2="270.2" y2="623.5"/>
		<line class="st11" x1="164.3" y1="661.3" x2="270.2" y2="661.3"/>
		<line class="st11" x1="164.3" y1="680.2" x2="270.2" y2="680.2"/>
	</g>
</g>
<g>
	<circle class="st9" cx="1464.7" cy="651.1" r="65.3"/>
	<circle class="st10" cx="1464.7" cy="651.1" r="46"/>
	<g>
		<line class="st11" x1="1411.8" y1="642.4" x2="1517.6" y2="642.4"/>
		<line class="st11" x1="1411.8" y1="623.5" x2="1517.6" y2="623.5"/>
		<line class="st11" x1="1411.8" y1="661.3" x2="1517.6" y2="661.3"/>
		<line class="st11" x1="1411.8" y1="680.2" x2="1517.6" y2="680.2"/>
	</g>
</g>
<g>
	<circle class="st12" cx="462" cy="659.4" r="28.4"/>
	<path class="st13" d="M480.7,671.7l-8-4.6 M483,666.1l-9-2.2 M483.6,660.1l-9.2,0.2 M482.6,654.1l-8.7,3 M480,648.8l-7.8,5
		 M475.9,644.3l-6,7 M470.8,641l-3.8,8.4 M464.9,639.3l-1.2,9.2 M458.9,639.4l1.2,9.2 M453.1,641.1l3.8,8.4 M447.9,644.3l6,7
		 M443.9,648.9l7.8,5 M441.3,654.2l8.7,3 M440.3,660.3l9.2,0.2 M441,666.2l9-2.2 M443.3,671.8l7.9-4.7"/>
	<circle class="st14" cx="462.8" cy="660.5" r="2.2"/>
	<line class="st15" x1="462.8" y1="660.5" x2="475.9" y2="640.1"/>
</g>
<g>
	<path class="st16" d="M715.9,729.4c0.9,0,1.8,0,2.8,0.1c-0.4-0.4-0.6-0.7-0.9-1c-0.1-0.2-0.3-0.3-0.3-0.5c0.2-1.1-0.6-1.5-1.3-2
		c-6.4-5.2-5.3-16,2.1-19.7c0.1-0.1,0.3-0.1,0.5-0.1c-3.1,4.1-4,8.6-2.6,13.5s4.6,8.2,9.4,10.1c-0.2,1.3-0.5,2.6-0.7,3.9
		c-1.3,6.9-2.6,13.8-3.8,20.7c-0.2,0.8-0.4,1.3-1.3,1.6c-0.6,0.2-1.1,0.4-1.7,0.7c-1.4-2.3-2.8-4.6-4.3-7c0.3-0.1,0.5-0.1,0.6-0.1
		c1.1-0.2,1.3-0.5,1.2-1.6c0-0.3-0.4-0.6-0.6-0.7c-1.5-0.6-1.8-1.6-1.4-3.1c0.2-0.8,0.5-1.5,1.4-1.7c0.4-0.1,0.8-0.3,1.3-0.5
		c-0.5-0.7-1.1-1.3-1.5-2c-0.2-0.4-0.3-0.9-0.3-1.3c-0.1-1.5,0.7-2.4,2.2-2.6c0.4-0.1,0.7-0.3,1.1-0.4c-0.7-0.9-1.4-1.7-2-2.5
		c-0.2-0.3-0.3-0.8-0.3-1.2C715.6,730.9,715.7,730.2,715.9,729.4z"/>
	<circle class="st12" cx="716.9" cy="691.9" r="15.4"/>
	<path class="st17" d="M743.5,753.5c-2.4-1.4-4.6-2.8-6.9-4.2c0.2-0.2,0.2-0.3,0.4-0.4c0.9-0.5,1-1.1,0.4-1.9
		c-0.2-0.2-0.5-0.5-0.8-0.5c-2.1-0.2-2.1-0.2-2.8-2.2c-0.3-0.8-0.3-1.4,0.4-2c0.3-0.3,0.6-0.6,0.9-1.1c-0.8-0.4-1.4-0.7-2.1-1
		c-0.5-0.2-0.8-0.6-1-1.1c-0.6-1.3-0.4-2.4,0.8-3.3c0.3-0.2,0.5-0.5,0.8-0.9c-1-0.5-2-0.9-2.9-1.3c-0.5-0.2-0.8-0.5-0.9-1
		c-0.2-0.7-0.5-1.4-0.8-2.1c0.9-0.4,1.7-0.8,2.7-1.3c-0.5-0.2-0.8-0.3-1.1-0.4c-0.3-0.1-0.6-0.2-0.7-0.4c-0.3-0.9-1.1-1-1.8-1.1
		c-5.2-1.1-9.1-5.6-9.5-11c-0.4-5.3,2.6-10,7.5-11.8c1.2-0.4,2.6-0.6,4-0.9c-0.1-3.3-1.5-6.1-4.2-8.1c-5.4-3.8-12.5-2-15.4,3.9
		c-1.5,3.2-1.3,6.4,0.5,9.4c0.4,0.7,0.5,1.2,0.1,1.9c-0.2,0.3-0.3,0.7-0.6,1.2c-0.2-0.2-0.4-0.4-0.5-0.6c-3.4-4.3-3.6-10.7-0.3-14.9
		c3.5-4.7,9.5-6.5,14.7-4.4c5,2,7.6,5.8,8,11.1c0,0.6,0.2,0.9,0.8,1.1c4.4,1.4,7.1,4.4,8.2,8.9c1,4.3-0.1,8-3.4,11
		c-0.5,0.4-0.3,0.8-0.2,1.2c2.5,8.3,4.9,16.5,7.5,24.8c0.2,0.7,0.2,1.2-0.4,1.8S743.9,753,743.5,753.5z M729.4,707.3
		c-1.9-0.5-3.6,0.5-4.2,2.3c-0.6,1.7,0.2,3.8,1.8,4.7s3.6,0.3,4.7-1.2c0.9-1.3,0.8-3.5-0.3-4.3c-0.5,0.9-1,1.8-1.6,2.7
		c-0.5,0.7-1.1,0.8-1.7,0.4c-0.6-0.5-0.6-1.1-0.1-1.8C728.5,709.1,728.9,708.2,729.4,707.3z"/>
	<path class="st18" d="M716.9,702.3L716.9,702.3c-1.4,0-2.6-1.2-2.6-2.6v-15.5c0-1.4,1.2-2.6,2.6-2.6l0,0c1.4,0,2.6,1.2,2.6,2.6
		v15.5C719.5,701.1,718.4,702.3,716.9,702.3z"/>
</g>
<circle class="st12" cx="537.5" cy="659.4" r="20.1"/>
<circle class="st14" cx="537.8" cy="660.2" r="1.6"/>
<line class="st15" x1="537.8" y1="660.2" x2="544" y2="648.5"/>
<g>
	<path class="st17" d="M528.3,661c0-0.1,0.1-0.2,0.2-0.2h3.8c0.1,0,0.2,0.1,0.2,0.2v1c0,0.1-0.1,0.2-0.2,0.2h-2.5v1.1h2.1
		c0.1,0,0.2,0.1,0.2,0.2v1c0,0.1-0.1,0.2-0.2,0.2h-2.1v1.2h2.5c0.1,0,0.2,0.1,0.2,0.2v1c0,0.1-0.1,0.2-0.2,0.2h-3.8
		c-0.1,0-0.2-0.1-0.2-0.2V661z"/>
</g>
<g>
	<path class="st17" d="M543.2,661c0-0.1,0.1-0.2,0.2-0.2h3.8c0.1,0,0.2,0.1,0.2,0.2v1c0,0.1-0.1,0.2-0.2,0.2h-2.5v1.3h2.1
		c0.1,0,0.2,0.1,0.2,0.2v1c0,0.1-0.1,0.2-0.2,0.2h-2.1v2.2c0,0.1-0.1,0.2-0.2,0.2h-1.1c-0.1,0-0.2-0.1-0.2-0.2V661L543.2,661z"/>
</g>
<g id="Layer_6">
	<g>
		<g>
			<g>
				<g>
					<defs>
						<rect id="SVGID_1_" x="335.4" y="485.2" width="370.1" height="282.8"/>
					</defs>
					<clipPath id="SVGID_2_">
						<use xlink:href="#SVGID_1_"  style="overflow:visible;"/>
					</clipPath>
					<g class="st19">
						<g>
							<path class="st20" d="M670.7,734.3c-0.4,91.8-74.6,165.7-166.2,165.6c-92.5-0.2-166-75.1-165.5-168.6
								c0.5-90,76.3-163.5,168.1-163C597.6,568.7,671.2,643.3,670.7,734.3z M451.4,762.9c-1.6,0-3.9,0.1-6.3,0
								c-20.5-1.2-41-2.5-61.5-3.7c-6.6-0.4-7.1,0.4-5.3,6.6c14.3,49.8,46.1,82.1,96.4,95.5c7,1.9,8,1.2,8-6
								c-0.1-19.2-0.2-38.3-0.2-57.5c0-8.2,0.1-8.4,7.8-6.3c9.9,2.6,19.8,2.9,29.8,0c7.5-2.2,7.9-1.9,7.9,6.2c0,19.2,0,38.3,0,57.5
								c0,7.4,0.8,8.2,7.9,6.3c49.1-13.5,80.6-45.2,95.7-93.6c0.8-2.7,1-5.6,1.6-9.4c-25.7,1.6-50.6,3.2-76.6,4.9
								c11-21.8,9.8-42.2-1.8-62.7c3.1,0,5.3-0.1,7.4,0c20.9,1.3,41.8,2.7,62.7,3.9c7.3,0.4,7.9-0.7,5.9-7.7
								c-8.1-27.5-24.2-49.4-46.4-67c-23.1-18.4-49.5-27.7-79-26.8c-61.5,1.9-105.5,35-125.2,93.5c-2.6,7.6-2.1,8.4,5.8,8
								c20.7-1.2,41.4-2.6,62.1-3.8c2-0.1,4,0.2,5.2,0.2c-2.3,10.7-6,20.8-6.3,30.9C446.8,741.9,449.8,752.2,451.4,762.9z
								 M601.4,732.1c0-7.8-6.1-14-13.7-14.2c-7.8-0.2-14.7,6.4-14.8,14c-0.1,7.5,6.7,14.4,14.3,14.5
								C595,746.5,601.4,740.1,601.4,732.1z M437.5,732c0-7.8-6.6-14.2-14.5-14.1c-7.7,0-13.9,6.3-14,14
								c-0.1,7.8,6.5,14.5,14.1,14.6C430.7,746.4,437.5,739.6,437.5,732z M401.3,732.3c0.1-6-4.8-10.9-10.8-11
								c-5.7-0.1-10.9,4.8-10.9,10.3c-0.1,5.8,5,11.3,10.7,11.4C396.4,743.1,401.2,738.4,401.3,732.3z M630.6,732.3
								c0-5.7-4.9-10.9-10.3-11c-5.9-0.2-11.4,5.3-11.4,11.3c0,5.7,4.7,10.3,10.6,10.5C625.6,743.2,630.6,738.3,630.6,732.3z"/>
							<path class="st21" d="M554,734.9c0,27.1-21.7,48.7-49,48.7c-26.8,0-48.4-21.8-48.3-48.8c0.1-26.6,21.8-48.1,48.4-48.2
								C532.2,686.7,554,708.2,554,734.9z M505.4,714.7c-11.9,0-20.8,8.7-20.7,20.3c0.1,11.6,9.1,20.5,20.7,20.4
								c11.2,0,20.4-8.9,20.6-20C526.2,724.1,516.8,714.7,505.4,714.7z"/>
							<circle class="st22" cx="504.9" cy="733.5" r="147.7"/>
							<g>
								<circle class="st23" cx="504.9" cy="733.5" r="139.5"/>
							</g>
						</g>
						<circle class="st24" cx="505.4" cy="735.4" r="21.2"/>
						<g>
							<path class="st25" d="M522.6,727.2c-1.3,2.2-2.4,4.3-3.6,6.2c-0.4,0.7-0.4,1.2,0.1,1.9c1.2,1.7,2.3,3.4,3.5,5.2
								c-15.5,2.6-8.4,1.3-23.9,3.9c0-4.5,0-8.9,0-13.3C514.1,728.6,507,729.8,522.6,727.2z"/>
							<path class="st25" d="M488.2,729.3c5.1-1,10-2,15-3l0.1,0.1c-0.4,0.3-0.9,0.6-1.3,0.9c-1.2,0.8-2.3,1.6-3.5,2.4
								c-0.5,0.3-0.6,0.7-0.6,1.2c0,3.1,0,6.2,0,9.4c-2.6,0.5-5.1,1-7.8,1.5c0.3-1.2,0.6-2.3,0.9-3.4c0.3-1,0.6-2.1,0.8-3.1
								c0.1-0.3,0-0.8-0.2-1.1C490.4,732.6,489.4,731.1,488.2,729.3z"/>
							<path class="st25" d="M499.1,730.2c1.4-1,2.9-1.9,4.4-2.9c0,0.8,0,1.6,0,2.4c-1.4,0.2-2.9,0.5-4.3,0.7
								C499.2,730.3,499.2,730.3,499.1,730.2z"/>
						</g>
						<g>
							<path class="st26" d="M509.3,731.6c1.1-0.1,2.4,0.3,3.3,1c0.1,0.1,0.2,0.2,0.1,0.4l-0.9,1.2c-0.1,0.1-0.2,0.1-0.4,0
								c-0.5-0.4-1.1-0.5-1.8-0.5c-1.4,0.1-2.5,1.4-2.4,2.9c0.1,1.4,1.4,2.5,2.8,2.4c0.4,0,0.8-0.1,1.2-0.3l-0.1-0.8l-0.8,0.1
								c-0.1,0-0.3-0.1-0.3-0.2l-0.1-1.3c0-0.1,0.1-0.3,0.2-0.3l2.6-0.2c0.1,0,0.2,0.1,0.3,0.2l0.3,3.5c0,0.1,0,0.2-0.1,0.2
								c0,0-1.3,1-3.2,1.1c-2.6,0.2-4.9-1.7-5.1-4.3C504.7,734.1,506.6,731.8,509.3,731.6z"/>
						</g>
					</g>
				</g>
			</g>
		</g>
	</g>
</g>
<g id="Layer_8">
</g>
<g id="Layer_9">
	<ellipse class="st27" cx="851.9" cy="610.9" rx="33.8" ry="10.3"/>
	<path class="st28" d="M913.3,531.1"/>
	<path class="st29" d="M873.5,611.9h-43.1c-3.7,0-6.7-3.1-6.7-6.7l0,0c0-3.7,3.1-6.7,6.7-6.7h43.1c3.7,0,6.7,3.1,6.7,6.7l0,0
		C880.1,608.9,877.1,611.9,873.5,611.9z"/>
	<path class="st30" d="M837.7,605.3c-1.9-1.1-2.2-1.9-1.2-3.9c0.8-1.8,1.9-3.4,3-5.1c0.4-0.6,1.9-9,1.8-11.1c0-1.1-0.4-2.1-0.3-3.2
		c0-3.8-0.6-7.6-1.4-11.3c-1.1-4.9-0.3-9.9,0-14.9c0.3-4.7,0.9-9.4,2.2-14c0.7-2.7,2.2-4.8,4.5-6.3c0.6-0.5,0.9-0.9,0.7-1.7
		c-0.3-1.7-0.5-3.4-0.8-5.2c-0.1-0.5-0.6-1-1-1.3c-2.3-1.4-4.8-1.8-7.4-0.6c-1.1,0.5-2.3,0.6-3.6,1c0.1-0.8,0.2-1.5,0.4-2.2
		c-0.9,0.2-1.9,0.3-2.8,0.5c0-1.4,0.8-1.9,1.8-2.5c2.4-1.3,4.9-1.9,7.6-1.7c1.5,0.2,3,0.2,4.4,0.3c-0.1-1.4-0.6-2-1.9-2
		c-2.6,0.1-5.3,0-7.8,0.6c-4.4,1-8.4,0.5-12.2-2c-0.9-0.6-9.2-2.7-10-2.5c-1.6,0.5-3.2,0.8-4.8,1.2c-1.3,0.4-2.6,0.5-3.5-0.9V516
		c0.3-0.3,0.6-0.6,0.8-0.9c2.6-2.9,5.6-4.8,9.6-3.9c0.8,0.2,8.2,2,9,2.3c3.8,1.4,7.7,2.5,11.8,1.9c3.5-0.6,6.9-1.7,9.3-4.5
		c1.1-1.5,2.2-2.5,4.1-2.7c0.1,0,0.1-0.1,0.2-0.2c-0.2-0.4-0.5-0.8-0.7-1.3c-0.8-1.8-1.9-3.5-2.5-5.5s-0.3-4,1.4-5.6
		s3.4-2.9,5.7-3.6h3.1c0.5,0.1,0.8,0.3,1.3,0.5c3.9,1.5,7.5,3.3,7.9,8.2c0,0.4,0.2,0.8,0.3,1.2c0.7,2.2,1.4,4.5,2.3,6.8
		c0.7,1.8,3.3,11-1.6,10.6c-0.1,0-0.2,0-0.2,0c-0.8-0.3-1.2,0-1.6,0.8c-1.5,3.1-3.1,6.2-4.6,9.4c-0.3,0.6-0.7,1.1-1,1.8
		c-0.8,1.6-0.5,2.6,1.1,3.4c2.2,1.1,3.9,2.8,5.3,4.9c3.7,5.9,7.5,11.9,11.4,17.6c2.6,3.8,6.6,4.9,11,4.7v0.2
		c-2.2,2.2-4.5,4.4-6.8,6.8c-1.4,1.5-3,2-5,1.4c-0.1,0-0.1,0.1-0.3,0.1c0.2,0.5,0.5,0.8,0.7,1.4c-1.3,0.6-2.5,1.5-3.7,1.6
		c-1.2,0.2-2.5-0.5-3.9-0.7c0.5,0.6,0.9,1.3,1.6,2.1c-1.3,0.1-2.4,0.3-3.3,0.3c-0.2,3-0.3,5.9-0.6,8.8c-0.1,1.3,0.2,2.2,0.9,3.2
		c1.5,1.9,1.4,2.2,0.2,4.2c-1.1,1.8-2,3.6-3.1,5.5c-0.4,0.6-0.6,1.3-1,1.9c-1.7,2.4-6.6,4.4-6.3,1.4s1.6-3.2,2.4-4.8
		c0.6-1.3,0.8-8.7,1.7-9.6c0.2-0.3,0.5-0.6,0.5-0.9c-0.5-1.8-0.9-3.4-1.4-5.1c-0.3-0.9-0.8-1.2-1.8-0.7c-1.7,0.7-3.1,0.3-4.4-0.8
		c-0.4-0.3-0.7-0.6-1.4-1c0.4,1.1,0.6,1.9,0.8,2.8c-1.9-0.4-3.6-0.6-5.5-1c-0.7,2.7-1.6,5.4-2.2,8c-0.1,0.5,0,1.1,0.3,1.5
		c1.2,1.9,1.2,3.9,0.1,5.9c-1.3,2.3-2.6,4.6-3.9,7c-0.9,1.9-2,3.5-3.9,4.5L837.7,605.3L837.7,605.3z"/>
	<path class="st31" d="M846.9,534c0.2,0.7-0.9,0.9-1.7,1.4c-2.4,1.5-4,3.6-4.7,6.3c-1.3,4.5-2,9.3-2.3,14c-0.3,5-1.1,10,0,14.9
		c0,0-0.6,3.9-0.6,6.7s1.5,3.8,1.5,3.8s5.4-3.4,9.2-2.8c1.9,0.4,5,1.6,6.9,1.9c-0.3-0.9-0.6-1.7-0.9-2.8c0.6,0.5,1,0.6,1.4,1
		c1.4,1.1,1.8,1,3.5,0.4c0.9-0.4,1.5-0.5,1.8,0.4c0,0,0.7-3,2.6-3.1c1.9-0.2,4.4-1.3,4.4-1.3c0.9-0.1,2.1-0.2,3.5-0.3
		c-0.6-0.8-0.6-0.8-1.2-1.6c1.4,0.3,2.3,0.3,3.6,0.2c1.3-0.2,2.6-1,3.9-1.6c-0.3-0.6-0.1-0.4-0.4-0.8c0.1-0.1,0.2-0.1,0.3-0.1
		c2,0.6,3.3-0.5,4.8-1.9c2.3-2.3,4.7-4.5,7.1-6.8v-0.2c-4.6,0.2-8.9-0.9-11.6-4.7c-4.2-5.7-8.2-11.7-12-17.6c-1.4-2.1-3-4-5.3-5.1
		h-14V534H846.9z"/>
	<path class="st32" d="M848.5,507.8c0,0-1.8,5.3-1.6,8.5s2.5,7.2,7.6,4.8s9.2-12.2,9.2-12.2"/>
	<line class="st32" x1="820.6" y1="511.4" x2="817.6" y2="517.6"/>
	<line class="st32" x1="840.7" y1="520.9" x2="841.2" y2="527.2"/>
	<path class="st21" d="M823.5,326.8L823.5,326.8c-6.1,0-11.1-5-11.1-11.1v-43.8c0-6.1,5-11.1,11.1-11.1l0,0c6.1,0,11.1,5,11.1,11.1
		v43.8C834.6,321.8,829.6,326.8,823.5,326.8z"/>
	<path class="st33" d="M927.5,328.6c0-8.2-8.4-22.3-22.6-28.3c-19.2-8.1-48.7-6.7-82-6.7s-62.8-1.4-82,6.7
		c-14.2,5.9-22.6,20.1-22.6,28.3c0,19.2,46.4,28.2,104,28.3l0,0c0.2,0,0.4,0,0.6,0c0.2,0,0.4,0,0.6,0l0,0
		C881,356.9,927.5,347.8,927.5,328.6z"/>
	<g>
		<g>
			<g>
				<g>
					<defs>
						<path id="SVGID_3_" d="M924.5,324.8c0-8.2-8.2-22.4-22-28.3c-18.6-8.1-47.3-6.7-79.6-6.7c-32.2,0-61.1-1.4-79.6,6.7
							c-13.8,5.9-22,20.1-22,28.3c0,19.2,45.1,28.3,101.1,28.3l0,0c0.2,0,0.4,0,0.6,0c0.2,0,0.4,0,0.6,0l0,0
							C879.4,353.1,924.5,344.1,924.5,324.8z"/>
					</defs>
					<clipPath id="SVGID_4_">
						<use xlink:href="#SVGID_3_"  style="overflow:visible;"/>
					</clipPath>
					<path class="st34" d="M729.7,340.3l2.8,17.6h181.1l4.5-17.5c0,0-73.2-0.5-91.8-0.5C795.8,339.9,729.7,340.3,729.7,340.3z"/>
				</g>
			</g>
		</g>
	</g>
	<g>
		<g>
			<g>
				<g>
					<defs>
						<path id="SVGID_5_" d="M932.4,324.8c0-8.2-8.2-22.4-22-28.3c-18.6-8.1-47.3-6.7-79.6-6.7c-32.2,0-61.1-1.4-79.6,6.7
							c-13.8,5.9-22,20.1-22,28.3c0,24.8,45.1,28.3,101.1,28.3l0,0c0.2,0,0.4,0,0.6,0c0.2,0,0.4,0,0.6,0l0,0
							C887.2,353.1,932.4,344.1,932.4,324.8z"/>
					</defs>
					<clipPath id="SVGID_6_">
						<use xlink:href="#SVGID_5_"  style="overflow:visible;"/>
					</clipPath>
					<g class="st35">
						<g>
							<rect x="802.3" y="339" class="st36" width="43.1" height="20.7"/>
							<g>
								<path class="st7" d="M808.2,348.8l0.6-0.9c0.1-0.2,0.4-0.1,0.5-0.1s0.9,0.6,1.8,0.6c0.5,0,0.8-0.3,0.8-0.7s-0.5-0.8-1.3-1.2
									c-1.1-0.4-2.4-1.2-2.4-2.6c0-1.2,0.9-2.3,2.9-2.3c1.3,0,2.3,0.6,2.7,0.8c0.2,0.1,0.1,0.3,0.1,0.4l-0.6,0.9
									c-0.1,0.1-0.3,0.3-0.5,0.2c-0.1-0.1-1-0.7-1.8-0.7c-0.5,0-0.7,0.3-0.7,0.6c0,0.5,0.4,0.7,1.4,1.1c0.9,0.4,2.5,1.1,2.5,2.7
									c0,1.2-1.1,2.4-3,2.4c-1.6,0-2.5-0.6-2.8-0.9C808.1,349,808.1,349,808.2,348.8z"/>
								<path class="st7" d="M819.3,341.6c2.5,0,4.4,1.9,4.4,4.3c0,2.3-1.9,4.2-4.4,4.2s-4.4-1.9-4.4-4.2
									C814.8,343.5,816.8,341.6,819.3,341.6z M819.3,348.2c1.4,0,2.5-1,2.5-2.3s-1.1-2.3-2.5-2.3s-2.5,1.1-2.5,2.3
									S817.9,348.2,819.3,348.2z"/>
								<path class="st7" d="M825.2,342c0-0.1,0.1-0.2,0.3-0.2h1.5c0.1,0,0.3,0.1,0.3,0.2v6.3h3c0.1,0,0.3,0.1,0.3,0.2v1.3
									c0,0.1-0.1,0.2-0.3,0.2h-4.6c-0.1,0-0.3-0.1-0.3-0.2L825.2,342L825.2,342z"/>
								<path class="st7" d="M831.6,342c0-0.1,0.1-0.2,0.2-0.2h3.1c2.4,0,4.4,1.9,4.4,4.1c0,2.3-1.9,4.1-4.4,4.1h-3.1
									c-0.1,0-0.2-0.1-0.2-0.2V342z M834.8,348.2c1.4,0,2.4-1,2.4-2.4c0-1.3-1-2.4-2.4-2.4h-1.2v4.7L834.8,348.2L834.8,348.2z"/>
							</g>
						</g>
						<path class="st37" d="M847.1,311.1c1.5,5,3,10,4.4,14.9c0.7,2.6,1.6,5.1,2.2,7.7c0.2,0.6,0.1,1.1,0,1.7
							c-0.9,2.7-3.2,4.1-6.1,3.6c0,0.4,0,0.7,0,1.1c0,7.4,0,10,0,17.4c0,1.9-0.5,2.4-2.4,2.4c-14.4,0-28.7,0-43.1,0
							c-1.9,0-2.4-0.5-2.4-2.4c0-7.4,0-10,0-17.3c0-0.4,0-0.7,0-1.2c-2.6,0.6-4.4-0.6-5.7-2.5c-0.6-1-0.8-1.9-0.5-3.1
							c2.1-7,4.3-14.2,6.3-21.2c0.1-0.3,0.2-0.6,0.3-0.8c-0.2-0.1-0.6-0.2-0.6-0.4c-0.2-0.4-0.5-0.9-0.5-1.3
							c0.1-0.4,0.6-0.7,0.9-0.9c0.3-0.2,0.6-0.1,0.9-0.1c15.1,0,30.2,0,45.3,0c0.1,0,0.1,0,0.2,0c0.7,0,1.5,0.1,1.7,0.9
							C848.4,310.2,848,310.7,847.1,311.1z M803.1,337.1c0,0.5,0,0.6,0,0.9c0,5.8,0,6.9,0,12.8c0,1.7,0.6,5.5,2.2,5.5
							c12.2,0,24.5,0,36.7,0c1.7,0,2.2-3.8,2.2-5.5c0-5.8,0-6.9,0-12.8c0-0.3,0-0.6-0.1-0.9c-1.2,1.3-2.5,2-4.1,1.9
							c-1.7-0.2-2.8-1.3-3.7-2.5c-1.1,1.5-2.3,2.5-4.2,2.5s-3.1-1.1-4.3-2.5c-1.1,1.4-2.3,2.5-4.2,2.5s-3.1-1.2-4.3-2.5
							c-2.8,3.3-5.1,3.3-8.4,0C808.4,339.9,805.4,339.6,803.1,337.1z"/>
					</g>
				</g>
			</g>
		</g>
	</g>
</g>
<g id="radio">
	<g>
		<circle class="st21" cx="836.8" cy="669.9" r="18.4"/>
		<circle class="st21" cx="1018.2" cy="669.9" r="18.4"/>
		<circle class="st0" cx="836.8" cy="669.9" r="13.3"/>
		<circle class="st0" cx="1018.2" cy="669.9" r="13.3"/>
		<rect x="860.7" y="653.3" class="st24" width="136.9" height="33.2"/>
		<line class="st38" x1="872.3" y1="669.9" x2="986" y2="669.9"/>
		<line class="st39" x1="956" y1="658.2" x2="956" y2="681.7"/>
	</g>
</g>
<g id="glove_compartment">
	<rect x="1091.6" y="640.2" class="st40" width="268.8" height="60.5"/>
	<circle class="st41" cx="1226" cy="671.8" r="13.3"/>
	<line class="st42" x1="1226" y1="666.8" x2="1226" y2="678.4"/>
</g>
</svg>
