<?xml version="1.0" encoding="utf-8"?>
<!-- Generator: Adobe Illustrator 19.2.1, SVG Export Plug-In . SVG Version: 6.00 Build 0)  -->
<svg version="1.1" id="Layer_1" xmlns="http://www.w3.org/2000/svg" xmlns:xlink="http://www.w3.org/1999/xlink" x="0px" y="0px"
	 viewBox="0 0 1680 768" style="enable-background:new 0 0 1680 768;" xml:space="preserve">
<style type="text/css">
	.st0{fill:#FD9372;}
	.st1{fill:#9ADEFC;}
	.st2{fill:#3FA9F5;}
	.st3{fill:#2F86BC;}
	.st4{fill:#ACAFAF;}
	.st5{fill:#BEBEBE;}
	.st6{fill:#ED1E79;}
	.st7{fill:none;stroke:#4D4D4D;stroke-miterlimit:10;}
	.st8{fill:#231F20;}
	.st9{fill:none;stroke:#808080;stroke-width:3;stroke-miterlimit:10;}
	.st10{fill:#FF4A26;}
	.st11{fill:#808080;}
	.st12{fill:#EF95C0;}
	.st13{fill:#666666;}
	.st14{fill:#FFFFFF;}
	.st15{fill:#4D4D4D;}
	.st16{fill:#333333;}
	.st17{fill:#ED1C24;}
	.st18{fill:#F2F2F2;}
	.st19{clip-path:url(#SVGID_2_);}
	.st20{fill:#FBB03B;}
	.st21{fill:none;stroke:#000000;stroke-miterlimit:10;}
	.st22{fill:#004683;}
	.st23{fill:#009245;}
	.st24{fill:#CCCCCC;}
	.st25{clip-path:url(#SVGID_4_);}
	.st26{fill:none;stroke:#4D4D4D;stroke-linecap:round;stroke-miterlimit:10;}
	.st27{display:none;}
	.st28{display:inline;fill:#0071BC;}
	.st29{display:inline;fill:#29ABE2;}
	.st30{display:inline;fill:#004683;}
	.st31{display:inline;fill:#FFFFFF;}
	.st32{display:inline;fill:#ED1E79;}
	.st33{display:inline;fill:#CCCCCC;}
</style>
<g id="Layer_2">
	<rect y="668" class="st0" width="1680" height="100"/>
</g>
<rect x="640.1" y="363.2" class="st1" width="410.5" height="325.2"/>
<rect x="540.3" y="353.7" class="st2" width="17.7" height="414.3"/>
<polygon class="st3" points="558,768 640.1,688.4 640.1,363.2 558,353.7 "/>
<polygon class="st3" points="1050.6,363.2 1050.6,688.4 1132.7,768 1132.7,353.7 "/>
<rect x="1132.7" y="353.7" class="st2" width="17.7" height="414.3"/>
<rect x="610.4" y="550.8" class="st4" width="461.6" height="8.1"/>
<polygon class="st5" points="1072.1,550.8 610.4,550.8 640.1,532.4 1050.6,532.4 "/>
<path class="st6" d="M1000.8,374.4c-1.9,0.5-3.9,0.3-5.9,0.4c-0.2-0.3-0.3-0.7-0.5-1c1.8-1.9,3.6-3.8,5.5-5.9
	c-1.5-0.4-2.9-0.7-4.3-1c-23.9-6.1-40-28.9-38.4-54.3c1.6-24.9,20.2-45,44.6-48.1c24.6-3.2,48,13.7,54.4,39
	c6.9,27.8-9.4,56.1-36.6,63.3c-1.5,0.4-3,0.8-4.7,1.2c1.9,2.1,3.6,4,5.4,5.9c-0.2,0.4-0.4,0.8-0.6,1.2c-2.1-0.3-4.4-0.2-6.4-0.9
	L1000.8,374.4z"/>
<line class="st7" x1="1008.5" y1="374" x2="1008.5" y2="474"/>
<g>
	<path class="st8" d="M1002.1,511.9"/>
	<polyline class="st9" points="994.2,460.9 1021.8,488 998.1,513.7 	"/>
	<path class="st10" d="M994.7,461.2c-2.3,2.5-4.6,4.9-6.8,7.4c-0.2,0.2-0.2,0.9,0,1.2c3.3,10.2,0.6,19-6,27c-1.1,1.3-1.7,1.3-3,0.1
		c-10.4-9.5-20.9-19-31.3-28.5c-1.2-1.1-1.3-1.8,0-3c7.1-7.1,15.4-10.5,25.5-8.6c0.5,0.1,1.3-0.4,1.7-0.8c4.4-4.7,8.8-9.4,13.2-14.2
		c2.1-2.2,2.2-2.2,4.4-0.1c0.3,0.3,0.7,0.6,1.1,0.9c0.9-1,1.8-1.9,2.6-2.8s1.7-1,2.6-0.2c1.1,1,2.2,2.1,3.3,3.1
		c0.9,0.8,0.9,1.6,0.1,2.5c-0.8,0.9-1.7,1.9-2.7,2.9c0.8,0.7,1.5,1.5,2.3,2.2c1.3,1.2,1.3,1.8,0.1,3.2c-1.7,1.8-3.3,3.6-5.3,5.7
		L994.7,461.2z"/>
	<path class="st10" d="M1005,511.9c1.3,0,1.9,0.7,1.9,2c0,1.2,0.1,2.4,0,3.6c-0.1,1.2,0.3,1.7,1.5,2.1c5.7,1.6,10.7,4.6,13.9,9.8
		c1,1.7,1.7,3.6,2.4,5.5c0.6,1.6-0.1,2.4-1.7,2.4c-16.3,0-32.6,0-48.8,0c-1.7,0-2.3-0.7-1.8-2.4c1.8-7,6.5-11.4,13-14.2
		c1.2-0.5,2.4-0.9,3.7-1.2c0.9-0.2,1.2-0.7,1.1-1.6c-0.1-1.3,0-2.5,0-3.8c0-1.7,0.4-2.2,2.1-2.2
		C993.8,511.9,1004.2,511.9,1005,511.9z"/>
	<circle class="st10" cx="1020.8" cy="488" r="4.9"/>
	<circle class="st11" cx="1020.8" cy="488" r="2.1"/>
</g>
<path class="st12" d="M966.8,302.9c7.2-10.1,16-18.4,26.2-25.3c1-0.7,2.8-2.5,3.2-3.6s-3.3,0.1-4.3,0.3c-12.3,3.4-21,11.1-26.5,22.4
	C961.1,305.7,964.2,306.6,966.8,302.9z"/>
<path class="st13" d="M902.8,534.3c5.3,0,10.6,0,15.9,0c0.4,3.6-1.3,5.8-4.6,6.1c-0.6,0.1-1.1,0-1.7,0c-48.3,0-96.5,0-144.8,0
	c-4.6,0-6.5-1.7-6.4-6c5.1,0,10.1,0,15.3,0c0-12,0-23.8,0-35.5c0-10.6,0-21.2,0-31.8c0-4.4,1.6-6.1,6.1-6.1c37.9,0,75.8,0,113.8,0
	c4.7,0,6.2,1.5,6.2,6.2c0,22.1,0,44.3,0,66.4C902.6,533.8,902.7,533.9,902.8,534.3z M895.3,529.4c0-19.2,0-38.2,0-57.3
	c-37,0-74,0-110.9,0c0,19.2,0,38.2,0,57.3C821.4,529.4,858.3,529.4,895.3,529.4z"/>
<g>
	<rect x="784.4" y="467" class="st14" width="110.9" height="62.4"/>
	<rect x="794.5" y="467" class="st6" width="14.9" height="5.8"/>
	<rect x="795.4" y="467.9" class="st14" width="1.3" height="2"/>
	<rect x="796.4" y="468.9" class="st14" width="2.2" height="2"/>
	<rect x="797.2" y="467.9" class="st14" width="2.2" height="2"/>
	<rect x="800.5" y="469.4" class="st14" width="2.2" height="2"/>
	<rect x="799.8" y="468.4" class="st14" width="2.2" height="2"/>
	<rect x="801.3" y="468.9" class="st14" width="2.2" height="2"/>
	<rect x="802.6" y="468.9" class="st14" width="2.2" height="2"/>
	<rect x="803.5" y="468.4" class="st14" width="2.2" height="2"/>
	<rect x="786.2" y="468.4" width="2.2" height="2"/>
	<rect x="787.9" y="469.2" width="2.2" height="2"/>
	<rect x="787.1" y="469.9" width="2.2" height="2"/>
	<rect x="790.1" y="469.4" width="2.2" height="2"/>
	<rect x="790.9" y="468.4" width="2.2" height="2"/>
	<rect x="786.2" y="474.2" class="st15" width="107.1" height="48.1"/>
	<rect x="786.2" y="521" class="st16" width="107.1" height="1.9"/>
	<rect x="786.2" y="521" class="st17" width="45.4" height="1.9"/>
	<rect x="786.2" y="522.9" width="107.1" height="3.8"/>
	<rect x="789" y="524.2" class="st18" width="1.4" height="1.5"/>
	<rect x="792" y="524.2" class="st18" width="1.4" height="1.5"/>
	<rect x="794.7" y="524.2" class="st18" width="1.4" height="1.5"/>
	<rect x="877.9" y="524.2" class="st18" width="1.4" height="1.5"/>
	<rect x="881.3" y="524.2" class="st18" width="1.4" height="1.5"/>
</g>
<g>
	<g>
		<g>
			<defs>
				<rect id="SVGID_1_" x="786.3" y="476.7" width="107.1" height="44.3"/>
			</defs>
			<clipPath id="SVGID_2_">
				<use xlink:href="#SVGID_1_"  style="overflow:visible;"/>
			</clipPath>
			<g class="st19">
				<rect x="819.2" y="489.4" class="st20" width="39.5" height="28.7"/>
				<rect x="824.7" y="480.7" class="st20" width="8.3" height="9.7"/>
				<rect x="844.2" y="480.7" class="st20" width="8.3" height="9.7"/>
				<g>
					<rect x="824.7" y="494.5" class="st14" width="8.3" height="4.6"/>
					<rect x="827.5" y="495.7" width="2.6" height="2.2"/>
				</g>
				<g>
					<rect x="844.2" y="494.5" class="st14" width="8.3" height="4.6"/>
					<rect x="847" y="495.7" width="2.6" height="2.2"/>
				</g>
				<line class="st21" x1="838.1" y1="505.9" x2="828.8" y2="507.8"/>
				<line class="st21" x1="838.1" y1="505.2" x2="828.8" y2="504"/>
				<line class="st21" x1="839.6" y1="505.9" x2="848.9" y2="507.8"/>
				<line class="st21" x1="839.6" y1="505.2" x2="848.9" y2="504"/>
				<rect x="836.9" y="503.6" class="st6" width="4.1" height="4.1"/>
				<rect x="826.7" y="485.6" class="st6" width="4.1" height="4.1"/>
				<rect x="846.3" y="485.6" class="st6" width="4.1" height="4.1"/>
				<rect x="819.2" y="506" width="6.8" height="2.2"/>
				<rect x="851.9" y="506" width="6.8" height="2.2"/>
				<rect x="819.2" y="509.5" width="6.8" height="2.2"/>
				<rect x="851.9" y="509.5" width="6.8" height="2.2"/>
				<rect x="805.4" y="517.1" class="st20" width="67" height="44"/>
				<rect x="805.4" y="528.7" width="17.1" height="8.4"/>
				<rect x="805.4" y="541.8" width="17.1" height="8.4"/>
				<rect x="855.3" y="528.7" width="17.1" height="8.4"/>
				<rect x="855.3" y="541.8" width="17.1" height="8.4"/>
			</g>
		</g>
	</g>
</g>
<g>
	<path class="st22" d="M904.3,657.8c-0.1,1.1-0.2,2.1-0.2,3c0,11,0.1,21.9-0.1,32.9c0,2.6,0.7,3.4,3.3,3.7
		c20.3,2.3,37.8,11,53.2,24.1c3.5,3,4,8.1,1.4,11.9c-2.5,3.6-7.3,4.9-11.3,3s-6-6.3-4.8-10.7c0.2-0.8,0.6-1.6,1-2.6
		c-14.1-10-29.5-15.6-47.2-16.7c0,4.6-0.1,8.9,0.1,13.3c0,0.7,0.8,1.5,1.3,2.2c3.6,4.3,3.4,9.8-0.5,13.2c-3.6,3.1-9.2,2.9-12.5-0.6
		c-3.5-3.6-3.3-9.1,0.4-13c0.6-0.7,1.4-1.6,1.4-2.4c0.1-4.1,0.1-8.2,0.1-12.7c-9.3,0.3-18.1,2-26.3,5.6c-6.5,2.8-12.7,6.5-19,9.8
		c-1.6,0.8-2,1.8-1.4,3.8c1.5,4.9-1,9.6-5.4,11.2c-4.5,1.6-9.6-0.6-11.5-5c-1.9-4.5,0-9,4.4-11.7c3.8-2.3,7.3-5.1,11.1-7.6
		c12.4-8.2,26.1-13.2,40.8-15.1c1.5-0.2,2.6-0.3,2.5-2.2v-37.4H904.3z"/>
	<path class="st10" d="M894.5,657.8"/>
	<path class="st10" d="M912.7,615.4c6.1,0,12.1,0.1,18,0c9.9-0.2,15.9-6.3,15.4-16.2c-1.2-24.4-2.5-48.7-3.9-73.1
		c-0.6-10-6.5-15.4-16.6-15.5c-9.5-0.1-19,0-28.5,0c-11.4,0-22.8-0.1-34.2,0c-9.5,0.1-15.2,5.4-16,14.9c-0.3,3.9-0.4,7.8-0.6,11.7
		c-1.1,20.9-2.2,41.8-3.3,62.7c-0.2,4.5,1.3,8.4,4.6,11.5c3.1,2.9,6.9,4,11.1,3.9c5.9,0,11.8,0,17.9,0L912.7,615.4z"/>
	<path class="st10" d="M884.8,657.8c-8.8,0-17.2,0-25.5,0c-4.8,0-9.6,0-14.4,0c-9.9-0.1-17.7-7.6-17.9-17.2
		c-0.3-9.6,7.1-17.6,17.1-18c9.5-0.3,19-0.1,28.5-0.1c1.3,0,2.6,0,4.1,0l36.1-0.2c1.1,0.1,2.3,0.2,3.5,0.2c9.4,0,18.8-0.2,28.2,0.1
		c12.5,0.3,20.8,11.6,17.1,23.1c-2.3,7.2-8.9,12-16.8,12.1c-12.2,0.1-24.4,0-36.6,0c-1.2,0-2.5,0-4,0L884.8,657.8L884.8,657.8z"/>
	<rect x="875.4" y="583.5" class="st22" width="38.3" height="80.3"/>
</g>
<g>
	<polygon class="st15" points="684.9,519 665.1,527.9 663.1,539 674.9,539 688.6,522.9 	"/>
	<g>
		<rect x="685" y="493.2" class="st14" width="45.1" height="45.5"/>
		<path class="st23" d="M697.4,543.3c-3.7,0-7.3,0-11,0c-0.3,0-0.6,0.3-0.8,0.5c-1.6,1.5-3.4,2-5.4,1.2c-1.9-0.7-3-2.1-3.2-4.1
			c-0.2-2.2,0.7-3.8,2.6-5c0.3-0.2,0.7-0.6,0.7-0.9c0-3.6,0-7.2,0-10.8c0-0.1,0-0.2-0.1-0.4c-2.2-0.2-3.9-1.2-4.7-3.4
			s-0.1-4,1.5-5.6c-3.6-3.5-1.4-8.7,3.2-9c0-0.3,0.1-0.6,0.1-0.9c0-3.1,0-6.2,0-9.3c0-0.6-0.1-0.9-0.7-1.2c-2-1.1-3-3.2-2.5-5.3
			c0.4-2,2.1-3.7,4.1-4c2.2-0.3,4.2,0.7,5.3,2.7c0.2,0.3,0.6,0.7,0.9,0.7c3.2,0,6.4,0,9.6,0c0.1,0,0.3,0,0.4-0.1c1.2-5,5.1-6.2,9-3
			c3.5-3.5,8.4-1.4,9,3c0.3,0,0.6,0.1,0.9,0.1c3.6,0,7.3,0,10.9,0c0.6,0,1-0.1,1.3-0.7c1-2,3-3,5.2-2.7c2,0.3,3.6,1.8,4.1,3.8
			s-0.3,4.1-2.1,5.3c-0.3,0.2-0.6,0.6-0.6,0.9c0,3.6,0,7.1,0,10.8c2.1,0.4,3.7,1.4,4.4,3.5s0,3.9-1.6,5.4c3.2,3,2.1,8-2.8,9
			c0,2.3,0,4.5,0,6.8c0,1.5,0,2.9,0,4.4c0,0.4,0.3,0.9,0.6,1.1c2.5,1.8,3.1,5.1,1.2,7.4c-1.9,2.3-5.2,2.4-7.5,0.3
			c-0.3-0.2-0.7-0.5-1-0.5c-4.2,0-8.3,0-12.5,0c-0.2,0-0.3,0-0.5,0.1c-0.7,4.8-5.8,6.3-9,3C703.1,549.8,698.1,548,697.4,543.3z
			 M729.3,494.3c-14.4,0-28.8,0-43.2,0c0,14.4,0,28.8,0,43.2c14.4,0,28.8,0,43.2,0C729.3,523.1,729.3,508.8,729.3,494.3z"/>
		<path class="st24" d="M690.5,498.8c11.4,0,22.7,0,34.1,0c0,11.4,0,22.7,0,34.1c-11.3,0-22.7,0-34.1,0
			C690.5,521.6,690.5,510.3,690.5,498.8z"/>
	</g>
	<g>
		<g>
			<g>
				<defs>
					<path id="SVGID_3_" d="M690.5,498.8c11.4,0,22.7,0,34.1,0c0,11.4,0,22.7,0,34.1c-11.3,0-22.7,0-34.1,0
						C690.5,521.6,690.5,510.3,690.5,498.8z"/>
				</defs>
				<clipPath id="SVGID_4_">
					<use xlink:href="#SVGID_3_"  style="overflow:visible;"/>
				</clipPath>
				<g class="st25">
					<path class="st15" d="M703.2,537c-3.5,0-6.8,0-10.3,0c0-0.2,0-0.4,0-0.6c0-5.4,0-10.7,0-16.1c0-1,0.2-2,0.7-3
						c1.1-2.1,2.7-3.3,5.2-3.2c-2-0.7-3.5-2-4.4-4s-0.8-4,0.1-5.9c1.6-3.3,5.3-4.8,8.7-3.6c3.4,1.2,5.4,4.7,4.6,8.3
						c-0.7,3.2-3.9,6-8.1,5.5v0.1c2.6,1.2,3.7,3.3,3.7,6c0,0.2,0.2,0.5,0.3,0.6c1.8,1.5,3.6,3,5.4,4.6c-1.1,1.3-2.2,2.6-3.3,3.9
						c-0.9-0.8-1.8-1.5-2.7-2.3C703.2,530.5,703.2,533.7,703.2,537z"/>
					<path class="st15" d="M722.8,536.9c-3.3,0-6.5,0-9.8,0c0-3,0-5.9,0-9c-1.3,1.5-2.5,3-3.7,4.4c-1-0.8-2-1.7-3-2.5
						c1.3-1.5,2.5-3,3.7-4.4c0.9-1.1,1.8-2.1,2.7-3.2c0.3-0.3,0.4-0.6,0.4-1c0-0.9,0-1.9,0.2-2.8c0.6-2.5,2.9-4.1,5.2-3.8
						c2.5,0.3,4.4,2.5,4.4,5.2c0,5.6,0,11.2,0,16.7C722.8,536.6,722.8,536.8,722.8,536.9z"/>
					<path class="st15" d="M708.2,508.3c0-3.6,2.9-6.6,6.5-6.6s6.6,2.9,6.6,6.5s-2.9,6.6-6.6,6.6
						C711.1,514.8,708.2,511.9,708.2,508.3z"/>
					<path class="st6" d="M708.5,516.3c0.6-0.5,1.2-0.7,2-0.5c1.3,0.3,1.9,1.9,0.9,2.9s-2,1.9-3.1,2.9c-0.9-1-2-2.1-3-3.3
						c-0.6-0.7-0.4-1.6,0.2-2.2c0.6-0.6,1.7-0.7,2.5-0.2C708.1,515.9,708.2,516.1,708.5,516.3z"/>
				</g>
			</g>
		</g>
	</g>
</g>
<line class="st26" x1="1008.5" y1="472.4" x2="1006.4" y2="475.1"/>
<path class="st7" d="M1008.3,472.4c0,0,1.7-1,2.7-1s1.6,1.1,0.7,1.8s-3.4-0.3-3.4-0.3"/>
<g>
	<path class="st14" d="M974.8,314.3c-0.1-0.2,0.1-0.4,0.2-0.4l1.6-0.4c0.1,0,0.2,0,0.2,0.1l1.2,4.5h0.1l2.1-5.6
		c0-0.1,0.1-0.2,0.2-0.2l0.2-0.1c0.1,0,0.2,0,0.2,0.1l2.1,4.5h0.1l1.2-5.2c0-0.1,0.1-0.2,0.2-0.3l1.6-0.4c0.2-0.1,0.3,0.1,0.2,0.3
		l-2.6,10.3c0,0.1-0.1,0.2-0.2,0.3l-0.2,0.1c-0.1,0-0.2,0-0.2-0.1l-2.5-5.2l0,0l-2.5,6.5c0,0.1-0.1,0.2-0.2,0.2l-0.2,0.1
		c-0.1,0-0.2,0-0.2-0.1L974.8,314.3z"/>
	<path class="st14" d="M987.8,310.8c0-0.1,0.1-0.3,0.3-0.3l5.7-1.5c0.2,0,0.3,0.1,0.3,0.2v1.6c0,0.1-0.1,0.3-0.3,0.3l-3.8,1v1.8
		l3.1-0.8c0.1,0,0.3,0.1,0.3,0.2v1.6c0,0.2-0.1,0.3-0.3,0.3L990,316v1.9l3.8-1c0.2,0,0.3,0.1,0.3,0.2v1.6c0,0.1-0.1,0.3-0.3,0.3
		l-5.7,1.5c-0.2,0-0.3-0.1-0.3-0.2V310.8z"/>
	<path class="st14" d="M995.8,308.7c0-0.1,0.1-0.3,0.3-0.3l1.6-0.4c0.1,0,0.3,0.1,0.3,0.2v7.6l3.2-0.9c0.1,0,0.3,0.1,0.3,0.2v1.6
		c0,0.1-0.1,0.3-0.3,0.3l-5.1,1.3c-0.2,0-0.3-0.1-0.3-0.2V308.7z"/>
	<path class="st14" d="M1006.9,305.4c1.4-0.4,2.4-0.2,3.3,0.5c0.1,0.1,0.1,0.3,0,0.4l-1.1,1.4c-0.1,0.1-0.2,0.2-0.3,0.1
		c-0.5-0.3-1.2-0.4-1.8-0.2c-1.5,0.4-2.7,2-2.7,3.6s1.2,2.6,2.7,2.2c0.6-0.2,1.3-0.6,1.8-1.2c0.1-0.1,0.3-0.2,0.4-0.1l1.1,0.9
		c0.1,0.1,0.1,0.3,0,0.4c-0.9,1.2-2.1,1.9-3.3,2.3c-2.7,0.7-4.9-1-4.9-3.8C1002,309,1004.2,306.1,1006.9,305.4z"/>
	<path class="st14" d="M1016.1,303c2.7-0.7,4.9,1,4.9,3.9s-2.2,5.7-4.9,6.4c-2.7,0.7-4.9-1-4.9-3.8
		C1011.2,306.5,1013.3,303.7,1016.1,303z M1016.1,311c1.5-0.4,2.7-2,2.7-3.6s-1.2-2.6-2.7-2.2s-2.7,2-2.7,3.6
		C1013.3,310.4,1014.6,311.4,1016.1,311z"/>
	<path class="st14" d="M1023.6,301.2c0-0.1,0.1-0.3,0.2-0.3l0.2-0.1c0.1,0,0.2,0,0.2,0.1l3.2,5.3l0,0l3.2-7c0-0.1,0.2-0.2,0.2-0.2
		l0.2-0.1c0.1,0,0.2,0,0.2,0.2l1.6,9.2c0,0.2-0.1,0.3-0.3,0.4l-1.6,0.4c-0.1,0-0.2,0-0.3-0.2l-0.6-4.3l0,0l-2.3,5.2
		c0,0.1-0.2,0.2-0.2,0.2l-0.2,0.1c-0.1,0-0.2,0-0.2-0.1l-2.3-4l0,0l-0.6,4.6c0,0.1-0.1,0.3-0.3,0.3l-1.6,0.4c-0.2,0-0.3-0.1-0.3-0.2
		L1023.6,301.2z"/>
	<path class="st14" d="M1034.6,298.5c0-0.1,0.1-0.3,0.3-0.3l5.7-1.5c0.1,0,0.3,0.1,0.3,0.2v1.6c0,0.1-0.1,0.3-0.3,0.3l-3.8,1v1.8
		l3.1-0.8c0.1,0,0.3,0.1,0.3,0.2v1.6c0,0.2-0.1,0.3-0.3,0.3l-3.1,0.8v1.9l3.8-1c0.1,0,0.3,0.1,0.3,0.2v1.6c0,0.1-0.1,0.3-0.3,0.3
		l-5.7,1.5c-0.2,0-0.3-0.1-0.3-0.2V298.5z"/>
	<path class="st14" d="M977.7,340l4.3-10.7c0-0.1,0.1-0.2,0.2-0.2h0.1c0.1,0,0.2,0,0.2,0.1l4.3,8.5c0.1,0.2,0,0.4-0.2,0.4l-1.5,0.4
		c-0.2,0.1-0.4,0-0.5-0.2l-0.5-1l-3.7,1l-0.5,1.3c-0.1,0.2-0.2,0.4-0.5,0.5l-1.5,0.4C977.7,340.3,977.6,340.2,977.7,340z
		 M983.3,335.5l-1-2.1l0,0l-1,2.6L983.3,335.5z"/>
	<path class="st14" d="M987.9,327.9c0-0.1,0.1-0.3,0.3-0.3l3.2-0.8c1.6-0.4,2.9,0.4,2.9,1.9c0,1.1-0.9,2.1-1.6,2.7
		c0.7,0.1,1.8,0.5,1.8,1.9c0,1.6-1.3,3.1-3,3.5l-3.4,0.9c-0.2,0-0.3-0.1-0.3-0.2L987.9,327.9z M991.1,330.9c0.5-0.1,1-0.7,1-1.3
		c0-0.6-0.4-0.9-1-0.7l-1.1,0.3v2L991.1,330.9z M991.3,334.7c0.5-0.1,1-0.7,1-1.3c0-0.6-0.6-0.8-1.1-0.7l-1.1,0.3v2L991.3,334.7z"/>
	<path class="st14" d="M1000.5,324.2c2.7-0.7,4.9,1,4.9,3.9s-2.2,5.7-4.9,6.4c-2.7,0.7-4.9-1-4.9-3.8
		C995.6,327.8,997.8,324.9,1000.5,324.2z M1000.5,332.2c1.5-0.4,2.7-2,2.7-3.6s-1.2-2.6-2.7-2.2s-2.7,2-2.7,3.6
		S999,332.6,1000.5,332.2z"/>
	<path class="st14" d="M1005.8,332.6l4.3-10.7c0-0.1,0.1-0.2,0.2-0.2h0.1c0.1,0,0.2,0,0.2,0.1l4.3,8.5c0.1,0.2,0,0.4-0.2,0.4
		l-1.5,0.4c-0.2,0.1-0.4,0-0.5-0.2l-0.5-1l-3.7,1l-0.5,1.3c-0.1,0.2-0.2,0.4-0.5,0.5l-1.5,0.4C1005.8,333,1005.7,332.8,1005.8,332.6
		z M1011.4,328.1l-1-2.1l0,0l-1,2.6L1011.4,328.1z"/>
	<path class="st14" d="M1016,320.6c0-0.1,0.1-0.3,0.3-0.3l4.1-1.1c1.6-0.4,3,0.6,3,2.3c0,1.3-0.8,2.6-2,3.4l1.9,3.1
		c0.1,0.2,0,0.4-0.2,0.5l-1.8,0.5c-0.1,0-0.2,0-0.2-0.1l-1.8-3.3l-0.9,0.2v3.6c0,0.1-0.1,0.3-0.3,0.3l-1.6,0.4
		c-0.2,0-0.3-0.1-0.3-0.2L1016,320.6z M1020.2,323.5c0.6-0.1,1-0.8,1-1.4s-0.5-1-1-0.8l-2,0.5v2.2L1020.2,323.5z"/>
	<path class="st14" d="M1025.1,318.2c0-0.1,0.1-0.3,0.2-0.3l3.3-0.9c2.6-0.7,4.8,1,4.8,3.7c0,2.8-2.1,5.6-4.8,6.3l-3.3,0.9
		c-0.1,0-0.2-0.1-0.2-0.2V318.2z M1028.6,324.9c1.5-0.4,2.7-2,2.7-3.6s-1.1-2.6-2.7-2.2l-1.3,0.3v5.8L1028.6,324.9z"/>
	<path class="st14" d="M1036.1,322.5c0.7-0.2,1.3,0.3,1.3,1s-0.6,1.5-1.3,1.7s-1.3-0.3-1.3-1
		C1034.8,323.4,1035.4,322.6,1036.1,322.5z M1035.5,321.1l-0.7-3.8v-1.6c0-0.1,0.1-0.3,0.3-0.3l1.9-0.5c0.1,0,0.3,0.1,0.3,0.2v1.6
		l-0.7,4.2c0,0.1-0.1,0.3-0.3,0.3l-0.6,0.2C1035.7,321.2,1035.5,321.2,1035.5,321.1z"/>
</g>
<g id="Layer_2_1_" class="st27">
	<rect x="1216.4" y="509.9" class="st28" width="15" height="12.5"/>
	<path class="st29" d="M1210.9,515h26c13.8,0,25-11.2,25-25v-35.5V423v-27.1h-76V423v31.4V490C1185.9,503.7,1197.2,515,1210.9,515z"
		/>
	<path class="st28" d="M1261.5,401.7h-75.1c-3.2,0-5.8-2.6-5.8-5.8l0,0c0-3.2,2.6-5.8,5.8-5.8h75.1c3.2,0,5.8,2.6,5.8,5.8l0,0
		C1267.2,399.1,1264.6,401.7,1261.5,401.7z"/>
	<path class="st28" d="M1261.5,424.4h-75.1c-3.2,0-5.8-2.6-5.8-5.8l0,0c0-3.2,2.6-5.8,5.8-5.8h75.1c3.2,0,5.8,2.6,5.8,5.8l0,0
		C1267.2,421.8,1264.6,424.4,1261.5,424.4z"/>
	<path class="st28" d="M1261.5,493.7h-75.1c-3.2,0-5.8-2.6-5.8-5.8l0,0c0-3.2,2.6-5.8,5.8-5.8h75.1c3.2,0,5.8,2.6,5.8,5.8l0,0
		C1267.2,491.1,1264.6,493.7,1261.5,493.7z"/>
	<path class="st30" d="M1254.4,649h-60.9c-6.6,0-12-5.4-12-12V532c0-6.6,5.4-12,12-12h60.9c6.6,0,12,5.4,12,12v105
		C1266.4,643.6,1261,649,1254.4,649z"/>
	<path class="st31" d="M1191.9,593.7v-53.3c0-6.6,5.4-12,12-12h40c6.6,0,12,5.4,12,12v53.3H1191.9z"/>
	<polygon class="st32" points="1214.4,560 1210.9,560 1208.9,538.5 1216.4,538.5 	"/>
	<circle class="st32" cx="1212.6" cy="550" r="4.7"/>
	<polygon class="st29" points="1236.9,560 1233.4,560 1231.4,538.5 1238.9,538.5 	"/>
	<circle class="st29" cx="1235.2" cy="550" r="4.7"/>
	<rect x="1181.5" y="636.6" class="st30" width="84.9" height="94.9"/>
	<rect x="1198.2" y="584.4" class="st33" width="51.3" height="6.7"/>
</g>
</svg>
