<?xml version="1.0" encoding="utf-8"?>
<!-- Generator: Adobe Illustrator 19.2.1, SVG Export Plug-In . SVG Version: 6.00 Build 0)  -->
<svg version="1.1" id="Layer_2" xmlns="http://www.w3.org/2000/svg" xmlns:xlink="http://www.w3.org/1999/xlink" x="0px" y="0px"
	 viewBox="0 0 1680 786" style="enable-background:new 0 0 1680 786;" xml:space="preserve">
<style type="text/css">
	.st0{fill:#FD9372;}
	.st1{fill:#6C6CF0;}
	.st2{fill:#9B7445;}
	.st3{fill:#735232;}
	.st4{fill:#919B8F;}
	.st5{fill:#596856;}
</style>
<rect class="st0" width="1680" height="686"/>
<rect y="686" class="st1" width="1680" height="100"/>
<rect x="422.1" y="599.6" class="st2" width="129" height="73.1"/>
<rect x="478.1" y="672.7" class="st3" width="17" height="25"/>
<polygon class="st4" points="300.9,686 326.5,584 350.9,686 "/>
<polygon class="st5" points="398.9,686 364.3,540 327.9,686 "/>
<polygon class="st5" points="1143.9,686 1169.5,584 1193.9,686 "/>
<polygon class="st4" points="1241.9,686 1207.3,540 1170.9,686 "/>
<g>
	<path class="st3" d="M433.5,618.9c0-0.2,0.1-0.3,0.3-0.3h7.5c0.2,0,0.3,0.2,0.3,0.3v2c0,0.2-0.1,0.3-0.3,0.3h-5v2.6h4.1
		c0.2,0,0.3,0.2,0.3,0.3v2c0,0.2-0.2,0.3-0.3,0.3h-4.1v4.4c0,0.2-0.2,0.3-0.3,0.3h-2.1c-0.2,0-0.3-0.2-0.3-0.3V618.9z"/>
	<path class="st3" d="M445.4,618.9c0-0.2,0.2-0.3,0.3-0.3h2.2c0.2,0,0.3,0.2,0.3,0.3v11.9c0,0.2-0.2,0.3-0.3,0.3h-2.2
		c-0.2,0-0.3-0.2-0.3-0.3V618.9z"/>
	<path class="st3" d="M453.1,618.7c0-0.2,0.2-0.3,0.3-0.3h0.5l7.2,6.9h0v-6.4c0-0.2,0.1-0.3,0.3-0.3h2.2c0.2,0,0.3,0.2,0.3,0.3V631
		c0,0.2-0.2,0.3-0.3,0.3h-0.3c-0.1,0-0.2-0.1-0.2-0.1l-7.1-7.1h0v6.7c0,0.2-0.1,0.3-0.3,0.3h-2.1c-0.2,0-0.3-0.2-0.3-0.3
		L453.1,618.7z"/>
	<path class="st3" d="M467.2,630.7l5.6-12.1c0.1-0.1,0.2-0.2,0.3-0.2h0.2c0.1,0,0.3,0.1,0.3,0.2l5.6,12.1c0.1,0.2,0,0.5-0.3,0.5h-2
		c-0.3,0-0.5-0.1-0.6-0.5l-0.6-1.4h-4.9l-0.6,1.4c-0.1,0.2-0.3,0.4-0.6,0.4h-2C467.3,631.1,467.1,630.9,467.2,630.7z M474.6,626.8
		l-1.4-3h0l-1.4,3H474.6z"/>
	<path class="st3" d="M482.5,618.7c0-0.2,0.2-0.3,0.3-0.3h0.5l7.2,6.9h0v-6.4c0-0.2,0.1-0.3,0.3-0.3h2.2c0.2,0,0.3,0.2,0.3,0.3V631
		c0,0.2-0.2,0.3-0.3,0.3h-0.3c-0.1,0-0.2-0.1-0.2-0.1l-7.1-7.1h0v6.7c0,0.2-0.1,0.3-0.3,0.3h-2.1c-0.2,0-0.3-0.2-0.3-0.3
		L482.5,618.7z"/>
	<path class="st3" d="M503.9,618.4c1.8,0,3.1,0.6,4.4,1.7c0.2,0.1,0.2,0.4,0,0.5l-1.4,1.5c-0.1,0.1-0.3,0.1-0.5,0
		c-0.7-0.6-1.5-0.9-2.4-0.9c-2,0-3.5,1.7-3.5,3.7c0,2,1.5,3.7,3.5,3.7c0.8,0,1.8-0.3,2.4-0.9c0.1-0.1,0.4-0.1,0.5,0l1.4,1.5
		c0.1,0.1,0.1,0.4,0,0.5c-1.2,1.2-2.8,1.7-4.4,1.7c-3.6,0-6.5-2.9-6.5-6.5C497.4,621.3,500.3,618.4,503.9,618.4z"/>
	<path class="st3" d="M512.2,618.9c0-0.2,0.2-0.3,0.3-0.3h2.2c0.2,0,0.3,0.2,0.3,0.3v11.9c0,0.2-0.2,0.3-0.3,0.3h-2.2
		c-0.2,0-0.3-0.2-0.3-0.3V618.9z"/>
	<path class="st3" d="M518.3,630.7l5.6-12.1c0.1-0.1,0.2-0.2,0.3-0.2h0.2c0.1,0,0.3,0.1,0.3,0.2l5.6,12.1c0.1,0.2,0,0.5-0.3,0.5h-2
		c-0.3,0-0.5-0.1-0.6-0.5l-0.6-1.4h-4.9l-0.6,1.4c-0.1,0.2-0.3,0.4-0.6,0.4h-2C518.3,631.1,518.2,630.9,518.3,630.7z M525.7,626.8
		l-1.4-3h0l-1.4,3H525.7z"/>
	<path class="st3" d="M533.6,618.9c0-0.2,0.1-0.3,0.3-0.3h2.1c0.2,0,0.3,0.2,0.3,0.3v9.6h4.3c0.2,0,0.3,0.2,0.3,0.3v2
		c0,0.2-0.1,0.3-0.3,0.3H534c-0.2,0-0.3-0.2-0.3-0.3V618.9z"/>
	<path class="st3" d="M446.2,640c1.8,0,3.1,0.6,4.4,1.7c0.2,0.1,0.2,0.4,0,0.5l-1.4,1.5c-0.1,0.1-0.3,0.1-0.5,0
		c-0.7-0.6-1.5-0.9-2.4-0.9c-2,0-3.5,1.7-3.5,3.7c0,2,1.5,3.7,3.5,3.7c0.8,0,1.8-0.3,2.4-0.9c0.1-0.1,0.4-0.1,0.5,0l1.4,1.5
		c0.1,0.1,0.1,0.4,0,0.5c-1.2,1.2-2.8,1.7-4.4,1.7c-3.6,0-6.5-2.9-6.5-6.5C439.7,642.9,442.6,640,446.2,640z"/>
	<path class="st3" d="M454.5,640.5c0-0.2,0.2-0.3,0.3-0.3h2.1c0.2,0,0.3,0.2,0.3,0.3v4.5h5.1v-4.5c0-0.2,0.1-0.3,0.3-0.3h2.1
		c0.2,0,0.3,0.2,0.3,0.3v11.9c0,0.2-0.2,0.3-0.3,0.3h-2.1c-0.2,0-0.3-0.2-0.3-0.3v-4.7h-5.1v4.7c0,0.2-0.1,0.3-0.3,0.3h-2.1
		c-0.2,0-0.3-0.2-0.3-0.3V640.5z"/>
	<path class="st3" d="M470.2,640.5c0-0.2,0.1-0.3,0.3-0.3h7.5c0.2,0,0.3,0.2,0.3,0.3v2c0,0.2-0.1,0.3-0.3,0.3h-5v2.2h4.1
		c0.2,0,0.3,0.2,0.3,0.3v2c0,0.2-0.2,0.3-0.3,0.3H473v2.4h5c0.2,0,0.3,0.2,0.3,0.3v2c0,0.2-0.1,0.3-0.3,0.3h-7.5
		c-0.2,0-0.3-0.2-0.3-0.3V640.5z"/>
	<path class="st3" d="M488.2,640c1.8,0,3.1,0.6,4.4,1.7c0.2,0.1,0.2,0.4,0,0.5l-1.4,1.5c-0.1,0.1-0.3,0.1-0.5,0
		c-0.7-0.6-1.5-0.9-2.4-0.9c-2,0-3.5,1.7-3.5,3.7c0,2,1.5,3.7,3.5,3.7c0.8,0,1.8-0.3,2.4-0.9c0.1-0.1,0.4-0.1,0.5,0l1.4,1.5
		c0.1,0.1,0.1,0.4,0,0.5c-1.2,1.2-2.8,1.7-4.4,1.7c-3.6,0-6.5-2.9-6.5-6.5C481.7,642.9,484.5,640,488.2,640z"/>
	<path class="st3" d="M496.5,640.6c0-0.2,0.2-0.4,0.4-0.4h2.1c0.2,0,0.4,0.2,0.4,0.4v4.7l4-5c0.1-0.1,0.2-0.2,0.3-0.2h2.3
		c0.3,0,0.5,0.4,0.3,0.7l-4.2,5.3l4.6,6c0.2,0.3,0,0.7-0.3,0.7h-2.5c-0.1,0-0.3-0.1-0.3-0.1l-4.2-5.7v5.4c0,0.2-0.2,0.4-0.4,0.4
		h-2.1c-0.3,0-0.4-0.2-0.4-0.4V640.6z"/>
	<path class="st3" d="M510.1,640.5c0-0.2,0.2-0.3,0.3-0.3h2.2c0.2,0,0.3,0.2,0.3,0.3v7.3c0,1.3,0.9,2.3,2.2,2.3c1.3,0,2.3-1,2.3-2.3
		v-7.3c0-0.2,0.1-0.3,0.3-0.3h2.2c0.2,0,0.3,0.2,0.3,0.3v7.4c0,2.7-2.3,5-5.1,5c-2.8,0-5.1-2.3-5.1-5V640.5z"/>
	<path class="st3" d="M525.1,640.5c0-0.2,0.1-0.3,0.3-0.3h4.3c2.2,0,4,1.8,4,4c0,2.2-1.8,4.1-4,4.1h-1.9v4.2c0,0.2-0.2,0.3-0.3,0.3
		h-2.1c-0.2,0-0.3-0.2-0.3-0.3V640.5z M529.6,645.5c0.8,0,1.4-0.6,1.4-1.4c0-0.8-0.6-1.3-1.4-1.3h-1.7v2.8H529.6z"/>
</g>
</svg>
