<?xml version="1.0" encoding="utf-8"?>
<!-- Generator: Adobe Illustrator 19.2.0, SVG Export Plug-In . SVG Version: 6.00 Build 0)  -->
<svg version="1.1" id="Icon_copy_2_1_" xmlns="http://www.w3.org/2000/svg" xmlns:xlink="http://www.w3.org/1999/xlink" x="0px"
	 y="0px" viewBox="0 0 70 70" style="enable-background:new 0 0 70 70;" xml:space="preserve">
<style type="text/css">
	.st0{opacity:0.4;fill:#328ABD;enable-background:new    ;}
</style>
<path class="st0" d="M53,46.3c-0.1-0.1-0.2-0.2-0.4-0.3c-0.7-0.5-3.8-2.4-4.7-2.9c-1.1-1.6-5.6-8.3-9.3-13.5l0,0l0,0
	c-2.4-3.4-4.3-6.2-4.6-6.6l-0.1-0.1c-0.7-0.8-1.1-1.1-2.2-1.1c-0.2,0-0.4,0-0.7,0h-0.4c-1.8,0-4.1,0.1-5.9-1.1c-1.7-1.1-4-5-4.2-5.6
	c-0.3-1-1-1.6-1.7-1.6c-0.5,0-0.9,0.2-1.2,0.7s-2.9,3.5-4.9,5.8c0,0-0.1,0-0.1,0.1l-0.1,0.1c-1.1,1.3-2,2.4-2.2,2.5
	C9,24,10.3,25.3,11,26c0.5,0.5,7.8,7,18,16.1c5.9,5.2,11.9,10.6,12.3,10.9c0.9,0.9,1.7,1.2,3,1.2h8c1.7,0,1.7-2,1.7-2.7V48
	C54,47.1,53.4,46.7,53,46.3z M18.6,16c0.6,1.3,2.8,5.1,4.9,6.4c2,1.3,4.3,1.5,6.1,1.5c0.3,0,0.6,0,0.9,0h0.4c0.2,0,0.4,0,0.6,0
	c0.3,0,0.4,0,0.4,0c0.1,0,0.2,0.2,0.4,0.4l0.1,0.1c0.1,0.1,0.6,0.7,1.2,1.6L31,27.9c-0.4,0.3-0.5,1-0.2,1.4c0.2,0.3,0.5,0.4,0.8,0.4
	c0.2,0,0.4-0.1,0.6-0.2l2.6-1.9c0.5,0.7,1,1.5,1.6,2.3l-2.7,1.9c-0.5,0.3-0.6,0.9-0.2,1.4c0.2,0.3,0.5,0.4,0.8,0.4
	c0.2,0,0.4-0.1,0.6-0.2l2.7-1.9c0.5,0.7,1,1.4,1.5,2.1l-2.7,1.9c-0.5,0.3-0.6,0.9-0.2,1.4c0.2,0.3,0.5,0.4,0.8,0.4
	c0.2,0,0.4-0.1,0.6-0.2l2.7-1.9c2.1,3.1,4.3,6.3,6.2,9.1l0.1,0.2l0.2,0.1c1.6,0.9,4.2,2.5,4.7,2.9c0.2,0.1,0.3,0.2,0.5,0.3h-6.7
	L14.9,20.6C16.2,19,17.8,17,18.6,16z M52,51.7c0,0.2,0,0.5,0,0.7h-7.7c-0.7,0-1.1-0.2-1.6-0.6c-0.3-0.3-4.9-4.4-12.4-11
	c-7.8-6.9-17.4-15.5-18-16c-0.3-0.3-0.5-0.5-0.6-0.6c0.3-0.3,0.9-1,1.6-1.8L44.4,50h7.7v1.7H52z"/>
</svg>
