<?xml version="1.0" encoding="utf-8"?>
<!-- Generator: Adobe Illustrator 19.2.0, SVG Export Plug-In . SVG Version: 6.00 Build 0)  -->
<svg version="1.1" id="Icon_copy_2_1_" xmlns="http://www.w3.org/2000/svg" xmlns:xlink="http://www.w3.org/1999/xlink" x="0px"
	 y="0px" viewBox="0 0 525 70" style="enable-background:new 0 0 525 70;" xml:space="preserve">
<style type="text/css">
	.st0{fill:#328ABD;}
</style>
<g id="Walk_Icon">
	<g>
		<path class="st0" d="M263,0c-19.3,0-35,15.7-35,35s15.7,35,35,35s35-15.7,35-35S282.3,0,263,0z M263,68c-18.2,0-33-14.8-33-33
			s14.8-33,33-33s33,14.8,33,33S281.2,68,263,68z M281,46.3c-0.1-0.1-0.2-0.2-0.4-0.3c-0.7-0.5-3.8-2.4-4.7-2.9
			c-1.1-1.6-5.6-8.3-9.3-13.5l0,0l0,0c-2.4-3.4-4.3-6.2-4.6-6.6l-0.1-0.1c-0.7-0.8-1.1-1.1-2.2-1.1c-0.2,0-0.4,0-0.7,0h-0.4
			c-1.8,0-4.1,0.1-5.9-1.1c-1.7-1.1-4-5-4.2-5.6c-0.3-1-1-1.6-1.7-1.6c-0.5,0-0.9,0.2-1.2,0.7s-2.9,3.5-4.9,5.8c0,0-0.1,0-0.1,0.1
			l-0.1,0.1c-1.1,1.3-2,2.4-2.2,2.5c-1.3,1.3,0,2.6,0.7,3.3c0.5,0.5,7.8,7,18,16.1c5.9,5.2,11.9,10.6,12.3,10.9
			c0.9,0.9,1.7,1.2,3,1.2h8c1.7,0,1.7-2,1.7-2.7V48C282,47.1,281.4,46.7,281,46.3z M246.6,16c0.6,1.3,2.8,5.1,4.9,6.4
			c2,1.3,4.3,1.5,6.1,1.5c0.3,0,0.6,0,0.9,0h0.4c0.2,0,0.4,0,0.6,0c0.3,0,0.4,0,0.4,0c0.1,0,0.2,0.2,0.4,0.4l0.1,0.1
			c0.1,0.1,0.6,0.7,1.2,1.6l-2.6,1.9c-0.4,0.3-0.5,1-0.2,1.4c0.2,0.3,0.5,0.4,0.8,0.4c0.2,0,0.4-0.1,0.6-0.2l2.6-1.9
			c0.5,0.7,1,1.5,1.6,2.3l-2.7,1.9c-0.5,0.3-0.6,0.9-0.2,1.4c0.2,0.3,0.5,0.4,0.8,0.4c0.2,0,0.4-0.1,0.6-0.2l2.7-1.9
			c0.5,0.7,1,1.4,1.5,2.1l-2.7,1.9c-0.5,0.3-0.6,0.9-0.2,1.4c0.2,0.3,0.5,0.4,0.8,0.4c0.2,0,0.4-0.1,0.6-0.2l2.7-1.9
			c2.1,3.1,4.3,6.3,6.2,9.1l0.1,0.2l0.2,0.1c1.6,0.9,4.2,2.5,4.7,2.9c0.2,0.1,0.3,0.2,0.5,0.3h-6.7l-30.4-27.2
			C244.2,19,245.8,17,246.6,16z M280,51.7c0,0.2,0,0.5,0,0.7h-7.7c-0.7,0-1.1-0.2-1.6-0.6c-0.3-0.3-4.9-4.4-12.4-11
			c-7.8-6.9-17.4-15.5-18-16c-0.3-0.3-0.5-0.5-0.6-0.6c0.3-0.3,0.9-1,1.6-1.8L272.4,50h7.7v1.7H280z"/>
	</g>
</g>
<g id="Hor_Rule_copy">
	<g>
		<rect x="-0.5" y="33" class="st0" width="211.7" height="1.1"/>
	</g>
</g>
<g id="Hor_Rule_copy_2">
	<g>
		<rect x="311.8" y="33" class="st0" width="211.7" height="1.1"/>
	</g>
</g>
</svg>
