<?xml version="1.0" encoding="utf-8"?>
<!-- Generator: Adobe Illustrator 19.2.0, SVG Export Plug-In . SVG Version: 6.00 Build 0)  -->
<svg version="1.1" id="Layer_1" xmlns="http://www.w3.org/2000/svg" xmlns:xlink="http://www.w3.org/1999/xlink" x="0px" y="0px"
	 viewBox="0 0 44 66" style="enable-background:new 0 0 44 66;" xml:space="preserve">
<style type="text/css">
	.st0{opacity:0.18;fill-rule:evenodd;clip-rule:evenodd;}
	.st1{fill-rule:evenodd;clip-rule:evenodd;fill:#E3625C;}
	.st2{fill-rule:evenodd;clip-rule:evenodd;fill:#FFFFFF;}
</style>
<path class="st0" d="M21.9,51.8c-1.6,0.5-3.2,0.9-4.8,1.4c-3.3,0.9-6.5,1.8-9.8,2.7C3.1,57,1,58.5,1,60.1c0,2.9,7.8,5.4,18.2,5.8
	C30.5,66.4,41,64.2,42.7,61c1-1.9-0.9-3.6-5.6-5c-4.9-1.4-10-2.8-14.9-4.2C22.1,51.8,22,51.8,21.9,51.8z"/>
<path class="st1" d="M21.9,50.5c-1.6-1.7-3.2-3.3-4.8-4.9c-3.3-3.2-6.5-6.5-9.8-9.7C3.1,31.7,1,26.7,1,20.9C1,10.5,8.8,1.6,19.2,0.2
	C30.5-1.4,41,6.4,42.7,17.7c1,6.7-0.9,12.7-5.6,17.6c-4.9,5.1-10,10-14.9,14.9C22.1,50.3,22,50.3,21.9,50.5z"/>
<path class="st2" d="M22,12.9c4.6,0,8.3,3.8,8.3,8.4c0,4.6-3.7,8.4-8.3,8.4c-4.6,0-8.3-3.8-8.3-8.4C13.7,16.7,17.4,12.9,22,12.9z"/>
</svg>
