<svg xmlns="http://www.w3.org/2000/svg" viewBox="0 0 202.25 107.18"><defs><style>.cls-1{isolation:isolate;}.cls-2{fill:#75c0bf;}.cls-3{fill:#594e3b;}.cls-4{fill:#7b6b53;}.cls-5{fill:#fff;}.cls-6,.cls-8{fill:#8b4b20;}.cls-6{mix-blend-mode:multiply;}.cls-7{fill:#ffeab0;fill-rule:evenodd;}</style></defs><title>ship</title><g class="cls-1"><g id="Layer_1" data-name="Layer 1"><path class="cls-2" d="M260.94,220.6c0-4.7,4.16-8.53,12-8.53H393.84c7,0,14.88,5.36,18,12.36s1.2,17.5,15.75,18.59,5,0.88,5,.88-0.11-2.73,1.31-2.73H445.8c1.42,0,2.84,1.09,2.84,1.75s2,0.22,2.84.22a1.19,1.19,0,0,1,1.42,1.31v27a1.19,1.19,0,0,1-1.42,1.31c-0.87,0-2.84-.44-2.84.22s-1.42,1.75-2.84,1.75H434c-1.42,0-1.31-2.73-1.31-2.73s9.51-.22-5,0.88-12.58,11.59-15.75,18.59-11,12.36-18,12.36H273c-7.88,0-12-3.83-12-8.53V220.6Z" transform="translate(-260.94 -212.07)"/><rect class="cls-3" x="38.61" y="4.38" width="3.06" height="56.66"/><rect class="cls-3" x="73.29" y="7.73" width="3.06" height="53.31"/><path class="cls-4" d="M279.21,266.33H267V290.5c0,4.27,3.83,8.64,11.27,8.64H385.86S386,288,394.72,280.87s17.83-11.7,27.13-12.8,10.83-1.75,10.83-1.75H358v6.78H281.62Z" transform="translate(-260.94 -212.07)"/><path class="cls-5" d="M360,249.7c0.11,0.33,0,12.47,0,12.47h38.17s-14.11-3.28-24.06-6.23S360,249.7,360,249.7Z" transform="translate(-260.94 -212.07)"/><path class="cls-5" d="M285.12,241.5h30.63s5.8,6.67,5.8,14.44-6.12,13.34-6.12,13.34H285.88s5.25-8.31,5.25-13.89S285.12,241.5,285.12,241.5Z" transform="translate(-260.94 -212.07)"/><path class="cls-5" d="M288.36,219.8h23.21s4.39,4.43,4.39,9.58-4.64,8.86-4.64,8.86H288.94s4-5.52,4-9.22S288.36,219.8,288.36,219.8Z" transform="translate(-260.94 -212.07)"/><path class="cls-5" d="M324.38,223.06h23.21s4.39,4.43,4.39,9.58-4.64,8.86-4.64,8.86H325s4-5.52,4-9.22S324.38,223.06,324.38,223.06Z" transform="translate(-260.94 -212.07)"/><path class="cls-5" d="M322.72,243.73h27.07s5.12,6.08,5.12,13.16-5.41,12.17-5.41,12.17H323.4S328,261.48,328,256.4,322.72,243.73,322.72,243.73Z" transform="translate(-260.94 -212.07)"/><path class="cls-6" d="M463.19,244.56c0-2.19-2.3-1.2-5.25,0s-21.55,6.13-21.55,6.13v14.66s23,6.45,24.61,7,2.19,1.2,2.19-.66V244.56Z" transform="translate(-260.94 -212.07)"/><path class="cls-6" d="M458.1,250.5a0.65,0.65,0,0,1-.65.65h-0.59a0.65,0.65,0,0,1-.65-0.65h0a0.65,0.65,0,0,1,.65-0.65h0.59a0.65,0.65,0,0,1,.65.65h0Z" transform="translate(-260.94 -212.07)"/><path class="cls-6" d="M450.06,260.85a0.65,0.65,0,0,1-.65.65h-0.59a0.65,0.65,0,0,1-.65-0.65h0a0.65,0.65,0,0,1,.65-0.65h0.59a0.65,0.65,0,0,1,.65.65h0Z" transform="translate(-260.94 -212.07)"/><path class="cls-6" d="M461.89,267.24a0.65,0.65,0,0,1-.65.65h-0.59a0.65,0.65,0,0,1-.65-0.65h0a0.65,0.65,0,0,1,.65-0.65h0.59a0.65,0.65,0,0,1,.65.65h0Z" transform="translate(-260.94 -212.07)"/><path class="cls-6" d="M442.9,255.23a0.65,0.65,0,0,1-.65.65h-0.59a0.65,0.65,0,0,1-.65-0.65h0a0.65,0.65,0,0,1,.65-0.65h0.59a0.65,0.65,0,0,1,.65.65h0Z" transform="translate(-260.94 -212.07)"/><path class="cls-6" d="M439.29,262.74a0.65,0.65,0,0,1-.65.65h-0.59a0.65,0.65,0,0,1-.65-0.65h0a0.65,0.65,0,0,1,.65-0.65h0.59a0.65,0.65,0,0,1,.65.65h0Z" transform="translate(-260.94 -212.07)"/><path class="cls-7" d="M368.48,292.62a7.3,7.3,0,0,0,5.59-4.81l-0.83-.28a1,1,0,0,1-.38-1.81c1.2-1.14,2.41-2.26,3.62-3.4a1,1,0,0,1,1-.27,1,1,0,0,1,.71.84c0.27,1.64.54,3.28,0.79,4.93a1,1,0,0,1-1.28,1.14c-0.3-.07-0.58-0.18-0.87-0.27-1.94,4.65-5.34,7.19-10.45,7a10.22,10.22,0,0,1-9.19-7l-0.73.23a1,1,0,0,1-1.43-1.18q0.36-2.47.79-4.93a1,1,0,0,1,1.62-.56q1.89,1.74,3.75,3.52a1,1,0,0,1-.37,1.73c-0.29.12-.6,0.21-0.89,0.31a7.44,7.44,0,0,0,5.75,4.87V292.3q0-7.65,0-15.31a0.49,0.49,0,0,0-.3-0.52,3.56,3.56,0,0,1-1.76-4.18,3.59,3.59,0,0,1,7,.55,3.57,3.57,0,0,1-1.87,3.64,0.47,0.47,0,0,0-.29.49q0,7.65,0,15.31C368.47,292.39,368.48,292.51,368.48,292.62Zm0-19.3a1.46,1.46,0,1,0-1.45,1.47A1.44,1.44,0,0,0,368.53,273.32Z" transform="translate(-260.94 -212.07)"/><path class="cls-7" d="M372.65,280.2a1.17,1.17,0,0,1-1.18,1.17h-8.69a1.17,1.17,0,0,1-1.17-1.17h0a1.17,1.17,0,0,1,1.17-1.17h8.69a1.17,1.17,0,0,1,1.18,1.17h0Z" transform="translate(-260.94 -212.07)"/><rect class="cls-8" x="13.31" y="88.93" width="12.75" height="18.25"/><rect class="cls-8" x="119.68" y="88.93" width="12.75" height="18.25"/></g></g></svg>