<?xml version="1.0" encoding="utf-8"?>
<!-- Generator: Adobe Illustrator 19.2.1, SVG Export Plug-In . SVG Version: 6.00 Build 0)  -->
<svg version="1.1" id="Layer_1" xmlns="http://www.w3.org/2000/svg" xmlns:xlink="http://www.w3.org/1999/xlink" x="0px" y="0px"
	 viewBox="0 0 559.3 434.6" style="enable-background:new 0 0 559.3 434.6;" xml:space="preserve">
<metadata><?xpacket begin="﻿" id="W5M0MpCehiHzreSzNTczkc9d"?>
<x:xmpmeta xmlns:x="adobe:ns:meta/" x:xmptk="Adobe XMP Core 5.6-c111 79.158366, 2015/09/25-01:12:00        ">
   <rdf:RDF xmlns:rdf="http://www.w3.org/1999/02/22-rdf-syntax-ns#">
      <rdf:Description rdf:about=""
            xmlns:ExtensisFontSense="http://www.extensis.com/meta/FontSense/">
         <ExtensisFontSense:slug>
            <rdf:Bag>
               <rdf:li>
                  <rdf:Description>
                     <ExtensisFontSense:Family>Brandon Grotesque</ExtensisFontSense:Family>
                     <ExtensisFontSense:Version>001.000</ExtensisFontSense:Version>
                     <ExtensisFontSense:OutlineFileSize>0</ExtensisFontSense:OutlineFileSize>
                     <ExtensisFontSense:KerningChecksum>0</ExtensisFontSense:KerningChecksum>
                     <ExtensisFontSense:Foundry>--</ExtensisFontSense:Foundry>
                     <ExtensisFontSense:FontKind>OpenType - PS</ExtensisFontSense:FontKind>
                     <ExtensisFontSense:Checksum>2756755597</ExtensisFontSense:Checksum>
                     <ExtensisFontSense:PostScriptName>BrandonGrotesque-Black</ExtensisFontSense:PostScriptName>
                     <ExtensisFontSense:FontSense_1.2_Checksum>2756755597</ExtensisFontSense:FontSense_1.2_Checksum>
                  </rdf:Description>
               </rdf:li>
            </rdf:Bag>
         </ExtensisFontSense:slug>
      </rdf:Description>
   </rdf:RDF>
</x:xmpmeta>
                                                                                                    
                                                                                                    
                                                                                                    
                                                                                                    
                                                                                                    
                                                                                                    
                                                                                                    
                                                                                                    
                                                                                                    
                                                                                                    
                                                                                                    
                                                                                                    
                                                                                                    
                                                                                                    
                                                                                                    
                                                                                                    
                                                                                                    
                                                                                                    
                                                                                                    
                                                                                                    
                           
<?xpacket end="w"?></metadata>
<style type="text/css">
	.st0{fill:#C8D2E8;}
	.st1{fill:#ABB5C6;}
	.st2{fill:#231F20;}
	.st3{fill:none;stroke:#000000;stroke-miterlimit:10;}
	.st4{fill:#D7E2F4;}
	.st5{fill:none;stroke:#000000;stroke-width:20;stroke-linecap:round;stroke-miterlimit:10;}
	.st6{fill:#FFFFFF;}
	.st7{fill:none;stroke:#FFFFFF;stroke-linecap:round;stroke-miterlimit:10;}
	.st8{display:none;}
	.st9{display:inline;fill:#0069E7;}
	.st10{font-family:'BrandonGrotesque-Black';}
	.st11{font-size:22.3354px;}
	.st12{display:inline;}
	.st13{fill:#0069E7;}
	.st14{display:inline;fill:#B2BCD1;}
	.st15{display:inline;fill:#FFFFFF;}
	.st16{display:inline;fill:#2E88FF;}
	.st17{font-size:16.1764px;}
	.st18{display:inline;fill:#DAE2EF;}
	.st19{display:inline;fill:#A7A9AC;}
	.st20{fill:#A7A9AC;}
	.st21{display:inline;fill:#EAEEF4;}
	.st22{font-size:22.4846px;}
</style>
<g id="Layer_2_2_">
	<g id="Layer_2_3_">
		<path class="st0" d="M221.8,434.6c0,0,331.6,0,365.1,0s24.1-7.9,40.2-29.3s46.8-29.5,74.9-29.5c28.1,0-49.2,0,16.5,0
			s91.1-48.2,91.1-88.4s-37.5-96.5-88.4-96.5s-163.5,0-197,0s-79.1-28.7-79.1-54.1s-17.4-49.6-44.2-57.6c-26.8-8-57.6-26.8-71-49.6
			C316.5,6.7,300.4,0,284.3,0h-9.4c-16.1,0-32.2,6.7-45.6,29.5s-44.2,41.5-71,49.6s-44.2,32.2-44.2,57.6S68.5,190.8,35,190.8
			s-141.6,0-192.6,0s-88.4,56.3-88.4,96.5s25.5,88.4,91.1,88.4s-14.3,0,13.8,0s52.3,8,68.3,29.5s6.7,29.3,40.2,29.3s244.8,0,244.8,0
			h9.6V434.6z"/>
	</g>
</g>
<g id="Layer_3">
	<path class="st1" d="M-46.7,196.6c-9.8,0-51.3,29.2-51.3,72.7s43.9,65.1,47.3,65.1c0,0-61.9-2.3-61.9-63.5
		c0-61.3,53.7-73.6,61.7-74.1L-46.7,196.6z"/>
	<path class="st1" d="M609,196.6c9.8,0,51.3,29.2,51.3,72.7s-43.9,65.1-47.3,65.1c0,0,61.9-2.3,61.9-63.5
		c0-61.3-53.7-73.6-61.7-74.1L609,196.6z"/>
</g>
<g id="Layer_4">
	<path class="st2" d="M630,265.6c0,28.2-23.4,51-52.2,51H-18.5c-28.8,0-52.2-22.8-52.2-51l0,0c0-28.2,23.4-51,52.2-51h596.3
		C606.6,214.6,630,237.4,630,265.6L630,265.6z"/>
	<path class="st3" d="M630,265.6"/>
	<path class="st4" d="M-16.5,215.5c-28.8,0-52.2,22.4-52.2,50.1l0,0c0,27.7,23.4,50.1,52.2,50.1H0V215.5H-16.5z"/>
	<g>
		<path class="st5" d="M-51.4,302.3c0,0-17.8-12-17.8-36.8c0-23.4,17.8-37.2,17.8-37.2"/>
		<g>
			<path class="st6" d="M-63.3,294.7c-0.1,0.1-0.2,0.1-0.3,0l-0.8-1.2c-0.1-0.1,0-0.2,0-0.3l5.2-3.8l-1.7-2.3c-0.1-0.1,0-0.2,0-0.3
				l1.1-0.8c0.1-0.1,0.2-0.1,0.3,0l2.7,3.6c0.1,0.1,0,0.2,0,0.3L-63.3,294.7z"/>
			<path class="st6" d="M-67.3,289c-0.1,0.1-0.2,0-0.3-0.1l-2.3-4.4c-0.1-0.1,0-0.3,0.1-0.3l1.2-0.6c0.1-0.1,0.2,0,0.3,0.1l1.5,3
				l1.3-0.7l-1.3-2.4c-0.1-0.1,0-0.3,0.1-0.3l1.2-0.6c0.1-0.1,0.3,0,0.3,0.1l1.3,2.4l1.4-0.7l-1.5-3c-0.1-0.1,0-0.3,0.1-0.3l1.2-0.6
				c0.1-0.1,0.2,0,0.3,0.1l2.3,4.4c0.1,0.1,0,0.3-0.1,0.3L-67.3,289z"/>
			<path class="st6" d="M-70.7,281.8c-0.1,0-0.2,0-0.3-0.1l-1.5-4.7c0-0.1,0-0.2,0.1-0.3l1.2-0.4c0.1,0,0.2,0,0.3,0.1l1,3.2l1.6-0.5
				l-0.8-2.6c0-0.1,0-0.2,0.1-0.3l1.2-0.4c0.1,0,0.2,0,0.3,0.1l0.8,2.6l2.8-0.9c0.1,0,0.2,0,0.3,0.1l0.4,1.3c0,0.1,0,0.2-0.1,0.3
				L-70.7,281.8z"/>
			<path class="st6" d="M-71.5,273.1l0.3,1.7c0,0.1-0.1,0.2-0.2,0.3l-1.3,0.1c-0.1,0-0.2-0.1-0.3-0.2l-0.8-5.3
				c0-0.1,0.1-0.2,0.2-0.3l1.3-0.2c0.1,0,0.2,0.1,0.3,0.2l0.3,1.8l6.3-0.9c0.1,0,0.2,0.1,0.3,0.2l0.2,1.4c0,0.1-0.1,0.2-0.2,0.3
				L-71.5,273.1z"/>
			<path class="st6" d="M-73.7,264.2c-0.1,0-0.2-0.1-0.2-0.3l0.2-1.4c0-0.1,0.1-0.2,0.3-0.2l3,0.3l0.4-3.4l-3-0.3
				c-0.1,0-0.2-0.1-0.2-0.3l0.2-1.4c0-0.1,0.1-0.2,0.3-0.2l7.9,0.8c0.1,0,0.2,0.1,0.2,0.2l-0.2,1.4c0,0.1-0.1,0.2-0.3,0.2l-3.1-0.3
				l-0.4,3.4l2.9,0.5c0.1,0,0.2,0.1,0.2,0.3l-0.2,1.4c0,0.1-0.1,0.2-0.3,0.2L-73.7,264.2z"/>
			<path class="st6" d="M-72.2,253.9c-0.1,0-0.2-0.2-0.1-0.3l1.5-4.7c0-0.1,0.2-0.2,0.3-0.1l1.2,0.4c0.1,0,0.2,0.2,0.1,0.3l-1,3.2
				l1.4,0.4l0.8-2.6c0-0.1,0.2-0.2,0.3-0.1l1.2,0.4c0.1,0,0.2,0.2,0.1,0.3l-0.8,2.6l1.5,0.5l1-3.2c0-0.1,0.2-0.2,0.3-0.1l1.2,0.4
				c0.1,0,0.2,0.2,0.1,0.3l-1.5,4.7c0,0.1-0.2,0.2-0.3,0.1L-72.2,253.9z"/>
			<path class="st6" d="M-69.6,246.4c-0.1-0.1-0.2-0.2-0.1-0.3l2.3-4.4c0.1-0.1,0.2-0.2,0.3-0.1l1.2,0.6c0.1,0.1,0.2,0.2,0.1,0.3
				l-1.5,3l1.3,0.7l1.3-2.4c0.1-0.1,0.2-0.2,0.3-0.1l1.2,0.6c0.1,0.1,0.2,0.2,0.1,0.3l-1.3,2.4l1.4,0.7l1.5-3
				c0.1-0.1,0.2-0.2,0.3-0.1l1.2,0.6c0.1,0.1,0.2,0.2,0.1,0.3l-2.3,4.4c-0.1,0.1-0.2,0.2-0.3,0.1L-69.6,246.4z"/>
			<path class="st6" d="M-65.7,239.5c-0.1-0.1-0.1-0.2,0-0.3l0.8-1.2c0.1-0.1,0.2-0.1,0.3,0l5.2,3.8l1.7-2.3c0.1-0.1,0.2-0.1,0.3,0
				l1.1,0.8c0.1,0.1,0.1,0.2,0,0.3l-2.7,3.6c-0.1,0.1-0.2,0.1-0.3,0L-65.7,239.5z"/>
		</g>
	</g>
	<path class="st4" d="M575.8,215.5c28.8,0,52.2,22.4,52.2,50.1l0,0c0,27.7-23.4,50.1-52.2,50.1h-16.5V215.5H575.8z"/>
	<g>
		<path class="st5" d="M603.7,228.7c0,0,17.8,12,17.8,36.8c0,23.4-17.8,37.2-17.8,37.2"/>
		<g>
			<path class="st6" d="M612.1,232.2c0.1-0.1,0.2-0.1,0.3,0l2.4,2.7c1,1.1,0.9,2.7-0.2,3.7c-0.8,0.7-2,0.8-3,0.3l-1.2,3.2
				c-0.1,0.2-0.3,0.2-0.4,0.1l-1.1-1.2c-0.1-0.1-0.1-0.2,0-0.2l1.3-3.3l-0.5-0.6l-2.3,2c-0.1,0.1-0.2,0.1-0.3,0l-0.9-1.1
				c-0.1-0.1-0.1-0.2,0-0.3L612.1,232.2z M612,237.2c0.3,0.4,0.9,0.4,1.3,0c0.4-0.3,0.4-0.9,0.1-1.3l-1.2-1.3l-1.4,1.2L612,237.2z"
				/>
			<path class="st6" d="M617.7,239c0.1-0.1,0.2,0,0.3,0.1l0.8,1.2c0.1,0.1,0,0.2-0.1,0.3l-6.6,4.4c-0.1,0.1-0.2,0-0.3-0.1l-0.8-1.2
				c-0.1-0.1,0-0.2,0.1-0.3L617.7,239z"/>
			<path class="st6" d="M622.2,246.3c0.4,0.9,0.5,2.1,0.2,3.1c0,0.1-0.2,0.2-0.3,0.2l-1.3-0.4c-0.1-0.1-0.2-0.2-0.1-0.3
				c0.2-0.6,0.1-1.1-0.1-1.7c-0.6-1.2-2-1.7-3.2-1.1c-1.2,0.6-1.7,2-1.2,3.2c0.1,0.3,0.3,0.6,0.6,0.9l0.6-0.3l-0.3-0.7
				c-0.1-0.1,0-0.2,0.1-0.3l1.1-0.5c0.1-0.1,0.2,0,0.3,0.1l1,2.2c0.1,0.1,0,0.2-0.1,0.3l-2.9,1.4c-0.1,0-0.2,0-0.2,0s-1.2-0.8-2-2.4
				c-1-2.2-0.1-4.7,2.1-5.7C618.6,243.2,621.2,244.1,622.2,246.3z"/>
			<path class="st6" d="M624.1,252c0.1,0,0.2,0.1,0.3,0.2l0.3,1.4c0,0.1-0.1,0.2-0.2,0.3l-3,0.7l0.7,3.4l3-0.7c0.1,0,0.2,0,0.3,0.2
				l0.3,1.4c0,0.1-0.1,0.2-0.2,0.3l-7.8,1.7c-0.1,0-0.2-0.1-0.3-0.2l-0.3-1.4c0-0.1,0.1-0.2,0.2-0.3l3.1-0.7l-0.7-3.4l-3.1,0.7
				c-0.1,0-0.2,0-0.3-0.2l-0.3-1.4c0-0.1,0.1-0.2,0.2-0.3L624.1,252z"/>
			<path class="st6" d="M624.4,263.3v-1.7c0-0.1,0.1-0.2,0.2-0.2h1.3c0.1,0,0.2,0.1,0.2,0.2l0.1,5.3c0,0.1-0.1,0.2-0.2,0.2h-1.3
				c-0.1,0-0.2-0.1-0.2-0.2v-1.7l-6.4,0.2c-0.1,0-0.2-0.1-0.2-0.2v-1.4c0-0.1,0.1-0.2,0.2-0.2L624.4,263.3z"/>
			<path class="st6" d="M625.6,272.4c0.1,0,0.2,0.2,0.2,0.3l-0.3,1.4c0,0.1-0.2,0.2-0.3,0.2l-2.9-0.7l-0.8,3.3l2.9,0.7
				c0.1,0,0.2,0.1,0.2,0.3l-0.3,1.3c0,0.1-0.2,0.2-0.3,0.2l-7.7-1.8c-0.1,0-0.2-0.2-0.2-0.3l0.3-1.4c0-0.1,0.2-0.2,0.3-0.2l3.1,0.7
				l0.8-3.3l-3.1-0.7c-0.1,0-0.2-0.1-0.2-0.3l0.3-1.4c0-0.1,0.2-0.2,0.3-0.2L625.6,272.4z"/>
			<path class="st6" d="M622.9,282.4c0.1,0,0.2,0.2,0.1,0.3l-2.1,4.5c-0.1,0.1-0.2,0.2-0.3,0.1l-1.2-0.5c-0.1,0-0.2-0.2-0.1-0.3
				l1.4-3l-1.4-0.6l-1.1,2.5c0,0.1-0.2,0.2-0.3,0.1l-1.2-0.5c-0.1-0.1-0.2-0.2-0.1-0.3l1.1-2.5l-1.5-0.7l-1.4,3
				c-0.1,0.1-0.2,0.2-0.3,0.1l-1.2-0.5c-0.1-0.1-0.2-0.2-0.1-0.3l2.1-4.5c0.1-0.1,0.2-0.2,0.3-0.1L622.9,282.4z"/>
			<path class="st6" d="M619.3,289.5c0.1,0.1,0.1,0.2,0.1,0.3l-2.8,4.1c-0.1,0.1-0.2,0.1-0.3,0.1l-1.1-0.7c-0.1-0.1-0.1-0.2-0.1-0.3
				l1.9-2.8l-1.2-0.8l-1.5,2.3c-0.1,0.1-0.2,0.1-0.3,0.1l-1.1-0.7c-0.1-0.1-0.1-0.2-0.1-0.3l1.5-2.3l-1.3-0.9l-1.9,2.8
				c-0.1,0.1-0.2,0.1-0.3,0.1l-1.1-0.7c-0.1-0.1-0.1-0.2-0.1-0.3l2.8-4.1c0.1-0.1,0.2-0.1,0.3-0.1L619.3,289.5z"/>
			<path class="st6" d="M614.7,295.9c0.1,0.1,0.1,0.2,0,0.3l-1,1c-0.1,0.1-0.2,0.1-0.3,0l-4.7-4.4l-1.9,2.1c-0.1,0.1-0.2,0.1-0.3,0
				l-1-0.9c-0.1-0.1-0.1-0.2,0-0.3l3.1-3.3c0.1-0.1,0.2-0.1,0.3,0L614.7,295.9z"/>
		</g>
	</g>
</g>
<g>
	<g>
		<line class="st7" x1="83" y1="242.5" x2="83" y2="287.4"/>
		<line class="st7" x1="90.9" y1="246.5" x2="90.9" y2="283.4"/>
		<line class="st7" x1="98.9" y1="246.5" x2="98.9" y2="283.4"/>
		<line class="st7" x1="106.8" y1="246.5" x2="106.8" y2="283.4"/>
		<line class="st7" x1="114.8" y1="246.5" x2="114.8" y2="283.4"/>
		<line class="st7" x1="122.7" y1="246.5" x2="122.7" y2="283.4"/>
		<line class="st7" x1="130.7" y1="246.5" x2="130.7" y2="283.4"/>
		<line class="st7" x1="138.6" y1="246.5" x2="138.6" y2="283.4"/>
		<line class="st7" x1="146.6" y1="246.5" x2="146.6" y2="283.4"/>
		<line class="st7" x1="154.5" y1="246.5" x2="154.5" y2="283.4"/>
		<line class="st7" x1="162.5" y1="242.5" x2="162.5" y2="287.4"/>
	</g>
	<g>
		<line class="st7" x1="162.5" y1="242.5" x2="162.5" y2="287.4"/>
		<line class="st7" x1="170.4" y1="246.5" x2="170.4" y2="283.4"/>
		<line class="st7" x1="178.4" y1="246.5" x2="178.4" y2="283.4"/>
		<line class="st7" x1="186.3" y1="246.5" x2="186.3" y2="283.4"/>
		<line class="st7" x1="194.2" y1="246.5" x2="194.2" y2="283.4"/>
		<line class="st7" x1="202.2" y1="246.5" x2="202.2" y2="283.4"/>
		<line class="st7" x1="210.2" y1="246.5" x2="210.2" y2="283.4"/>
		<line class="st7" x1="218.1" y1="246.5" x2="218.1" y2="283.4"/>
		<line class="st7" x1="226" y1="246.5" x2="226" y2="283.4"/>
		<line class="st7" x1="234" y1="246.5" x2="234" y2="283.4"/>
		<line class="st7" x1="242" y1="242.5" x2="242" y2="287.4"/>
	</g>
	<g>
		<line class="st7" x1="241.6" y1="242.5" x2="241.6" y2="287.4"/>
		<line class="st7" x1="249.6" y1="246.5" x2="249.6" y2="283.4"/>
		<line class="st7" x1="257.4" y1="246.5" x2="257.4" y2="283.4"/>
		<line class="st7" x1="265.4" y1="246.5" x2="265.4" y2="283.4"/>
		<line class="st7" x1="273.4" y1="246.5" x2="273.4" y2="283.4"/>
		<line class="st7" x1="281.3" y1="246.5" x2="281.3" y2="283.4"/>
		<line class="st7" x1="289.2" y1="246.5" x2="289.2" y2="283.4"/>
		<line class="st7" x1="297.2" y1="246.5" x2="297.2" y2="283.4"/>
		<line class="st7" x1="305.2" y1="246.5" x2="305.2" y2="283.4"/>
		<line class="st7" x1="313.1" y1="246.5" x2="313.1" y2="283.4"/>
		<line class="st7" x1="321.1" y1="242.5" x2="321.1" y2="287.4"/>
	</g>
	<g>
		<line class="st7" x1="400.5" y1="242.5" x2="400.5" y2="287.4"/>
		<line class="st7" x1="408.5" y1="246.5" x2="408.5" y2="283.4"/>
		<line class="st7" x1="416.4" y1="246.5" x2="416.4" y2="283.4"/>
		<line class="st7" x1="424.4" y1="246.5" x2="424.4" y2="283.4"/>
		<line class="st7" x1="432.3" y1="246.5" x2="432.3" y2="283.4"/>
		<line class="st7" x1="440.3" y1="246.5" x2="440.3" y2="283.4"/>
		<line class="st7" x1="448.2" y1="246.5" x2="448.2" y2="283.4"/>
		<line class="st7" x1="456.2" y1="246.5" x2="456.2" y2="283.4"/>
		<line class="st7" x1="464.1" y1="246.5" x2="464.1" y2="283.4"/>
		<line class="st7" x1="472.1" y1="246.5" x2="472.1" y2="283.4"/>
		<line class="st7" x1="480" y1="242.5" x2="480" y2="287.4"/>
	</g>
	<g>
		<line class="st7" x1="321.1" y1="242.5" x2="321.1" y2="287.4"/>
		<line class="st7" x1="328.9" y1="246.5" x2="328.9" y2="283.4"/>
		<line class="st7" x1="337" y1="246.5" x2="337" y2="283.4"/>
		<line class="st7" x1="344.9" y1="246.5" x2="344.9" y2="283.4"/>
		<line class="st7" x1="352.9" y1="246.5" x2="352.9" y2="283.4"/>
		<line class="st7" x1="360.7" y1="246.5" x2="360.7" y2="283.4"/>
		<line class="st7" x1="368.8" y1="246.5" x2="368.8" y2="283.4"/>
		<line class="st7" x1="376.7" y1="246.5" x2="376.7" y2="283.4"/>
		<line class="st7" x1="384.6" y1="246.5" x2="384.6" y2="283.4"/>
		<line class="st7" x1="392.5" y1="246.5" x2="392.5" y2="283.4"/>
		<line class="st7" x1="400.5" y1="242.5" x2="400.5" y2="287.4"/>
	</g>
</g>
<g id="Layer_8" class="st8">
	<text transform="matrix(1 0 0 1 155.2296 205.1305)" class="st9 st10 st11"> —  Your age range  —</text>
	<g class="st12">
		<path class="st13" d="M161.4,198.2v-1.1c0-0.2,0.2-0.4,0.4-0.4h14.1c0.2,0,0.4,0.2,0.4,0.4v1.1c0,0.2-0.2,0.4-0.4,0.4h-14.1
			C161.5,198.6,161.4,198.5,161.4,198.2z"/>
		<path class="st13" d="M191.9,197.7l-4.9-7.5c-0.2-0.3,0-0.6,0.4-0.6h2.9c0.2,0,0.3,0.1,0.4,0.2l3.1,4.6l3.1-4.6
			c0.1-0.1,0.2-0.2,0.4-0.2h2.9c0.4,0,0.5,0.4,0.4,0.6l-5,7.4v7.1c0,0.2-0.2,0.4-0.4,0.4h-2.9c-0.2,0-0.4-0.2-0.4-0.4V197.7z"/>
		<path class="st13" d="M208.8,189.3c4.5,0,8,3.6,8,8.1s-3.6,8-8,8s-8-3.6-8-8C200.8,193,204.3,189.3,208.8,189.3z M208.8,201.8
			c2.5,0,4.5-2,4.5-4.4c0-2.5-2-4.5-4.5-4.5c-2.4,0-4.4,2-4.4,4.5C204.4,199.8,206.4,201.8,208.8,201.8z"/>
		<path class="st13" d="M219.3,190c0-0.2,0.2-0.4,0.4-0.4h2.7c0.2,0,0.4,0.2,0.4,0.4v9c0,1.6,1.2,2.8,2.7,2.8c1.6,0,2.8-1.3,2.8-2.8
			v-9c0-0.2,0.2-0.4,0.4-0.4h2.7c0.2,0,0.4,0.2,0.4,0.4v9.2c0,3.4-2.9,6.2-6.4,6.2s-6.3-2.8-6.3-6.2V190H219.3z"/>
		<path class="st13" d="M235.6,190c0-0.2,0.2-0.4,0.4-0.4h6.7c2.7,0,4.9,2.2,4.9,4.8c0,2.1-1.4,3.7-3.3,4.5l3.1,5.7
			c0.2,0.3,0,0.6-0.4,0.6h-3c-0.2,0-0.3-0.1-0.4-0.2l-3-5.9h-1.5v5.7c0,0.2-0.2,0.4-0.4,0.4H236c-0.2,0-0.4-0.2-0.4-0.4V190
			L235.6,190z M242.5,196.2c0.9,0,1.7-0.8,1.7-1.8c0-0.9-0.8-1.7-1.7-1.7h-3.3v3.5H242.5z"/>
		<path class="st13" d="M253.5,204.6l7-15c0.1-0.1,0.2-0.2,0.4-0.2h0.2c0.2,0,0.3,0.1,0.4,0.2l7,15c0.1,0.3,0,0.6-0.4,0.6h-2.5
			c-0.4,0-0.6-0.1-0.8-0.6l-0.8-1.8h-6.1l-0.8,1.8c-0.1,0.3-0.4,0.5-0.8,0.5h-2.5C253.6,205.2,253.4,204.9,253.5,204.6z
			 M262.7,199.8l-1.7-3.7l0,0l-1.7,3.7H262.7z"/>
		<path class="st13" d="M277.1,189.3c1.9,0,3.9,0.8,5.5,2.1c0.2,0.2,0.2,0.4,0,0.6l-1.8,1.9c-0.2,0.2-0.4,0.2-0.6,0
			c-0.8-0.8-1.8-1.1-2.9-1.1c-2.4,0-4.4,2.1-4.4,4.5s2,4.4,4.4,4.4c0.6,0,1.3-0.1,2-0.4v-1.1h-1.4c-0.2,0-0.4-0.2-0.4-0.4v-2.2
			c0-0.2,0.2-0.4,0.4-0.4h4.5c0.2,0,0.4,0.2,0.4,0.4v6c0,0.1-0.1,0.3-0.2,0.4c0,0-2.3,1.5-5.5,1.5c-4.4,0-8-3.5-8-8
			S272.7,189.3,277.1,189.3z"/>
		<path class="st13" d="M285.9,190c0-0.2,0.2-0.4,0.4-0.4h9.2c0.2,0,0.4,0.2,0.4,0.4v2.4c0,0.2-0.2,0.4-0.4,0.4h-6.2v2.8h5.1
			c0.2,0,0.4,0.2,0.4,0.4v2.4c0,0.2-0.2,0.4-0.4,0.4h-5.1v3h6.2c0.2,0,0.4,0.2,0.4,0.4v2.4c0,0.2-0.2,0.4-0.4,0.4h-9.2
			c-0.2,0-0.4-0.2-0.4-0.4V190z"/>
		<path class="st13" d="M303.9,190c0-0.2,0.2-0.4,0.4-0.4h6.7c2.7,0,4.9,2.2,4.9,4.8c0,2.1-1.4,3.7-3.3,4.5l3.1,5.7
			c0.2,0.3,0,0.6-0.4,0.6h-3c-0.2,0-0.3-0.1-0.4-0.2l-3-5.9h-1.5v5.7c0,0.2-0.2,0.4-0.4,0.4h-2.7c-0.2,0-0.4-0.2-0.4-0.4L303.9,190
			L303.9,190z M310.7,196.2c0.9,0,1.7-0.8,1.7-1.8c0-0.9-0.8-1.7-1.7-1.7h-3.3v3.5H310.7z"/>
		<path class="st13" d="M316.9,204.6l7-15c0.1-0.1,0.2-0.2,0.4-0.2h0.2c0.2,0,0.3,0.1,0.4,0.2l7,15c0.1,0.3,0,0.6-0.4,0.6H329
			c-0.4,0-0.6-0.1-0.8-0.6l-0.8-1.8h-6.1l-0.8,1.8c-0.1,0.3-0.4,0.5-0.8,0.5h-2.5C316.9,205.2,316.7,204.9,316.9,204.6z M326,199.8
			l-1.7-3.7l0,0l-1.7,3.7H326z"/>
		<path class="st13" d="M333.6,189.7c0-0.2,0.2-0.4,0.4-0.4h0.6l8.9,8.6l0,0V190c0-0.2,0.2-0.4,0.4-0.4h2.7c0.2,0,0.4,0.2,0.4,0.4
			v15c0,0.2-0.2,0.4-0.4,0.4h-0.3c-0.1,0-0.2-0.1-0.3-0.1l-8.8-8.9l0,0v8.3c0,0.2-0.2,0.4-0.4,0.4h-2.7c-0.2,0-0.4-0.2-0.4-0.4
			L333.6,189.7z"/>
		<path class="st13" d="M357.8,189.3c1.9,0,3.9,0.8,5.5,2.1c0.2,0.2,0.2,0.4,0,0.6l-1.8,1.9c-0.2,0.2-0.4,0.2-0.6,0
			c-0.8-0.8-1.8-1.1-2.9-1.1c-2.4,0-4.4,2.1-4.4,4.5s2,4.4,4.4,4.4c0.6,0,1.3-0.1,2-0.4v-1.1h-1.4c-0.2,0-0.4-0.2-0.4-0.4v-2.2
			c0-0.2,0.2-0.4,0.4-0.4h4.5c0.2,0,0.4,0.2,0.4,0.4v6c0,0.1-0.1,0.3-0.2,0.4c0,0-2.3,1.5-5.5,1.5c-4.4,0-8-3.5-8-8
			S353.4,189.3,357.8,189.3z"/>
		<path class="st13" d="M366.6,190c0-0.2,0.2-0.4,0.4-0.4h9.2c0.2,0,0.4,0.2,0.4,0.4v2.4c0,0.2-0.2,0.4-0.4,0.4H370v2.8h5.1
			c0.2,0,0.4,0.2,0.4,0.4v2.4c0,0.2-0.2,0.4-0.4,0.4H370v3h6.2c0.2,0,0.4,0.2,0.4,0.4v2.4c0,0.2-0.2,0.4-0.4,0.4H367
			c-0.2,0-0.4-0.2-0.4-0.4V190z"/>
		<path class="st13" d="M388.6,198.2v-1.1c0-0.2,0.2-0.4,0.4-0.4h14.1c0.2,0,0.4,0.2,0.4,0.4v1.1c0,0.2-0.2,0.4-0.4,0.4H389
			C388.8,198.6,388.6,198.5,388.6,198.2z"/>
	</g>
</g>
<g id="Layer_7" class="st8">
	<path class="st14" d="M533.1,339.8c0,2-1.6,3.7-3.7,3.7H26.6c-2,0-3.7-1.6-3.7-3.7l0,0c0-2,1.6-3.7,3.7-3.7h502.8
		C531.4,336.1,533.1,337.7,533.1,339.8L533.1,339.8z"/>
	<path class="st15" d="M191,345.9h2.2v-38.2c0,0-0.6-0.6-1.1-0.6s-1.1,0.5-1.1,0.5L191,345.9L191,345.9z"/>
	<path class="st16" d="M245.2,329.2v16.3c0,0-9.3,1-16.3,4s-10,6.3-13,4.3s-9.3-8-14.7-8s-8.7,0-8.7,0v-38.6c0,0,2,0.7,5.3,4.3
		c3.3,3.7,10,10.7,21,14.3C229.9,329.5,237.9,329.2,245.2,329.2z"/>
	<path class="st16" d="M138.9,329.2v16.3c0,0,9.3,1,16.3,4s10,6.3,13,4.3s9.3-8,14.7-8c5.3,0,8.7,0,8.7,0v-38.6c0,0-2,0.7-5.3,4.3
		c-3.3,3.7-10,10.7-21,14.3C154.2,329.5,146.2,329.2,138.9,329.2z"/>
	<text transform="matrix(1 0 0 1 173.2184 363.089)" class="st9 st10 st17">AGE</text>
</g>
<g id="Layer_6" class="st8">
	<path class="st18" d="M246.6,100.8h-14l-22.7,10.6v43.1c0,0-2.7,6.8,14,6.8s106,0,116,0s10-6.8,10-10.1c0-3.4,0-38,0-38l-22.6-12.4
		h-28.7C298.6,100.8,246.6,100.8,246.6,100.8z"/>
	<path class="st19" d="M272,117.4c-1.1-1.1-14.8-17.2-17.8-17.2c-3,0-3.2,0-8.5,0s-4.2-9.8,0-9.8h14l16.2,14.2h6.6l16.2-14.2h14
		c4.2,0,5.2,9.8,0,9.8s-5.5,0-8.5,0s-16.6,16.1-17.8,17.2c0,0-2.8,2.5-6.7,2.5C276,120,272,117.4,272,117.4z"/>
	<g class="st12">
		<polygon class="st20" points="254,107.1 254,111.7 234.5,109.4 		"/>
		<polygon class="st20" points="254,111.7 254,116.3 234.5,114 		"/>
		<polygon class="st20" points="254,116.3 254,121 234.5,118.7 		"/>
		<polygon class="st20" points="254,121 254,125.6 234.5,123.3 		"/>
		<polygon class="st20" points="254,125.6 254,130.2 234.5,127.9 		"/>
		<polygon class="st20" points="254,130.2 254,134.8 234.5,132.5 		"/>
		<polygon class="st20" points="254,134.8 254,139.5 234.5,137.2 		"/>
		<polygon class="st20" points="254,139.5 254,144.1 234.5,141.8 		"/>
		<polygon class="st20" points="254,144.1 254,148.7 234.5,146.4 		"/>
		<polygon class="st20" points="254,148.7 254,153.3 234.5,151 		"/>
	</g>
	<path class="st14" d="M284.6,114.6c0,2.9-2.4,5.3-5.3,5.3l0,0c-2.9,0-5.3-2.4-5.3-5.3V87.4c0-2.9,2.4-5.3,5.3-5.3l0,0
		c2.9,0,5.3,2.4,5.3,5.3V114.6z"/>
	<path class="st14" d="M284.6,177.2c0,2.9-2.7,5.3-5.3,5.3c-2.7,0-5.3-2.4-5.3-5.3V150c0-2.9,2.4-5.3,5.3-5.3l0,0
		c2.9,0,5.3,2.4,5.3,5.3V177.2z"/>
	<path class="st21" d="M377.5,161.3c0,1.3-1,2.3-2.3,2.3H183.5c-1.3,0-2.3-1-2.3-2.3l0,0c0-1.3,1-2.3,2.3-2.3h191.7
		C376.4,158.9,377.5,160,377.5,161.3L377.5,161.3z"/>
	<g class="st12">
		<polygon class="st20" points="306.7,107.1 306.7,111.7 326.2,109.4 		"/>
		<polygon class="st20" points="306.7,111.7 306.7,116.3 326.2,114 		"/>
		<polygon class="st20" points="306.7,116.3 306.7,121 326.2,118.7 		"/>
		<polygon class="st20" points="306.7,121 306.7,125.6 326.2,123.3 		"/>
		<polygon class="st20" points="306.7,125.6 306.7,130.2 326.2,127.9 		"/>
		<polygon class="st20" points="306.7,130.2 306.7,134.8 326.2,132.5 		"/>
		<polygon class="st20" points="306.7,134.8 306.7,139.5 326.2,137.2 		"/>
		<polygon class="st20" points="306.7,139.5 306.7,144.1 326.2,141.8 		"/>
		<polygon class="st20" points="306.7,144.1 306.7,148.7 326.2,146.4 		"/>
		<polygon class="st20" points="306.7,148.7 306.7,153.3 326.2,151 		"/>
	</g>
	<rect x="260.4" y="124.8" class="st15" width="39.2" height="23.1"/>
	<text transform="matrix(1 0 0 1 267.3839 144.6232)" class="st9 st10 st22">36</text>
</g>
<g id="Layer_3_1_" class="st8">
	<g id="Layer_9" class="st12">
		<g>
			<path class="st13" d="M161.4,198.2v-1.1c0-0.2,0.2-0.4,0.4-0.4h14.1c0.2,0,0.4,0.2,0.4,0.4v1.1c0,0.2-0.2,0.4-0.4,0.4h-14.1
				C161.5,198.6,161.4,198.5,161.4,198.2z"/>
			<path class="st13" d="M191.9,197.7l-4.9-7.5c-0.2-0.3,0-0.6,0.4-0.6h2.9c0.2,0,0.3,0.1,0.4,0.2l3.1,4.6l3.1-4.6
				c0.1-0.1,0.2-0.2,0.4-0.2h2.9c0.4,0,0.5,0.4,0.4,0.6l-5,7.4v7.1c0,0.2-0.2,0.4-0.4,0.4h-2.9c-0.2,0-0.4-0.2-0.4-0.4V197.7z"/>
			<path class="st13" d="M208.8,189.3c4.5,0,8,3.6,8,8.1s-3.6,8-8,8s-8-3.6-8-8C200.8,193,204.3,189.3,208.8,189.3z M208.8,201.8
				c2.5,0,4.5-2,4.5-4.4c0-2.5-2-4.5-4.5-4.5c-2.4,0-4.4,2-4.4,4.5C204.4,199.8,206.4,201.8,208.8,201.8z"/>
			<path class="st13" d="M219.3,190c0-0.2,0.2-0.4,0.4-0.4h2.7c0.2,0,0.4,0.2,0.4,0.4v9c0,1.6,1.2,2.8,2.7,2.8
				c1.6,0,2.8-1.3,2.8-2.8v-9c0-0.2,0.2-0.4,0.4-0.4h2.7c0.2,0,0.4,0.2,0.4,0.4v9.2c0,3.4-2.9,6.2-6.4,6.2s-6.3-2.8-6.3-6.2V190
				H219.3z"/>
			<path class="st13" d="M235.6,190c0-0.2,0.2-0.4,0.4-0.4h6.7c2.7,0,4.9,2.2,4.9,4.8c0,2.1-1.4,3.7-3.3,4.5l3.1,5.7
				c0.2,0.3,0,0.6-0.4,0.6h-3c-0.2,0-0.3-0.1-0.4-0.2l-3-5.9h-1.5v5.7c0,0.2-0.2,0.4-0.4,0.4H236c-0.2,0-0.4-0.2-0.4-0.4V190
				L235.6,190z M242.5,196.2c0.9,0,1.7-0.8,1.7-1.8c0-0.9-0.8-1.7-1.7-1.7h-3.3v3.5H242.5z"/>
			<path class="st13" d="M253.5,204.6l7-15c0.1-0.1,0.2-0.2,0.4-0.2h0.2c0.2,0,0.3,0.1,0.4,0.2l7,15c0.1,0.3,0,0.6-0.4,0.6h-2.5
				c-0.4,0-0.6-0.1-0.8-0.6l-0.8-1.8h-6.1l-0.8,1.8c-0.1,0.3-0.4,0.5-0.8,0.5h-2.5C253.6,205.2,253.4,204.9,253.5,204.6z
				 M262.7,199.8l-1.7-3.7l0,0l-1.7,3.7H262.7z"/>
			<path class="st13" d="M277.1,189.3c1.9,0,3.9,0.8,5.5,2.1c0.2,0.2,0.2,0.4,0,0.6l-1.8,1.9c-0.2,0.2-0.4,0.2-0.6,0
				c-0.8-0.8-1.8-1.1-2.9-1.1c-2.4,0-4.4,2.1-4.4,4.5s2,4.4,4.4,4.4c0.6,0,1.3-0.1,2-0.4v-1.1h-1.4c-0.2,0-0.4-0.2-0.4-0.4v-2.2
				c0-0.2,0.2-0.4,0.4-0.4h4.5c0.2,0,0.4,0.2,0.4,0.4v6c0,0.1-0.1,0.3-0.2,0.4c0,0-2.3,1.5-5.5,1.5c-4.4,0-8-3.5-8-8
				S272.7,189.3,277.1,189.3z"/>
			<path class="st13" d="M285.9,190c0-0.2,0.2-0.4,0.4-0.4h9.2c0.2,0,0.4,0.2,0.4,0.4v2.4c0,0.2-0.2,0.4-0.4,0.4h-6.2v2.8h5.1
				c0.2,0,0.4,0.2,0.4,0.4v2.4c0,0.2-0.2,0.4-0.4,0.4h-5.1v3h6.2c0.2,0,0.4,0.2,0.4,0.4v2.4c0,0.2-0.2,0.4-0.4,0.4h-9.2
				c-0.2,0-0.4-0.2-0.4-0.4V190z"/>
			<path class="st13" d="M303.9,190c0-0.2,0.2-0.4,0.4-0.4h6.7c2.7,0,4.9,2.2,4.9,4.8c0,2.1-1.4,3.7-3.3,4.5l3.1,5.7
				c0.2,0.3,0,0.6-0.4,0.6h-3c-0.2,0-0.3-0.1-0.4-0.2l-3-5.9h-1.5v5.7c0,0.2-0.2,0.4-0.4,0.4h-2.7c-0.2,0-0.4-0.2-0.4-0.4L303.9,190
				L303.9,190z M310.7,196.2c0.9,0,1.7-0.8,1.7-1.8c0-0.9-0.8-1.7-1.7-1.7h-3.3v3.5H310.7z"/>
			<path class="st13" d="M316.9,204.6l7-15c0.1-0.1,0.2-0.2,0.4-0.2h0.2c0.2,0,0.3,0.1,0.4,0.2l7,15c0.1,0.3,0,0.6-0.4,0.6H329
				c-0.4,0-0.6-0.1-0.8-0.6l-0.8-1.8h-6.1l-0.8,1.8c-0.1,0.3-0.4,0.5-0.8,0.5h-2.5C316.9,205.2,316.7,204.9,316.9,204.6z M326,199.8
				l-1.7-3.7l0,0l-1.7,3.7H326z"/>
			<path class="st13" d="M333.6,189.7c0-0.2,0.2-0.4,0.4-0.4h0.6l8.9,8.6l0,0V190c0-0.2,0.2-0.4,0.4-0.4h2.7c0.2,0,0.4,0.2,0.4,0.4
				v15c0,0.2-0.2,0.4-0.4,0.4h-0.3c-0.1,0-0.2-0.1-0.3-0.1l-8.8-8.9l0,0v8.3c0,0.2-0.2,0.4-0.4,0.4h-2.7c-0.2,0-0.4-0.2-0.4-0.4
				L333.6,189.7z"/>
			<path class="st13" d="M357.8,189.3c1.9,0,3.9,0.8,5.5,2.1c0.2,0.2,0.2,0.4,0,0.6l-1.8,1.9c-0.2,0.2-0.4,0.2-0.6,0
				c-0.8-0.8-1.8-1.1-2.9-1.1c-2.4,0-4.4,2.1-4.4,4.5s2,4.4,4.4,4.4c0.6,0,1.3-0.1,2-0.4v-1.1h-1.4c-0.2,0-0.4-0.2-0.4-0.4v-2.2
				c0-0.2,0.2-0.4,0.4-0.4h4.5c0.2,0,0.4,0.2,0.4,0.4v6c0,0.1-0.1,0.3-0.2,0.4c0,0-2.3,1.5-5.5,1.5c-4.4,0-8-3.5-8-8
				S353.4,189.3,357.8,189.3z"/>
			<path class="st13" d="M366.6,190c0-0.2,0.2-0.4,0.4-0.4h9.2c0.2,0,0.4,0.2,0.4,0.4v2.4c0,0.2-0.2,0.4-0.4,0.4H370v2.8h5.1
				c0.2,0,0.4,0.2,0.4,0.4v2.4c0,0.2-0.2,0.4-0.4,0.4H370v3h6.2c0.2,0,0.4,0.2,0.4,0.4v2.4c0,0.2-0.2,0.4-0.4,0.4H367
				c-0.2,0-0.4-0.2-0.4-0.4V190z"/>
			<path class="st13" d="M388.6,198.2v-1.1c0-0.2,0.2-0.4,0.4-0.4h14.1c0.2,0,0.4,0.2,0.4,0.4v1.1c0,0.2-0.2,0.4-0.4,0.4H389
				C388.8,198.6,388.6,198.5,388.6,198.2z"/>
		</g>
	</g>
</g>
</svg>
