<?xml version="1.0" encoding="utf-8"?>
<!-- Generator: Adobe Illustrator 19.2.0, SVG Export Plug-In . SVG Version: 6.00 Build 0)  -->
<svg version="1.1" id="Layer_1" xmlns="http://www.w3.org/2000/svg" xmlns:xlink="http://www.w3.org/1999/xlink" x="0px" y="0px"
	 viewBox="0 0 106.3 56" style="enable-background:new 0 0 106.3 56;" xml:space="preserve">
<metadata><?xpacket begin="﻿" id="W5M0MpCehiHzreSzNTczkc9d"?>
<x:xmpmeta xmlns:x="adobe:ns:meta/" x:xmptk="Adobe XMP Core 5.6-c111 79.158366, 2015/09/25-01:12:00        ">
   <rdf:RDF xmlns:rdf="http://www.w3.org/1999/02/22-rdf-syntax-ns#">
      <rdf:Description rdf:about=""
            xmlns:ExtensisFontSense="http://www.extensis.com/meta/FontSense/">
         <ExtensisFontSense:slug>
            <rdf:Bag>
               <rdf:li>
                  <rdf:Description>
                     <ExtensisFontSense:Family>Brandon Grotesque</ExtensisFontSense:Family>
                     <ExtensisFontSense:Version>001.000</ExtensisFontSense:Version>
                     <ExtensisFontSense:OutlineFileSize>0</ExtensisFontSense:OutlineFileSize>
                     <ExtensisFontSense:KerningChecksum>0</ExtensisFontSense:KerningChecksum>
                     <ExtensisFontSense:Foundry>--</ExtensisFontSense:Foundry>
                     <ExtensisFontSense:FontKind>OpenType - PS</ExtensisFontSense:FontKind>
                     <ExtensisFontSense:Checksum>2756755597</ExtensisFontSense:Checksum>
                     <ExtensisFontSense:PostScriptName>BrandonGrotesque-Black</ExtensisFontSense:PostScriptName>
                     <ExtensisFontSense:FontSense_1.2_Checksum>2756755597</ExtensisFontSense:FontSense_1.2_Checksum>
                  </rdf:Description>
               </rdf:li>
            </rdf:Bag>
         </ExtensisFontSense:slug>
      </rdf:Description>
   </rdf:RDF>
</x:xmpmeta>
                                                                                                    
                                                                                                    
                                                                                                    
                                                                                                    
                                                                                                    
                                                                                                    
                                                                                                    
                                                                                                    
                                                                                                    
                                                                                                    
                                                                                                    
                                                                                                    
                                                                                                    
                                                                                                    
                                                                                                    
                                                                                                    
                                                                                                    
                                                                                                    
                                                                                                    
                                                                                                    
                           
<?xpacket end="w"?></metadata>
<style type="text/css">
	.st0{fill:#FFFFFF;}
	.st1{fill:#2E88FF;}
	.st2{fill:#0069E7;}
</style>
<rect x="52.7" y="0" class="st0" width="1" height="38.7"/>
<path class="st1" d="M106.3,22v16.3c0,0-9.3,1-16.3,4c-7,3-10,6.3-13,4.3s-9.3-8-14.7-8s-8.7,0-8.7,0V0c0,0,2,0.7,5.3,4.3
	S69,15,80,18.7C91,22.3,99,22,106.3,22z"/>
<path class="st1" d="M0,22v16.3c0,0,9.3,1,16.3,4s10,6.3,13,4.3s9.3-8,14.7-8c5.3,0,8.7,0,8.7,0V0c0,0-2,0.7-5.3,4.3
	C44,8,37.3,15,26.3,18.7S7.3,22,0,22z"/>
<g>
	<path class="st2" d="M34.3,55.5l5.1-10.9c0-0.1,0.2-0.2,0.3-0.2h0.2c0.1,0,0.2,0.1,0.3,0.2l5.1,10.9c0.1,0.2,0,0.4-0.3,0.4H43
		c-0.3,0-0.4-0.1-0.6-0.4l-0.6-1.3h-4.4l-0.6,1.3c-0.1,0.2-0.3,0.4-0.6,0.4h-1.8C34.3,56,34.2,55.7,34.3,55.5z M40.9,52.1l-1.2-2.7
		h0l-1.2,2.7H40.9z"/>
	<path class="st2" d="M51.3,44.5c1.4,0,2.8,0.6,3.9,1.5c0.1,0.1,0.2,0.3,0,0.4L54,47.8c-0.1,0.1-0.3,0.1-0.4,0
		C53,47.2,52.3,47,51.5,47c-1.8,0-3.2,1.5-3.2,3.3c0,1.8,1.4,3.2,3.2,3.2c0.5,0,1-0.1,1.4-0.3v-0.9h-1c-0.2,0-0.3-0.1-0.3-0.3v-1.6
		c0-0.2,0.1-0.3,0.3-0.3h3.3c0.2,0,0.3,0.1,0.3,0.3l0,4.4c0,0.1-0.1,0.2-0.1,0.3c0,0-1.7,1.1-4,1.1c-3.2,0-5.8-2.6-5.8-5.8
		C45.5,47.1,48.1,44.5,51.3,44.5z"/>
	<path class="st2" d="M57.7,44.9c0-0.2,0.1-0.3,0.3-0.3h6.7c0.2,0,0.3,0.1,0.3,0.3v1.8c0,0.2-0.1,0.3-0.3,0.3h-4.5v2h3.7
		c0.2,0,0.3,0.1,0.3,0.3v1.8c0,0.2-0.1,0.3-0.3,0.3h-3.7v2.2h4.5c0.2,0,0.3,0.1,0.3,0.3v1.8c0,0.2-0.1,0.3-0.3,0.3H58
		c-0.2,0-0.3-0.1-0.3-0.3V44.9z"/>
</g>
<g>
</g>
<g>
</g>
<g>
</g>
<g>
</g>
<g>
</g>
<g>
</g>
</svg>
