<svg xmlns="http://www.w3.org/2000/svg" viewBox="0 0 2890 1016"><defs><style>.cls-1,.cls-10,.cls-11,.cls-4,.cls-7,.cls-8{isolation:isolate;}.cls-2{fill:#cacbd1;}.cls-3{fill:#002c5f;}.cls-12,.cls-13,.cls-14,.cls-15,.cls-16,.cls-3{fill-rule:evenodd;}.cls-4{opacity:0.42;}.cls-10,.cls-11,.cls-4,.cls-6,.cls-7{mix-blend-mode:multiply;}.cls-5{fill:#65849a;}.cls-7{opacity:0.45;}.cls-8{opacity:0.92;}.cls-9{fill:none;stroke:#002c5f;stroke-linecap:round;stroke-width:10px;}.cls-10{opacity:0.39;}.cls-12{fill:#d4c591;}.cls-13{fill:#363740;}.cls-14{fill:#c1a236;}.cls-15{fill:#ad912f;}.cls-16{fill:#9b8229;}</style></defs><title>take_the_quiz</title><g class="cls-1"><g id="Rectangle_20" data-name="Rectangle 20" class="cls-1"><g id="Rectangle_20-2" data-name="Rectangle 20"><rect class="cls-2" x="10" width="2880" height="1015"/></g></g><g id="Sweep_copy_4" data-name="Sweep copy 4" class="cls-1"><g id="Sweep_copy_4-2" data-name="Sweep copy 4"><polygon class="cls-3" points="0 0 0 1016 2880 0 0 0"/></g></g><g id="Bubbles" class="cls-4"><g id="Ellipse_11" data-name="Ellipse 11"><path class="cls-5" d="M769.86,947.63c62.39,0,120.77,7.4,164.4,20.84,46.06,14.19,56.43,29.2,56.43,33.34s-10.37,19.16-56.43,33.34c-43.63,13.44-102,20.84-164.4,20.84s-120.77-7.4-164.4-20.84C559.4,1021,549,1006,549,1001.81s10.37-19.16,56.42-33.34c43.63-13.44,102-20.84,164.4-20.84m0-20c-133,0-240.83,33.21-240.83,74.19S636.85,1076,769.86,1076s240.83-33.21,240.83-74.19-107.82-74.19-240.83-74.19h0Z"/></g><g id="Ellipse_11_copy" data-name="Ellipse 11 copy"><path class="cls-5" d="M1167.86,813.06c62.39,0,120.77,7.4,164.4,20.84,46.06,14.19,56.42,29.2,56.42,33.35s-10.37,19.16-56.42,33.35c-43.63,13.44-102,20.84-164.4,20.84s-120.77-7.4-164.4-20.84C957.4,886.41,947,871.39,947,867.25s10.37-19.16,56.43-33.35c43.63-13.44,102-20.84,164.4-20.84m0-20c-133,0-240.83,33.21-240.83,74.19s107.82,74.19,240.83,74.19,240.83-33.21,240.83-74.19-107.82-74.19-240.83-74.19h0Z"/></g><g id="Ellipse_11_copy_2" data-name="Ellipse 11 copy 2"><path class="cls-5" d="M1572.61,677.56c62.39,0,120.77,7.4,164.4,20.85,46.06,14.19,56.43,29.21,56.43,33.36s-10.37,19.16-56.43,33.36c-43.63,13.44-102,20.85-164.4,20.85s-120.77-7.4-164.4-20.85c-46.06-14.19-56.43-29.21-56.43-33.36s10.37-19.16,56.43-33.36c43.63-13.44,102-20.85,164.4-20.85m0-20c-133,0-240.83,33.22-240.83,74.2S1439.6,806,1572.61,806s240.83-33.22,240.83-74.2-107.82-74.2-240.83-74.2h0Z"/></g><g id="Ellipse_11_copy_3" data-name="Ellipse 11 copy 3"><path class="cls-5" d="M2007.17,531c62.39,0,120.77,7.4,164.4,20.84,46.06,14.19,56.42,29.2,56.42,33.35s-10.37,19.16-56.42,33.35c-43.63,13.44-102,20.84-164.4,20.84s-120.77-7.4-164.4-20.84c-46.06-14.19-56.43-29.2-56.43-33.35s10.37-19.16,56.43-33.35c43.63-13.44,102-20.84,164.4-20.84m0-20c-133,0-240.83,33.22-240.83,74.19s107.82,74.19,240.83,74.19S2248,626.19,2248,585.22,2140.18,511,2007.17,511h0Z"/></g><g id="A"><path class="cls-5" d="M517.3,939.87l-70.36-59.4c-0.6-.54-0.44-1.17.58-1.46l1.46-.41a11.13,11.13,0,0,1,4.37.06l161.5,33.64c3.11,0.65,4.19,1.88,2,2.5l-16.16,4.57c-2.62.74-4.82,0.65-9.4-.29l-18.85-4-39.6,11.19,8.54,7c1.34,1,1.8,2.32-1.11,3.14l-16,4.53C522.07,941.59,518.66,941,517.3,939.87Zm23-31.7-39.49-8.28-0.15,0,17.5,14.49Z"/></g><g id="B"><path class="cls-5" d="M897.31,733.3c-1.72-.69-2.11-1.64-0.51-2.1l33.92-9.59c17.18-4.85,45.25-3.25,63.34,4,13.26,5.32,12.86,12,10.33,15.69,11.51-.66,31.74-0.61,47.59,5.75,19.29,7.74,18.83,17.41,1.51,22.31l-36.1,10.2a11.06,11.06,0,0,1-6-.53ZM977,742c5.53-1.56,4.68-5.09-2.21-7.86s-16.37-3.38-21.9-1.82l-11.36,3.21,24.12,9.68Zm48.92,18.33c5.68-1.6,5-5.17-2.09-8-6.89-2.77-18.32-3.07-24-1.46l-11.79,3.33,24.63,9.88Z"/></g><g id="C"><path class="cls-5" d="M1277.78,599.64c14.56-4.12,30.67-5,51.25-3.53,2.69,0.18,4.75,1,5,1.89l2.6,8.81c0.19,0.77-1.42,1.22-3.64,1-11.07-.76-21.3,0-28.44,2-16.45,4.65-12.34,14.56,6.95,22.3,19.12,7.67,47.2,10.57,63.65,5.92,6.84-1.93,11.34-5.21,11.24-8.83,0-.7,1.88-1.24,4-1L1416,630.8c2.23,0.2,4.32,1.14,4.51,1.91,1.47,7.36-5.71,13-18.67,16.7-29.12,8.23-79.95,3.86-114.4-10S1248.66,607.87,1277.78,599.64Z"/></g><g id="D"><path class="cls-5" d="M1613.55,472.47c-1.72-.69-2.11-1.64-0.65-2.05l35.52-10c28.1-7.94,78.14-3.59,111.22,9.68,33.42,13.41,37.46,30.76,9.36,38.7l-35.52,10a11.08,11.08,0,0,1-5.89-.57ZM1742,498.94c16.45-4.65,13.06-14.17-6.58-22.05-19.46-7.81-46.73-10.59-63.19-5.94l-14,4,69.76,28Z"/></g></g><g id="Bubbles_copy" data-name="Bubbles copy" class="cls-4"><g id="Ellipse_11_copy_2-2" data-name="Ellipse 11 copy 2" class="cls-6"><path class="cls-5" d="M2364.61,915.56c62.39,0,120.77,7.4,164.4,20.85,46.06,14.19,56.43,29.21,56.43,33.36s-10.37,19.16-56.43,33.36c-43.63,13.44-102,20.85-164.4,20.85s-120.77-7.4-164.4-20.85c-46.06-14.19-56.43-29.21-56.43-33.36s10.37-19.16,56.43-33.36c43.63-13.44,102-20.85,164.4-20.85m0-20c-133,0-240.83,33.22-240.83,74.2s107.82,74.2,240.83,74.2,240.83-33.22,240.83-74.2-107.82-74.2-240.83-74.2h0Z"/></g><g id="Ellipse_11_copy_3-2" data-name="Ellipse 11 copy 3" class="cls-6"><path class="cls-5" d="M2799.17,769c62.39,0,120.77,7.4,164.4,20.84,46.06,14.19,56.43,29.2,56.43,33.35s-10.37,19.16-56.43,33.35c-43.63,13.44-102,20.84-164.4,20.84s-120.77-7.4-164.4-20.84c-46.06-14.19-56.43-29.2-56.43-33.35s10.37-19.16,56.43-33.35c43.63-13.44,102-20.84,164.4-20.84m0-20c-133,0-240.83,33.21-240.83,74.19s107.82,74.19,240.83,74.19S3040,864.19,3040,823.22,2932.18,749,2799.17,749h0Z"/></g><g id="B-2" data-name="B" class="cls-6"><path class="cls-5" d="M1689.31,971.3c-1.72-.69-2.11-1.64-0.51-2.1l33.92-9.59c17.18-4.85,45.26-3.25,63.34,4,13.26,5.32,12.87,12,10.33,15.69,11.51-.66,31.74-0.61,47.59,5.75,19.29,7.74,18.83,17.41,1.51,22.31l-36.11,10.2a11.05,11.05,0,0,1-6-.53ZM1769,980c5.53-1.56,4.68-5.09-2.21-7.86s-16.37-3.38-21.91-1.82l-11.36,3.21,24.12,9.68Zm48.92,18.34c5.68-1.6,5-5.17-2.09-8-6.89-2.76-18.32-3.07-24-1.46l-11.79,3.33,24.63,9.88Z"/></g><g id="C-2" data-name="C" class="cls-6"><path class="cls-5" d="M2069.78,837.64c14.56-4.12,30.67-5,51.25-3.53,2.69,0.18,4.75,1,5,1.89l2.6,8.81c0.19,0.77-1.42,1.22-3.64,1-11.07-.76-21.3,0-28.44,2-16.45,4.65-12.34,14.56,6.95,22.3,19.12,7.67,47.2,10.57,63.65,5.92,6.84-1.93,11.34-5.21,11.24-8.83,0-.7,1.88-1.24,4-1L2208,868.8c2.23,0.2,4.32,1.13,4.51,1.91,1.47,7.36-5.71,13-18.67,16.7-29.12,8.23-79.95,3.86-114.4-10S2040.66,845.87,2069.78,837.64Z"/></g><g id="D-2" data-name="D" class="cls-6"><path class="cls-5" d="M2405.55,710.47c-1.72-.69-2.11-1.64-0.65-2.05l35.52-10c28.1-7.94,78.15-3.59,111.22,9.68,33.42,13.41,37.46,30.76,9.36,38.7l-35.52,10a11.07,11.07,0,0,1-5.89-.57ZM2534,736.94c16.45-4.65,13.06-14.17-6.58-22.05-19.46-7.81-46.73-10.59-63.19-5.94l-14,4,69.76,28Z"/></g></g><g id="Bubbles_copy_2" data-name="Bubbles copy 2" class="cls-7"><g id="Ellipse_11-2" data-name="Ellipse 11"><path class="cls-5" d="M120.86,686.63c62.39,0,120.77,7.4,164.4,20.84,46.06,14.19,56.43,29.2,56.43,33.35S331.32,760,285.26,774.16C241.63,787.6,183.25,795,120.86,795S0.09,787.6-43.54,774.16C-89.6,760-100,745-100,740.81s10.37-19.16,56.43-33.35c43.63-13.44,102-20.84,164.4-20.84m0-20c-133,0-240.83,33.21-240.83,74.19S-12.15,815,120.86,815s240.83-33.21,240.83-74.19-107.82-74.19-240.83-74.19h0Z"/></g><g id="Ellipse_11_copy-2" data-name="Ellipse 11 copy"><path class="cls-5" d="M518.86,552.06c62.39,0,120.77,7.4,164.4,20.84,46.06,14.19,56.42,29.2,56.42,33.35s-10.37,19.16-56.42,33.35c-43.63,13.44-102,20.84-164.4,20.84S398.09,653,354.46,639.6C308.4,625.41,298,610.39,298,606.25s10.37-19.16,56.43-33.35c43.63-13.44,102-20.84,164.4-20.84m0-20c-133,0-240.83,33.21-240.83,74.19s107.82,74.19,240.83,74.19,240.83-33.21,240.83-74.19-107.82-74.19-240.83-74.19h0Z"/></g><g id="Ellipse_11_copy_2-3" data-name="Ellipse 11 copy 2"><path class="cls-5" d="M923.61,416.56c62.39,0,120.77,7.4,164.4,20.85,46.06,14.19,56.43,29.21,56.43,33.36s-10.37,19.16-56.43,33.36C1044.38,517.57,986,525,923.61,525s-120.77-7.4-164.4-20.85c-46.06-14.19-56.43-29.21-56.43-33.36s10.37-19.16,56.43-33.36c43.63-13.44,102-20.85,164.4-20.85m0-20c-133,0-240.83,33.22-240.83,74.2S790.6,545,923.61,545s240.83-33.22,240.83-74.2-107.82-74.2-240.83-74.2h0Z"/></g><g id="Ellipse_11_copy_3-3" data-name="Ellipse 11 copy 3"><path class="cls-5" d="M1358.17,270c62.39,0,120.77,7.4,164.4,20.84,46.06,14.19,56.42,29.2,56.42,33.35s-10.37,19.16-56.42,33.35c-43.63,13.44-102,20.84-164.4,20.84s-120.77-7.4-164.4-20.84c-46.06-14.19-56.43-29.2-56.43-33.35s10.37-19.16,56.43-33.35c43.63-13.44,102-20.84,164.4-20.84m0-20c-133,0-240.83,33.21-240.83,74.19s107.82,74.19,240.83,74.19S1599,365.19,1599,324.22,1491.18,250,1358.17,250h0Z"/></g><g id="B-3" data-name="B"><path class="cls-5" d="M248.31,472.3c-1.72-.69-2.11-1.64-0.51-2.1l33.92-9.59c17.18-4.85,45.25-3.25,63.34,4,13.26,5.32,12.86,12,10.33,15.69,11.51-.66,31.74-0.61,47.59,5.75,19.29,7.74,18.83,17.41,1.51,22.31l-36.11,10.2a11,11,0,0,1-6-.53ZM328,481c5.53-1.56,4.68-5.09-2.21-7.86s-16.37-3.38-21.91-1.82l-11.36,3.21,24.12,9.68Zm48.92,18.33c5.68-1.6,5-5.17-2.09-8-6.89-2.76-18.32-3.07-24-1.46l-11.79,3.33,24.63,9.88Z"/></g><g id="C-3" data-name="C"><path class="cls-5" d="M628.78,338.64c14.56-4.11,30.67-5,51.25-3.53,2.69,0.18,4.76,1,5,1.89l2.6,8.81c0.19,0.77-1.41,1.22-3.64,1-11.07-.76-21.31,0-28.44,2-16.45,4.65-12.34,14.56,7,22.3,19.12,7.67,47.2,10.58,63.65,5.93,6.84-1.93,11.34-5.21,11.24-8.83,0-.7,1.88-1.24,4-1L767,369.8c2.22,0.2,4.32,1.14,4.51,1.91,1.47,7.36-5.71,13-18.67,16.7-29.12,8.23-79.95,3.86-114.4-10S599.66,346.87,628.78,338.64Z"/></g><g id="D-3" data-name="D"><path class="cls-5" d="M964.55,211.47c-1.72-.69-2.11-1.64-0.65-2.05l35.52-10c28.1-7.94,78.15-3.59,111.22,9.68,33.42,13.41,37.46,30.76,9.36,38.7l-35.52,10a11.08,11.08,0,0,1-5.89-.57Zm128.5,26.47c16.45-4.65,13.06-14.18-6.58-22.06-19.46-7.81-46.73-10.59-63.19-5.94l-14,4,69.76,28Z"/></g></g><g id="Fill_copy" data-name="Fill copy" class="cls-8"><g id="Fill_copy-2" data-name="Fill copy"><path class="cls-9" d="M1489.4,720l4.23,0.22C1485.6,716.56,1483,715.71,1489.4,720Zm-8.45,29.47c45.25,20.21,46.31-5.32,13.55-26.15-2.11-1.34-3.79-2.43-5.11-3.32L1443,717.6C1431.14,716.05,1435.7,729.26,1480.95,749.47Zm97.2,7.35c39.61,14,3.91-9.59-34.13-34l-50.39-2.61C1509.63,727.51,1547.19,745.91,1578.15,756.82ZM1625.29,727L1584,724.89c25,9.78,50.78,19.57,68.11,24.57C1692,761,1659.34,743.81,1625.29,727Zm0.16-24.14c-31.55-7.72-66.51-8.27-29.53,9.8,8.6,4.2,19.05,9.25,29.37,14.34l70.3,3.64C1682,721.45,1657,710.61,1625.45,702.89Zm-109.73,1.74c8.78,5.72,18.62,12,28.3,18.2l39.94,2.07C1534,705.35,1486.87,685.85,1515.72,704.63Z"/></g></g><g id="Fill_copy_2" data-name="Fill copy 2" class="cls-10"><g id="Fill_copy_2-2" data-name="Fill copy 2"><path class="cls-9" d="M29.4,732l4.23,0.22C25.6,728.56,23,727.71,29.4,732Zm-8.45,29.46c45.25,20.21,46.31-5.32,13.55-26.15C32.4,734,30.71,732.88,29.4,732L-17,729.6C-28.86,728.05-24.3,741.26,20.95,761.47Zm97.2,7.35c39.61,14,3.91-9.59-34.13-34l-50.39-2.61C49.63,739.51,87.19,757.91,118.15,768.82ZM55.72,716.63c8.78,5.72,18.62,12,28.3,18.2L124,736.89C74,717.35,26.87,697.85,55.72,716.63Zm109.73-1.74c-31.55-7.72-66.51-8.27-29.53,9.81,8.6,4.2,19.05,9.25,29.37,14.34l70.3,3.64C222,733.45,197,722.61,165.45,714.89ZM165.3,739L124,736.89c25,9.78,50.77,19.57,68.11,24.57C232,773,199.34,755.81,165.3,739Z"/></g></g><g id="Shape_44" data-name="Shape 44" class="cls-11"><g id="Shape_44-2" data-name="Shape 44"><polygon class="cls-3" points="2891 -4 2338 191 1556 711 1998.02 639.81 3199 175 2891 -4"/></g></g><g id="Pencil"><g id="Wood_tip" data-name="Wood tip"><polygon class="cls-12" points="1800.17 287.24 1710.45 354.77 1554.44 712.88 1919.23 572.37 1997.3 488.43 1800.17 287.24"/></g><g id="Lead_tip" data-name="Lead tip"><path class="cls-13" d="M1642.68,616.23c-14.85-13.14-38.94-16.23-38.94-16.23l-51.12,114.17L1671,668.51S1668.48,639,1642.68,616.23Z"/></g><g id="Highlight"><path class="cls-14" d="M2431.46-340.81l-722,695.74s40-9.4,76.62.78c35.83,10,68.25,39.52,68.25,39.52L2703.9-385Z"/></g><g id="Mid"><path class="cls-15" d="M2697.2-389.07L1853,393.4s35.26,27.72,55.9,60.08c17.93,28.12,21.62,61.49,21.62,61.49l1005-932.87Z"/></g><g id="Shadow"><polygon class="cls-16" points="2918.03 -420.25 1932.24 512.68 1918.39 573.51 3022.87 -429.4 2918.03 -420.25"/></g></g></g></svg>