<?xml version="1.0" encoding="utf-8"?>
<!-- Generator: Adobe Illustrator 19.2.0, SVG Export Plug-In . SVG Version: 6.00 Build 0)  -->
<svg version="1.1" xmlns="http://www.w3.org/2000/svg" xmlns:xlink="http://www.w3.org/1999/xlink" x="0px" y="0px"
	 viewBox="0 0 360 360" style="enable-background:new 0 0 360 360;" xml:space="preserve">
<metadata><?xpacket begin="﻿" id="W5M0MpCehiHzreSzNTczkc9d"?>
<x:xmpmeta xmlns:x="adobe:ns:meta/" x:xmptk="Adobe XMP Core 5.6-c111 79.158366, 2015/09/25-01:12:00        ">
   <rdf:RDF xmlns:rdf="http://www.w3.org/1999/02/22-rdf-syntax-ns#">
      <rdf:Description rdf:about=""
            xmlns:ExtensisFontSense="http://www.extensis.com/meta/FontSense/">
         <ExtensisFontSense:slug>
            <rdf:Bag>
               <rdf:li>
                  <rdf:Description>
                     <ExtensisFontSense:Family>Brandon Grotesque</ExtensisFontSense:Family>
                     <ExtensisFontSense:Version>001.000</ExtensisFontSense:Version>
                     <ExtensisFontSense:OutlineFileSize>0</ExtensisFontSense:OutlineFileSize>
                     <ExtensisFontSense:KerningChecksum>0</ExtensisFontSense:KerningChecksum>
                     <ExtensisFontSense:Foundry>--</ExtensisFontSense:Foundry>
                     <ExtensisFontSense:FontKind>OpenType - PS</ExtensisFontSense:FontKind>
                     <ExtensisFontSense:Checksum>1221546243</ExtensisFontSense:Checksum>
                     <ExtensisFontSense:PostScriptName>BrandonGrotesque-Regular</ExtensisFontSense:PostScriptName>
                     <ExtensisFontSense:FontSense_1.2_Checksum>1221546243</ExtensisFontSense:FontSense_1.2_Checksum>
                  </rdf:Description>
               </rdf:li>
            </rdf:Bag>
         </ExtensisFontSense:slug>
      </rdf:Description>
   </rdf:RDF>
</x:xmpmeta>
                                                                                                    
                                                                                                    
                                                                                                    
                                                                                                    
                                                                                                    
                                                                                                    
                                                                                                    
                                                                                                    
                                                                                                    
                                                                                                    
                                                                                                    
                                                                                                    
                                                                                                    
                                                                                                    
                                                                                                    
                                                                                                    
                                                                                                    
                                                                                                    
                                                                                                    
                                                                                                    
                           
<?xpacket end="w"?></metadata>
<style type="text/css">
	.st0{display:none;}
	.st1{display:inline;fill:#A00404;}
	.st2{fill:#FFFFFF;}
	.st3{display:inline;fill:#FFFFFF;}
	.st4{font-family:'BrandonGrotesque-Regular';}
	.st5{font-size:252.4486px;}
	.st6{enable-background:new    ;}
	.st7{display:inline;}
</style>
<g id="Layer_1">
	<g id="Layer_3" class="st0">
		<rect x="-95" y="-72" class="st1" width="554" height="469"/>
	</g>
	<g id="Layer_1_1_">
		<title>plus</title>
		<path class="st2" d="M180.5,0C279.7,0.2,360.2,81.1,360,180.4c-0.2,99.5-81.1,179.9-180.7,179.6C79.9,359.8-0.3,278.7,0,178.9
			C0.3,80.1,81.3-0.2,180.5,0z M180,338.3c87.3,0.1,158.2-70.6,158.3-158c0-0.1,0-0.2,0-0.2c0.1-87.3-70.6-158.3-157.9-158.4
			c-0.1,0-0.1,0-0.2,0C92.9,21.5,21.9,92.1,21.7,179.5c0,0.2,0,0.5,0,0.7c0,87.3,70.8,158.1,158.2,158.1
			C179.9,338.3,179.9,338.3,180,338.3z"/>
	</g>
	<g id="Layer_4" class="st0">
		<text transform="matrix(1 0 0 1 134.479 269.6738)" class="st3 st4 st5">1</text>
	</g>
	<g id="Layer_5" class="st0">
		<text transform="matrix(1 0 0 1 113.915 268.4092)" class="st3 st4 st5">2</text>
	</g>
	<g id="Layer_6">
		<g class="st6">
			<path class="st2" d="M129.5,242.4l6.8-5.8c2.8-2,4.8-1.5,6.8,1.3c2.3,2.8,15.9,17.4,37.6,17.4c19.2,0,36.4-11.6,36.4-31.6
				c0-17.2-13.4-33.1-44.7-33.1h-14.1c-2.8,0-4.8-1.5-4.8-5.6V179c0-4,1.3-5.6,5.3-5.6h13.9c27,0,40.1-13.9,40.1-30.5
				c0-19.9-15.1-32.1-33.1-32.1c-17.2,0-27.5,10.1-33.1,16.4c-1.5,1.8-4,2.8-6.6,0.5L134,123c-2-1.8-1.8-4.8,0-6.6
				c0,0,18.2-22.2,45.7-22.2c30.5,0,52,17.9,52,46.2c0,19.4-14.6,34.6-26,39.9v0.8c11.9,5,30.3,19.2,30.3,40.9c0,27.5-21.2,49-56,49
				c-31.1,0-45.2-16.2-50.7-22.5C127.7,246.7,127.4,243.9,129.5,242.4z"/>
		</g>
	</g>
	<g id="Layer_7" class="st0">
		<text transform="matrix(1 0 0 1 101.0312 268.4092)" class="st3 st4 st5">4</text>
	</g>
	<g id="Layer_2" class="st0">
		<path class="st3" d="M166.8,53.8v100.1h96.9v21.8H167V269h-21.7v-93h-97v-21.8H145V53.8H166.8L166.8,53.8z"/>
	</g>
</g>
<g id="Layer_2_1_" class="st0">
	<g id="Layer_6_1_" class="st7">
		<text transform="matrix(1 0 0 1 117.3335 268.4092)" class="st2 st4 st5">3</text>
	</g>
</g>
</svg>
