<?xml version="1.0" encoding="utf-8"?>
<!-- Generator: Adobe Illustrator 19.2.1, SVG Export Plug-In . SVG Version: 6.00 Build 0)  -->
<svg version="1.1" id="Layer_1" xmlns="http://www.w3.org/2000/svg" xmlns:xlink="http://www.w3.org/1999/xlink" x="0px" y="0px"
	 viewBox="0 0 40 40" style="enable-background:new 0 0 40 40;" xml:space="preserve">
<style type="text/css">
	.st0{fill:#FFFFFF;}
</style>
<g>
	<path class="st0" d="M24.9,31.4H5.4c-2.7,0-4.9-2.2-4.9-4.9v-13c0-2.7,2.2-4.9,4.9-4.9h19.5c2.7,0,4.9,2.2,4.9,4.9v13
		C29.7,29.2,27.5,31.4,24.9,31.4z M5.4,11.9c-0.9,0-1.6,0.7-1.6,1.6v13c0,0.9,0.7,1.6,1.6,1.6h19.5c0.9,0,1.6-0.7,1.6-1.6v-13
		c0-0.9-0.7-1.6-1.6-1.6H5.4z M37.8,31.4c-0.3,0-0.7-0.1-1-0.3l-6.1-4.5h-2.7c-0.9,0-1.6-0.7-1.6-1.6v-9.7c0-0.9,0.7-1.6,1.6-1.6
		h2.7L36.9,9c0.5-0.4,1.1-0.4,1.7-0.2c0.5,0.3,0.9,0.8,0.9,1.5v19.5c0,0.6-0.3,1.2-0.9,1.5C38.3,31.3,38.1,31.4,37.8,31.4z
		 M29.7,23.2h1.6c0.4,0,0.7,0.1,1,0.3l3.9,2.9v-13l-3.9,2.9c-0.3,0.2-0.6,0.3-1,0.3h-1.6V23.2z"/>
</g>
</svg>
