<?xml version="1.0" encoding="utf-8"?>
<!-- Generator: Adobe Illustrator 19.2.0, SVG Export Plug-In . SVG Version: 6.00 Build 0)  -->
<svg version="1.1" xmlns="http://www.w3.org/2000/svg" xmlns:xlink="http://www.w3.org/1999/xlink" x="0px" y="0px"
	 viewBox="0 0 469.6 342" style="enable-background:new 0 0 469.6 342;" xml:space="preserve">
<style type="text/css">
	.st0{fill:#D74827;}
	.st1{fill:#AD3427;}
	.st2{fill:#48126A;stroke:#93FFFD;stroke-width:5;stroke-miterlimit:10;}
	.st3{fill:none;stroke:#128F12;stroke-linecap:round;stroke-miterlimit:10;}
	.st4{fill:#F36F21;}
	.st5{fill:none;stroke:#F36F21;stroke-width:1.87;stroke-linecap:round;stroke-miterlimit:10;}
	.st6{fill:#58C6F2;}
	.st7{fill:none;}
	.st8{fill:#5B658E;}
	.st9{fill:#48126A;}
	.st10{fill:none;stroke:#72361C;stroke-width:45;stroke-miterlimit:10;}
	.st11{fill:none;stroke:#682617;stroke-width:3;stroke-miterlimit:10;stroke-dasharray:11.8426,11.8426;}
	.st12{fill:#FBB03B;}
	.st13{fill:#B2341F;}
	.st14{fill:#F4940B;}
	.st15{fill:#288EAD;}
	.st16{fill:#D10257;}
</style>
<g id="Layer_3">
	<rect x="-473.2" y="117.5" class="st0" width="1366" height="181.3"/>
	<polygon class="st0" points="656.3,79.8 -327.1,79.8 -360.5,117.5 699.1,117.5 	"/>
</g>
<g id="Layer_1">
	<polygon class="st1" points="479.2,153.7 -52,153.7 -79.6,60.8 500.8,60.8 	"/>
	<g>
		<circle class="st2" cx="170.1" cy="96.7" r="28.4"/>
		<path class="st3" d="M188.8,109l-8-4.6 M191.1,103.4l-9-2.2 M191.6,97.4l-9.2,0.2 M190.6,91.4l-8.7,3 M188.1,86.1l-7.8,5
			 M183.9,81.6l-6,7 M178.9,78.3l-3.8,8.4 M172.9,76.6l-1.2,9.2 M166.9,76.7l1.2,9.2 M161.1,78.4l3.8,8.4 M155.9,81.6l6,7
			 M151.9,86.2l7.8,5 M149.4,91.5l8.7,3 M148.4,97.6l9.2,0.2 M149.1,103.5l9-2.2 M151.4,109.1l7.9-4.7"/>
		<circle class="st4" cx="170.9" cy="97.8" r="2.2"/>
		<line class="st5" x1="170.9" y1="97.8" x2="183.9" y2="77.4"/>
	</g>
	<circle class="st2" cx="245.5" cy="96.7" r="20.1"/>
	<circle class="st4" cx="245.9" cy="97.5" r="1.6"/>
	<line class="st5" x1="245.9" y1="97.5" x2="252" y2="85.8"/>
	<g>
		<path class="st6" d="M236.4,98.3c0-0.1,0.1-0.2,0.2-0.2h3.8c0.1,0,0.2,0.1,0.2,0.2v1c0,0.1-0.1,0.2-0.2,0.2h-2.5v1.1h2.1
			c0.1,0,0.2,0.1,0.2,0.2v1c0,0.1-0.1,0.2-0.2,0.2h-2.1v1.2h2.5c0.1,0,0.2,0.1,0.2,0.2v1c0,0.1-0.1,0.2-0.2,0.2h-3.8
			c-0.1,0-0.2-0.1-0.2-0.2V98.3z"/>
	</g>
	<g>
		<path class="st6" d="M251.2,98.3c0-0.1,0.1-0.2,0.2-0.2h3.8c0.1,0,0.2,0.1,0.2,0.2v1c0,0.1-0.1,0.2-0.2,0.2h-2.5v1.3h2.1
			c0.1,0,0.2,0.1,0.2,0.2v1c0,0.1-0.1,0.2-0.2,0.2h-2.1v2.2c0,0.1-0.1,0.2-0.2,0.2h-1.1c-0.1,0-0.2-0.1-0.2-0.2L251.2,98.3
			L251.2,98.3z"/>
	</g>
	<g id="Layer_6_1_">
		<g>
			<rect x="43.4" y="-77.5" class="st7" width="370.1" height="282.8"/>
			<g>
				<g>
					<path class="st8" d="M378.8,171.6c-0.4,91.8-74.6,165.7-166.2,165.6c-92.5-0.2-166-75.1-165.5-168.6
						c0.5-90,76.3-163.5,168.1-163C305.6,6,379.2,80.6,378.8,171.6z M159.4,200.2c-1.6,0-3.9,0.1-6.3,0c-20.5-1.2-41-2.5-61.5-3.7
						c-6.6-0.4-7.1,0.4-5.3,6.6c14.3,49.8,46.1,82.1,96.4,95.5c7,1.9,8,1.2,8-6c-0.1-19.2-0.2-38.3-0.2-57.5c0-8.2,0.1-8.4,7.8-6.3
						c9.9,2.6,19.8,2.9,29.8,0c7.5-2.2,7.9-1.9,7.9,6.2c0,19.2,0,38.3,0,57.5c0,7.4,0.8,8.2,7.9,6.3c49.1-13.5,80.6-45.2,95.7-93.6
						c0.8-2.7,1-5.6,1.6-9.4c-25.7,1.6-50.6,3.2-76.6,4.9c11-21.8,9.8-42.2-1.8-62.7c3.1,0,5.3-0.1,7.4,0
						c20.9,1.3,41.8,2.7,62.7,3.9c7.3,0.4,7.9-0.7,5.9-7.7c-8.1-27.5-24.2-49.4-46.4-67c-23.1-18.4-49.5-27.7-79-26.8
						C152,42.3,108,75.4,88.3,133.9c-2.6,7.6-2.1,8.4,5.8,8c20.7-1.2,41.4-2.6,62.1-3.8c2-0.1,4,0.2,5.2,0.2
						c-2.3,10.7-6,20.8-6.3,30.9C154.9,179.2,157.9,189.5,159.4,200.2z M309.5,169.4c0-7.8-6.1-14-13.7-14.2
						c-7.8-0.2-14.7,6.4-14.8,14c-0.1,7.5,6.7,14.4,14.3,14.5C303,183.8,309.5,177.4,309.5,169.4z M145.6,169.3
						c0-7.8-6.6-14.2-14.5-14.1c-7.7,0-13.9,6.3-14,14c-0.1,7.8,6.5,14.5,14.1,14.6C138.8,183.7,145.6,176.9,145.6,169.3z
						 M109.4,169.6c0.1-6-4.8-10.9-10.8-11c-5.7-0.1-10.9,4.8-10.9,10.3c-0.1,5.8,5,11.3,10.7,11.4
						C104.4,180.4,109.2,175.7,109.4,169.6z M338.6,169.6c0-5.7-4.9-10.9-10.3-11c-5.9-0.2-11.4,5.3-11.4,11.3
						c0,5.7,4.7,10.3,10.6,10.5C333.6,180.5,338.6,175.6,338.6,169.6z"/>
					<path class="st9" d="M262,172.2c0,27.1-21.7,48.7-49,48.7c-26.8,0-48.4-21.8-48.3-48.8c0.1-26.6,21.8-48.1,48.4-48.2
						C240.2,124,262,145.5,262,172.2z M213.4,152c-11.9,0-20.8,8.7-20.7,20.3s9.1,20.5,20.7,20.4c11.2,0,20.4-8.9,20.6-20
						C234.2,161.4,224.9,152,213.4,152z"/>
					<circle class="st10" cx="212.9" cy="170.8" r="147.7"/>
					<g>
						<circle class="st11" cx="212.9" cy="170.8" r="139.5"/>
					</g>
				</g>
				<circle class="st12" cx="213.4" cy="172.7" r="21.2"/>
				<g>
					<path class="st13" d="M230.6,164.5c-1.3,2.2-2.4,4.3-3.6,6.2c-0.4,0.7-0.4,1.2,0.1,1.9c1.2,1.7,2.3,3.4,3.5,5.2
						c-15.5,2.6-8.4,1.3-23.9,3.9c0-4.5,0-8.9,0-13.3C222.1,165.9,215.1,167.1,230.6,164.5z"/>
					<path class="st13" d="M196.2,166.6c5.1-1,10-2,15-3l0.1,0.1c-0.4,0.3-0.9,0.6-1.3,0.9c-1.2,0.8-2.3,1.6-3.5,2.4
						c-0.5,0.3-0.6,0.7-0.6,1.2c0,3.1,0,6.2,0,9.4c-2.6,0.5-5.1,1-7.8,1.5c0.3-1.2,0.6-2.3,0.9-3.4c0.3-1,0.6-2.1,0.8-3.1
						c0.1-0.3,0-0.8-0.2-1.1C198.4,169.9,197.4,168.4,196.2,166.6z"/>
					<path class="st13" d="M207.1,167.5c1.4-1,2.9-1.9,4.4-2.9c0,0.8,0,1.6,0,2.4c-1.4,0.2-2.9,0.5-4.3,0.7
						C207.2,167.6,207.2,167.6,207.1,167.5z"/>
				</g>
				<g>
					<path class="st14" d="M217.4,168.9c1.1-0.1,2.4,0.3,3.3,1c0.1,0.1,0.2,0.2,0.1,0.4l-0.9,1.2c-0.1,0.1-0.2,0.1-0.4,0
						c-0.5-0.4-1.1-0.5-1.8-0.5c-1.4,0.1-2.5,1.4-2.4,2.9c0.1,1.4,1.4,2.5,2.8,2.4c0.4,0,0.8-0.1,1.2-0.3l-0.1-0.8l-0.8,0.1
						c-0.1,0-0.3-0.1-0.3-0.2l-0.1-1.3c0-0.1,0.1-0.3,0.2-0.3l2.6-0.2c0.1,0,0.2,0.1,0.3,0.2l0.3,3.5c0,0.1,0,0.2-0.1,0.2
						c0,0-1.3,1-3.2,1.1c-2.6,0.2-4.9-1.7-5.1-4.3C212.8,171.4,214.6,169.1,217.4,168.9z"/>
				</g>
			</g>
		</g>
	</g>
	<g id="Layer_8_1_">
	</g>
</g>
<g id="Layer_4">
	<g>
		<path class="st15" d="M406.8,158.9c0.9,0,1.8,0,2.8,0.1c-0.4-0.4-0.6-0.7-0.9-1c-0.1-0.2-0.3-0.3-0.3-0.5c0.2-1.1-0.6-1.5-1.3-2
			c-6.4-5.2-5.3-16,2.1-19.7c0.1-0.1,0.3-0.1,0.5-0.1c-3.1,4.1-4,8.6-2.6,13.5s4.6,8.2,9.4,10.1c-0.2,1.3-0.5,2.6-0.7,3.9
			c-1.3,6.9-2.6,13.8-3.8,20.7c-0.2,0.8-0.4,1.3-1.3,1.6c-0.6,0.2-1.1,0.4-1.7,0.7c-1.4-2.3-2.8-4.6-4.3-7c0.3-0.1,0.5-0.1,0.6-0.1
			c1.1-0.2,1.3-0.5,1.2-1.6c0-0.3-0.4-0.6-0.6-0.7c-1.5-0.6-1.8-1.6-1.4-3.1c0.2-0.8,0.5-1.5,1.4-1.7c0.4-0.1,0.8-0.3,1.3-0.5
			c-0.5-0.7-1.1-1.3-1.5-2c-0.2-0.4-0.3-0.9-0.3-1.3c-0.1-1.5,0.7-2.4,2.2-2.6c0.4-0.1,0.7-0.3,1.1-0.4c-0.7-0.9-1.4-1.7-2-2.5
			c-0.2-0.3-0.3-0.8-0.3-1.2C406.5,160.4,406.6,159.7,406.8,158.9z"/>
		<circle class="st2" cx="407.8" cy="121.4" r="15.4"/>
		<path class="st6" d="M434.4,183c-2.4-1.4-4.6-2.8-6.9-4.2c0.2-0.2,0.2-0.3,0.4-0.4c0.9-0.5,1-1.1,0.4-1.9
			c-0.2-0.2-0.5-0.5-0.8-0.5c-2.1-0.2-2.1-0.2-2.8-2.2c-0.3-0.8-0.3-1.4,0.4-2c0.3-0.3,0.6-0.6,0.9-1.1c-0.8-0.4-1.4-0.7-2.1-1
			c-0.5-0.2-0.8-0.6-1-1.1c-0.6-1.3-0.4-2.4,0.8-3.3c0.3-0.2,0.5-0.5,0.8-0.9c-1-0.5-2-0.9-2.9-1.3c-0.5-0.2-0.8-0.5-0.9-1
			c-0.2-0.7-0.5-1.4-0.8-2.1c0.9-0.4,1.7-0.8,2.7-1.3c-0.5-0.2-0.8-0.3-1.1-0.4c-0.3-0.1-0.6-0.2-0.7-0.4c-0.3-0.9-1.1-1-1.8-1.1
			c-5.2-1.1-9.1-5.6-9.5-11c-0.4-5.3,2.6-10,7.5-11.8c1.2-0.4,2.6-0.6,4-0.9c-0.1-3.3-1.5-6.1-4.2-8.1c-5.4-3.8-12.5-2-15.4,3.9
			c-1.5,3.2-1.3,6.4,0.5,9.4c0.4,0.7,0.5,1.2,0.1,1.9c-0.2,0.3-0.3,0.7-0.6,1.2c-0.2-0.2-0.4-0.4-0.5-0.6
			c-3.4-4.3-3.6-10.7-0.3-14.9c3.5-4.7,9.5-6.5,14.7-4.4c5,2,7.6,5.8,8,11.1c0,0.6,0.2,0.9,0.8,1.1c4.4,1.4,7.1,4.4,8.2,8.9
			c1,4.3-0.1,8-3.4,11c-0.5,0.4-0.3,0.8-0.2,1.2c2.5,8.3,4.9,16.5,7.5,24.8c0.2,0.7,0.2,1.2-0.4,1.8S434.8,182.5,434.4,183z
			 M420.3,136.8c-1.9-0.5-3.6,0.5-4.2,2.3c-0.6,1.7,0.2,3.8,1.8,4.7s3.6,0.3,4.7-1.2c0.9-1.3,0.8-3.5-0.3-4.3
			c-0.5,0.9-1,1.8-1.6,2.7c-0.5,0.7-1.1,0.8-1.7,0.4c-0.6-0.5-0.6-1.1-0.1-1.8C419.4,138.6,419.8,137.7,420.3,136.8z"/>
		<path class="st16" d="M407.8,131.8L407.8,131.8c-1.4,0-2.6-1.2-2.6-2.6v-15.5c0-1.4,1.2-2.6,2.6-2.6l0,0c1.4,0,2.6,1.2,2.6,2.6
			v15.5C410.4,130.6,409.3,131.8,407.8,131.8z"/>
	</g>
</g>
<g id="Layer_2">
</g>
</svg>
